<?xml version="1.0" standalone="no"?>
<!DOCTYPE svg PUBLIC "-//W3C//DTD SVG 1.1//EN" "http://www.w3.org/Graphics/SVG/1.1/DTD/svg11.dtd" >
<svg xmlns="http://www.w3.org/2000/svg" xmlns:xlink="http://www.w3.org/1999/xlink" version="1.1">
<metadata></metadata>
<defs>
<font id="fabularegular" horiz-adv-x="0" >
<font-face units-per-em="2048" ascent="1536" descent="-512" />
<missing-glyph horiz-adv-x="614" />
<glyph />
<glyph horiz-adv-x="682" />
<glyph />
<glyph />
<glyph />
<glyph unicode="&#x9;" />
<glyph unicode="&#xa;" />
<glyph unicode="&#xd;" horiz-adv-x="614" />
<glyph unicode=" "  horiz-adv-x="614" />
<glyph unicode="&#x09;" horiz-adv-x="614" />
<glyph unicode="&#xa0;" horiz-adv-x="614" />
<glyph unicode="!" horiz-adv-x="317" d="M70 92q0 38 27 65t67 27q38 0 65 -27t27 -65q0 -40 -27 -67t-65 -27q-40 0 -67 27t-27 67zM86 629v88v624v19q0 31 21.5 52.5t52.5 21.5q32 0 55 -23t23 -57v-6v-619v-98v-170v-23v-168q0 -9 -7 -16.5t-16 -7.5h-109q-7 0 -12.5 6t-5.5 14v43v127v88zM238 1434l8 -2 q36 -27 39 -250l2 -936h-17v1050l-7 79q-9 63 -25 59zM244 -2q2 1 4.5 2.5t9.5 8.5t12.5 16.5t10.5 27t6 39.5q0 8 -1 20.5t-12 37.5t-30 34q2 0 6 -1t13.5 -7t16.5 -15t13 -27t6 -42q-1 -9 -3 -22t-16 -38.5t-36 -33.5z" />
<glyph unicode="&#x22;" horiz-adv-x="530" d="M16 1198v19q0 31 21.5 52t52.5 21q32 0 55 -23t23 -57v-6l-10 -430l-127 -2zM352 1196v18q0 31 21.5 52.5t52.5 21.5q32 0 55 -23t23 -57v-6l-10 -430l-127 -2z" />
<glyph unicode="#" horiz-adv-x="1476" d="M31 479q0 23 18.5 41t48.5 19q6 0 54.5 -10t58.5 -11h96l86 430h-69h-31q-57 0 -103 30.5t-34 88.5q7 33 43.5 45t70.5 2h2q13 -4 27 -6.5t21 -3.5h8l94 -2l67 289l5 30q2 2 2 9q12 56 60 84.5t103 11.5h3q21 -8 24 -15q8 -4 10 -6q8 -7 13 -16t7 -14l1 -5q1 -7 -4 -13.5 t-10 -9.5l-5 -3q-7 -4 -20 -20t-19 -19q-12 -27 -81 -301l350 12l63 275l6 30q2 2 2 9q11 56 59 84.5t103 11.5h4q20 -10 25 -15q1 -1 4 -3t4 -3q7 -7 12.5 -16t7.5 -14l1 -5q1 -7 -3.5 -13.5t-9.5 -9.5l-4 -3q-26 -13 -39 -39q-14 -24 -60 -210q-11 -45 -18 -71h19h18h156 h31h8q57 1 95.5 -39.5t33.5 -97.5v-4q-1 -5 -2 -14t-2 -13q-4 -8 -6 -10q-5 -10 -13 -16.5t-13 -7.5l-5 -2q-7 -3 -13 -1t-10 7l-4 4q-15 18 -49 28l-55 9l-152 2l-67 -2l-80 -430h12h17h157h29h12q56 2 94 -37.5t31 -93.5v-7q0 -10 -4 -26q-1 -2 -3 -5.5t-3 -5.5 q-5 -9 -12.5 -16.5t-12.5 -10.5l-4 -3q-7 -2 -14 1t-10 7l-4 4q-14 19 -46 31h-2q-8 2 -16.5 3.5t-15.5 2t-12 0.5h-8h-3l-153 4l-64 -2l-53 -242q-1 -7 -4 -16.5t-4 -13.5v-9q-12 -57 -60.5 -86t-101.5 -12l-4 2q-8 1 -35 19q-8 7 -13 15.5t-5 13.5l-1 5q-1 7 3.5 14 t9.5 10l4 3q22 8 37 39l2 2q6 11 11 24t7 20l2 7l45 199l-346 -12l-53 -224q-4 -24 -4 -30l-2 -9q-12 -57 -59.5 -86t-100.5 -12l-4 2q-15 3 -35 19q-7 7 -12 15.5t-6 13.5l-2 5q-1 7 4 14t10 10l6 3q20 8 35 39l2 2q6 11 10.5 24t6.5 20l1 7l48 187h-72h-31 q-71 -4 -109 32.5t-36 81.5zM469 518h53l289 12l86 431l-348 -13zM903 12q11 11 29 76.5t30 125.5l13 60l12 72h19l-23 -102q-54 -224 -80 -232zM1036 567l15 74l55 297h14l-57 -297l-16 -74h-11zM1143 1153q58 253 88 274q-10 -11 -28.5 -79.5t-32.5 -131.5l-13 -63h-14z " />
<glyph unicode="$" horiz-adv-x="1011" d="M24.5 233q1.5 31 13.5 53l13 21q12 19 28 29t26 10h10q7 -1 12.5 -6.5t7.5 -10.5l2 -5q8 -45 45 -66q136 -77 238 -86l2 367l2 82l-2 70v28q-13 3 -78 14q-84 17 -145 60t-92.5 100.5t-42.5 125t0 136t40 131.5q28 49 43 73t42 57t52.5 50.5t64.5 34t89 25.5q20 4 31 4 v55l2 12q1 64 40 73q30 7 50 -21q13 -19 12 -43v-7l-2 -65q74 -5 146.5 -30.5t109.5 -48t86 -56.5q16 -9 25 -25q22 -34 21 -64.5t-14 -51.5l-13 -21q-11 -19 -27 -29t-26 -10h-11q-8 2 -13 8t-6 12l-1 5q-48 74 -122.5 113.5t-154.5 39.5l-2 -338l2 -90l-2 -106 q25 -8 50.5 -14t37.5 -8l13 -3q71 -23 125 -61.5t85.5 -83.5t50.5 -95t22.5 -99.5t-1.5 -91.5t-18 -75q-42 -120 -126.5 -186t-215.5 -92q-20 -4 -29 -4v-52l2 -8q0 -45 -38 -57q-32 -10 -52 13q-11 12 -10 30l-2 12v56q-191 7 -348 120q-10 8 -27 25q-22 34 -20.5 65z M254 1087q3 -124 170 -204v475q-78 -28 -125.5 -98t-44.5 -173zM287 1154q12 62 55 110q29 29 49 39q6 -6 8 -7q1 0 3.5 -1t3.5 -1q-21 -14 -37.5 -31t-27 -33.5t-16.5 -29t-10 -24.5l-4 -11q-17 -138 78 -211q-2 -4 -2 -12v-2q-52 24 -86 94q-26 58 -14 120zM520 174 q48 10 87.5 37t61.5 57.5t37 59.5t20 48l5 19q7 111 -51.5 181.5t-155.5 109.5v-53l-2 -94zM537 -100q6 -2 11 9t8.5 29t5.5 35.5t3 32.5q1 0 3 1t3 1q-10 -115 -31 -110zM547 1679h7q20 -11 28 -104v-2h-9q-2 35 -9.5 72t-16.5 34zM567 229l2 369v2q7 -3 17 0v-4 q0 -258 -2 -373q-6 6 -17 6zM571 883l2 110l2 330l13 -6q0 -52 -1 -162t-1 -162v-112q-3 0 -8 1t-7 1zM752 39q9 4 23 13t50.5 41t64 69t50.5 99.5t23 131.5q0 59 -3 105.5t-11.5 81.5t-15.5 58t-23 46.5t-25 34.5t-31.5 34t-32.5 35q4 -1 10 -3t23.5 -12.5t33 -25.5 t35 -43.5t33.5 -64.5t23.5 -91.5t9.5 -121.5t-13 -122.5t-34 -95t-46 -69.5t-50.5 -49t-46.5 -30t-34 -16z" />
<glyph unicode="&#x26;" horiz-adv-x="1185" d="M71 364q-8 67 11 129t47.5 120.5t65 106.5t67.5 84.5t52 56.5l22 20q2 3 -17 30.5t-46.5 68t-53 96t-40.5 110t-5.5 114t49.5 105.5q44 50 95.5 81t93.5 38.5t78 8t56 -4.5l21 -6q9 -6 23.5 -16t50 -46t59 -75.5t35.5 -101.5t-4.5 -127t-77 -150t-166.5 -172 q20 -27 56 -72t137.5 -156.5t191.5 -189.5q13 25 24.5 53t19 49.5t16 44.5t14.5 38.5t15 30.5t17.5 20t21.5 8t28 -5q-13 -186 -76 -311q21 -13 56 -41t65 -47.5t60 -28.5q3 -1 8 -3.5t15 -10.5t14.5 -18t-1 -27t-24.5 -35q-97 27 -236 123q-30 -63 -73 -110.5t-88.5 -74 t-94 -43.5t-90.5 -21.5t-76 -6t-53 1.5l-20 2q-117 48 -194 108.5t-109 122.5t-40 129zM207 361.5q10 -76.5 51.5 -122t87.5 -69.5t82 -32l37 -7q202 -38 352 193q-221 175 -414 454q-33 -18 -62.5 -48t-48 -60t-33 -58t-20.5 -46l-6 -17q-36 -111 -26 -187.5zM305.5 1180.5 q17.5 -62.5 43 -120.5t50.5 -95l25 -37q67 36 111 83.5t59 90.5t21 81t3 61l-4 22q-13 57 -41.5 91.5t-60 42t-61.5 7.5t-49 -7l-19 -7q-60 -31 -77.5 -90.5t0 -122zM553 813l14 14l285 -321l-14 -12z" />
<glyph unicode="'" horiz-adv-x="174" d="M12 1198v19q0 31 21.5 52t52.5 21q32 0 55 -23t23 -57v-6l-10 -430l-127 -2z" />
<glyph unicode="(" horiz-adv-x="417" d="M57 760q1 14 2.5 37.5t10.5 94t22 136.5t39 151t59 152t84.5 124.5t112.5 82.5q-11 -7 -21.5 -16.5t-33 -37t-42 -62t-42.5 -95.5t-39 -132.5t-27 -177t-12 -226.5q0 -11 -3 -67.5t-3.5 -110t2.5 -130t17 -144.5t37 -135t66 -120t101 -82q-7 1 -19 3.5t-46 20.5t-65.5 46 t-69.5 86.5t-65 134.5t-46 197.5t-19 269.5z" />
<glyph unicode=")" horiz-adv-x="436" d="M57 2q58 29 101.5 80.5t68 117t40 129t19.5 139.5t5 124t-1.5 106.5t-2.5 65.5q0 121 -11.5 228t-29 181t-41.5 137.5t-45 101t-45 67.5t-36 41t-22 18q61 -25 112.5 -81.5t84.5 -127t59 -149.5t39.5 -153t21.5 -134t10 -97l3 -36q0 -116 -11.5 -216t-30.5 -171.5 t-43.5 -130.5t-52 -96t-55 -65.5t-52 -43t-43.5 -23t-31 -10.5z" />
<glyph unicode="*" horiz-adv-x="731" d="M90 935q0 18 12 30l7 6l190 190l-25 25l-165 168l-5 4q-12 12 -12 30t12 31q12 12 29.5 12t28.5 -12l8 -8l147 -147v215v4q0 19 12 32t31 13t31 -12t12 -29v-10v-215l150 151l2 4q12 12 30.5 12t32.5 -12q10 -12 10 -28.5t-10 -30.5l-8 -6l-188 -191l22 -24l168 -168 l2 -2q14 -13 14 -31.5t-14 -30.5q-10 -13 -27.5 -13t-29.5 13l-6 6l-148 148v-209v-4q0 -19 -13 -32t-32 -13t-30 12t-11 31v8v205l-149 -148l-2 -4q-14 -13 -33 -13t-31 13q-12 12 -12 30zM467 1155l6 -6l156 151l-8 9zM467 1157l154 -153l6 6l-154 155z" />
<glyph unicode="+" horiz-adv-x="1087" d="M33 510q0 24 16.5 40.5t40.5 16.5h14h377v49v332v6q0 26 18 44t44 18q25 0 41 -16.5t16 -41.5v-12v-379h49h332h6q26 0 44 -17.5t18 -43.5q0 -25 -16.5 -41t-41.5 -16h-12h-379v-50v-331v-7q0 -25 -17.5 -43t-43.5 -18q-25 0 -41.5 17t-16.5 40v15v377h-49h-332h-6 q-25 0 -43 17.5t-18 43.5zM643 94h14v305h-14v-305zM643 633h14v305h-14v-305z" />
<glyph unicode="," horiz-adv-x="368" d="M70 92q0 38 14 61.5t28 28.5l13 4q-20 -9 -30.5 -32.5t-11.5 -42.5l-1 -19q1 -21 5.5 -38.5t10.5 -27t12.5 -16t10.5 -8.5l4 -2q-23 8 -36.5 31t-16.5 42zM106 -190q104 83 111 192q-2 0 -6.5 -1t-7.5 -1q-38 0 -65 28t-27 68q0 36 27 62t63 28q41 1 68.5 -26t27.5 -68 q2 -8 3 -21.5t-4 -52t-20.5 -74.5t-56.5 -79.5t-102 -75.5q-6 -3 -11 2q-8 8 0 19z" />
<glyph unicode="-" horiz-adv-x="557" d="M12 561q0 13 11 24t24 11h86h49h174h64h80q15 0 26 -10.5t11 -24.5q0 -15 -11 -26t-26 -11h-76h-59h-168h-66h-84q-14 0 -24.5 11t-10.5 26z" />
<glyph unicode="." horiz-adv-x="333" d="M53 90q0 38 27.5 65t64.5 27q38 0 64.5 -27t26.5 -65q0 -37 -26.5 -63.5t-64.5 -26.5q-37 0 -64.5 26.5t-27.5 63.5zM223 0q19 10 29.5 32.5t11.5 39.5v18q-1 33 -11 56t-20 30l-10 6q21 -8 33.5 -31t15.5 -42l2 -19q0 -22 -5.5 -39.5t-13 -26.5t-14.5 -15t-13 -7z" />
<glyph unicode="/" horiz-adv-x="868" d="M80 100l8 17l197 469l24 67l111 260l29 64l194 469l4 18q11 23 32.5 31t43.5 2q26 -11 28.5 -32t-10.5 -46l-2 -6l-190 -463l-31 -78l-112 -262l-29 -75l-195 -465l-2 -7q-13 -28 -27 -37t-40 -1q-22 9 -32 30.5t-1 44.5zM154 8q9 -6 26.5 17t31.5 49l13 26l207 500 l109 264l211 500l18 70q7 41 -2 43l6 -1q21 -21 -51 -204q-87 -217 -174 -414l-105 -262q-28 -65 -89.5 -211.5t-86.5 -204.5q-78 -182 -109 -176z" />
<glyph unicode="0" horiz-adv-x="1200" d="M63 772q0 211 62.5 386.5t175.5 279.5t252 104t247 -104t165 -279t57 -387q0 -213 -57 -388t-165 -279.5t-247 -104.5t-252 104t-175.5 280.5t-62.5 387.5zM252 760q0 -138 27.5 -264.5t71 -212t96 -136.5t102.5 -51t101 47.5t92 129t67 204.5t25 260q0 356 -73.5 531.5 t-207.5 175.5q-50 0 -103.5 -54t-97 -144t-72 -219.5t-28.5 -266.5zM295 748q8 -95 26.5 -177t42.5 -138.5t51 -102.5t53 -73.5t47 -45t33.5 -24.5t12.5 -5l-13 12q-13 13 -34 37.5t-45.5 59.5t-48.5 87t-43 112.5t-29 143.5t-6 173q14 319 178 495q29 31 78 68 q-61 -23 -110.5 -70t-80 -103t-53 -119t-33 -121t-16.5 -105t-8 -76zM705 0q2 2 4 2zM705 1538l8 -2zM840 35q61 23 110 77.5t79.5 123t52.5 146t32 150.5t16 132t8 95l1 36q-10 130 -41.5 247t-69 192.5t-73 130.5t-59.5 80.5t-24 22.5l14 -22q13 -22 34 -60.5t46 -91 t49 -122t43.5 -145t29.5 -167.5t6 -182q-6 -124 -35 -236t-65.5 -183t-74 -124.5t-59 -76.5t-20.5 -23z" />
<glyph unicode="1" horiz-adv-x="761" d="M36 1128l1 11q2 7 8 11.5t11 5.5l5 1q45 21 93.5 65.5t85.5 91.5t67.5 93.5t46.5 75.5t17 33q7 18 26 18h113q13 0 23 -9.5t10 -21.5v-555v-831q13 -47 143 -47q19 0 31 -15q8 -5 8 -20q0 -4 -0.5 -9.5t-10 -15t-28.5 -10.5h-102q-2 0 -5 -1t-4 -1h-223q-2 2 -8 2h-115 q-19 1 -28 9.5t-9 16.5l1 9q-3 13 8 20q12 15 28 15h30t33 2.5t37 7.5t27 15.5t19 25.5v846l2 274q-24 -46 -60 -88.5t-60 -62.5l-24 -19q-21 -15 -45.5 -20.5t-43.5 -3t-35.5 7t-25.5 9.5l-9 5q-19 13 -28.5 30.5t-9.5 28.5zM606 1511h27l-8 -1171q0 -9 1.5 -24.5t5 -47.5 t10 -52.5t15.5 -18.5l-7 -2q-36 10 -40 263v3q-4 262 -4 1050z" />
<glyph unicode="2" horiz-adv-x="1054" d="M296 132q11 26 28 56l104 197l328 649q3 7 6.5 18t13.5 45.5t14.5 60t8 61.5t-5.5 51q-17 44 -47.5 70t-64.5 31t-70.5 -2t-68 -30t-55.5 -52.5t-33.5 -69t-0.5 -80.5q-2 -13 4 -40.5t8.5 -45t-8.5 -39.5q-2 -1 -4.5 -3t-11.5 -5.5t-19 -4.5t-24.5 1t-28.5 10 q-41 32 -58 84t-10.5 109t36.5 116t76.5 105.5t116 76t148.5 29.5q79 -1 140.5 -27.5t97 -70.5t56 -101.5t18 -120.5t-16.5 -127l-465 -974q-10 -19 6 -35l4 -2q4 -4 12 -4h316q2 0 6 1t13 5.5t16 11t12 19t4 28.5v5.5t-2.5 13t-7 17t-15.5 15t-26 9.5q-3 0 -5 3.5t1 6.5 q13 15 34.5 19.5t36.5 1.5l15 -3q33 -11 54 -31t26.5 -40t6.5 -38.5t-2 -29.5l-3 -12q-10 -38 -46 -57.5t-67 -20.5h-31l-37 -2v2h-499l-21 4q-60 22 -13 136zM601 117.5q1 -8.5 5 -13.5l4 -4q-2 1 -3.5 4t-3.5 12.5t5 20.5q4 9 23.5 43t30.5 58q13 22 38 70.5t37 70.5 q27 57 41 80q6 13 41 84q7 14 20.5 41.5t20.5 40.5q179 366 160 366q-2 0 -8 -4q-24 -21 -211 -436q-7 -17 -23 -48t-18 -36q-7 -16 -21.5 -45l-17.5 -35q-29 -58 -70 -145q-17 -40 -47 -103q-4 -13 -3 -21.5z" />
<glyph unicode="3" horiz-adv-x="1048" d="M95 262q8 26 34 33q38 12 75.5 0.5t59.5 -43.5q70 -92 158 -119q4 0 10 -0.5t25.5 1t39 5t46.5 13t50.5 24t49 38.5t45 55t35 76.5t22.5 100.5q0 7 -1 20t-9.5 49t-22.5 68.5t-45 71t-73 64.5q-71 45 -162 45q-74 -1 -116 7t-54 19t-12 29q0 28 30.5 42t112.5 11 q110 -6 193 66.5t94 181.5v6q0 4 -0.5 11.5t-3.5 29t-8 41.5t-15 46.5t-24 47.5t-36 40t-49 28.5t-65.5 8.5t-83.5 -15q-59 -39 -92 -102q-18 -31 -48 -49t-65 -17h-8q-37 0 -55.5 31t-1.5 65q16 32 35.5 61.5t51.5 62.5t69.5 56.5t91 40t114.5 17.5q10 0 26 -1.5 t62.5 -11.5t87.5 -27.5t88.5 -55.5t78.5 -88.5t46 -133t1 -184.5q-2 -7 -5.5 -18t-16 -41t-27 -56t-37 -54t-46.5 -42q8 -5 21.5 -15t46.5 -46t57.5 -79t42.5 -114.5t13 -150.5q-1 -8 -3.5 -22t-15.5 -54.5t-31.5 -78t-54.5 -83.5t-80.5 -79.5t-113.5 -58.5t-150 -28 q-10 0 -26.5 1t-64.5 12t-92.5 30t-98.5 61.5t-93 100.5q-15 23 -7 49zM668 12h14h13.5t34.5 5.5t50 16.5t55.5 37t57.5 62.5t49 97.5t35 138q8 80 0 147t-26.5 120.5t-38 90.5t-34.5 57l-14 19q6 8 14.5 23t29 62t33.5 95t16.5 118t-10.5 136.5t-57.5 144t-115.5 146.5 q8 -4 21.5 -11.5t48.5 -37.5t63.5 -66t54.5 -97.5t33 -132t-12 -170.5t-70 -210q8 -11 19.5 -30t36.5 -81.5t37 -127.5t5.5 -161t-42.5 -188q-16 -43 -36 -75.5t-54 -64t-87.5 -48t-123.5 -15.5z" />
<glyph unicode="4" horiz-adv-x="960" d="M43 688q0 76 47 146l504 682q3 20 24 20h119q13 0 22 -9.5t9 -23.5v-553v-184l92 -2q22 0 38.5 -17t16.5 -40v-60q0 -17 -11 -29t-25 -12h-111v-487q0 -1 1.5 -5.5t2.5 -7t4.5 -7.5t8 -8t14 -7t21 -6.5t29.5 -4t40 -1.5q12 0 26 -10.5t11 -22.5q1 -4 0.5 -10t-9.5 -16 t-28 -11h-80h-6h-201h-6h-115q-19 1 -28.5 10t-8.5 18v9q-3 10 9 18q9 15 28 15h7q22 0 35 1t33.5 5t31 15.5t10.5 29.5v483h-475q-32 0 -56 24t-24 58zM297 768l301 -2v201v254zM813 479v76h18v-76q-6 -289 -6 -295q0 -24 41 -34h-6q-17 0 -31 14q-3 0 -6.5 8t-3.5 12 l-2 37zM819 831h19l2 685h-19z" />
<glyph unicode="5" horiz-adv-x="1103" d="M151 235.5q4 14.5 19 20.5l96 39q11 4 21.5 1t15.5 -11q11 -23 27 -38.5t38 -29.5t31 -22q128 -98 258 -7q35 25 61.5 59.5t39 65.5t20 58.5t8.5 44.5l2 16q-6 91 -35.5 153t-80 95.5t-120 50.5t-155 18t-186.5 -1q-19 0 -31 12t-12 31v614l8 39q0 34 23 57t57 23l596 -4 q14 0 25.5 -11t11.5 -26v-62q0 -24 -15.5 -39.5t-39.5 -15.5l-476 -2h52h-56q-12 0 -22 -10t-10 -23l4 -446q0 -17 18 -17q101 3 183 -2.5t126 -15.5t73.5 -20.5t38.5 -18.5l9 -8q70 -53 113 -121t55.5 -137t8 -132.5t-24.5 -121.5q-22 -60 -60.5 -111t-65.5 -72l-28 -22 q-82 -58 -167.5 -74t-151 0t-129 53.5t-101 72.5t-67.5 71q-9 12 -5 26.5zM387 918h21v407h-19zM709 12q37 0 55 2zM764 14q36 5 69.5 22t72 52.5t67.5 106t41 167.5q9 73 -1 143.5t-30 119.5t-41 87.5t-37 57.5l-16 18q20 0 48.5 -28t55.5 -82.5t44 -123t10.5 -161 t-41.5 -184.5q-30 -80 -85 -132t-157 -63z" />
<glyph unicode="6" horiz-adv-x="1073" d="M52.5 581.5q-0.5 88.5 12 176.5t40 172t67.5 161.5t97 146t126.5 124.5t158.5 97.5t191 64.5q27 6 50 -17l24 -26q15 -15 9.5 -36.5t-25.5 -27.5q-34 -10 -68 -23t-82 -38.5t-91.5 -56.5t-90.5 -78.5t-85 -102.5t-70 -130.5t-50 -160.5q62 39 174 53.5t213 -4t131 -65.5 q82 -59 126 -153.5t44 -206.5q0 -189 -127 -321t-313 -132q-172 0 -296.5 117t-151.5 291q-13 87 -13.5 175.5zM240 440q0 -134 79 -227.5t191 -93.5q114 0 193 93.5t79 227.5q0 132 -79 225t-193 93q-112 0 -191 -93t-79 -225zM305 432.5q1 58.5 25 124.5q48 140 164 152 q-23 -4 -46.5 -18.5t-49.5 -42.5t-46 -78t-28 -115q-6 -49 7.5 -95t36.5 -76.5t46.5 -54t41.5 -34.5l17 -11q-28 9 -55.5 26.5t-55 50t-43 73t-14.5 99zM338 915l31 3q38 88 93 164.5t106.5 122t97.5 79t74 46.5l28 13q-54 -12 -107 -41.5t-94 -68t-78.5 -82.5t-64.5 -85.5 t-47 -75.5t-29 -54zM750 8q26 5 54 18.5t60.5 42.5t59 70t49 106t31.5 144q9 74 -0.5 145.5t-29.5 120.5t-41.5 88t-37.5 57l-16 19q32 -38 54 -67.5t50.5 -88t39.5 -115.5t6.5 -140t-34.5 -172q-73 -212 -245 -228z" />
<glyph unicode="7" horiz-adv-x="966" d="M80 1421v76q0 16 11 27.5t28 11.5h727q33 0 57.5 -24.5t24.5 -57.5q0 -80 -49 -145q-209 -297 -285 -412q-65 -99 -140.5 -281t-105.5 -307l-65 -274q-10 -38 -50 -35h-106q-19 0 -31.5 21t-9.5 42q32 184 130 441.5t234 501.5t259 366l-574 -6q-24 2 -39.5 17t-15.5 38z M348 14q3 16 9 45t29.5 119t52 179t79 213t108 234t140.5 228.5t176 210.5q-15 -17 -40.5 -50.5t-100.5 -150.5t-144.5 -248.5t-156.5 -343t-152 -436.5z" />
<glyph unicode="8" horiz-adv-x="1028" d="M18 453q0 115 52 213t143 161q-65 56 -102 136t-37 170q0 170 121 289.5t290 119.5q168 0 289 -120t121 -289q0 -92 -40.5 -174.5t-109.5 -139.5q86 -63 135.5 -158.5t49.5 -207.5q0 -92 -36 -176t-97 -145.5t-145 -97.5t-177 -36t-177.5 36t-145.5 97.5t-97.5 145.5 t-36.5 176zM195 444q0 -135 80.5 -229t195.5 -94q114 0 194 94t80 229q0 133 -80 226.5t-194 93.5q-115 0 -195.5 -93t-80.5 -227zM251 426.5q1 58.5 25 124.5q47 139 164 151q-23 -4 -46.5 -18.5t-49.5 -42t-46 -77.5t-28 -115q-6 -49 7.5 -95t36.5 -76.5t47 -54t41 -34.5 l18 -11q-28 9 -55.5 26.5t-55 50t-43.5 73t-15 99zM272 1133q0 -109 60 -187t145 -78t145 78t60 187t-60 185.5t-145 76.5t-145 -76.5t-60 -185.5zM329 1045.5q-22 61.5 1 148.5q8 29 16 49.5t23.5 45.5t42 40t61.5 19q-49 -9 -81.5 -50t-49.5 -151q-8 -49 3.5 -91.5 t32.5 -67.5t43.5 -43t38.5 -25l17 -7q-45 4 -85.5 37.5t-62.5 95zM668 12q70 -1 123.5 15.5t87.5 48t54 64t36 75.5q36 92 43.5 187t-7.5 163.5t-35 124.5t-38 84l-19 29q40 87 60.5 167t22 142.5t-8.5 118.5t-30 97t-43.5 75.5t-48.5 57t-45 38t-33 22.5l-13 7 q72 -69 116 -146t56.5 -145t11 -135t-17.5 -120t-32 -94t-30 -63l-14 -22q3 -4 8 -10.5t20 -29t26.5 -47.5t27 -64.5t22.5 -80t12.5 -94.5t-3.5 -108q-12 -77 -35 -138t-49.5 -97t-56 -62.5t-57 -37.5t-49.5 -16.5t-35 -5.5h-13h-14zM15065 -2826q0 -204 122.5 -348 t295.5 -144t295.5 144t122.5 348q0 133 -56 245.5t-152 178t-210 65.5t-210 -65.5t-152 -178t-56 -245.5zM15180 -1778q0 -166 91 -282.5t220 -116.5t220 116.5t91 282.5t-91 284t-220 118t-220 -118t-91 -284z" />
<glyph unicode="9" horiz-adv-x="1150" d="M139 1073q0 189 127.5 321t313.5 132q172 0 296.5 -117t151.5 -291q13 -87 13.5 -175.5t-12 -176.5t-40 -172t-67.5 -161.5t-97.5 -146t-127 -124.5t-158.5 -97.5t-191 -64.5q-27 -6 -49 16l-25 27q-15 15 -9 36t26 27q50 14 100.5 36t121 69.5t128 108.5t110 159.5 t76.5 216.5q-62 -39 -174 -53t-213 4.5t-131 65.5q-82 59 -126 153.5t-44 206.5zM311 1083q0 -132 79.5 -224.5t193.5 -92.5q112 0 191 92.5t79 224.5q0 134 -79 228t-191 94q-114 0 -193.5 -94t-79.5 -228zM362 1077.5q1 58.5 25 124.5q48 140 164 152q-23 -4 -46.5 -18.5 t-49.5 -42.5t-46 -78t-28 -115q-6 -49 7.5 -95t36.5 -76.5t46.5 -54t40.5 -34.5l18 -11q-28 9 -55.5 26.5t-55 50t-43 73t-14.5 99zM504 -2q11 3 29.5 8.5t73.5 30.5t106 57.5t115.5 91.5t114.5 129.5t91 175.5t56 226q2 11 5.5 30.5t8 79t3 118.5t-16.5 140.5t-43 153.5 t-82.5 149t-130.5 136q5 -2 12.5 -7.5t32.5 -24t46.5 -42t54 -62t54.5 -84t47.5 -108.5t34.5 -134t15 -161.5t-11 -191.5q-13 -100 -42 -188t-68 -152.5t-85.5 -119.5t-94.5 -92t-95.5 -66.5t-89 -46.5t-73 -28t-50.5 -14z" />
<glyph unicode=":" horiz-adv-x="327" d="M49 932q0 38 26 65t64 27q36 0 64 -27t28 -65q0 -36 -28 -63t-64 -27q-38 0 -64 26.5t-26 63.5zM49 932q0 38 26 65t64 27q36 0 64 -27t28 -65q0 -36 -28 -63t-64 -27q-38 0 -64 26.5t-26 63.5zM49 932q0 38 26 65t64 27q36 0 64 -27t28 -65q0 -36 -28 -63t-64 -27 q-38 0 -64 26.5t-26 63.5zM49 932q0 38 26 65t64 27q36 0 64 -27t28 -65q0 -36 -28 -63t-64 -27q-38 0 -64 26.5t-26 63.5zM53 90q0 38 26 65t64 27q36 0 64.5 -27.5t28.5 -64.5q0 -36 -28.5 -63t-64.5 -27q-38 0 -64 26.5t-26 63.5zM217 842q19 10 29.5 32.5t11.5 39.5v18 q-2 33 -12 56t-20 30l-9 6q21 -8 34 -31t16 -42l3 -19q0 -22 -5.5 -39.5t-13 -26.5t-15.5 -15t-14 -7zM217 842q19 10 29.5 32.5t11.5 39.5v18q-2 33 -12 56t-20 30l-9 6q21 -8 34 -31t16 -42l3 -19q0 -22 -5.5 -39.5t-13 -26.5t-15.5 -15t-14 -7zM217 842q19 10 29.5 32.5 t11.5 39.5v18q-2 33 -12 56t-20 30l-9 6q21 -8 34 -31t16 -42l3 -19q0 -22 -5.5 -39.5t-13 -26.5t-15.5 -15t-14 -7zM217 842q19 10 29.5 32.5t11.5 39.5v18q-2 33 -12 56t-20 30l-9 6q21 -8 34 -31t16 -42l3 -19q0 -22 -5.5 -39.5t-13 -26.5t-15.5 -15t-14 -7zM221 0 q19 10 29.5 32.5t11.5 39.5v18q-2 33 -12 56t-20 30l-9 6q21 -8 34 -31t16 -42l3 -19q0 -22 -5.5 -39.5t-13 -26.5t-15.5 -15t-14 -7z" />
<glyph unicode=";" horiz-adv-x="366" d="M94 -190q104 83 111 192q-2 0 -7 -1t-8 -1q-38 0 -65 28t-27 68q0 36 27 62t63 28q41 1 69 -26t28 -68q1 -4 2 -11t0.5 -29t-4.5 -44t-16 -52.5t-31 -57.5t-53 -56.5t-79 -52.5q-5 -3 -10 2q-8 8 0 19zM102 932q0 38 26.5 65t64.5 27q36 0 64 -27t28 -65q0 -36 -28 -63 t-64 -27q-38 0 -64.5 26.5t-26.5 63.5zM145 -209q43 21 78 55t48.5 55.5t19.5 37.5q18 43 22 85t-3.5 71t-15 46t-13.5 23l1 1q8 -7 19 -24q22 -36 25 -86q2 -33 -2.5 -63t-10 -43.5t-8.5 -14.5q-26 -52 -66.5 -87.5t-63.5 -45.5t-30 -10zM270 842q19 10 29.5 32.5 t10.5 39.5l1 18q-2 33 -12 56t-19 30l-10 6q21 -8 34.5 -31t16.5 -42l3 -19q0 -22 -5.5 -39.5t-13.5 -26.5t-16 -15t-13 -7z" />
<glyph unicode="&#x3c;" horiz-adv-x="753" d="M25 623q-19 31 10 53l63 35l54 30l383 230l55 33l72 45q12 6 27 1.5t22 -16.5q6 -12 2.5 -27t-15.5 -22l-73 -43l-41 -27l-445 -260l-20 -16l24 -12l50 -29l391 -219l57 -33l74 -39q12 -7 15 -22t-5 -27q-6 -12 -19.5 -16.5t-27.5 2.5l-74 43l-43 22l-393 219l-55 33 l-70 39q-13 7 -16 21q-2 0 -2 2z" />
<glyph unicode="=" horiz-adv-x="1015" d="M18 565q0 13 11 24t24 11h86h49h611h63h80q15 0 26 -10.5t11 -24.5q0 -15 -11 -26t-26 -11h-76h-59h-604h-66h-84q-14 0 -24.5 11t-10.5 26zM31 901q0 13 10.5 24t24.5 11h86h49h610h63h80q15 0 26 -10.5t11 -24.5q0 -15 -11 -26t-26 -11h-75h-60h-604h-65h-84 q-14 0 -24.5 11t-10.5 26z" />
<glyph unicode="&#x3e;" horiz-adv-x="753" d="M20 997q-3 15 5 27q6 12 19.5 16.5t27.5 -2.5l73 -43l43 -22l394 -219l55 -33l70 -39q13 -7 16 -20q2 -1 2 -3q19 -31 -10 -53l-64 -35l-53 -30l-383 -230l-55 -32l-72 -46q-12 -6 -27 -1.5t-22 16.5q-6 12 -3 27t15 22l74 43l41 27l444 260l21 16l-25 12l-49 29 l-391 219l-57 33l-74 39q-12 7 -15 22z" />
<glyph unicode="?" horiz-adv-x="993" d="M26.5 1297.5q-2.5 15.5 2 37t18.5 39.5q9 16 25 25q22 16 41.5 29t50 30.5t59 29.5t67.5 24t77 17.5t85 5t95 -8.5q50 -9 89 -25.5t64.5 -34t52.5 -50.5t42 -57t43 -73q29 -63 40 -131.5t0 -136t-42.5 -125t-92.5 -100.5t-145 -60q-50 -8 -84 -17t-61.5 -20.5 t-43.5 -30.5t-27 -41t-14 -57.5t-3 -74t4 -97.5q16 -6 11 -47q-8 -57 -45 -78q-51 -28 -126 41q-20 51 -28 120.5t-2 144.5t40.5 141.5t95.5 99.5q8 1 21 3.5t51.5 13t73 23.5t77.5 35.5t74 48.5t53 64.5t23 81.5q2 79 -27 141t-77 96.5t-110 47t-123.5 0.5t-119 -50.5 t-94.5 -98.5q-2 -21 -20 -25q-1 1 -4.5 0t-11 1t-15 5.5t-17 12t-16.5 20.5q-2 3 -5.5 8t-11 21t-10 31.5zM199 90q0 38 27.5 65t64.5 27q38 0 64 -27t26 -65q0 -37 -26 -63.5t-64 -26.5q-37 0 -64.5 26.5t-27.5 63.5zM369 0q19 10 29.5 32.5t11.5 39.5v18q-1 33 -11 56 t-20 30l-10 6q21 -8 33.5 -31t15.5 -42l2 -19q0 -22 -5.5 -39.5t-13 -26.5t-14.5 -15t-13 -7zM713 702q9 4 23 13t50.5 41t64 69.5t50.5 100t23 131.5q0 59 -3 105.5t-11.5 81.5t-15.5 58t-23 46.5t-25 34.5t-31.5 34t-32.5 35q4 -1 10 -3t23.5 -12.5t33 -25.5t35 -43.5 t33.5 -64.5t23.5 -91.5t9.5 -121.5t-13 -123t-34 -95t-46 -69.5t-50.5 -49.5t-46.5 -30t-34 -17z" />
<glyph unicode="@" horiz-adv-x="1161" d="M66 512q0 140 68.5 258.5t186.5 187t257 68.5q187 0 329 -119.5t176 -298.5q11 -71 8 -127t-15.5 -98t-26 -70t-24.5 -41l-11 -14q-23 -33 -74.5 -54.5t-109 -25.5t-112.5 18.5t-81 71.5q-36 -36 -98.5 -46.5t-110.5 16.5q-34 18 -58 50t-33 64.5t-13 63t-3 50.5l1 19 q3 45 15.5 87.5t28.5 71.5t31 51.5t25 32.5l10 11q34 35 68 51t58 13.5t43 -10t29 -16.5l9 -9q9 19 28 28t33 8l15 -1q14 0 23.5 -5.5t12.5 -11.5l3 -6q1 -4 -0.5 -8t-3.5 -6l-2 -2q-11 -8 -17 -22t-6 -24v-11l-2 -392q5 -29 33.5 -45t62 -15.5t55.5 13.5q46 29 74 75 t35.5 90.5t8 84.5t-3.5 65l-5 25q-33 140 -145.5 231t-259.5 91q-171 0 -293.5 -122.5t-122.5 -295.5q0 -95 42.5 -179.5t111 -140.5t160.5 -81.5t186 -8.5q31 4 47 29q1 1 2 2.5t4.5 4t7.5 1.5q25 -6 29 -35q12 -52 -21 -75q-40 -29 -153 -29q-212 0 -362 150t-150 362z M431 451.5q0 -54.5 13 -95.5q1 -4 3.5 -10.5t12 -23.5t21 -29.5t31 -22t41.5 -8.5q40 6 61 41q25 33 25 68l-2 350q0 1 0.5 2t-1 4.5t-5 6.5t-11.5 6t-20 5q-2 0 -6 0.5t-16.5 -2t-24.5 -7.5t-28.5 -18t-30.5 -32t-29 -51.5t-25 -73.5q-3 -13 -6 -34t-3 -75.5zM451 483 q-2 -40 2.5 -84.5t27.5 -77.5t62 -40q-60 20 -75 100t3.5 162.5t50.5 128.5q23 30 39 43l17 12q-7 -4 -19 -12q-67 -50 -98 -160q-8 -32 -10 -72zM743 418q3 -98 7 -109q7 -20 20 -20q-8 1 -13 10t-5 18q0 29 2 76v213q-2 68 -2 101q3 35 18 43q-16 -6 -22 -43 q-3 -21 -5 -101v-188z" />
<glyph unicode="A" horiz-adv-x="1265" d="M51 559q-2 12 -2 25q0 58 53 118q2 3 7 8.5t24 20t41 26t59.5 22.5t79.5 14h54l116 487q2 10 6.5 27.5t19.5 61.5t32 77.5t44.5 62t57.5 29.5h2q37 0 69 -40q34 -40 51.5 -89t30 -91t13.5 -42q108 -353 234 -773q87 -291 107.5 -349.5t39.5 -65.5q15 -6 22 -16.5t7 -17.5 v-7q4 -18 -2 -29q-11 -16 -29 -16l-227 -2q-20 1 -29.5 12t-9.5 22v11q-2 12 4.5 21.5t13.5 13.5l8 4q15 6 23 24t9 33l1 15l-154 495h-342l-137 -510q-2 -43 33 -57q16 -6 24 -16.5t9 -17.5v-7q0 -16 -6 -25q-10 -16 -27 -16l-217 -2q-19 2 -29 12t-10 20v9q-1 12 6 22.5 t14 15.5l7 5q16 5 30 37q0 10 2 14q31 125 58 225.5t46 168.5q30 106 31.5 125.5t-22.5 25.5q-10 4 -40 -2.5t-38 -13.5q-5 -4 -16 -11.5t-16 -11.5t-12 -12t-9 -15t-1 -18.5t5 -24.5q14 -40 53 -43l23 -6q2 0 2 -4q-1 -1 -3.5 -4.5t-4.5 -5.5q-30 -34 -72 -38q-6 -1 -12 -1 q-35 0 -64 21q-34 25 -41 69zM422 150l2 12l10 35l86 387l19 -4l-107 -422q-1 -1 -2 -5t-2 -6v-16v-10q5 -10 16 -21q0 -1 2 -2q1 -1 1.5 -1t1.5 -1q4 -4 6 -4q-1 0 -9 4l-4 4q-2 2 -8.5 10t-7.5 9q-2 4 -2 12zM520 793h266l-143 538zM586 842l16 -4l55 266l-14 8zM778 1487 h1q27 0 65 -79q38 -80 64 -160l24 -81l33 -112l32 -111l31 -108q18 -68 33 -113l31 -113l32 -112l29 -113q5 -17 10.5 -36.5t11.5 -43t9 -35.5l14 -57q0 -9 14 -23q9 -6 19 -6q-13 0 -21 4q-2 1 -5 4.5t-5 4.5q-2 6 -6 14l-16 57q-4 14 -17 51.5t-20 59.5l-33 110l-33 111 l-33 115q-10 32 -32 112l-31 107h-2l-33 115l-29 112q-42 125 -67 197q-10 32 -27.5 64.5t-30.5 48.5z" />
<glyph unicode="B" horiz-adv-x="1269" d="M18 1294q-2 11 -2 21q0 64 56 129q2 3 6 7.5t21 17.5t39 24t62.5 23.5t88.5 19.5h39q32 0 63.5 -16.5t48.5 -44.5q12 7 33.5 16.5t85 26t123.5 18.5h6q57 0 129 -25q76 -26 135 -86q4 -2 10 -7.5t22.5 -29.5t30 -56.5t27 -94t19.5 -137.5q1 -15 0 -29q1 -83 -23 -165 q-28 -96 -88 -165q52 -22 93.5 -80t63.5 -131q21 -74 25 -157q1 -15 1 -30q-1 -65 -13 -125q-16 -72 -57 -128t-102 -74q-41 -12 -110 -17q-63 -5 -123 -5h-12q-66 0 -203.5 3t-242.5 3q-21 1 -31.5 10.5t-10.5 19.5l-1 9q-1 13 7 22.5t16 12.5l8 4q16 5 25.5 20.5 t10.5 27.5l1 13l-2 1174q-1 1 0 13t-2 31.5t-7 38t-15.5 32.5t-28.5 16q-18 11 -35 0q-50 -37 -51 -80q0 -37 39 -78l36 -31q-4 -8 -14 -14q-29 -37 -73 -42q-7 -1 -14 -1q-36 0 -66 23q-36 27 -44 73zM41 176q1 0 3 -1t3 -1q-4 0 -6 2zM442 1333.5q0 -4.5 1 -18t1 -34 t0.5 -62.5t1 -97t1.5 -143.5t2 -196.5l2 -2q34 12 80 14q15 1 30 1q29 0 53 -3q36 -4 77 -9t57 -5q35 0 63 14.5t44.5 37t27.5 53.5t15.5 61t6 63t0.5 55.5t-3 41.5l-1 20q-6 233 -173 281q-42 13 -87 13q-63 0 -132 -25q-63 -21 -67 -38v-3v-10v-8.5zM451 152q0 -11 52 -22 q53 -11 127 -13q15 0 29 -1q61 0 121 7q76 8 131 40.5t60 84.5t5 96q0 160 -67 227q-64 64 -222 76q-59 4 -216 4q-2 0 -20 -6v-493zM506 580h18l-8 -355v-10q0 -10 4 -18q0 -11 4 -13q14 -14 19 -14q1 -1 3 -2t3 -2q-2 0 -4 1t-4 1q-10 5 -21 16q-2 1 -3.5 6.5t-2.5 6.5 l-4 16v51zM508 1319l4 -461h18l-2 461h-20zM983 1489q75 -48 121 -150t53 -212q1 -18 1 -36q0 -91 -30 -179q-36 -106 -110 -160q35 23 63.5 85t40.5 147q8 58 8 119q0 27 -2 55q-6 90 -43 180t-102 151zM1059 717q75 -48 118 -146t47 -203v-18q0 -96 -35 -188 q-38 -102 -114 -156q35 24 65 83q32 59 46 140q12 69 12 142v25q-2 86 -38 173t-101 148z" />
<glyph unicode="C" horiz-adv-x="1069" d="M28 703q-1 18 -1 33q0 20 1 34l1 25q0 9 1 25.5t8.5 66.5t19 98.5t36 115t57 123.5t85 116t116.5 100q121 83 288 83q17 0 34 -1q52 -3 95 -17t69.5 -33.5t46 -42.5t29 -45t15 -40.5t6.5 -29.5l1 -11q-3 -80 -34 -114t-71 -38h-8q-33 -1 -57 21q-22 21 -22 51q0 5 1 10v4 q4 -1 10 -3t21.5 -1t27.5 8t22 29t10 57q-1 6 -4 16t-17 34t-34.5 41t-60.5 27q-21 5 -45 5q-22 0 -46 -4q-83 -12 -151 -63.5t-105 -127.5q-119 -233 -119 -462v-15q-1 -23 0.5 -58t9 -98.5t21 -125t41.5 -130t65.5 -120.5t97 -88.5t132.5 -42.5q14 -1 29 -1q66 0 122 23 q29 12 49 27t35 38t14 56.5t-20 75.5q3 0 9 -0.5t21 -5.5t26 -14t20.5 -28.5t9.5 -45.5q0 -79 -46 -130t-118 -75q-79 -30 -172 -30q-46 0 -98 8q-150 23 -248 110q-54 48 -95.5 111t-65 125.5t-39 127t-20 119t-6.5 97.5zM319 770q0 -60 9 -119q7 -76 18 -114 q18 -102 66 -199q20 -36 65 -96q3 -6 11 -14t10 -11q21 -21 41 -35q-122 122 -174 357q-17 85 -21 184q-1 29 -1 59q1 70 7 144q10 104 42.5 204t86.5 170q33 41 60 60q-5 -2 -13 -8q-15 -10 -30 -25q-36 -36 -64 -84q-51 -91 -74 -180q-9 -28 -12 -55q-24 -92 -27 -238z M668 1165q0 -82 39 -121q35 -35 109 -35q14 0 30 1q67 14 100.5 56.5t52.5 119.5q2 23 2 44q0 59 -14 113q-13 42 -26 62q-5 12 -33 45q-7 6 -19 14.5t-16 12.5q-24 8 -27 8l-10 6q2 -2 8 -6q9 -3 27 -15q28 -21 31 -24q3 -5 13.5 -20.5t14.5 -24.5q15 -34 22 -77 q6 -35 6 -72v-16q-2 -44 -16 -85t-38 -71q-22 -31 -62 -45q-24 -9 -52 -8q-18 0 -38 3q-59 9 -88 66q-13 31 -16 78v-9zM899 72q88 65 88 161q0 56 -26 82q-21 21 -39 29q2 -4 8 -10q38 -38 43 -86q1 -10 1 -19q0 -37 -16 -73q-20 -44 -59 -84z" />
<glyph unicode="D" horiz-adv-x="1357" d="M35 1288q-3 13 -3 27q0 59 54 121q3 3 8 8.5t24 20t42 26t61.5 23t81.5 14.5v2h146h4q57 0 112.5 -5.5t133.5 -24.5t144.5 -50.5t135.5 -89.5t117 -135.5t78 -194.5t30 -260q-1 -126 -24.5 -232.5t-61 -181.5t-94 -134.5t-112.5 -96t-127 -62.5t-128 -37.5t-125 -17.5 q-62 -5 -101 -5q-4 1 -7 1q-40 0 -86.5 2t-52.5 2q-15 1 -22 7.5t-7 12.5v7q-1 8 4 14.5t10 8.5l6 3q12 4 19 14t7 19l1 8v742v467v-2q1 5 1.5 13t-0.5 29.5t-5.5 38t-17 30.5t-31.5 16q-20 10 -41 -4q-30 -22 -48 -56q-10 -20 -11 -42q0 -15 6 -31q16 -37 55 -46l20 -4 q5 0 5 -6q-2 -1 -5 -5t-4 -5q-31 -35 -73 -39q-6 -1 -12 -1q-34 0 -64 21q-34 25 -43 70zM469 1421l2 -1292q7 -1 20 -1.5t51.5 2t76 10t88 27t94 48t87 78.5t73.5 113.5t48 157.5q15 81 15 174v32q0 138 -30.5 248.5t-79.5 176.5t-108 114.5t-118.5 69t-108.5 31.5t-79 11 h-31zM535 256l18 -2l2 1026l-18 20zM874 33q52 18 93.5 41.5t81 62t62.5 65.5t69 84l12 15q109 226 115 442v25q0 205 -93 426q-26 61 -69.5 114.5t-86 86t-81.5 56t-63 33.5l-25 9q2 -1 29.5 -19t58 -42.5t72.5 -64.5t78.5 -96.5t69.5 -126.5t53 -167.5t22 -206.5v-17 q0 -115 -25 -219q-27 -110 -66.5 -182.5t-92 -135.5t-93 -94.5t-79.5 -59t-42 -29.5z" />
<glyph unicode="E" horiz-adv-x="1122" d="M14 1288q-2 13 -2 25q0 61 54 127q3 3 8 8.5t25 20t43.5 26t63 23t83.5 14.5h108l615 4l84 -4q34 -16 49 -36t13 -32l-1 -12q0 -13 -4 -25l-6 -12q-5 -9 -12.5 -15.5t-12.5 -8.5l-4 -2q-7 -3 -14 0t-10 7l-4 5q-35 35 -103 35l-518 2q-7 0 -12.5 -5.5t-5.5 -13.5v-196 v-199v2v-184l460 8q27 -3 35 24q4 12 11 18t11 6l5 1q12 0 18 -4q10 -7 10 -21v-200q-1 -16 -7 -23.5t-12 -7.5h-5q-9 -1 -16 4.5t-10 10.5l-3 6q-4 11 -14.5 17.5t-18.5 7.5l-8 1l-456 -2v-600l536 2q26 -2 55 8h2q25 6 46 27q1 2 3.5 5t10 6.5t14.5 0.5q17 -6 29 -26 q5 -10 6 -11q4 -16 4 -26q1 -1 1.5 -4t-1 -11t-7 -16t-19.5 -19.5t-35 -21.5l-84 -4q-301 0 -488.5 1t-253.5 1q-15 1 -22 7t-6 12v6q-1 8 4.5 14.5t11.5 8.5l6 3q11 4 17.5 14.5t6.5 18.5l1 8v481v664v82q0 1 -1 16t-2 24t-4.5 24.5t-8.5 25t-14.5 18t-22.5 9.5 q-24 10 -43 -2q-33 -24 -51 -59q-10 -19 -9 -40q0 -17 6 -35q6 -17 21.5 -29.5t34.5 -15.5l22 -4q2 0 2.5 -2.5t-0.5 -3.5t-3.5 -4.5t-4.5 -5.5q-31 -36 -75 -41q-7 -1 -13 -1q-35 1 -65 23q-36 26 -44 72zM504 143h20l2 492h-18zM514 918h21v462h-19z" />
<glyph unicode="F" horiz-adv-x="1105" d="M29 1288q-2 11 -2 23q0 66 55 129q3 3 8 8.5t25 20t43 26t62 23t83 14.5h137h586h84q34 -18 50 -38.5t15 -31.5l-1 -12q0 -4 -1 -9t-3 -10t-3 -8q-1 -2 -2 -5t-2 -5h-2q-4 -9 -11 -15.5t-12 -9.5l-5 -2q-7 -3 -14.5 0t-10.5 7l-4 4q-13 15 -43 28h-4q-12 4 -26 6t-22 3 h-8l-536 2v-211v-199h2v-184l459 8q29 -3 37 24q4 12 10.5 18t10.5 6l5 1q13 0 17 -4q10 -7 10 -21l2 -200q-1 -16 -7.5 -23.5t-12.5 -7.5h-7q-8 -1 -15 4.5t-10 10.5l-3 6q-4 11 -14 17.5t-19 7.5l-8 1l-457 -2l2 -600q-2 -27 27 -37q12 -4 17.5 -10.5t4.5 -10.5v-5 q3 -10 -4 -17q-6 -12 -20 -12h-205q-15 1 -22 8t-7 14v7q-1 8 4.5 14.5t11.5 8.5l5 3q11 4 17.5 14.5t7.5 18.5l1 8v481h-2v664v92q0 2 -0.5 14t-1.5 18.5t-3 19t-5.5 20.5t-8.5 16.5t-13.5 13t-18.5 5.5q-24 10 -43 -2q-32 -24 -50 -59q-10 -19 -10 -40q0 -17 7 -35 q6 -18 20.5 -30t32.5 -15l24 -4q2 0 3 -2.5t0 -3.5t-4 -4.5t-5 -5.5q-30 -37 -74 -41q-6 -1 -13 0q-36 0 -66 22q-36 26 -45 72zM530 899h21v481h-19zM539 520v107h18v-107l-6 -389v-12q0 -13 4 -17q0 -8 4 -10q1 -4 8.5 -10t12.5 -8q1 0 3 -1t3 -1q2 -2 6 -2h-6q-8 4 -11 4 q-2 1 -10 7t-10 7l-6 12l-4 19v12v37z" />
<glyph unicode="G" horiz-adv-x="1073" d="M46 734l3 52q0 10 1.5 26.5t9 68t19.5 101.5t37.5 118.5t59 127t87.5 119t120 103.5q5 2 12 7.5t8 6.5q22 16 51.5 31t101.5 29q51 10 107 10q23 0 48 -2q54 -3 98.5 -17t71.5 -34t47.5 -43.5t30 -46t15 -41t6.5 -30.5l1 -11q-1 -83 -33.5 -117.5t-75.5 -38.5 q-6 -1 -12 -1q-29 0 -52 22t-23 52q0 6 1 13v2q4 -1 10 -3t22 -1t28.5 8.5t22.5 29.5t10 58q0 5 -1 13.5t-11.5 30t-28.5 38t-57.5 30t-92.5 13.5q-8 0 -24 -2q-87 -14 -165.5 -66.5t-117.5 -127.5q-102 -196 -102 -464v-10q2 -6 0 -34q-1 -6 -1 -15q0 -27 5 -73 q6 -61 15 -125t32 -144t55 -145q3 -6 9 -16t27 -36t45 -47t62.5 -40.5t79.5 -24.5q8 -1 16 -1q58 0 103 39q51 43 55 112q2 98 4 167q1 19 1 37q0 45 -5 78q-6 46 -11.5 73t-18.5 41t-23.5 17.5t-28.5 3.5h-125q-29 0 -48 20t-19 48q0 29 19 51t48 25q96 8 158 8q38 0 63 -3 q131 -16 150 -102q27 -118 27 -241q0 -71 -19 -213q-10 -57 -38 -101.5t-64.5 -70t-78.5 -43t-81.5 -24t-72 -9t-52.5 -1.5l-20 1q-75 0 -141 19t-94 38l-29 19q-80 62 -133.5 158.5t-72.5 189t-27 176.5q-5 55 -5 96q0 21 1 38zM348 764q4 -82 8 -125q5 -50 19 -119 q25 -120 69 -203q22 -42 45 -71q3 -5 10.5 -14.5t10.5 -14.5l22 -22q23 -23 31 -29l10 -8l-10 10q-4 3 -28 31q-3 4 -9.5 11t-9.5 11q-10 16 -20 29q-37 70 -39 76q-43 94 -62 198q-8 39 -16 117q-6 61 -6 123v31l2 30q1 9 2 30t2 30q5 50 6 59q2 20 10 60q2 9 6.5 27.5 t6.5 27.5q4 16 6 26q4 18 8 25q1 4 3 12.5t3 12.5q4 8 8 24q2 3 5 11.5t5 11.5q1 4 4.5 11t4.5 11q15 30 18 39l21 35q7 12 20 29q12 16 18 22q27 27 31 29l10 10q-4 -4 -12 -8q-16 -12 -33 -29l-20 -20q-3 -5 -10.5 -14.5t-10.5 -14.5t-11 -16.5t-11 -16.5q-1 -3 -23 -41 q-2 -8 -10 -20q-4 -7 -8 -25q-2 -4 -5 -11t-5 -11q-4 -9 -8 -27q-5 -7 -9 -24q-3 -5 -8 -27q-9 -27 -12 -55l-12 -60q-3 -32 -9 -61q-1 -10 -2 -31t-2 -31l-2 -30q-2 -10 -2 -31zM699 1149q0 -5 1 -10q0 -5 9 -45q12 -33 32 -50q23 -26 64 -32q19 -5 41 -5q17 0 37 3 q47 7 80 28q35 22 55 68q19 39 22 84q3 24 3 50q0 16 -1 32q0 28 -12 78q-8 32 -29 63q-16 29 -34 47q-15 15 -35 27q-6 3 -15 6.5t-12 5.5l-10 4q2 -4 10 -6q2 -1 5.5 -3t8.5 -5.5t9 -5.5q18 -11 33 -29q16 -16 30 -47q31 -64 31 -135q1 -9 1 -21q0 -24 -3 -57 q-6 -39 -21 -80q-18 -34 -49 -59q-37 -22 -71 -25q-25 -4 -45 -4q-15 0 -27 2q-35 6 -57 25q-24 21 -33 45q-8 20 -12 41l-5 39v-11q0 -3 -0.5 -8t-0.5 -10zM797 -4q58 9 103.5 36.5t73 67t47 90t26 104t9.5 110.5q2 23 2 45q0 32 -3 63q-11 197 -51 248q-9 12 -11 6 q-1 -1 0 -4q19 -54 31 -141q8 -67 8 -143v-48q-4 -104 -24.5 -196.5t-75 -159.5t-135.5 -78z" />
<glyph unicode="H" horiz-adv-x="1255" d="M-82 1294q-2 11 -2 23q0 64 53 127q3 4 8.5 10t25 21.5t43 27.5t62.5 21.5t82 9.5h150q10 0 17.5 -7t7.5 -16v-622v-47h559v2l4 2v598q0 27 -29 37q-11 4 -16.5 10.5t-5.5 10.5v5q-3 8 2 17q7 10 24 10h209q16 -1 23.5 -7.5t7.5 -12.5v-7q1 -8 -4.5 -14.5t-10.5 -8.5 l-6 -3q-12 -4 -18.5 -14.5t-7.5 -18.5v-8l-4 -748v-600q-1 -29 24 -37q14 -4 20.5 -10.5t6.5 -10.5v-5q0 -13 -4 -17q-7 -10 -23 -10h-209q-16 1 -23.5 7.5t-7.5 12.5l1 7q-1 8 3.5 14.5t9.5 8.5l5 3q13 4 20 14t8 19l1 8l6 598h-563l-2 -602q-1 -29 26 -37 q13 -5 20.5 -17.5t0.5 -25.5q-10 -10 -23 -10h-217q-14 1 -21 7.5t-7 12.5l-1 7q-1 8 4.5 14.5t10.5 8.5l6 3q12 4 18.5 14t7.5 19v8v609v616q0 98 -53 121q-29 12 -56 -11t-38 -61q-6 -19 -6 -34.5t6 -28.5q13 -37 53 -43l25 -7q2 0 2 -4l-10 -10q-29 -36 -73 -41 q-7 -1 -13 -1q-35 0 -65 22q-36 26 -44 71zM190 1315v6v-6zM422 543v106h18v-106l-6 -389v-13q0 -12 4 -16q0 -8 4 -10q5 -13 21 -19q1 0 3 -1t3 -1q2 -2 6 -2h-6q-8 4 -10 4q-2 1 -10.5 7.5t-10.5 7.5l-6 12l-4 18v13v36zM428 864h18l3 649l-19 13zM1157 612l2 -153l2 -152 q1 -26 2 -76t2 -75v-2q0 -1 2 -11.5t4 -15.5q3 -10 11 -27q1 -3 12 -20l8 -8q4 -4 8 -4q-2 0 -8 6t-6 8q-4 4 -7.5 11.5t-4.5 8.5q-1 6 -8 27q0 4 -5 29v-2q5 127 5 151l2 152l2 153v152v151l-2 154l-2 154q0 102 -2 151l2 17v8v8q1 3 2 8t2 8l4 17q1 3 3 8t3 8q0 1 2 6.5 t4 7.5q7 18 14 27q-9 -9 -18 -24q-1 -1 -2.5 -6.5t-3.5 -8.5q-4 -8 -6 -14l-4 -17q-1 -3 -3.5 -9t-3.5 -9l-2 -8v-8l-2 -19q-4 -98 -4 -151l-2 -154l-2 -154v-151v-152z" />
<glyph unicode="I" horiz-adv-x="657" d="M37 33q0 14 8 22q15 15 31 15h30t32.5 2.5t36.5 7.5t27 15.5t19 25.5v1214l-2 84q-9 27 -47 37q-31 6 -86 6q-18 0 -27 13q-10 7 -10 24q0 3 1 7.5t10.5 12.5t25.5 9l223 -2h21l237 2q18 -1 28 -9t11 -16v-8q0 -14 -8 -22q-15 -15 -31 -15q-61 0 -92 -8q-43 -10 -53 -43 v-1290q13 -47 145 -47q14 0 29 -15q11 -7 8 -22q0 -3 -0.5 -8.5t-10 -14.5t-28.5 -10h-489q-18 1 -28 9t-10 16zM496 1378h24l-8 -1095q0 -4 0.5 -11.5t2.5 -27t4.5 -36.5t6.5 -34.5t9.5 -27t11.5 -7.5l-8 -2q-37 8 -41 263v3q-2 131 -2 975z" />
<glyph unicode="J" horiz-adv-x="1148" d="M84 279q-7 39 -7 75q0 39 9 74q16 67 52.5 104t79.5 54q33 14 64 14q11 0 21 -2q27 -4 46.5 -14t34.5 -23t17 -14q1 -1 -19 -19t-46.5 -50t-47.5 -72q-20 -38 -20 -89q0 -57 33 -110q19 -30 54 -53t79 -33q41 -10 86 -10q2 0 4 1q48 0 93.5 20.5t84 55.5t64.5 97t33 143 v969q0 5 -1 13t-9.5 23.5t-24.5 20.5q-3 1 -8.5 4t-13.5 13.5t-7 23.5q-1 4 -0.5 10.5t10.5 17t31 11.5h217q21 0 29 -16q8 -12 6 -23q4 -27 -33 -41q-17 -5 -26.5 -18.5t-10.5 -23.5v-11l3 -1053q0 -72 -27 -137q0 -4 -1.5 -12t-11 -30t-24.5 -42t-46 -44.5t-72 -42.5 t-106.5 -30t-144.5 -12q-65 0 -135 17t-135.5 49t-113.5 88.5t-60 126.5zM319 310q-1 7 -1 15q0 76 55 134q29 32 47 39q6 0 8 2l-8 -8q-4 -3 -10 -9t-14 -15.5t-13 -14.5q-31 -45 -35 -70q-6 -23 -6 -47q0 -28 8 -58q16 -53 58 -79q28 -19 36 -19q34 -6 50 -6q7 -2 13 -2 t9 1l2 1l-2 -4q-2 0 -9.5 -2t-12.5 -2q-15 -3 -54 0q-6 0 -20.5 5.5t-20.5 6.5q-74 46 -80 132zM948 70q10 11 20.5 31.5t25 65t26 126.5t14.5 188l-4 123v125l-2 123l2 125v125l2 125q1 21 2 62t2 61l2 16l2 6l2 8q0 5 5 15l6 12q4 8 4 12q5 10 8 13q2 4 5 7t7 6t6 5 q-2 -4 -8 -10t-8 -10q-6 -12 -6 -15q-4 -8 -4 -12l-6 -10q0 -11 -2 -15l-2 -6v-8l-3 -14q1 -21 2.5 -62t2.5 -61l2 -125v-125l2 -125l-2 -123v-125l-2 -123q0 -14 -0.5 -37t-6 -84.5t-15 -113t-30 -103.5t-49.5 -73z" />
<glyph unicode="K" horiz-adv-x="1269" d="M25 1294q-2 12 -2 23q0 63 55 127q2 3 6 7.5t21 17.5t39 24t62.5 23.5t88.5 19.5h39q38 -1 63 -16t36 -42.5t15 -56.5q2 -18 2 -41q0 -13 -1 -28v-21q2 -108 6 -536l2 -2q10 4 36 4.5t50 -0.5t45 0q85 147 152.5 305t166.5 346q32 61 94 79q19 5 37 5q42 0 80 -29 q30 -23 30 -57q0 -6 -1 -12q-2 -6 -8.5 -10t-12.5 -4l-6 -1q-46 -24 -90.5 -79t-84.5 -132.5t-70 -145t-66.5 -156.5t-54.5 -128l319 -600q49 -94 117 -94h4q20 1 30 -9.5t10 -20.5l-1 -11q2 -14 -6 -27q-10 -16 -33 -16h-248q-24 1 -35.5 11.5t-11.5 20.5v11q-2 13 6 23 t17 14l8 4q12 4 2 23q-4 8 -21 36q-117 194 -243 478q-12 12 -15 14q-17 17 -83 19q-15 0 -28 1q-44 0 -65 -4q-2 0 -20 -6v-512q0 -5 0.5 -12.5t10 -22.5t26.5 -20q18 -5 27 -15t9 -17v-7q0 -17 -6 -23q-10 -16 -32 -16h-216q-21 1 -31.5 10.5t-10.5 19.5l-1 9 q-1 13 7 22.5t16 12.5l8 4q16 5 25.5 20.5t10.5 27.5l1 13l-2 1174q1 5 1.5 13t-0.5 29.5t-5.5 38.5t-17 32t-31.5 18q-18 11 -35 0q-50 -37 -50 -80q0 -37 38 -78l37 -31q-5 -8 -15 -14q-29 -37 -73 -42q-7 -1 -14 -1q-36 0 -66 23q-36 27 -43 73zM489 1524q2 0 4.5 -1 t4.5 -1q6 -3 20 -17q2 -1 3.5 -6t2.5 -6l4 -16v-52l4 -553h-18l8 592v11q0 10 -4 18q0 10 -4 12q-15 15 -18 15q-1 1 -3.5 2t-3.5 2zM510 594h18l-8 -436v-11q0 -10 4 -18q0 -10 4 -12q15 -15 19 -15q1 -1 3 -2t3 -2q-2 0 -4 1t-4 1q-8 4 -21 17q-2 1 -3.5 6t-2.5 6l-4 16 v52zM553 98q1 0 3 -1t3 -1q-4 0 -6 2zM829 784l250 482l17 34l6 9q6 8 12 10q3 6 8 6q-1 -1 -3 -4t-3 -4q-5 -10 -12 -10q-2 -4 -2 -11l-254 -510q33 -33 321 -610l5 -10q4 0 10 -12q3 -1 5.5 -4t4.5 -3q9 -6 27 -6q0 -2 2 -2h-4q-18 0 -27 6q-2 0 -5 3t-5 4l-13 12l-6 8 l-16 37l-262 491q0 -1 -12 18.5t-26.5 41t-17.5 24.5zM1122 1325q9 6 25 6h2v-2q-13 0 -25 -4h-2z" />
<glyph unicode="L" horiz-adv-x="1107" d="M25 1290q-3 13 -3 27q0 59 54 121q3 3 8 8.5t24 19.5t41.5 25.5t60.5 22.5t81 14l45 4q60 1 91.5 1t33.5 -1v-1446h467q4 1 10.5 3t16.5 14t8 30v9.5t-9 16t-26 13.5q-2 0 -3.5 3t1.5 5q8 8 23 11t25 3l11 -1q35 -13 48.5 -39t10.5 -46l-4 -20q-13 -38 -37.5 -57.5 t-42.5 -20.5h-18q-144 -2 -668 -2q-2 0 -6.5 -0.5t-6.5 -0.5t-5.5 1.5t-5.5 5.5q-9 15 -1.5 30t19.5 15q10 4 16 14t6 19l1 8v744l2 481q0 1 -1 16t-1.5 22t-4 21t-8.5 22t-14 16.5t-22 11.5q-18 12 -43 -2q-31 -22 -49 -56q-11 -20 -11 -42q0 -15 6 -31q16 -36 56 -46 l22 -4q2 0 2.5 -2.5t-0.5 -3.5q0 -1 -1 -2t-3 -3.5t-4 -4.5q-31 -35 -73 -39q-6 -1 -12 -1q-34 0 -64 22q-34 26 -43 71zM483 1542q16 -6 19 -8q2 -1 8 -21l2 -43q4 -55 8 -245v-80v-84v-82v-311q2 -111 2 -328q-3 -150 -6 -207q0 -9 6 -18q3 -2 9.5 -5.5t9.5 -5.5 q-15 5 -21 11q-10 0 -10 59q0 53 -2 82q-6 274 -6 723v82v84v80q2 222 4 245q2 53 -4 62q-2 4 -19 10zM952 209q14 6 29 6q28 0 59 -22q47 -34 47 -89q-1 -29 -9 -50t-19 -30.5t-22.5 -15t-18.5 -6.5h-8q53 24 59 76q1 8 1 15q0 43 -30 77q-33 39 -83 39h-5z" />
<glyph unicode="M" horiz-adv-x="1683" d="M10 1288q-2 12 -2 23q0 65 58 129q3 3 8.5 9t25.5 21t43.5 27.5t62.5 24t83 14.5h282q55 -4 74 -41l277 -586l301 590q22 39 71 39h226h16q16 -1 24.5 -11t8.5 -20v-10q1 -12 -5 -22.5t-12 -14.5l-6 -4q-14 -6 -22 -26l12 -383l4 -895q0 -50 29 -62q13 -6 19.5 -16.5 t6.5 -17.5v-7q4 -19 -4 -31q-6 -16 -22 -16l-221 -2q-16 1 -24.5 12.5t-8.5 23.5v11q-1 12 4.5 22t11.5 15l6 4q13 6 20.5 23.5t8.5 32.5l2 14l-4 1065v163l-336 -647q-29 -47 -86 -47h-47q-42 0 -68 37l-79 125l-287 524v-307l6 -932q-2 -41 29 -55q26 -13 26 -41 q0 -11 -4 -25q-10 -16 -24 -16l-222 -2q-16 2 -24 12t-8 20v9q-2 13 3.5 23t12.5 14l6 4q13 6 20 22t8 28l1 13l-2 478v440v283q0 3 -1.5 17.5t-2.5 20.5t-5 18.5t-9 18.5t-15 12t-23 7q-23 10 -40 -4q-31 -24 -50 -61q-11 -21 -11 -42q0 -17 7 -33q12 -38 54 -45l22 -4 q4 0 4 -4q-6 -6 -10 -12q-29 -37 -73 -41q-6 -1 -13 0q-37 0 -67 22q-36 26 -46 72zM514 1157l21 -53l-3 -811l9 -86q10 -63 24 -62l-7 -2q-36 12 -40 272v3q-4 162 -4 739zM694 1505h19l217 -444l-8 -25zM1581 1391h27l-9 -1123q1 -10 2 -25.5t5 -48t10.5 -53t15.5 -18.5 l-8 -2q-38 8 -41 272q-2 162 -2 998z" />
<glyph unicode="N" horiz-adv-x="1492" d="M12 1286q-2 12 -2 25q0 61 56 127q3 3 8 9t25 21.5t43.5 28t63 24.5t83.5 15h280q52 -3 74 -45l526 -1262v88l5 1061q0 54 -29 70q-23 12 -23 39q1 0 0 4.5t1 11t4.5 13t10 11t17.5 5.5h221q17 0 23 -16q8 -12 4 -31q4 -27 -27 -41q-13 -5 -19.5 -20.5t-6.5 -28.5v-13 l-4 -893l-13 -411q0 -32 -22.5 -54t-53.5 -22h-73q-37 0 -69.5 20t-49.5 52l-604 1302v-305l4 -930q0 -41 29 -55q13 -5 19.5 -15t6.5 -17v-7q0 -20 -4 -24q-7 -17 -22 -17l-222 -2q-16 2 -24 11.5t-8 18.5v9q-1 13 4.5 23t11.5 14l6 4q13 6 20 21.5t8 27.5l1 12l-2 480v438 v280q-4 73 -53 93q-24 13 -41 -4q-32 -22 -52 -58q-12 -21 -11 -44q0 -16 5 -32q15 -39 58 -45l22 -4q5 -3 2 -6q-2 -4 -8 -10q-31 -36 -75 -41q-7 -1 -14 -1q-36 1 -66 23q-36 26 -44 72zM539 1155l20 -51l-2 -809q0 -4 0.5 -11.5t2.5 -27.5t4.5 -37t6 -34.5t8.5 -27 t11 -7.5l-7 -2q-37 8 -42 267v3q-2 164 -2 737zM709 1522l20 2l381 -932l-8 -23zM1403 131h27l-9 1116l9 84q9 64 24 64h2l-8 2q-38 -9 -41 -273q-4 -162 -4 -993z" />
<glyph unicode="O" horiz-adv-x="1122" d="M14 768q0 212 63.5 389t177.5 281t255 104q138 0 249 -104t171.5 -280.5t60.5 -389.5q0 -211 -60.5 -386.5t-171.5 -279.5t-249 -104q-140 0 -254.5 103.5t-178 280t-63.5 386.5zM213 754q0 -137 27.5 -266t71 -218.5t96 -143.5t102.5 -54q49 0 103.5 54.5t100 144.5 t75.5 220t30 267q0 184 -59.5 362t-130.5 244q-45 -18 -71 -50.5t-29 -55.5l-3 -23q0 -43 11.5 -70t28 -35t32.5 -10.5t28 0.5l11 4q2 -2 2 -4v-10q0 -39 -28 -67q-27 -26 -62 -26q-7 0 -14 1q-53 4 -94.5 46t-45.5 138q-33 -60 -41 -133q-6 -54 -6 -57q-1 -8 -2 -18 t-2 -22.5t-2 -19.5q-2 -18 -2 -59q-4 -41 -4 -127q0 -82 2 -123t10 -119q3 -22 10 -59.5t9 -52.5q12 -66 20 -97q13 -49 27 -82q18 -45 28 -59t27 -31l14 -10q-4 4 -14 10q-19 9 -31 29q-38 48 -67 139q-12 34 -27 97q-16 75 -20 112q-10 68 -13 121q-6 62 -6 125 q1 14 1.5 41t1.5 48.5t3 39.5q0 19 4 59q1 13 4 34.5t3 25.5q1 11 4 31t4 28q12 75 44 148t77 127q54 62 116 90q-30 20 -57 20q-49 0 -102 -57t-96 -150.5t-71 -226t-28 -270.5zM653 -2q7 2 19 4q18 3 57 23q3 2 10 6l14 8t13 8q32 21 41 29q36 31 43 39q13 9 22 22 q5 4 21 25q36 41 82 121q12 20 18 32q2 6 8.5 18.5t8.5 18.5q21 53 28 76q9 21 15 39q2 7 6 21.5t6 21.5q8 28 16 84q2 8 4 25t2 18q5 39 7 43q0 16 1 45t1 45q0 28 -4 90q-1 15 -11 88q-8 56 -41 166q-50 149 -141 268q-76 99 -166 136q-26 14 -57 18l-21 2q7 -2 21 -4 q20 -3 55 -21q38 -20 74 -53q75 -60 153 -209q27 -53 56 -145q23 -74 39 -164q8 -53 10 -84t2 -88t-2 -86q-1 -8 -2 -22t-2 -21q0 -1 -2 -18t-4 -25q-2 -7 -7 -36.5t-10 -45.5q-3 -19 -10 -41q-2 -6 -6 -19.5t-6 -19.5q-5 -24 -27 -74q-2 -6 -7 -18t-7 -18q-9 -15 -19 -35 q-46 -86 -73 -119q-12 -16 -21 -25q-3 -4 -9.5 -11.5t-8.5 -10.5q-7 -9 -24 -24t-19 -17q-11 -11 -39 -31q-7 -5 -18 -13t-15 -11q-39 -21 -55 -25z" />
<glyph unicode="P" horiz-adv-x="1239" d="M18 1294q-2 11 -2 21q0 64 56 129q2 3 6 7.5t21 17.5t39 24t62.5 23.5t88.5 19.5h39q32 0 63.5 -16.5t48.5 -44.5q12 7 33.5 16.5t85 26t123.5 18.5h6q57 0 129 -25q76 -26 135 -86q4 -2 10 -7.5t22.5 -29.5t30 -56.5t27 -94t19.5 -137.5q1 -14 0 -29q-1 -73 -17 -144 q-20 -85 -73 -160t-131 -108q-79 -23 -131 -23h-5q-50 0 -108 9q-46 7 -93 7q-16 0 -32 -1q-2 0 -20 -6v-512v-5t1.5 -11t5 -14.5t11 -14t18.5 -10.5q18 -5 27.5 -15t9.5 -17v-7q0 -17 -6 -23q-10 -16 -33 -16h-215q-21 1 -31.5 10.5t-10.5 19.5l-1 9q-1 13 7 22.5t16 12.5 l8 4q16 5 25.5 20.5t10.5 27.5l1 13l-2 1174q-1 1 0 13t-2 31.5t-7 38t-15.5 32.5t-28.5 16q-18 11 -35 0q-50 -37 -51 -80q0 -37 39 -78l36 -31q-4 -8 -14 -14q-29 -37 -73 -42q-7 -1 -14 -1q-36 0 -66 23q-36 27 -44 73zM442 1333.5q0 -4.5 1 -18t1 -34t0.5 -62.5t1 -97 t1.5 -143.5t2 -196.5l2 -2q34 12 80 14q15 1 30 1q29 0 53 -3q36 -4 77 -9t57 -5q35 0 63 14.5t44.5 37t27.5 53.5t15.5 61t6 63t0.5 55.5t-3 41.5l-1 20q-6 233 -173 281q-42 13 -87 13q-63 0 -132 -25q-63 -21 -67 -38v-3v-10v-8.5zM504 594h18l-8 -436v-11q0 -10 4 -18 q0 -10 4 -12q15 -15 19 -15q1 -1 3 -2t3 -2q1 0 3 -1t3 -1q-4 0 -6 2q-2 0 -4 1t-4 1q-8 4 -21 17q-2 1 -3.5 6t-2.5 6l-4 16v2v11v39zM504 1319l4 -461h18l-2 461h-20zM944 666q39 19 78 61q80 87 111 193q20 70 20 138q1 37 -5 73q-16 105 -68.5 205.5t-135.5 181.5 q38 -14 83.5 -67.5t82.5 -135.5q36 -81 54 -173q9 -43 9 -88q0 -52 -11 -106q-21 -102 -85 -182q-10 -12 -20.5 -27t-15.5 -19.5t-18.5 -15.5t-43.5 -32z" />
<glyph unicode="Q" horiz-adv-x="1138" d="M14 768q0 212 63.5 389t177.5 281t255 104q138 0 249 -104t171.5 -280.5t60.5 -389.5q0 -239 -79 -432t-212 -281q23 -36 43 -49q30 -23 60 -26q27 0 33 -23q5 -22 -7 -49q-1 -2 -3 -5t-3 -5q-9 -15 -22 -25l-4 -4q-45 -34 -91 -34h-5q-48 2 -88.5 31t-67.5 77l-33 55h-2 q-140 0 -254.5 103.5t-178 280t-63.5 386.5zM213 754q0 -182 46.5 -344t113.5 -246q8 25 47 51q39 25 83 25q16 0 32 -4q61 -12 96 -64q10 -15 10 -16q76 94 127 255.5t51 346.5q0 184 -59.5 362t-130.5 244q-45 -18 -71 -50.5t-29 -55.5l-3 -23q0 -43 11.5 -70t28 -35 t32.5 -10.5t28 0.5l11 4q2 -2 2 -4v-10q0 -39 -28 -67q-27 -26 -62 -26q-7 0 -14 1q-53 4 -95.5 46t-46.5 138q-25 -36 -33 -80q-1 -8 -6 -53q-6 -54 -6 -57q-1 -8 -2 -18t-2 -22.5t-2 -19.5q-2 -18 -2 -59q-4 -41 -4 -127q0 -82 2 -123t10 -119q3 -22 10 -59.5t9 -52.5 q12 -66 20 -97l6 -24q-6 -2 -14 -6q-5 9 -8 26q-12 34 -27 97q-16 75 -20 112q-10 68 -13 121q-6 62 -6 125q1 14 1.5 41t1.5 48.5t3 39.5q0 19 4 59q1 13 4 34.5t3 25.5q1 11 4 31t4 28q3 23 10 53q35 138 111 222q43 57 116 90q-30 20 -57 20q-49 0 -102 -57t-96 -150.5 t-71 -226t-28 -270.5zM809 35q6 4 18 16q2 2 19 17t24 24q2 3 9 11t10 12q8 8 20 24q30 37 74 119q15 30 18 35q2 6 7.5 18.5t7.5 18.5q14 32 26 73l13 39q7 22 10 41q5 15 9.5 44t6.5 38q2 8 4 25t2 18q1 8 2.5 22t2.5 21q2 29 2 86t-2 88q-1 18 -11 84q-9 49 -28.5 138 t-30.5 124q-31 99 -55 146q-40 75 -74 119q-25 39 -51 65q8 4 10 6q29 -26 55 -59q93 -121 142 -268q13 -43 34 -133.5t27 -131.5q8 -59 10 -88q4 -62 4 -90q0 -15 -1 -45t-1 -45q0 -1 -6 -43q0 -1 -2 -18t-4 -25q-8 -56 -16 -84l-13 -43q-10 -28 -14 -39q-4 -14 -29 -76 q-2 -6 -8 -18t-8 -18q-9 -18 -18 -33q-46 -80 -82 -121q-16 -21 -21 -25q-9 -13 -22 -22q-7 -8 -43 -39q-20 -15 -23 -18q-1 2 -2 5t-2 5z" />
<glyph unicode="R" horiz-adv-x="1140" d="M-90 1294q-2 12 -2 23q0 63 55 127q2 3 6 7.5t21 17.5t39 24t62.5 23.5t88.5 19.5h39q32 0 64 -16.5t49 -44.5q12 7 33.5 16.5t85 26t123.5 18.5h6q57 0 129 -25q76 -26 135 -86q4 -3 11.5 -8.5t27.5 -31t36.5 -59.5t32 -96t21.5 -138v-28.5t-7.5 -69.5t-23 -97 t-51.5 -100t-86 -90q-4 -3 -21.5 -15.5t-31 -21t-21.5 -11.5l227 -481q49 -94 117 -94h4q20 1 29.5 -9.5t9.5 -20.5v-11q2 -14 -6 -27q-10 -16 -33 -16h-248q-24 1 -35.5 11.5t-11.5 20.5v11q-2 13 6 23t16 14l9 4q12 5 6.5 22.5t-37.5 80.5q-21 40 -35.5 69.5t-42 86 t-60 127t-68.5 151.5q-12 12 -15 14q-17 17 -95 19q-18 0 -33 1q-51 0 -73 -4q-2 0 -20 -6v-512q0 -5 0.5 -12.5t10 -22.5t26.5 -20q18 -5 27.5 -15t9.5 -17v-7q0 -17 -6 -23q-10 -16 -33 -16h-215q-21 1 -31.5 10.5t-10.5 19.5l-1 9q-1 13 7 22.5t16 12.5l8 4q16 5 25 20.5 t10 27.5l1 13l-2 1174q0 9 -0.5 23.5t-14 49.5t-38.5 58q-18 11 -35 0q-50 -37 -50 -80q0 -37 38 -78l37 -31q-5 -8 -15 -14q-29 -37 -73 -42q-7 -1 -14 -1q-35 0 -65 23q-36 27 -44 73zM334 1324q2 -136 6 -542l2 -2q34 12 80 14q15 1 30 1q28 0 52 -3q36 -4 77.5 -9 t57.5 -5q35 0 63 14.5t44.5 37t28 53.5t15.5 61t6 63t1 55.5t-3 41.5l-1 20q-6 233 -173 281q-42 13 -87 13q-63 0 -132 -25q-63 -21 -67 -38v-3v-28zM395 594h19l-8 -436v-11q0 -10 4 -18q0 -10 4 -12q15 -15 18 -15q1 -1 3 -2t3 -2q1 0 3 -1t3 -1q-4 0 -6 2q-2 0 -4 1 t-4 1q-6 3 -20 17q-2 1 -4 6t-3 6l-4 16v2v11v39zM395 1319l4 -461h19l-2 461h-21zM819 614l17 7l219 -445q0 -2 4 -10q4 0 10 -12q3 -1 5.5 -4t4.5 -3q9 -6 27 -6q2 -2 6 -2l6 2q-4 -2 -6 -2h-8q-18 0 -27 6q-2 0 -5.5 3t-4.5 4l-12 12l-6 8l-17 37zM836 666q38 18 77 61 q105 115 125 261q5 39 5 76q-1 106 -41 208q-56 138 -166 246q38 -14 83.5 -67.5t82.5 -135.5q36 -81 54 -173q9 -43 9 -88q0 -52 -11 -106q-21 -102 -85 -182q-9 -11 -18.5 -23.5t-12 -16t-11.5 -12t-20.5 -16.5t-36.5 -26z" />
<glyph unicode="S" horiz-adv-x="1011" d="M38 286l13 21q12 19 28 29t26 10h10q7 -1 12.5 -6.5t7.5 -10.5l2 -5q8 -45 45 -66q75 -42 141.5 -64t115.5 -24h17q40 0 74 8q42 10 72 30t53 43.5t37 49.5t23 46.5t13 34.5l3 13q1 11 1 22q0 59 -23 109q-27 58 -68 93t-99 60.5t-103.5 36t-94.5 17.5q-84 17 -145 60 t-93 101q-31 56 -42 124q-6 34 -6 68t6 68q11 68 40 132q28 49 43 73t42 57t52.5 50.5t64.5 34t89 25.5q48 8 95 8q4 0 8 1q42 1 77 -5q38 -6 77 -18t67.5 -24t59 -29.5t50 -30.5t41.5 -29q16 -9 25 -25q21 -33 21 -62v-2q-1 -30 -14 -52l-13 -21q-11 -19 -27 -29t-26 -10 h-11q-8 2 -13 8t-6 12l-1 5q-37 60 -95 99q-56 38 -118 50q-30 6 -61 6q-32 0 -63 -6q-62 -12 -110 -47t-77 -97q-27 -58 -28 -131q0 -5 1 -10q2 -59 41 -108.5t93.5 -78t108.5 -48.5t92 -28l38 -7q71 -23 125 -61.5t85.5 -83.5t50.5 -95q18 -49 22 -99l2 -40q0 -27 -3 -52 q-5 -42 -18 -75q-42 -120 -126.5 -186t-215.5 -92q-58 -10 -114 -10q-194 0 -363 120q-10 8 -27 25q-21 32 -21 61q0 32 14 57zM316 1152q12 62 55 110q30 32 65.5 48t55.5 16h20q-23 -6 -43 -14t-35 -18.5t-28 -22t-22.5 -24t-16.5 -23.5t-12 -22t-8 -18t-5 -14l-2 -7 q-4 -23 -4 -44q0 -25 6 -49q10 -42 29.5 -68.5t41 -44t37.5 -24.5t19 -5h-10q-39 0 -71 28q-36 32 -58 76q-18 40 -18 81q0 19 4 39zM752 39q5 1 13.5 4t33 16.5t47 30.5t50 48.5t47 69.5t33 95t13.5 123t-9.5 121.5t-24 91.5t-32.5 64.5t-36 43.5t-32.5 25t-24.5 13l-9 3 q10 -12 32.5 -35t31.5 -34t25 -34.5t23 -46.5t15.5 -58t11.5 -81.5t3 -105.5q0 -69 -21.5 -130.5t-52.5 -100.5t-62.5 -68.5t-52.5 -41.5z" />
<glyph unicode="T" horiz-adv-x="1126" d="M59 1382v115q0 12 9 21.5t22 9.5l141 -2v2v-2h361l448 2q12 0 20.5 -9.5t8.5 -21.5v-115q-1 -16 -10.5 -24t-18.5 -8h-10q-12 0 -22 5.5t-14 10.5l-3 6q-6 13 -18.5 22t-21.5 12l-9 3l-29 2h-276v-463v-831q13 -47 145 -47q14 0 29 -15q11 -7 8 -22q0 -3 -0.5 -8.5 t-10 -14.5t-28.5 -10h-102h-248h-115q-18 1 -28 9t-11 16v8q0 13 9 22q15 15 30 15h30t33 2.5t37 7.5t27 15.5t19 25.5v844v274l2 172l-275 -2q-35 -8 -51 -37q-12 -22 -39 -22h-2h-5t-7.5 1t-8 3t-8 5.5t-6 9t-2.5 13.5zM711 1315h24l-8 -1032q0 -4 0.5 -11.5t2.5 -27 t4.5 -36.5t6.5 -34.5t9.5 -27t11.5 -7.5l-8 -2q-37 8 -41 263v3q-2 131 -2 912z" />
<glyph unicode="U" horiz-adv-x="1116" d="M18 1488v7q-2 12 5 23q8 16 28 16h236q20 -1 29.5 -10.5t9.5 -19.5v-9q1 -13 -6 -23t-14 -14l-7 -4q-17 -5 -27 -19.5t-11 -26.5l-1 -11v-969q0 -6 0.5 -17t5 -41.5t13.5 -58.5t29 -62.5t47 -59t72 -41.5t101 -17q6 -1 15.5 -1t37.5 3.5t54 11.5t57 29.5t53.5 52t38 82.5 t15.5 119v969q0 5 -1 13t-9.5 23.5t-24.5 20.5q-3 1 -8.5 4t-13.5 13.5t-7 23.5q-1 4 -0.5 10.5t10.5 17t31 11.5h236q20 0 28 -16q9 -13 7 -23q4 -27 -33 -41q-17 -5 -26.5 -18.5t-9.5 -23.5l-1 -11l2 -1053q0 -72 -27 -137l-3 -12t-13.5 -30t-28 -42t-49.5 -44.5 t-75.5 -42.5t-109 -30t-145.5 -12q-77 0 -147 17.5t-132 54t-104.5 102t-54.5 152.5q-2 8 -2 1077q0 5 -0.5 12t-10 21.5t-26.5 19.5q-16 6 -24.5 16.5t-8.5 17.5zM324 604l4 -123q0 -86 4 -127q0 -41 43 -71q-21 21 -33 51q-1 3 -2 10t-2 10q1 21 2 63t2 64l2 123l2 125 v123v125l-2 125l-2 125q0 21 -1 62t-1 61v14v8l2 6q1 2 2 7.5t2 7.5l4 10l6 12q3 9 6 15q2 4 6.5 11t6.5 11q-1 -2 -7 -8.5t-8 -11.5q-5 -10 -8 -13l-6 -12l-6 -12q0 -7 -4 -15l-2 -8l-2 -6l-2 -16q-1 -20 -2 -61t-2 -62l-2 -125v-125v-125v-123v-125zM961 66 q48 29 74.5 133t28.5 193l3 89l2 123v125l2 123l-2 125v125l-2 125q-1 20 -2 61t-2 62l2 14v8l2 6q2 4 2 15l6 10q0 4 4 12q0 3 6 15q2 4 8.5 10t8.5 10q-1 -1 -9 -7t-10 -11q-3 -3 -8 -13q0 -4 -4 -12l-6 -12q-4 -8 -4 -15l-2 -8l-2 -6l-2 -16q-1 -20 -2 -61t-2 -62 l-2 -125v-125l-2 -125l2 -123v-125l4 -123q-3 -101 -13.5 -181t-23.5 -122t-25.5 -69.5t-20.5 -34.5z" />
<glyph unicode="V" horiz-adv-x="1171" d="M61 1486v7q-1 6 0.5 16t4.5 13q6 16 28 16l242 2q20 -2 29.5 -13t9.5 -21v-11q1 -12 -6 -22.5t-14 -14.5l-7 -4q-15 -5 -23 -20.5t-9 -27.5l-1 -13l265 -1252l272 1264q0 5 -1 12t-9.5 21.5t-24.5 19.5q-16 6 -23.5 16.5t-7.5 17.5v7q0 18 5 23q8 14 28 18h246 q20 -1 29.5 -10.5t9.5 -19.5v-9q2 -12 -5 -22.5t-15 -14.5l-7 -4q-20 -10 -28 -37q-1 -2 -2.5 -6t-2.5 -6l-256 -1137q-1 -5 -3 -14.5t-10 -36.5t-18 -51.5t-28 -54.5t-38 -51t-49 -35.5t-62 -14.5q-41 3 -76.5 31t-57.5 66t-38 76t-22 64l-7 26l-252 1120q0 5 -1 12 t-9.5 21.5t-24.5 19.5q-16 6 -23.5 16.5t-7.5 17.5zM383 1397v16q0 6 4 14q5 8 21 19q-14 -10 -19 -21q-7 -13 0 -26l14 -60q4 -20 13.5 -61t13.5 -61l92 -418l23 -105l24 -127l-12 -63l-33 170l-22 121l-21 120q-4 21 -44 210.5t-44 209.5zM766 8q30 2 66 89t56 173l21 86 q67 251 100.5 410.5t77.5 431.5q7 35 27 182q3 16 12 25q8 8 21 8q-14 3 -23 -6q-6 -6 -8 -10q-1 -2 -3 -7.5t-3 -7.5q-7 -44 -13.5 -78.5t-13 -62.5t-8.5 -39l-22 -121q-18 -82 -43 -206t-49 -228t-70 -285q-39 -135 -55 -215q-7 -34 -24.5 -68.5t-31.5 -52.5z" />
<glyph unicode="W" horiz-adv-x="1828" d="M-39 1290q-2 12 -2 24q0 66 57 128q2 2 6 6.5t18 16t30 21.5t43.5 21.5t58.5 18.5q6 2 11 3l10 2t12.5 1.5t14 1t18.5 0.5t23 0.5t31.5 0.5h38.5t49 0.5t60 0.5q18 -2 27 -13.5t9 -22.5l-1 -11q2 -12 -3.5 -22.5t-11.5 -14.5l-7 -4q-15 -5 -23 -20t-9 -27l-1 -12 l229 -1237l236 1249q0 4 -0.5 11t-8.5 21t-24 19q-14 6 -21 16.5t-7 17.5l-1 7q-2 11 4 23q8 16 27 16l217 4q17 -2 26 -12t9 -20v-9q1 -13 -6 -23t-14 -14l-7 -4q-13 -6 -20 -21t-7 -27l-1 -11l223 -1245l235 1236q1 50 -30 62q-3 1 -7.5 4t-11.5 13t-6 22q1 0 0 4.5 t1 11.5t4.5 13.5t10 11.5t17.5 6l248 -2q18 0 24 -16q8 -12 4 -31q5 -27 -28 -41q-15 -4 -23 -17t-9 -23l-1 -11l-232 -1133q-2 -10 -6.5 -27t-20.5 -61t-35.5 -78t-52.5 -63.5t-71 -32.5h-10q-38 3 -72 31.5t-55 66.5t-36 75t-21 63l-7 26l-116 764l-125 -768 q-2 -10 -6 -27.5t-20 -62t-36 -78.5t-55 -62q-34 -27 -73 -26h-3q-39 3 -72.5 31t-54 66t-35 75.5t-20.5 63.5l-6 26q-238 1147 -240 1151q-7 9 -9 12.5t-10 10.5t-14.5 8t-18.5 0.5t-26 -6.5q-31 -13 -50 -54q-10 -22 -10 -44q0 -18 7 -37q13 -40 53 -46l23 -4q4 0 4 -4 q-6 -6 -10 -12q-29 -37 -73 -41q-6 -1 -13 0q-38 0 -68 22q-36 26 -45 72zM498 1397v14q0 8 4 12q1 1 2.5 4t3.5 5q-1 -2 -2 -5t-2 -4q-5 -11 -2 -24l12 -51q7 -31 29 -109l82 -362l20 -99l37 -170l-12 -63l-43 215l-21 112l-20 109q-2 20 -39 184.5t-39 177.5zM829 -2 q42 41 58 94q56 213 94 404l10 -52l-49 -213q-2 -9 -6 -25t-16 -55.5t-24.5 -70.5t-30.5 -56t-36 -26zM1106 1393v14q0 4 4 12q7 14 18 17q-10 -5 -16 -17q-4 -16 -2 -24l10 -52q19 -85 23 -106l71 -358l17 -99l35 -168l-13 -59l-36 209l-19 110l-16 109q-3 20 -34.5 183.5 t-33.5 174.5zM1458 -2q42 61 60 139l47 213l20 121l23 123l20 115q1 5 45 254l21 118l24 121q2 11 10.5 54t14.5 67l12 59q0 7 4 15q7 11 10 12q6 6 17 6q-3 -1 -17 -8q-10 -10 -10 -25l-8 -61q-3 -19 -6.5 -40.5t-7.5 -46t-6 -36.5l-19 -123l-20 -121l-21 -123 q-19 -125 -20 -129l-23 -114l-22 -123l-25 -119q-1 -4 -2 -12t-5.5 -31.5t-9.5 -46.5t-12 -54t-14.5 -58t-17.5 -54.5t-19.5 -47t-20.5 -32t-22 -12.5z" />
<glyph unicode="X" horiz-adv-x="1136" d="M12 1486v7q0 9 4 25q6 14 21 14h203q16 -1 23.5 -10.5t6.5 -19.5v-9q1 -12 -4 -22.5t-10 -14.5l-6 -4q-10 -7 -6.5 -23t12.5 -33l10 -16l250 -446l258 444q1 1 2 3.5t4 9.5t5.5 13t5 14.5t3.5 14.5t-0.5 11.5t-5.5 7.5q-2 2 -6 5t-9.5 13.5t-4.5 22.5v10.5t7 17t22 11.5 h202q17 0 23 -14q4 -16 2 -25q4 -27 -23 -41q-26 -13 -40 -45q-11 -23 -349 -639q60 -110 152 -278q152 -278 186.5 -336.5t55.5 -69.5q12 -6 17.5 -16t4.5 -16v-7q0 -19 -2 -25q-6 -16 -22 -16h-203q-15 2 -22 12t-7 20v9q-1 11 4.5 21t11.5 14l5 4q8 7 4.5 23t-12.5 33 l-9 16l-262 448l-242 -446l-17 -36q-11 -32 3 -38q3 -2 6.5 -5t9.5 -13t5 -21v-10.5t-7.5 -17.5t-23.5 -13h-203q-14 0 -20 16q-5 15 -5 25q-2 25 25 39q19 8 44.5 52t130.5 252q111 219 196 384l-314 590q-13 22 -22 47q-5 11 -17.5 24t-25.5 19q-12 6 -18.5 16.5 t-6.5 17.5zM309 106l23 -6l194 340l-16 23zM322 1415l190 -348l12 25l-186 340zM717 780l51 97l51 98q12 18 92 178l84 168l25 47q2 2 4 5.5t4 4.5q3 6 10 6q8 3 21 -6q-11 7 -21 4q-12 -8 -14 -18l-25 -49q-8 -18 -23.5 -52t-23.5 -51l-172 -350l-37 -80 q39 -70 80.5 -151.5t65.5 -131.5t69 -145.5t60 -126.5l20 -51q10 -27 35 -16q-10 -7 -21.5 -4t-15.5 16l-26 51q-3 6 -10.5 22t-24 47.5t-51.5 92.5q-35 69 -93 177.5t-114 217.5z" />
<glyph unicode="Y" horiz-adv-x="1177" d="M60 1490l1 3q-1 6 0.5 16t4.5 13q6 16 28 16l242 2q20 -2 29.5 -13t9.5 -21v-11q1 -12 -6 -22.5t-14 -14.5l-7 -4q-15 -5 -23 -20.5t-9 -27.5l-1 -13l279 -568l258 580q0 5 -1 12t-9.5 21.5t-24.5 19.5q-16 6 -23.5 16.5t-7.5 17.5v7q0 18 5 23q8 14 28 18h246 q20 -1 29.5 -10.5t9.5 -19.5v-9q2 -12 -5 -22.5t-15 -14.5l-7 -4q-31 -63 -116.5 -241.5t-150.5 -309t-134 -260.5l-2 -559q-1 -29 26 -37q13 -5 20.5 -17.5t0.5 -25.5q-10 -10 -23 -10h-217q-14 1 -21 7.5t-7 12.5v7q-1 8 4 14.5t11 8.5l5 3q12 4 18.5 14t7.5 19l1 8 q0 65 -0.5 211t-0.5 237.5t1 108.5q-33 66 -91.5 190.5t-126.5 261t-155 296.5q-10 26 -35 53q-3 3 -9.5 6.5t-8.5 5.5q-7 9 -10.5 16t-3.5 10zM389 1409l19 8l188 -420l-16 -8zM745 78l5 565l344 721l16 -8l-342 -715l-4 -561z" />
<glyph unicode="Z" horiz-adv-x="1146" d="M60 2q-9 7 8 43l753 1397q6 14 0 14h-573q-5 -3 -11.5 -8.5t-17 -23t-8.5 -35.5v-10.5t9.5 -17t27.5 -11.5q2 0 2.5 -4t-0.5 -5q-9 -10 -24.5 -13.5t-26.5 -1.5l-11 1q-36 13 -50 44t-10 56l5 25q12 41 36 61.5t42 20.5h18h807l8 -2q9 -9 -8 -43l-753 -1399q-8 -12 0 -12 h651q4 1 10 3t15 14t6 30q-1 1 0.5 8.5t-7 17.5t-24.5 13q-4 1 -2 6q7 9 21.5 12t24.5 2l11 -2q36 -12 50 -37.5t9 -44.5l-4 -20q-13 -40 -37.5 -60t-42.5 -20h-18h-878zM302 1390q2 -8 5 -10q10 -10 37 -14h8q-23 5 -30 10q-6 5 -7 10q0 26 31 29h51h109q145 0 221 4v8 q-83 0 -148.5 1.5t-72.5 1.5h-109h-47q-38 0 -47 -27q-3 -5 -1 -13zM365 98q10 12 22 35q45 75 59 100q13 23 41 71.5t39 68.5q7 16 43 82q7 14 22.5 40.5t22.5 41.5q24 41 45 81q8 14 144 274t143 273q42 73 74 146q27 52 29 57q12 22 16 49q6 21 2 33q0 2 -1 4.5t-1 3.5v2 v-2v-8q0 -17 -2 -33q-6 -18 -21 -45q-4 -7 -15.5 -25.5t-16.5 -29.5q-10 -18 -37 -66t-43 -75q-30 -50 -43 -80q-72 -130 -289 -549q-9 -18 -26 -46.5t-21 -35.5q-23 -52 -41 -80q-9 -19 -25 -49t-28 -53.5t-21 -42.5q-41 -81 -51 -105zM991 199q2 0 10 -2q30 -7 33 -9 q19 -7 31 -26q1 -5 12 -21q0 -8 2 -14v-10q0 -31 -6 -49q-11 -25 -24 -41l-23 -23l-12 -4l12 4q16 8 27 21q20 20 26 36q11 22 11 56q0 5 -3 14q0 8 -2 12q-3 13 -12 25q-12 12 -18 16q-3 2 -9.5 5.5t-9.5 5.5q-12 4 -20 4h-15h-8h-2z" />
<glyph unicode="[" horiz-adv-x="495" d="M55 55v576v274v574q0 25 16.5 41t39.5 16h6h4h313q15 0 26 -10.5t11 -24.5q0 -15 -11 -26t-26 -11h-278v-1388h280q15 0 26 -10.5t11 -24.5q0 -15 -11 -26t-26 -11h-303q-6 -4 -20 -4q-24 0 -41 15.5t-17 39.5z" />
<glyph unicode="\" horiz-adv-x="1021" d="M147 1399q-9 24 0.5 45.5t30.5 30.5q26 10 41 -1t27 -40l2 -7l192 -462l33 -76l107 -264l32 -76l193 -465l2 -6q11 -25 7 -45t-28 -31q-22 -9 -44 -0.5t-31 31.5l-6 16l-193 471l-31 66l-106 262l-25 65l-194 469zM223 1493l5 3q30 2 108 -181q85 -197 170 -414l112 -260 q31 -79 90 -224.5t78 -193.5q72 -193 41 -203q11 5 7.5 30.5t-12.5 55.5l-9 29l-207 500l-110 264l-205 502l-34 59q-25 39 -34 33z" />
<glyph unicode="]" horiz-adv-x="595" d="M53 41q0 14 11 24.5t26 10.5h281v1388h-279q-15 0 -26 11t-11 26q0 14 11 24.5t26 10.5h314h4h6q23 0 39 -16t16 -41v-574q2 -274 0 -274v-576q0 -24 -16.5 -39.5t-40.5 -15.5q-15 0 -21 4h-303q-15 0 -26 11t-11 26z" />
<glyph unicode="^" horiz-adv-x="843" d="M14 666.5q-5 13.5 2 27.5l43 74l23 43l219 393l33 56l39 69q7 14 20 17q0 2 2 2q15 8 30 5t24 -16l34 -63l31 -53l229 -383l33 -56l45 -71q6 -12 2 -27t-16 -22q-12 -6 -27 -3t-22 15l-43 74l-27 40l-260 445l-16 20l-13 -24l-28 -49l-219 -392l-33 -57l-39 -74 q-7 -12 -22 -15t-27 5q-12 6 -17 19.5z" />
<glyph unicode="_" horiz-adv-x="1705" d="M84 -379q0 13 11 24t24 11h86h49h758h63h80q15 0 26 -10.5t11 -24.5q0 -15 -11 -26t-26 -11h-76h-59h-752h-65h-84q-14 0 -24.5 11t-10.5 26z" />
<glyph unicode="`" horiz-adv-x="972" d="M289 1266q-4 16 6 34q23 52 85 51t91 -44q11 -15 28 -48t29 -49q10 -15 29.5 -25.5t34.5 -10.5q20 -1 24 -17q0 -33 -10 -43q-6 -10 -16 -16q-32 -30 -81.5 -25t-76.5 43q-5 5 -18 31l-37 67q-9 13 -30.5 25t-35.5 12q-18 1 -22 15z" />
<glyph unicode="a" horiz-adv-x="841" d="M22 435l1 34q6 77 28.5 151t50 124t53.5 89t44 57l18 19q44 44 87.5 71t77.5 34q28 6 56 6h11q32 -2 55 -12.5t40 -21t26 -19.5l8 -9q16 33 50 48.5t60 14.5l25 -1q29 -2 52 -23t-1 -45q-16 -16 -25.5 -41t-10.5 -42l-1 -17v-694v-11q0 -48 33 -77q2 -1 5 -3.5t6.5 -10 t0.5 -15.5q-2 -4 -5.5 -10.5t-19.5 -17t-38 -11.5q-5 -1 -12.5 -1.5t-28 2.5t-37.5 10.5t-34 26.5t-24 48q-75 -78 -206 -82h-21q-80 0 -135 27q-60 31 -101.5 87.5t-57.5 114.5t-24 112q-6 43 -6 73v15zM216 408q2 -94 24 -166q2 -7 6.5 -18.5t21 -40.5t36 -50.5 t52.5 -37.5q28 -13 58 -13h12q63 6 106 61t46 123l-3 611q-1 0 0.5 3.5t-2 9t-8.5 11t-19.5 10.5t-35.5 7q-4 1 -11 1t-28.5 -3.5t-43 -13t-50 -32t-53.5 -55.5t-51 -89.5t-44 -127.5q-3 -22 -9 -59q-4 -29 -5 -94q1 -17 1 -37zM252 504q-4 -41 -4 -78q0 -92 24 -168 q7 -29 25 -65q13 -26 35 -48q25 -21 37 -26q26 -13 43 -8q-56 0 -105 88q-15 32 -24 75t-10.5 65.5t-4.5 80.5q0 126 37 244q52 131 137 202q8 7 16 12.5t12 7.5l3 1q-12 -5 -35 -19q-57 -44 -76 -71q-50 -61 -73 -127q-15 -39 -23 -80q-6 -25 -14 -86zM760 319 q0 -23 0.5 -54t0.5 -44.5t1 -31.5l1.5 -27t2.5 -19t4 -18q4 -13 18 -27q11 -8 21 -8q-13 6 -21.5 16.5t-11 28t-3.5 29t0 35t1 30.5l4 181v90v88l-4 178q0 15 -1 45t-1 43q0 39 33 72q-19 -15 -27 -31q-9 -13 -14 -39q-2 -29 -2 -90l-2 -88v-90v-88v-90v-91z" />
<glyph unicode="b" horiz-adv-x="890" d="M-78 1401v8q0 31 25 61q3 5 11 12.5t44.5 20.5t87.5 13h137q17 0 17 -27v-522q3 3 8.5 9t25 19t41 21t54.5 11q9 1 17 1q25 0 50 -6q34 -8 78.5 -35t89.5 -72q7 -7 18.5 -20t42.5 -56.5t56.5 -92t49 -124t30.5 -153.5q1 -7 1 -19t-1.5 -48.5t-6.5 -71.5t-18 -81 t-33 -84.5t-54.5 -75.5t-78.5 -60q-61 -30 -135 -30q-13 0 -26 1q-129 14 -205 82q-10 -44 -44 -66q-33 -21 -61 -20h-3h-29q-22 2 -39 12t-23 20l-6 9q-2 7 1.5 14.5t7.5 10.5l5 4q16 16 25 37.5t10 34.5v14l-2 706v594q0 10 -8 18.5t-19 8.5h-34q-3 -1 -8 -3t-15.5 -10 t-16 -16.5t-3 -23t17.5 -29.5l14 -15q-2 -2 -4 -6q-22 -28 -53 -19t-39 44zM246 266v-8q0 -61 41 -113q46 -63 110 -69q6 0 12 -1q31 0 58 14q33 16 53.5 41t36 50.5t22.5 43.5l7 18q24 70 26 160q1 19 0 38q0 64 -7 106l-9 54q-19 72 -45 129t-52.5 90.5t-53.5 57t-50.5 33 t-42 14t-28.5 3.5l-11 -1q-35 -4 -51.5 -15t-15.5 -19v-9v-617zM281 1516l6 -480h20l-6 480h-20zM287 526l2 236q0 4 4 98l4 21q8 30 49 22q-43 0 -42 -22v-41q0 -54 3 -314q-4 -258 -3 -297q0 -23 9 -45.5t29 -29.5q-8 2 -14.5 6t-11 8.5t-8.5 12t-7 13.5t-5 16.5t-3 16 t-2 18t-1 17.5t-0.5 17.5t-0.5 15.5zM590 991q7 -4 20 -13.5t48.5 -44.5t66 -77t64 -114.5t51.5 -155.5q2 -13 5.5 -34.5t6.5 -83.5q2 -31 2 -60.5t-2 -56.5q-4 -55 -21 -120.5t-49 -109.5q-21 -27 -29.5 -36.5t-27 -28t-37.5 -26.5t-41 -10q50 23 78 60q37 40 62 95t34 105 q9 52 13 96q3 35 2 58v12l-2 27q-5 84 -24.5 159t-41.5 124t-59 99.5t-59 74.5t-60 61z" />
<glyph unicode="c" horiz-adv-x="735" d="M41 422q-5 44 -5 88q0 55 8 108q14 95 50.5 180.5t91.5 139.5q44 44 104 67q55 21 112 21h10q89 -2 155.5 -22t128.5 -84q21 -28 19.5 -52.5t-13.5 -41.5l-12 -17q-8 -11 -19.5 -15.5t-19.5 -3.5l-8 1q-3 1 -5 2.5t-3 4t-1.5 4.5t-0.5 4v1q1 5 1 10q0 45 -58 92t-109 47 h-10q-92 -8 -160.5 -127.5t-77.5 -298.5q-2 -31 -2 -90q7 -148 60 -244.5t131 -115.5q11 -3 23 -3q44 -1 109 33q84 42 113 109q3 12 15 14q29 3 43 -26q2 -2 4 -5.5t7 -14.5t7 -21.5t-0.5 -25t-11.5 -27.5q-13 -13 -19 -17q-56 -49 -158 -81q-58 -18 -115 -18q-45 0 -91 11 q-87 21 -151.5 83.5t-97.5 146.5t-44 184zM270 358q12 -76 37 -137q26 -67 78 -110q-32 32 -49 65q-48 106 -58 238q-3 33 -3 66q0 97 24 192q20 75 47 133q14 28 21.5 41t25 32.5t37.5 28.5q-27 0 -60 -48.5t-53.5 -98.5t-29.5 -84q-9 -26 -17 -76q-10 -62 -10 -122 t10 -120z" />
<glyph unicode="d" horiz-adv-x="876" d="M36 438l1 35q6 79 28 152.5t50 123t55 87.5t45 56l18 17q44 43 87.5 69t77.5 33q27 5 53 5h14q32 -2 55 -12.5t40 -21t26 -19.5l8 -9l-2 496q0 11 -8.5 19t-20.5 8h-33q-3 -1 -8 -3t-15.5 -10t-15.5 -16.5t-2.5 -23t17.5 -29.5l16 -15q-2 -4 -6 -8q-22 -26 -54 -17.5 t-38 42.5q-1 6 -1 13q0 29 26 56q3 5 11 13t44.5 21.5t87.5 15.5h131q16 0 16 -31l4 -637l-2 -694v-5q0 -49 35 -83q2 -1 4 -3.5t6 -10t0 -13.5q0 -1 -0.5 -2t-3 -5t-5.5 -8t-8 -8.5t-11 -8t-15.5 -6t-19.5 -3.5q-4 -1 -11.5 -1.5t-27 2.5t-36 10t-33.5 26t-25 47 q-79 -71 -205 -80q-15 -1 -30 -1q-74 0 -130 30q-60 31 -101.5 88t-57.5 116t-24 113q-6 43 -6 74v16zM230 403q0 -94 24 -165q2 -7 6.5 -18.5t21 -40.5t36 -50.5t52.5 -37.5q28 -13 58 -13h12q69 6 109 65q45 61 45 119l-2 610v1v4t-0.5 5.5t-2.5 6t-4.5 7t-8 7t-12.5 6.5 t-17 5.5t-23 3.5q-8 1 -21 0.5t-50.5 -15.5t-70.5 -44.5t-72 -99t-64 -167.5q-4 -22 -10 -58q-5 -33 -5 -116q-1 -7 -1 -15zM281 584q-16 -61 -16 -136q0 -88 22 -194q10 -41 26 -68q38 -63 113 -77l-10 3q-9 3 -19 7t-22.5 11.5t-20.5 16.5q-48 48 -65 185q-4 42 -4 85 q0 79 14 163q5 23 23 79q20 60 67 129q36 48 68 74l32 25q-14 -7 -34 -21q-42 -29 -76 -71q-51 -66 -74 -129q-16 -43 -24 -82zM760 1516q9 0 14.5 -4t7.5 -12.5t3 -15.5t1 -19v-17q6 -80 9 -250q0 -55 1 -123.5t1 -126.5v-309q1 -40 1 -99q0 -118 -3 -315q0 -12 -0.5 -27.5 t-1.5 -43t-2 -50.5q0 -12 8 -20q2 -2 8 -5.5t8 -4.5q-12 4 -20 10q-9 9 -9 20q-2 39 -2.5 74.5t-1.5 46.5q-6 276 -6 414v309v250q1 85 2 141.5t1.5 77.5t0.5 31v39q0 23 -20 29z" />
<glyph unicode="e" horiz-adv-x="808" d="M54 472v25q0 121 36 235q40 126 117 204q90 90 217 90h8q37 -2 56.5 -3.5t54.5 -8.5t57.5 -18.5t48.5 -34.5t45 -56q36 -66 46 -163q3 -29 4 -56q0 -64 -16 -118q-22 -77 -71 -87q-41 -9 -129 -11q-73 -2 -153 -2h-32q-97 0 -112 1q0 -48 8 -102.5t27 -120t60.5 -113 t99.5 -57.5q19 -3 37 -3q58 0 110 30q68 39 99 110q2 16 16 20q25 3 41 -30q2 -2 4 -5.5t7 -15t7 -22.5t-1 -26t-13 -28q-45 -66 -162 -91q-75 -16 -144 -16q-39 0 -75 5q-88 13 -156 72t-98 145q-40 117 -44 251zM233 563q63 -1 111.5 -1h82t58.5 1.5t38 1.5t24 2.5t13 3 t9.5 5t8.5 4.5q28 14 33 68q2 19 2 38q0 34 -6 68q-9 52 -23 88q-33 101 -113 112q-9 1 -18 1q-55 -1 -101 -49q-54 -56 -83 -146.5t-36 -196.5zM274 434h13q3 -11 6 -43q7 -52 10.5 -72t15 -65.5t30 -78t46.5 -60.5l11 -9q-46 25 -77.5 95.5t-42.5 129.5t-12 103zM279 600 q15 101 56 187.5t103 125.5q-70 -53 -104 -153q-22 -55 -43 -160h-12zM649 991q42 -13 85.5 -84t47.5 -196q1 -14 0 -26q0 -35 -4 -65q-6 -40 -15 -62t-19 -36t-18 -18l-7 -4q29 25 41 78q11 46 10 82v11l-2 40q-3 64 -16.5 116.5t-30.5 81.5t-33.5 49t-27.5 26z" />
<glyph unicode="f" horiz-adv-x="546" d="M6 909q-1 6 -1 13q0 27 24 55q3 5 10.5 13t44 21.5t88.5 14.5l2 186q0 5 -0.5 12.5t0.5 32.5t6.5 46.5t16.5 54t30 54.5t48 48.5t70 36t96 15.5q16 2 33 2q43 0 93 -11l7.5 -2.5t18.5 -7.5t27.5 -13t30.5 -20t30 -28t25 -36t17 -44.5t3 -55t-13 -65.5q-23 -67 -78 -90 q-25 -14 -50 -14q-41 0 -81 40q3 2 7 5t15.5 14t21.5 23t21 30.5t16.5 38t5.5 44.5t-9 50q-2 3 -5.5 9t-16.5 20t-28.5 24.5t-43 17t-58.5 3.5q-4 -1 -11.5 -3t-25.5 -16t-31.5 -36.5t-25.5 -69.5q-10 -43 -10 -99v-10l2 -186h143q5 1 13.5 1.5t30 -1.5t38.5 -8.5t32.5 -24 t18.5 -43.5q2 -10 2 -18q0 -48 -53 -62q-13 -4 -23 -4q-24 0 -36 19q-1 1 -0.5 4.5t2.5 3.5q17 2 26 12.5t10 20.5v10q1 19 -8 32t-18 16l-10 3h-158q-10 -7 -10 -24v-62v-645l2 -162q-3 -31 22 -39q21 -8 21 -26q0 -3 -0.5 -7t-8 -12t-22.5 -10h-199q-13 0 -22 12 q-2 4 -2 17q-5 18 24 26q5 1 9 3.5t6.5 4t5 4.5t3.5 4.5t2 5.5t1.5 5t1.5 6v4v176l-2 637v37v25q-1 9 -9.5 15.5t-17.5 6.5h-32q-3 -1 -8 -3t-15.5 -10t-16 -17t-3.5 -23.5t16 -30.5l16 -12q-2 -6 -6 -10q-22 -25 -52.5 -15.5t-35.5 41.5zM358 1053v139v18q0 52 10 92 q12 46 27.5 68t36.5 35.5t31.5 15.5t17.5 2q-33 -5 -56 -28t-33.5 -57.5t-15.5 -68.5q-3 -28 -3 -58v-13v-145h-15zM362 969h15l6 -310v-81q0 -314 -6 -480q0 -6 2 -12q1 -3 20 -16q-14 5 -19.5 10t-6.5 18q-8 384 -8 561zM641 1120h10q38 0 65 22q31 24 43.5 64t16.5 66 t4 45q-1 39 -15.5 71.5t-34.5 50t-40.5 29t-34.5 15.5l-14 4q7 -3 22.5 -13t26.5 -19l12 -9q32 -30 48 -67q14 -34 14 -63v-6q-2 -31 -7.5 -58.5t-13.5 -43.5l-8 -16q-20 -35 -43.5 -53t-37.5 -19h-13z" />
<glyph unicode="g" horiz-adv-x="858" d="M60 452l1 23q6 76 28.5 148.5t49.5 122.5t53.5 89t43.5 57l18 19q60 60 119 87q52 25 91 25q5 0 10 -1q41 -3 74 -15.5t50 -28.5l16 -15q16 32 49.5 46.5t58.5 12.5l26 -2q29 0 51.5 -22.5t-0.5 -45.5q-17 -13 -26.5 -37t-10.5 -41v-18v-1069q1 -15 0.5 -39t-17.5 -82 t-52.5 -99t-118.5 -65q-45 -13 -101 -13q-46 0 -100 9l-7.5 2.5t-18.5 7.5t-27 13.5t-29.5 20.5t-30 28t-25 36t-17.5 44.5t-4.5 54t11.5 64.5q27 66 78 92q25 12 50 12q44 0 83 -41q-3 -2 -7 -5t-16 -14t-22 -23t-21 -30.5t-16.5 -37.5t-5 -43.5t9.5 -49.5q2 -3 5 -8.5 t16 -19.5t28 -23.5t41 -16t56 -3.5q4 0 11.5 2t26.5 15.5t33.5 35.5t26.5 68.5t12 107.5v315q-29 -39 -68 -62.5t-74 -29.5t-65.5 -6t-48.5 4l-18 4q-63 12 -112.5 43.5t-78 73t-48.5 89.5t-27.5 93t-11 82t-2.5 59zM254 412q3 -94 27 -164q2 -7 6 -18.5t20 -40t34.5 -50 t50.5 -37.5q26 -14 56 -14h11q64 3 108 68q1 2 8 12.5t9.5 15t8.5 15t8.5 17.5t6 17t5 19.5t1.5 19.5l-6 607q1 1 1 3.5t-1.5 9t-7 12t-20 11.5t-35.5 9q-2 0 -6.5 0.5t-18 -1t-27.5 -5.5t-34 -14t-38.5 -24.5t-40.5 -40t-41 -57.5t-38 -79t-33 -103q-5 -22 -10 -58 q-4 -26 -4 -78v-52zM289 424q0 -92 18 -158q12 -56 48 -100.5t89 -48.5q-21 0 -67 41q-67 88 -70 266q0 220 103 369q24 36 94 98q-52 -24 -109 -90q-103 -146 -106 -377zM382 -311q0 -6 0.5 -13.5t0.5 -11.5q6 -33 28.5 -57t55.5 -31q31 -4 45 2h2h-8h-5q-51 0 -79 40 q-23 33 -23 74q0 11 1 24q9 54 51 85l10 6q-4 0 -10 -6q-2 -2 -8.5 -6t-12.5 -8.5t-10 -9.5q-33 -27 -37 -78q-1 -4 -1 -10zM684 -483q29 0 57 28q56 56 66 154q12 121 12 504q0 311 -14 669v7v8.5t0.5 8t1 8.5t2 7t3.5 6.5t5.5 5t7.5 3.5q-11 0 -17.5 -10.5t-8.5 -28.5 t-2 -33t1 -33.5t1 -21.5v-94v-230v-272v-396q0 -47 -1 -74.5t-7.5 -64.5t-18 -61t-34 -48.5t-54.5 -41.5z" />
<glyph unicode="h" horiz-adv-x="864" d="M-92 1397v9q0 32 26 60q3 5 10.5 13t44 22t87.5 15h133q10 0 17 -8t7 -17v-617q4 6 11 16t32 35t54.5 44t78 35t101.5 16q7 1 20 2t47.5 -2.5t64 -14.5t62 -40t50.5 -72q18 -44 18 -92l-2 -713q0 -27 27 -37q11 -4 16.5 -10t5.5 -10v-4q0 -24 -22 -27h-201 q-25 0 -28.5 20t18.5 31q12 4 18.5 15t7.5 20v8l2 701q0 44 -30 75.5t-74 32.5h-6h-13q-37 -1 -73 -15q-42 -18 -76 -48t-55 -55t-37 -50q-14 -20 -14 -51v-596q-3 -29 24 -37q11 -4 17 -10t6 -10v-4q0 -13 -4 -17q-5 -10 -21 -10h-201q-15 1 -22 7.5t-7 12.5l1 7q-1 7 4 13 t11 8l5 3q12 4 18.5 14t7.5 19l1 8v737l2 619q0 26 -34 28h-5q-32 0 -53 -22q-10 -13 -10 -27q0 -16 12 -34l18 -15l-6 -6q-22 -25 -53 -16t-39 41zM266 668q0 -320 4 -533q0 -43 21 -69l10 -9q-4 5 -8 9q-12 17 -14 69l2 58q1 21 4 227v84v82v63v8q0 38 24 78q4 5 19 23.5 t24 27.5q42 42 80 58q6 3 16 6.5t13 5.5l8 2q-2 0 -8 -2q-5 0 -29 -8q-42 -15 -88 -55q-35 -35 -47 -52q-28 -32 -31 -73zM268 985h15v528h-15v-528zM717 987q4 0 8 -2q16 -5 27 -12q20 -17 30 -37q16 -32 21 -57q4 -24 8 -72v-84v-88v-92v-92v-89q0 -30 1 -83t1 -74 q0 -45 4 -90q0 -7 4 -23q3 -18 15 -26l8 -9q-4 3 -8 9q-13 13 -13 57v18q1 54 3.5 123t2.5 98v89v92v92v88q0 57 -4 86q-3 37 -12 72q-9 33 -25 59q-18 26 -32 35q-17 9 -31 12h-8z" />
<glyph unicode="i" horiz-adv-x="425" d="M0 907q-2 7 -2 14q0 28 27 56q3 5 10.5 12t43.5 19.5t87 13.5h131q10 0 17.5 -7t7.5 -16v-276v-635q-1 -27 26 -35q11 -4 17 -10.5t6 -10.5v-5q0 -11 -4 -17q-7 -10 -21 -10h-199q-15 1 -22 7.5t-7 12.5l1 7q-1 8 4 14.5t11 8.5l5 3q11 4 17.5 14.5t7.5 18.5v8v643l2 221 q0 12 -8 19.5t-19 7.5h-35q-3 -1 -8 -3t-15 -9.5t-15 -16t-2.5 -23t16.5 -30.5l16 -14l-6 -6q-22 -26 -53 -17.5t-37 41.5zM133 1171q0 37 26.5 64t61.5 27q38 0 64 -27t26 -64q0 -38 -26 -64t-64 -26q-36 0 -62 26t-26 64zM299 1081q19 9 29.5 31.5t11.5 40.5v18 q-1 32 -11 54.5t-20 29.5l-10 7q21 -8 34 -31t16 -41l3 -19q0 -36 -13 -58.5t-27 -26.5zM332 1024q4 -1 10.5 -2t9.5 -2q4 -4 6 -8q2 0 2 -6l2 -27l9 -465q-2 -375 -4 -395v-27q-3 -6 4 -10q6 -4 18 -8l-18 6q-2 1 -4.5 3t-4.5 3v6l-2 27l-8 395q0 447 2 465q2 33 -4 39 q-2 2 -18 6z" />
<glyph unicode="j" horiz-adv-x="428" d="M-220 -298q2 31 13 65q20 66 74 92q25 10 48 10q46 0 87 -39q-3 -2 -7 -5.5t-16 -14.5t-22 -23.5t-21 -31.5t-17 -38t-6 -44t9 -50q2 -3 5 -8.5t15.5 -19.5t28 -23.5t42 -15.5t57.5 -2q4 0 11.5 2t26.5 15.5t33.5 35.5t26.5 69q10 42 10 97v10l-4 313v643l2 224 q0 11 -8 18.5t-18 7.5h-35q-3 -1 -8 -3t-15.5 -9.5t-16 -16.5t-4 -23.5t14.5 -31.5l18 -12q-2 -4 -6 -8q-22 -25 -52.5 -16t-37.5 44v8q0 31 27 58q3 5 10 13t43 21.5t88 14.5h133q8 0 14.5 -8.5t6.5 -18.5v-274v-637l-2 -307q0 -5 0.5 -12.5t-1 -32.5t-7 -46t-16 -53 t-29.5 -54t-47.5 -47.5t-69 -35t-94.5 -16.5q-16 -1 -33 -1q-42 0 -92 11l-7.5 2.5t-18.5 7.5t-27.5 13.5t-30.5 20t-30 27.5t-25 36t-17 44.5t-3 54.5zM-64 -329v13q0 51 37 87q17 21 33 26l10 8q-4 -4 -10 -12q-4 -2 -8 -6t-9.5 -10.5t-8.5 -9.5q-21 -29 -25 -48 q-4 -16 -4 -33q0 -20 6 -40q10 -36 39 -54q25 -10 27 -10q21 -6 32 -6h17l-2 -2q-2 0 -7 -1t-8 -1q-9 -3 -37 0q-6 0 -26 8q-50 32 -56 91zM141 1176q0 35 27.5 62.5t62.5 27.5q36 0 62 -27t26 -63q0 -38 -25.5 -65.5t-62.5 -27.5q-36 0 -63 27.5t-27 65.5zM250 -489 q6 2 16 6q23 10 40 26t27 39.5t16 45.5t9 56t3.5 57.5t0.5 63.5q0 10 1 46t1.5 124.5t0.5 225.5v272v238q-1 127 -1 194.5t1 75.5q0 30 -7 41q-2 2 -14 8q1 0 7.5 -2t8.5 -4q11 0 11 -43q15 -205 15 -619t-13 -669q-15 -139 -105 -178q-8 -4 -18 -4zM309 1083q19 9 29.5 32 t11.5 42v19q-2 33 -12 55.5t-20 28.5l-9 6q21 -8 33.5 -30.5t15.5 -41.5l2 -18q0 -36 -13 -59.5t-25 -28.5z" />
<glyph unicode="k" horiz-adv-x="940" d="M-23 1403q-2 7 -2 14q0 28 27 56q3 5 10.5 12t44 19.5t88.5 13.5h134q9 0 15.5 -6.5t6.5 -14.5v-844q13 6 45 49.5t168 239.5q26 64 94 84q20 6 37 6q44 0 80 -35q20 -15 25 -28q4 -9 5 -19t0 -16l-1 -6q-2 -6 -8.5 -10t-12.5 -4l-6 -1q-19 -2 -51 -20l-35 -41l-162 -221 l357 -522q19 -29 22 -31q14 -17 41 -27q12 -4 18.5 -10.5t6.5 -10.5v-5q0 -13 -2 -17q-10 -10 -23 -10h-201q-14 1 -21 7.5t-7 12.5v7q-1 8 3.5 14.5t9.5 8.5l5 3q10 4 6.5 13.5t-12.5 19.5l-8 10q-268 421 -275 428q-29 29 -65 29q-14 -1 -23.5 -9t-9.5 -16v-137v-301 q0 -27 27 -37q12 -4 18 -10.5t6 -10.5v-5q0 -13 -4 -17q-7 -10 -22 -10h-201q-14 1 -20.5 7.5t-6.5 12.5v7q-1 8 4.5 14.5t11.5 8.5l5 3q11 4 17.5 14.5t7.5 18.5l1 8v742v622q0 10 -7.5 17.5t-18.5 7.5h-35q-3 -1 -8 -3t-16 -9.5t-16.5 -16t-3.5 -23t17 -30.5l19 -15 q-4 -2 -6 -6q-23 -27 -55 -18t-38 43zM309 1513q24 0 27 -26l2 -41q0 -13 1 -41.5t1 -44.5l4 -82l2 -369q2 -111 2 -168l-22 -22v106v84v369l2 82q0 16 2 44t2 42q0 3 -0.5 15.5t-1.5 22t-6.5 19t-14.5 10.5zM334 522l18 -4v-133l-2 -164q0 -57 -2 -127q0 -17 25 -28 q-26 4 -29 30q-6 67 -8 314zM514 633l51 65l53 68q8 11 28 36.5t28 37.5l22 22q0 5 6 8q4 2 11 2q9 2 18 -2q-4 2 -18 2q-12 -6 -15 -12l-24 -33q-8 -14 -25 -38.5t-22 -32.5l-47 -64l-43 -61l92 -127q6 -10 16 -25t44 -66.5t77 -117.5l45 -70q39 -61 66 -104q15 -15 34 -12 q-16 -4 -22 -3q-3 0 -6 3q-8 3 -35 41q-44 63 -47 67l-94 139q-87 124 -93 136z" />
<glyph unicode="l" horiz-adv-x="403" d="M-59 1399q-1 6 -1 13q0 28 25 56q3 5 10.5 13t43.5 21.5t87 15.5h136q7 0 13.5 -8t6.5 -17v-616l2 -787q-2 -29 25 -37q12 -4 18 -10.5t6 -10.5v-5q0 -5 -4 -17q-7 -10 -20 -10h-199q-15 1 -22 7.5t-7 12.5v7q-1 8 4 14.5t10 8.5l5 3q11 4 17.5 14t7.5 19l1 8v740v616 q0 12 -7 20.5t-19 8.5h-35q-3 -1 -8 -3t-15 -10t-15.5 -17t-3 -23.5t16.5 -30.5l17 -15l-6 -6q-20 -26 -53 -17.5t-37 42.5zM274 1518q10 0 21 -11q4 -4 6 -8q2 -2 2 -8l2 -43q0 -14 1 -41t1 -41l2 -82l2 -84v-84q0 -14 1 -41t1 -41v-82v-313v-82v-82v-82v-82l-2 -84 q0 -57 -2 -84v-39q0 -14 4 -20q3 -2 19 -8q-14 0 -19 8q-2 0 -3 1t-1.5 2.5t-1.5 2.5q-2 6 -2 14l-2 39q0 30 -4 84v84l-2 82v82q-2 27 -2 82v82v313v82v82v84v84l2 82v82l2 43q0 10 -4 16q-3 2 -21 11z" />
<glyph unicode="m" horiz-adv-x="1351" d="M4 983q2 4 5.5 10t20 16.5t38.5 12.5q10 2 22 0q53 0 88 -42q28 -34 28 -76q0 -9 -1 -19v-2q26 49 81.5 85t121.5 48q40 8 79 8q25 0 51 -3q65 -8 117.5 -48.5t73.5 -108.5q36 61 108.5 103t150.5 54q21 3 42 3q56 0 110 -22q74 -32 111 -107q18 -37 21 -92l2 -705 q-1 -31 26 -41q11 -4 17 -10.5t6 -10.5v-5q0 -17 -2 -19q-9 -12 -21 -12h-200q-14 1 -21 8.5t-7 15.5l-1 7q-1 7 4.5 13.5t10.5 9.5l6 3q12 4 18.5 15t7.5 20v10l-2 695q-3 43 -32.5 74t-73.5 34h-4h-9q-43 1 -85 -17q-46 -20 -77.5 -52t-49.5 -55.5t-29 -43.5 q-7 -7 -17 -32l2 -611q0 -29 25 -37q24 -8 25 -29.5t-25 -27.5h-197q-18 1 -25 12t-2 24t19 19q11 4 17.5 15t7.5 20v8l-4 695q0 43 -30 73.5t-73 32.5h-4h-13q-43 -1 -83 -17q-46 -20 -77.5 -51.5t-49 -54t-27.5 -41.5q-16 -32 -16 -35l2 -610q0 -29 25 -37q12 -4 18 -10 t6 -10v-4q3 -10 -4 -17q-8 -12 -20 -12h-199q-14 1 -21 7.5t-8 12.5v7q-1 7 4.5 13.5t11.5 9.5l5 3q12 4 18.5 13.5t6.5 17.5l1 8l-4 316v444v20t-9 39.5t-26 42.5q-2 1 -5 3.5t-6.5 10t-0.5 15.5zM244 457l2 -162q0 -17 0.5 -47.5t0.5 -47.5t1 -41t3 -38t5.5 -28.5t9 -21.5 t13.5 -8q-10 5 -15 29q-4 24 -6 70q-1 28 -1 65v54q1 73 1 177q0 35 1 73q0 77 -1 169q1 1 10 15.5t11.5 18.5t12 17.5t14.5 19.5t14.5 17.5t17 18.5t17.5 16.5t20.5 16t21.5 12.5q5 3 12.5 5t16.5 4t14 3q-20 3 -38.5 -1t-38 -19t-31.5 -24.5t-32 -35t-25 -33t-24 -34.5 q-5 -7 -7 -10v-5v-81v-82v-82zM772 461l2 -162q0 -17 0.5 -47.5t0.5 -47.5t1 -41t3 -38t5.5 -28t9 -21t13.5 -8q-10 5 -15 28q-4 24 -6 70q-1 28 -1 66v54q1 73 1 177q0 35 1 73q0 77 -1 169q24 37 36 54.5t42.5 49t61.5 47.5q5 3 12.5 5t16.5 4t14 3q-6 1 -12 1 q-31 0 -65 -23q-40 -27 -63 -55.5t-52 -71.5q-3 -5 -5 -8v-4v-82v-82v-82zM1212 987q3 0 11 -4q11 0 26 -12q20 -16 31 -35q15 -39 20 -57q1 -7 3.5 -32t3.5 -42v-80v-90v-88v-90v-90q0 -30 2 -82.5t2 -73.5q0 -14 1 -34t1 -27v-27q1 -4 2 -11.5t2 -11.5q7 -21 14 -28l10 -4 q-6 2 -10 6q-7 7 -10 28q0 3 -2 10t-2 11q4 8 4 27q0 36 2 61q0 21 1 73.5t1 82.5v90v90v88v90q0 57 -2 82q-1 19 -12 72q-7 27 -27 59q-14 26 -33 35q-12 10 -28 10z" />
<glyph unicode="n" horiz-adv-x="901" d="M26 18l1 5q-1 8 4 14.5t11 8.5l5 3q12 5 18.5 16t7.5 19l1 8l-2 316v436q0 8 -0.5 20t-10.5 38.5t-28 41.5q-25 22 -2 43t55 27h23q55 0 90 -43q28 -34 28 -75q0 -11 -2 -22v-2q3 6 10 16t32 35.5t54 45t77.5 35.5t101.5 16q7 1 19.5 2t46.5 -2.5t63.5 -14.5t62.5 -39 t51 -71q19 -49 19 -92l2 -709q0 -27 29 -39q12 -4 17.5 -11t5.5 -12l-1 -5q0 -12 -6.5 -19.5t-15.5 -7.5h-201q-15 1 -22 8t-7 14v7q-1 7 4 13.5t10 9.5l5 3q12 4 18.5 15t7.5 20v8l-4 699q0 43 -30 75t-74 33h-4h-13q-43 -1 -83 -17q-46 -20 -78.5 -53t-48.5 -53.5 t-29 -42.5q-17 -34 -17 -37l4 -614q-2 -27 25 -37q11 -4 17 -10t6 -10v-4q1 -12 -6.5 -19.5t-18.5 -7.5h-197q-16 1 -23.5 6.5t-7.5 11.5zM260 377v82v84v80v86q3 7 10 17t9 13q42 57 65 74q40 35 68 45q27 10 49 10q-3 -1 -8.5 -2t-8.5 -2q-36 -12 -45 -18t-17.5 -13 t-14.5 -12t-15 -14.5t-13 -13.5t-13 -16t-11 -14.5t-12.5 -16.5t-11.5 -15l-15 -22l3 -166v-84v-82v-84q-2 -126 -5 -164v-41q0 -11 8 -18t17 -9q-29 7 -29 27l-2 41q-1 14 -2 42t-2 42l-2 80zM705 985q2 2 8 0q10 0 30 -10q16 -10 35 -35q18 -28 25 -59q16 -76 16 -248v-88 v-92q0 -61 -2 -88q0 -30 -1 -83.5t-1 -74.5q0 -19 -2 -47t-2 -41q0 -17 2 -23q3 -17 10 -28l8 -7q-2 3 -8 7q-18 26 -18 75q0 35 -3 181.5t-3 220.5q0 71 1 122t1 56v84q-4 50 -8 70q-9 36 -23 59q-21 40 -57 49h-8z" />
<glyph unicode="o" horiz-adv-x="774" d="M14 514q0 137 46 254t125 185.5t171 68.5q91 0 169.5 -68.5t124.5 -185.5t46 -254q0 -140 -46 -258.5t-124 -187t-170 -68.5q-141 0 -241.5 150.5t-100.5 363.5zM211 512q0 -194 40.5 -329.5t104.5 -135.5q66 0 113 135.5t47 327.5q0 190 -47 324.5t-113 134.5 q-65 0 -105 -131t-40 -326zM242 512q0 -82 12 -164q8 -56 14 -78l6 -24t7.5 -28.5t8.5 -27.5t11.5 -29.5t13.5 -24.5t18 -23t21 -15l6 -4q-2 0 -6 4q-24 18 -36 45t-21 68q-9 26 -12 63q-20 128 -21 154q-2 29 -2 84q0 125 19 236q6 42 10.5 64.5t21 57t41.5 52.5l6 2 q-2 0 -8 -2q-36 -19 -60 -67t-33.5 -120t-12.5 -115t-4 -108zM457 0q4 2 16 4q55 11 111 74q82 79 108 155q10 19 19 52q38 104 41 229q0 59 -11 115q-11 70 -30 112q-60 206 -199 269q-16 6 -39 10h-14q11 0 51 -12q20 -10 47 -37q37 -37 57 -60q27 -45 43 -82 q25 -46 39 -94q5 -19 13.5 -54t13.5 -54q8 -39 8 -113q0 -76 -8 -115q-5 -17 -13.5 -55t-13.5 -55q-28 -102 -116 -203q-14 -18 -50 -49q-16 -12 -34.5 -21.5t-28.5 -12.5z" />
<glyph unicode="p" horiz-adv-x="909" d="M59 983q9 19 27 31l12 6q12 4 25 4q4 1 10.5 1t25.5 -1.5t35 -6.5t34.5 -18.5t29.5 -33.5q3 3 9 8.5t25 18.5t40.5 21t54.5 11q9 1 17 1q25 0 50 -7q34 -8 78.5 -34.5t88.5 -70.5q7 -7 18.5 -19.5t42 -56.5t55 -92t47.5 -123.5t29 -154.5q2 -20 2 -39q0 -23 -7 -80 q-7 -61 -23 -114t-57 -110.5t-101 -88.5q-56 -32 -133 -32q-14 0 -29 1q-50 4 -107 23.5t-98 58.5l6 -510q0 -25 27 -35q11 -4 16.5 -10.5t5.5 -10.5v-5q3 -8 -2 -17q-7 -10 -20 -10h-201q-14 0 -20.5 7t-5.5 13v7q-2 7 2.5 13t9.5 8l6 3q11 4 17.5 14.5t6.5 18.5l1 8 l-3 320l3 256l-5 698q2 26 -6 57q-7 29 -26 45q-2 1 -5 3.5t-7 9.5t-1 14zM258 270q0 -58 43 -120q40 -62 111 -68h12q30 0 58 12q32 16 52.5 40t35.5 49t22 43l6 18q24 69 26 158v28q0 69 -8 114l-10 54q-19 72 -44.5 129t-51.5 90.5t-53 56.5t-50 32t-41.5 13.5t-29.5 3.5 l-10 -1q-33 -4 -50 -14t-18 -18v-9v-611zM297 -2h16q-2 -209 -2 -314.5t2 -107.5q0 -7 4.5 -12.5t14 -11.5t10.5 -7q1 0 3.5 -1t4.5 -1q-16 0 -37 21q-1 2 -3 5t-3 5l-4 18l-2 52zM297 530q5 294 8 347q0 8 4 16q10 21 43 16q-18 0 -28 -6q-13 -11 -13 -22l2 -351 q0 -54 -1 -108.5t-1.5 -80t-0.5 -51.5t1 -38.5t2.5 -24t5.5 -24.5q13 -38 31 -41q-18 1 -30.5 25t-16.5 49q-2 11 -6 294zM621 989q7 -4 19.5 -13t46.5 -43.5t64 -76t63 -113.5t52 -153q2 -13 5 -34.5t7 -83.5q1 -30 1 -59t-1 -57q-4 -55 -21.5 -119.5t-49.5 -107.5 q-22 -30 -36 -46.5t-40.5 -33.5t-54.5 -20q42 18 80 59q36 40 60 95t32.5 105t12.5 94q3 35 3 59v11l-2 27q-7 83 -26 156.5t-42 123.5t-56.5 97.5t-58.5 74.5t-58 58z" />
<glyph unicode="q" horiz-adv-x="882" d="M72 438l2 35q6 78 27.5 152.5t49 125.5t53.5 90t44 58l18 19q44 44 88 70t78 33q29 6 56 6q5 0 11 -1q32 -1 54.5 -11.5t39.5 -21t25 -19.5l9 -9q17 35 51 50.5t59 14.5l25 -2q6 0 15 -3t11 -3q2 -2 6 -3.5t5 -2.5q10 -4 17 -11.5t9 -12.5l2 -5q2 -7 -1 -13.5t-7 -9.5 l-4 -3q-21 -24 -27 -46q-4 -15 -6.5 -29.5t-3.5 -21.5v-8l-2 -696l2 -260l-2 -316q0 -33 27 -43q2 -1 6 -2.5t9.5 -7.5t4.5 -12q-1 -1 0 -7t-6 -14t-22 -10l-201 4q-16 0 -23 10q-4 8 -2 17q-2 16 23 26q12 3 18 12t6 17v8l9 508q-73 -73 -207 -82q-15 -1 -29 -1 q-72 0 -131 30q-60 31 -100.5 87t-56.5 114t-23 112q-6 47 -6 79v9zM265 410q1 -94 24 -164q2 -7 6.5 -18.5t21 -41t36 -51t52.5 -37.5q26 -13 55 -13q8 0 15 1q72 7 109 66q43 67 43 118v613q-1 0 0.5 3.5t-2 9.5t-9 11.5t-20 11t-35.5 7.5q-2 0 -6.5 0.5t-18.5 -1 t-28 -5.5t-34.5 -14t-39.5 -24.5t-41 -40t-41.5 -57.5t-38.5 -79t-34 -103q-5 -22 -10 -60q-4 -31 -4 -102v-30zM316 557q-9 -58 -9 -114q0 -88 21 -173q11 -31 15 -42.5t17 -34t29 -37.5q35 -35 76 -35q-9 0 -18 2.5t-17.5 9t-14.5 11t-14.5 15.5t-12 15.5t-12.5 17 t-11 15.5q-38 103 -41 221v13q0 112 41 228q43 123 133 208l28 24q-15 0 -54.5 -36.5t-53.5 -55.5q-80 -104 -102 -252zM817 84q2 -101 2.5 -212.5t1.5 -135.5q0 -5 1 -37.5t2 -44.5t5.5 -35.5t12.5 -42.5q12 -31 26 -33q-22 22 -28 62q-2 13 -3 29.5t-1.5 35t-0.5 58 t0.5 79t1.5 119t1 158.5q0 153 -1.5 299t-3 217.5t-1.5 138.5q-1 8 -1 16q0 55 3 82q4 31 10.5 57.5t19.5 53.5l-14 -20q-7 -14 -10 -23q-6 -15 -9 -29.5t-5.5 -42t-3.5 -54t-1.5 -83t-0.5 -110t-1 -154.5t-2 -199v-149z" />
<glyph unicode="r" horiz-adv-x="743" d="M20 975q2 4 6 10.5t21 17t39 11.5q11 2 23 2q53 -2 89 -44q28 -33 29 -74q0 -10 -2 -21v-3q3 6 10 15t31.5 33t53.5 43.5t77.5 37t102.5 21.5q14 2 30 2q49 0 103 -22q34 -14 49.5 -48t14.5 -61l-1 -27q-7 -52 -41 -63q-25 -7 -30 18q-3 21 -13.5 36.5t-22 24t-27.5 14 t-26.5 6.5t-23.5 2l-12 1h-6h-13q-41 -1 -81 -17q-46 -20 -78 -52t-49 -54t-29 -43q0 -1 -5.5 -9.5t-9.5 -16t-4 -10.5l6 -613q0 -27 25 -37q11 -4 17 -10.5t6 -10.5v-5q2 -5 -3 -15q-8 -10 -20 -10l-201 -2q-15 1 -21.5 7.5t-5.5 12.5l1 7q-2 7 2.5 13t10.5 8l5 3 q12 4 18.5 14.5t7.5 18.5l1 8l-4 318v434q0 69 -35 100q-2 1 -5 4t-7.5 10.5t-2.5 14.5zM260 627v84v2v2q3 4 9.5 13t9.5 13q90 129 176 129h6q-56 -3 -104.5 -51.5t-80.5 -111.5q4 -163 4 -302q0 -56 -1 -108q-1 -43 -1.5 -81.5t-1 -53.5t-0.5 -27q0 -56 5 -61q4 -8 14 -8 q-10 0 -16 6q-7 7 -9 20l-2 43q0 1 -6 162q-2 195 -2 330zM662 1020q5 0 12.5 -2t25.5 -15.5t29 -35.5q1 -2 2.5 -6t5 -17.5t5.5 -27.5t1.5 -35.5t-6.5 -42.5q0 -2 -1 -6t-6 -14t-11.5 -17.5t-19.5 -14t-29 -6.5q42 7 57 72q1 5 2 13.5t0.5 32t-5.5 44t-21 43t-41 35.5z" />
<glyph unicode="s" horiz-adv-x="817" d="M66 734q3 63 28 122q41 71 88 109.5t129 52.5q38 7 76 7q63 0 125 -19q100 -30 160 -72q27 -20 30 -53v-8q0 -28 -18 -52q-7 -13 -18 -19.5t-18 -6.5h-7q-31 65 -103 97q-59 25 -117 26q-14 0 -28 -2q-72 -8 -126 -58q-52 -50 -52 -131v-6q1 -39 29.5 -72.5t69 -52.5 t81 -32t69.5 -18l28 -5q63 -13 108.5 -43.5t69.5 -67.5q24 -36 34 -78q8 -34 8 -64v-14q-2 -36 -14 -63q-29 -89 -96 -150.5t-153 -64.5q-14 -1 -29 -1q-94 -1 -180 23q-99 26 -150 62q-32 32 -32 64q0 24 18 49q19 24 31.5 26t18.5 -9t16.5 -28t23.5 -24q64 -35 120 -49 q39 -10 69 -10q13 0 24 2q37 6 66.5 21.5t46.5 38t28 42.5t15 35l4 14v12q-1 40 -17 72q-20 37 -41 56.5t-68.5 36t-65.5 20t-65 10.5q-3 1 -5.5 1.5t-4.5 0.5q-73 14 -122 56t-68 98q-16 48 -16 102v17zM264 764q8 42 39 74q21 22 45 33t38 11l13 1q-91 -24 -116 -109v-2 q-3 -17 -3 -32q0 -17 4 -32q6 -29 19.5 -47t28.5 -30t26 -16.5t13 -2.5q-31 -3 -57 20t-38 52q-14 27 -14 57q0 11 2 23zM586 2q66 10 126 83t64 187v7q0 41 -11 81q-12 42 -30.5 70t-37 49.5t-31.5 30.5l-13 10q73 -90 90 -136q15 -42 15 -113v-17q-1 -51 -18.5 -95.5 t-43 -72t-50.5 -47.5t-42 -29z" />
<glyph unicode="t" horiz-adv-x="735" d="M-41 920q-2 7 -2 13q0 27 27 54q3 5 11 12.5t43.5 20.5t84.5 14v307q0 29 16.5 52t44.5 34q10 3 21.5 5.5t20.5 3t16.5 0.5h11.5h4q10 0 37 -11q9 -5 15.5 -12t9.5 -11l2 -5q3 -7 -0.5 -14.5t-7.5 -10.5l-5 -4q-9 -9 -18.5 -25t-9.5 -24q0 -1 -0.5 -30t-1 -94.5 t-0.5 -156.5q29 -1 57 0t53.5 0t48.5 -2t42 -6t33.5 -13t23.5 -21.5t12 -32.5v-10q0 -54 -53 -68q-13 -4 -24 -4q-23 0 -36 18q0 6 4 6q16 2 25 12.5t9 20.5l1 10q1 19 -8 31.5t-18 14.5l-9 3h-161l6 -706v-10q-1 -53 9 -95q10 -46 26 -68.5t31.5 -36t26.5 -15.5l11 -3 q31 -3 58 3t43.5 17t28.5 23t17 20l5 9q9 28 9 53v14q-4 32 -18 57t-29.5 42.5t-27.5 26.5l-12 10q39 39 82 39q24 0 49 -12q56 -27 76 -89q14 -44 13 -81q1 -14 -1 -27q-8 -46 -33.5 -76.5t-53 -49t-49.5 -26.5l-22 -8q-54 -9 -99 -9q-31 0 -57 4q-66 10 -109.5 38.5 t-70.5 65.5t-40.5 78t-19 75t-5.5 56v22v539v106q-8 14 -25 14h-32q-3 -1 -8 -3t-15.5 -9.5t-16 -16t-3.5 -23t16 -30.5l16 -12q-2 -4 -6 -8q-22 -26 -53 -17t-37 42zM303 1079h19v88q-1 69 -3.5 96.5t-3.5 57.5q0 9 7.5 18.5t17.5 10.5q-11 0 -18 -7q-5 -3 -9 -10 q-4 -12 -4 -57q0 -16 -1 -45t-1 -45zM309 979h17l6 -309v-80q0 -184 -4 -348q0 -36 7.5 -65t14.5 -39l8 -11q-20 13 -31 41.5t-11 51.5l-1 22q-5 211 -5 298q0 37 1 52v80zM508 1034q4 0 10 -1t21.5 -7t27 -14t20.5 -25t7 -39q-3 -29 -19 -45t-31 -17l-14 -1q2 0 6 1 t13.5 5.5t16.5 11.5t12 20.5t4 30.5q-3 33 -21.5 53t-35.5 23zM586 18q6 2 16 7t35.5 21.5t44 36t32.5 51.5q13 28 13 59v8q-2 36 -13 66t-25 47.5t-28.5 30t-24.5 17.5l-9 5q65 -20 92 -76q28 -45 28 -93q-1 -8 -1 -16q-6 -57 -44 -102q-24 -26 -53 -41.5t-46 -18.5z" />
<glyph unicode="u" horiz-adv-x="862" d="M23 988v5q0 13 4 17q7 10 20 10h201q14 -1 21 -7.5t7 -12.5v-7q0 -8 -5 -14.5t-10 -8.5l-5 -3q-12 -4 -19 -14t-7 -17l-1 -8v-701q0 -45 30.5 -78t74.5 -34h4h8q45 0 89 21q48 23 83.5 59.5t55.5 63t32 46.5q2 4 2 12v617q3 25 -24 35q-12 4 -18 10.5t-6 10.5l-1 5 q0 9 4 17q10 10 23 10h198q26 -3 27.5 -23t-20.5 -30q-11 -4 -17.5 -14.5t-7.5 -18.5v-8l2 -764v-9q0 -45 35 -75q2 -1 5 -4t6.5 -10.5t0.5 -14.5q0 -6 -5 -14.5t-21 -19t-39 -13.5q-4 -1 -11.5 -1.5t-27.5 2t-36.5 10t-33.5 28.5t-25 53q-2 6 -2.5 20t0.5 25v11l-11 -16.5 t-32 -36.5t-55 -46t-79 -36.5t-103 -16.5q-7 -1 -19.5 -2t-47 3t-64 15t-62.5 39.5t-51 71.5q-18 47 -18 94v711q2 25 -25 35q-12 4 -18 10.5t-6 10.5zM270 248q0 -18 6 -27q9 -28 33 -45q28 -16 51 -16h8q61 0 113 42q55 46 94 115q-12 -20 -18 -28q-4 -4 -11 -13.5 t-11 -13.5q-20 -20 -25 -24q-46 -46 -96 -62q-25 -6 -45 -6q-16 0 -29 4q-4 2 -11.5 6t-11.5 6q-20 12 -28 39q-6 9 -6 23v26v54l1 51q0 51 -1 53v107v104v105q-4 70 -4 157q0 23 2 27q4 12 16 18q-8 -3 -15.5 -12t-7.5 -16q-2 -102 -2 -174l-2 -105v-104v-107v-104v-54v-26 zM797 686q1 -75 1.5 -146t0.5 -117.5v-91v-70.5t0.5 -50.5t1 -37t2.5 -24t5 -18t7 -12.5q1 -2 12 -13q18 -9 0 3q-6 6 -10 12q-5 9 -7.5 19.5t-2.5 34.5t1 49.5t2.5 81t2.5 112.5v268q-2 130 -2 173v20q2 28 31 57q-14 -7 -27 -27.5t-14 -44.5q-1 -19 -4 -178z" />
<glyph unicode="v" horiz-adv-x="903" d="M43 981q0 14 4 20q7 11 21 11h198q15 -1 22 -8.5t7 -15.5v-7q1 -8 -4.5 -14.5t-10.5 -8.5l-6 -2q-11 -4 -17 -14.5t-7 -18.5v-8l184 -776l193 783q0 28 -27 36q-11 4 -16.5 10t-5.5 10v5q-3 11 4 18q7 11 20 11h199q15 -1 22 -7.5t7 -12.5l-1 -7q1 -7 -4 -13t-11 -8 l-5 -3q-13 -6 -23 -25q-2 -4 -2 -10l-82 -322l-110 -432q-2 -7 -5 -18.5t-16.5 -40.5t-29.5 -51.5t-45 -41t-62 -18.5q-31 2 -58 21t-43.5 44t-28 50t-16.5 42l-5 17l-191 742q1 28 -24 36q-12 4 -18 10.5t-6 11.5zM299 918v10q0 8 2 10q3 4 18 12q-14 -7 -16 -14 q-4 -12 -2 -18l12 -39q4 -13 11.5 -39.5t11.5 -40.5l72 -279l18 -69l20 -82l-10 -45l-26 114l-19 80l-16 80q-1 4 -33.5 133.5t-34.5 145.5zM553 -4q27 1 55.5 58t43.5 114l14 57l20 80l19 80l18 78q7 23 20 80l19 80l18 79l19 80q4 30 16 82l8 39q0 9 8 17q9 6 21 6 q-15 0 -21 -4q-2 -1 -8 -7q-1 -1 -2 -4.5t-2 -5.5l-12 -41q-3 -11 -10.5 -37t-10.5 -41l-20 -79q-53 -202 -117 -478l-43 -141q-6 -23 -19.5 -46t-23.5 -34z" />
<glyph unicode="w" horiz-adv-x="1423" d="M45 984v5q0 19 4 21q7 10 21 10l200 2q16 -1 23.5 -8.5t7.5 -15.5v-7q1 -7 -4 -13.5t-11 -9.5l-5 -3q-11 -4 -17.5 -14.5t-7.5 -18.5v-8l186 -787l195 793q0 29 -27 37q-12 4 -17.5 11t-4.5 12v5q-4 11 4 15q7 10 20 10l201 2q15 -1 22 -7.5t7 -12.5v-7q2 -7 -3.5 -13.5 t-11.5 -9.5l-6 -3q-11 -4 -17 -15t-6 -20l-1 -8l182 -791l195 789q0 31 -25 39q-1 0 -2.5 1t-5 3.5t-6.5 5.5t-4.5 8t-0.5 10v8t7 13.5t22 9.5l201 -2q14 0 20 -12q3 -1 4.5 -8t-0.5 -11q5 -18 -22 -26q-12 -4 -19 -13t-7 -16l-1 -8l-194 -752l-3 -9q-2 -9 -8 -25t-14 -34.5 t-21 -37.5t-28.5 -34.5t-37 -25.5t-44.5 -10q-61 0 -101 53.5t-59 122.5l-110 436l-113 -438q-2 -7 -5 -19t-16.5 -42t-30 -52.5t-45.5 -41.5t-63 -19q-32 2 -59.5 21t-44 44.5t-29 50.5t-17.5 42l-5 18l-193 752q1 29 -24 37q-12 4 -18.5 10.5t-6.5 10.5zM299 922v8 q0 4 4 12q6 9 16 12q-8 -6 -14 -14q-6 -9 0 -18l8 -41q4 -13 12.5 -39.5t12.5 -40.5l74 -281l18 -71l33 -132l-8 -49l-39 168l-19 80l-20 82q-2 8 -34 137t-34 146zM559 -2q21 21 37.5 53.5t24.5 58t19 66.5t17 60l37 161l21 101l12 -52l-33 -135l-20 -80q-2 -9 -6 -25 t-16.5 -55.5t-25 -70.5t-31 -56t-36.5 -26zM838 932q4 8 6 10q3 7 14 12q-10 -5 -12 -12q-5 -8 -2 -18l10 -41q4 -14 20 -80l70 -283l21 -71l28 -127l-10 -54l-37 166l-16 82l-19 82q-1 13 -15 75t-31 134t-17 74l-8 41q-2 2 -2 10zM1106 -2q27 1 56 59t44 116l15 58 q74 296 116 484l19 82q3 13 8 40t8 40l8 43q0 7 11 14q5 5 18 8q-8 0 -20 -4q-1 -2 -4.5 -4t-4.5 -4q-4 -8 -4 -10l-10 -39q-2 -6 -10.5 -36t-12.5 -46l-43 -160l-20 -84q-2 -8 -8 -31t-24 -97.5t-46 -190.5l-41 -144q-7 -24 -21 -47.5t-24 -34.5z" />
<glyph unicode="x" horiz-adv-x="917" d="M-41 25q-2 18 25 26q28 9 41 31q3 7 11.5 18t10.5 15l277 397l-275 395q-2 4 -10.5 15t-11.5 18q-10 16 -43 31q-12 4 -18.5 10.5t-6.5 10.5v5q0 9 4 17q7 10 21 10h202q14 -1 20.5 -7.5t6.5 -12.5v-7q1 -8 -4 -14.5t-11 -8.5l-5 -3q-7 -5 -3.5 -16.5t11.5 -22.5l8 -12 l213 -299l215 299l16 27q8 20 -2 24q-22 8 -22 26q1 1 0 6.5t6 12.5t22 8h201q14 0 21 -10q4 -4 4 -17q2 -18 -25 -26q-30 -15 -41 -33q-2 -4 -10.5 -15t-11.5 -18l-277 -395l275 -397q14 -17 22 -31q17 -21 43 -31q12 -4 18 -10.5t6 -10.5l1 -5q0 -13 -4 -17 q-7 -10 -21 -10h-201q-15 1 -22 7.5t-7 12.5l1 7q0 8 5.5 14.5t11.5 8.5l5 3q7 5 3.5 16t-11.5 22l-8 11l-215 299l-213 -297l-16 -27q-8 -20 2 -24l6 -3t9.5 -8.5t4.5 -14.5v-7t-6.5 -11.5t-20.5 -8.5h-202q-14 0 -21 10q-4 8 -4 17zM229 944l199 -278l12 16l-194 272z M242 86l14 -12l178 248l-12 16zM559 520l51 66l52 65q19 27 88 122t81 108l27 32q3 6 6 9q4 2 13 2q9 3 20 -4q-6 4 -20 4q-10 -2 -17 -13l-22 -32q-7 -11 -23 -34.5t-24 -35.5l-168 -234l-43 -59l92 -127q4 -6 21.5 -31.5t25.5 -40.5l98 -151q6 -11 9 -16t7 -10.5t9 -14.5 l20 -37q5 -8 17 -12q6 -2 18 2q-6 -4 -20 -4q-5 0 -9 4l-8 8l-24 35q-20 25 -29 39l-49 67l-10 15l-46 65q-3 5 -20 30.5t-25 39.5z" />
<glyph unicode="y" horiz-adv-x="845" d="M23 984v5q0 10 7.5 17.5t18.5 9.5h197q26 0 28 -22t-20 -33q-11 -3 -17.5 -12.5t-6.5 -18.5l-1 -8l-2 -695q0 -42 31.5 -74.5t73.5 -33.5h4h11q44 0 86 20q48 23 82 58t55 63t30 47q4 8 4 15v606q3 29 -24 37q-11 4 -17 10t-6 10v4q-3 10 5.5 18.5t19.5 8.5h196 q16 -1 22.5 -11.5t1.5 -22.5t-20 -17q-10 -4 -15.5 -14.5t-6.5 -19.5v-9l2 -793v-346q0 -5 0.5 -12.5t-1 -32t-7 -46t-16 -53t-29.5 -53t-47.5 -47.5t-69 -35t-94.5 -16q-16 -1 -33 -1q-42 0 -92 11l-7.5 2.5t-18.5 7.5t-27 13.5t-30 20t-30 27t-24.5 35.5t-16.5 44.5t-3 54 t13 64.5q19 57 76 90q24 9 47 9q46 0 84 -38q-2 -2 -6 -5t-16.5 -14t-21.5 -22.5t-21 -30t-16 -37.5t-6.5 -44t7.5 -50q24 -43 70 -57q19 -6 39 -6q25 0 51 10q44 18 66 61q30 74 32 150l-4 371q-4 -6 -11 -16t-32 -35.5t-55 -45t-79 -35.5t-103 -16q-7 -1 -19.5 -1.5 t-46.5 3.5t-63 15t-61 39t-50 69q-18 43 -18 92v701q2 31 -25 37q-12 4 -18 11t-6 12zM268 330q3 -91 6 -107q8 -37 43 -51q24 -10 50 -10q12 0 24 2q39 7 68 26q68 47 112 127q-51 -67 -77 -90q-58 -51 -134 -51q-25 0 -43 12q-19 13 -26 39q-6 24 -6 101q1 78 1 152 q0 239 -10 433q0 23 19 33q-8 -3 -13.5 -9.5t-7.5 -17.5t-2.5 -19.5t-1 -24t-0.5 -21.5v-211l-2 -211v-102zM381 -299v-35q13 -69 84 -86q18 -3 39 0l8 2h-8h-5q-52 0 -80 40q-22 32 -22 72q0 12 1 24q9 54 51 85l10 7q-4 -1 -10 -7q-2 -2 -8.5 -6t-12.5 -8.5t-10 -9.5 q-33 -27 -37 -78zM694 -469q32 14 51 33q52 52 62 153q12 121 12 502q0 310 -14 666v8.5v9.5t0.5 8.5t2 9t3.5 6.5t5.5 6.5t8.5 4.5q-11 0 -17.5 -10t-8.5 -28t-2 -32.5t1 -33t1 -21.5v-94v-230v-270v-393q0 -49 -3 -83.5t-12.5 -77.5t-32 -76.5t-57.5 -57.5z" />
<glyph unicode="z" horiz-adv-x="706" d="M-25 14q0 3 11 25l440 895q10 12 0 12h-305q-21 0 -29.5 -22t2 -43t33.5 -17l-2 -6q-20 -23 -42.5 -20t-40.5 18.5t-27.5 41t-2.5 48.5q13 38 36 57t40 19h16h537l7 -2q7 -9 -7 -41l-442 -889q-10 -16 0 -16h305q13 0 22 7.5t10.5 19t-0.5 23.5t-11 21.5t-21 12.5 q-4 0 0 6q7 9 21 11.5t24 0.5l10 -2q45 -16 54 -60q2 -11 2 -21q0 -31 -21 -59q-26 -34 -67 -34h-7h-534h-3.5t-5.5 3.5t-2 10.5zM133 887q0 -3 4 -7.5t10 -5.5l10 1h-3l-7 2q-10 5 -10 18q0 14 15 14h61q72 0 113 2q17 0 57 4q-50 5 -57 5q-35 2 -113 2q-37 0 -55 -2 q-13 0 -20.5 -9.5t-4.5 -23.5zM264 125q9 10 21 37q27 43 68.5 126t56.5 111l84 164q71 151 110.5 229t77.5 162q4 12 2.5 26t-6.5 19v11v-11q0 -6 -0.5 -12.5t-2.5 -13.5t-4 -12.5t-5.5 -14.5t-5.5 -14t-7 -15.5t-7.5 -14.5t-8.5 -16l-8 -16q-30 -62 -113 -219l-84 -166 q-25 -54 -48 -102t-35 -73.5t-19 -41.5q-45 -88 -66 -143zM575 190q26 0 48 -24t22 -55q0 -92 -59 -111h10q28 7 44 38q17 32 18 66q0 32 -18 59t-54 27h-2h-9z" />
<glyph unicode="|" horiz-adv-x="251" d="M55 55v15v491v70v274v70v489v15q0 25 16.5 41t39.5 16q26 0 35.5 -15t9.5 -46v-7v-483v-80v-274v-80v-485v-7q0 -59 -43 -59q-24 0 -41 15.5t-17 39.5zM156 0q6 -2 10.5 8.5t7.5 26.5t5 32t3 27v12v525v274v525l-9 70q-8 37 -17 36l6 1q26 -12 28 -200q3 -164 3 -432 l2 -274q0 -321 -2 -434q-3 -200 -33 -199z" />
<glyph unicode="~" horiz-adv-x="575" d="M35 436q-3 8 0 21v4q5 46 42 73.5t83 18.5q1 0 3.5 -1t4.5 -1q3 -1 12 -2t13 -2l217 -21h28h2q24 3 41 17q1 1 3.5 2.5t9 4.5t10.5 -1q14 -9 22 -27q0 -6 2 -10q3 -10 0 -23v-4q-5 -45 -41 -72t-81 -20q-2 0 -4.5 1t-4.5 1l-24 6l-217 21q-15 4 -29 -2l-2 2 q-26 -4 -41 -16q-2 -2 -4.5 -4t-9.5 -5.5t-11 0.5q-14 11 -22 29q0 1 -1 4.5t-1 5.5z" />
<glyph unicode="&#xa1;" horiz-adv-x="317" d="M66 926q0 42 29 71t69 29q43 0 72.5 -28.5t29.5 -71.5q0 -42 -30 -71.5t-72 -29.5q-40 0 -69 30t-29 71zM84 256v96v109v96v135v47q0 8 6.5 13.5t15.5 5.5h117q9 0 16 -7t7 -16v-180v-25v-182v-104v-660v-8q0 -36 -24 -60t-60 -24q-32 0 -55 23t-23 57v16v668zM246 -508 q12 -3 21 34t11 76l3 38v1118h16q4 -684 0 -996q-3 -263 -43 -272zM252 825q21 10 32.5 35.5t13.5 45.5l1 20q-2 36 -13.5 61t-22.5 32l-11 7q24 -9 38.5 -34t17.5 -46l3 -20q0 -25 -6 -45t-14.5 -30t-17.5 -16.5t-15 -8.5z" />
<glyph unicode="&#xa2;" horiz-adv-x="735" d="M22 476q-4 135 34.5 262t115.5 204q81 81 197 90v115q0 21 15 36t36 15q20 0 34.5 -14.5t14.5 -36.5v-119q134 -15 215 -106q22 -28 20.5 -51.5t-14.5 -39.5l-12 -16q-9 -13 -20 -18.5t-18 -4.5l-7 1q-5 2 -8 6.5t-3 8.5l-1 3q-3 35 -58 84t-94 59v-860q54 8 109 45 t65 78q0 14 12 16q27 5 45 -26q2 -2 4.5 -5.5t7.5 -15t7 -22t-0.5 -25t-11.5 -26.5q-9 -13 -19 -19q-95 -67 -219 -88v-115q0 -20 -14.5 -34.5t-34.5 -14.5t-35.5 14.5t-15.5 34.5v109q-8 1 -26.5 3t-23.5 3q-88 17 -156 75.5t-97 141.5q-40 118 -44 253zM200 519 q-9 -130 33.5 -254t135.5 -181v854q-69 -51 -114.5 -170t-54.5 -249zM254 358q-18 122 2 242q4 31 27 115q23 66 57 121q2 4 7.5 11.5t6.5 10.5l-24 -51q-10 -28 -19 -45q-6 -15 -12 -33l-6 -18q-25 -102 -31 -174v-33.5v-36.5t0.5 -33.5t1.5 -37.5t3 -33.5t5 -37t7 -33.5 t9.5 -36.5t12.5 -32.5q10 -25 23 -49q2 -4 6 -11t6 -11q2 -1 6 -7.5t6 -7.5q5 -8 4 -9l-6 7q-2 2 -6.5 8t-7.5 9t-13 18q-9 12 -26 51q-22 48 -39 137z" />
<glyph unicode="&#xa3;" horiz-adv-x="1107" d="M25 1290q-15 72 51 148q3 3 8 8.5t24 19.5t41.5 25.5t60.5 22.5t81 14v4h45q121 2 125 0v-870h299q14 0 25.5 -19.5t11.5 -34.5q0 -17 -11.5 -38t-25.5 -21h-299v-463h467q4 1 10.5 3t16.5 14t8 30v9.5t-9 16t-26 13.5q-2 0 -3.5 3t1.5 5q8 8 23 11t25 3l11 -1 q35 -13 48.5 -39t10.5 -46l-4 -20q-13 -38 -37.5 -57.5t-42.5 -20.5h-18q-144 -2 -668 -2q-2 0 -6.5 -0.5t-6.5 -0.5t-5.5 1.5t-5.5 5.5q-9 15 -1.5 30t19.5 15q10 4 16 14t6 19l1 8v449h-60q-12 0 -23 24.5t-11 42.5q0 15 10.5 30.5t23.5 15.5h60v182l2 481q0 1 -1 16 t-1.5 22t-4 21t-8.5 22t-14 16.5t-22 11.5q-18 12 -43 -2q-30 -22 -48.5 -56.5t-5.5 -72.5q16 -36 56 -46l22 -4q2 0 2.5 -2.5t-0.5 -3.5q0 -1 -1 -2t-3 -3.5t-4 -4.5q-30 -35 -72.5 -39.5t-77 21.5t-42.5 71zM504 463q10 -3 18 2v-125q-3 -150 -6 -207q0 -9 6 -18 q3 -2 9.5 -5.5t9.5 -5.5q-15 5 -21 11q-10 0 -10 59q0 53 -2 82q-4 172 -4 207zM952 209q41 18 88 -16t47 -89q-1 -29 -9 -50t-19 -30.5t-22.5 -15t-18.5 -6.5h-8q53 25 59 76.5t-29 92t-88 38.5z" />
<glyph unicode="&#xa4;" horiz-adv-x="1056" d="M86 173q0 21 14 34l82 82l49 49l66 65q-29 92 -29 187q0 112 35 205l-63 63l-60 60l-80 79q-14 13 -14 34t14 34t34 13t34 -13l76 -76l57 -55l45 -47q40 66 95.5 102.5t117.5 36.5q126 0 217 -145l45 45l58 59l79 80q14 13 34.5 13t35.5 -13q14 -13 14 -34t-14 -34 l-76 -75l-57 -58l-78 -76q31 -91 31 -198q0 -95 -25 -178l62 -62l61 -63l82 -80q14 -13 14 -34t-14 -36q-15 -13 -35.5 -13t-34.5 13l-81 84l-50 47l-45 47q-40 -75 -98.5 -117t-124.5 -42q-65 0 -122.5 40.5t-98.5 110.5l-27 -26l-63 -62l-80 -82q-14 -13 -34 -13t-34 13 q-14 15 -14 36zM432 590q0 -165 35.5 -278t91.5 -113t95.5 114t39.5 275t-39.5 276t-95.5 115t-91.5 -112.5t-35.5 -276.5zM459 590q0 -47 2 -70q0 -23 8 -69q3 -34 12 -64q6 -32 15 -55q14 -48 36 -78q4 -5 11 -10t8 -6l8 -5q-4 3 -8 5q-2 2 -14 18q-11 14 -17 33 q-2 4 -16 47q-1 4 -12 53q-6 30 -9 64q-6 60 -6 67q-2 23 -2 70q0 46 2 69q0 23 2 35q2 10 2 33q4 24 4 33q1 5 2 15.5t2 15.5q3 15 13 55q8 34 14 45q4 8 4 10q1 1 2 4t2 4q2 2 5.5 7.5t5.5 7.5q3 4 6 6.5t6 5.5l4 4l8 2q-4 0 -8 -2q-11 -4 -19 -14q-6 -6 -12 -15 q0 -1 -2 -3.5t-2 -4.5q-1 -1 -3 -4t-3 -4q-3 -7 -9 -22.5t-9 -22.5q-2 -8 -7.5 -27t-7.5 -30q-1 -5 -3 -15.5t-3 -15.5q0 -13 -4 -33q-1 -5 -2 -16.5t-2 -16.5q0 -6 -1 -17.5t-1 -16.5q-2 -25 -2 -72zM643 156l12 4q16 5 31 14q3 2 9.5 6t9.5 6q12 9 22 19q3 4 11.5 11 t11.5 11l10 15l12 12q3 5 10.5 15.5t10.5 15.5l8 -9q-4 -6 -12.5 -16t-10.5 -12q-5 -9 -10 -12q-3 -3 -6.5 -8t-5.5 -7q-5 -5 -25 -20q-4 -4 -24 -19q-3 -2 -9.5 -6t-9.5 -6q-23 -10 -33 -10zM645 1024q4 0 12 -2q2 -1 8 -1.5t12.5 -2t12.5 -4.5q46 -21 92 -78q1 -1 3 -4 t3 -4l-6 -8q-1 2 -3 5t-3 5q-24 30 -45 51q-20 17 -43 29q-10 7 -31 12zM848 780l12 8q21 -65 25 -98q2 -9 4 -27t2 -20q2 -16 2 -51t-2 -49q0 -5 -1 -13.5t-1 -13.5q0 -8 -4 -24q-4 -36 -8 -48q-2 -4 -4.5 -12t-4.5 -12q-1 -4 -3 -11.5t-3 -11.5l-12 13q1 3 1.5 5t1 5 t1.5 6t6 23q3 11 8 45q4 20 4 24q0 5 5 25v49q0 25 -3 49q-6 46 -6 47q-4 35 -20 92z" />
<glyph unicode="&#xa5;" horiz-adv-x="1189" d="M60 1490l1 3q-1 6 0.5 16t4.5 13q6 16 28 16l242 2q20 -2 29.5 -13t9.5 -21v-11q1 -12 -6 -22.5t-14 -14.5l-7 -4q-15 -5 -23 -20.5t-9 -27.5l-1 -13l279 -568l258 580q0 5 -1 12t-9.5 21.5t-24.5 19.5q-16 6 -23.5 16.5t-7.5 17.5v7q0 18 5 23q8 14 28 18h246 q20 -1 29.5 -10.5t9.5 -19.5v-9q2 -12 -5 -22.5t-15 -14.5l-7 -4q-31 -63 -116.5 -241.5t-150.5 -309t-134 -260.5v-69h285q9 0 15.5 -7t6.5 -16v-72q-1 -13 -8.5 -19t-14.5 -6l-8 1q-37 2 -88 0h-190v-131h280q9 0 16 -7t7 -16v-71q-1 -13 -8.5 -19t-14.5 -6h-8 q-37 2 -88 0h-184v-121q-1 -29 26 -37q13 -5 20.5 -17.5t0.5 -25.5q-10 -10 -23 -10h-217q-14 1 -21 7.5t-7 12.5v7q-1 8 4 14.5t11 8.5l5 3q12 4 18.5 14t7.5 19l1 8q0 16 -1 57t-1 62h-2l-209 -4h-68q-1 1 -7.5 0t-14.5 5t-9 19v74q0 9 7 16t16 7h287v133l-205 -4h-68 q-1 1 -7.5 0t-14 5t-8.5 19v74q0 9 6.5 16t15.5 7h281q0 17 1 43.5t1 27.5q-33 66 -91.5 190.5t-126.5 261t-155 296.5q-10 26 -35 53q-3 3 -9.5 6.5t-8.5 5.5q-7 9 -10.5 16t-3.5 10zM389 1409l19 8l188 -420l-16 -8zM772 692l322 672l16 -8l-319 -666z" />
<glyph unicode="&#xa6;" horiz-adv-x="301" d="M66 694v92v658v18q0 31 22.5 53.5t54.5 22.5q34 0 58 -24t24 -58v-8v-647v-107h-159zM68 238v92h157v-107l2 -647v-8q0 -34 -24 -58t-58 -24q-32 0 -54.5 22.5t-22.5 53.5v18v658zM225 1534l8 -1q38 -24 41 -261q2 -145 2 -578h-16v701l-10 82q-11 59 -25 57zM227 -510 q11 -3 20 32t12 71l3 36v701h14q4 -423 0 -578q-11 -248 -49 -262z" />
<glyph unicode="&#xa7;" horiz-adv-x="1705" d="M104.5 153.5q0.5 22.5 9.5 38.5l9 17q9 14 21 21t20 8h8q4 -1 8 -5t6 -8l2 -4q5 -33 31 -49q54 -30 102.5 -46.5t84.5 -17.5t67 5.5t52.5 21.5t39 32.5t27.5 36.5t17 34t9 24l3 10q3 44 -10.5 79.5t-34.5 57t-55 40t-61.5 28t-65.5 22t-56 19.5q-76 15 -126 59.5 t-67.5 102.5t-12.5 121.5t32 120.5q20 36 30.5 53t28.5 39.5t37 38.5q-53 59 -60.5 148t29.5 169q38 72 86 110.5t131 51.5q102 18 200.5 -11.5t160.5 -70.5q26 -21 28.5 -53.5t-18.5 -59.5q-6 -14 -16.5 -21t-17.5 -7h-7q-31 66 -104 98.5t-145 25t-126.5 -59t-52.5 -136.5 q0 -83 117 -135q84 4 153.5 -26.5t110.5 -82t60 -118t11 -131.5t-46 -125t-103 -97q39 -33 63.5 -76.5t31.5 -86.5t4.5 -80.5t-13.5 -67.5q-32 -88 -93.5 -136.5t-156.5 -66.5q-190 -33 -348 80q-8 6 -20 18q-15 25 -14.5 47.5zM270 778q2 -82 111 -143q73 -25 125 -21 t84.5 28t51 51.5t25.5 50.5l7 22q3 49 -13.5 88t-44.5 62t-65 37.5t-73 19t-72 2.5h-7q-59 -20 -94.5 -70.5t-34.5 -126.5z" />
<glyph unicode="&#xa8;" horiz-adv-x="989" d="M246 1174q0 38 27.5 65t64.5 27q38 0 64 -27t26 -65q0 -39 -26 -66t-64 -27q-37 0 -64.5 27.5t-27.5 65.5zM416 1081q19 10 29.5 33.5t10.5 41.5l1 18q-1 33 -11 56t-20 30l-10 6q22 -8 35 -31t15 -42l3 -19q0 -23 -5.5 -41t-13.5 -27.5t-15.5 -15.5t-12.5 -8zM649 1174 q0 38 27 65t65 27t64 -27t26 -65q0 -39 -26 -66t-64 -27t-65 27.5t-27 65.5zM819 1081q19 10 29.5 33.5t11.5 41.5v18q-1 33 -11 56t-20 30l-10 6q21 -8 34 -31t16 -42l3 -19q0 -23 -5.5 -41t-13 -27.5t-15.5 -15.5t-14 -8z" />
<glyph unicode="&#xa9;" horiz-adv-x="1484" d="M242 506q0 212 150 362t362 150q138 0 255.5 -68.5t186 -186.5t68.5 -257q0 -138 -68.5 -255.5t-186 -186t-255.5 -68.5q-139 0 -257 68.5t-186.5 186t-68.5 255.5zM338 506q0 -172 122 -293t294 -121t292.5 121t120.5 293q0 173 -120.5 294.5t-292.5 121.5t-294 -121.5 t-122 -294.5zM525.5 546.5q15.5 123.5 80.5 188.5q54 51 131 51q51 -2 89.5 -13.5t74.5 -47.5q11 -17 10 -30.5t-7 -22.5l-7 -8q-5 -7 -12.5 -11t-12.5 -4h-4q-3 2 -4.5 5t-1.5 6v2q-3 25 -38 53t-62 30q-51 3 -92 -68t-45 -175v-49q3 -86 33.5 -145.5t74.5 -63.5 q39 0 82 22.5t59 57.5q3 8 9 8q16 1 26 -15q20 -28 0 -57q0 -4 -8 -8q-35 -25 -92 -42.5t-117 -6.5q-51 9 -89.5 41.5t-55.5 83.5q-37 95 -21.5 218.5zM649 449q4 -32 4 -48q7 -34 23 -75q10 -20 16 -29q1 -2 4 -6t4 -6q1 -1 3 -5t4 -6l10 -10l4 -4q0 2 -4 4q-2 4 -10 12 q-5 10 -5 11q-4 4 -8 12q-1 1 -5.5 12t-8.5 17q-10 33 -18 75q-3 21 -3 46q-3 19 0 45v10v14q0 3 5 23q4 12 4 20q0 4 1 7.5t2.5 8l2.5 7.5q0 8 4 20q2 2 2 10q4 4 4 9q1 2 2 4.5t1.5 3.5t0.5 2q0 2 4 10l2 6q1 2 3 5t3 5q6 12 7 13q0 4 8 12l6 12q2 1 5 5l3 4q6 4 12 10 l4 2q-2 0 -4 -2q-8 -4 -14 -10q0 -1 -1 -2.5t-2.5 -3t-2.5 -3.5q-4 -2 -8 -10q-10 -10 -11 -12q0 -8 -8 -12q0 -5 -4 -9q-2 -4 -2 -8q-2 -2 -6 -10q-1 -1 -2 -4t-2 -4q-1 -2 -2 -5.5t-2 -5.5q0 -6 -2 -10q-1 -3 -3 -10t-3 -10q-1 -2 -4 -10t-3 -13q0 -8 -4 -20 q-2 -10 -2 -25l-2 -12q-2 -4 -2 -12v-45z" />
<glyph unicode="&#xaa;" horiz-adv-x="368" d="M30 1295l1 14q4 50 24 95t38 65l18 20q24 25 48 36t40.5 9t30 -7.5t20.5 -12.5l6 -7q7 14 21 20.5t24 6.5h10q11 0 21.5 -10t1.5 -19q-7 -6 -11.5 -16.5t-4.5 -17.5l-1 -7v-280q1 -25 15 -37q1 0 2 -1t2 -3.5t0 -5.5q-4 -19 -27 -19q-2 0 -5 -0.5t-11 1t-15 5t-13.5 11.5 t-8.5 20q-26 -26 -69.5 -33t-80.5 8q-25 13 -41.5 36t-23 47t-9.5 46t-2 36zM115 1364q-16 -84 4 -145q2 -8 7 -20t25 -30.5t44 -15.5q26 1 43.5 24t17.5 52v246q0 2 -0.5 4t-7 6.5t-19.5 5.5q-1 -2 -8.5 0.5t-21.5 -4.5t-28.5 -17.5t-30 -38.5t-25.5 -67zM125 1323 q-7 -51 6 -100q3 -7 8 -25q2 -5 17 -20q8 -8 14 -11q8 -8 16 -4q-20 0 -43 37q-11 40 -14 90q0 41 14 99q20 55 58 81l12 9q-4 -2 -14 -6q-1 -1 -13 -11t-18 -18q-23 -23 -31 -53q-7 -30 -8 -33q-4 -16 -4 -35zM332 1247q0 -64 4 -78q0 -4 6 -10q2 -1 4.5 -2t3.5 -1.5 t2 -0.5q-6 2 -9.5 6.5t-4.5 11.5t-1 12.5t0.5 14t0.5 12.5v72v39v35v74q0 7 -1 18.5t-1 13.5q0 20 14 31q-1 -1 -4 -3.5t-5 -4.5t-3 -6q-1 -2 -2 -6.5t-2 -6.5q-2 -10 -2 -36v-35v-39v-35v-39v-37z" />
<glyph unicode="&#xab;" horiz-adv-x="884" d="M15 477.5q2 17.5 14 26.5l96 96l240 238l100 100q10 10 26 10.5t25 -8.5q10 -10 10 -25t-10 -26l-96 -96l-236 -234l-45 -47l-41 -39l70 -70l238 -239l100 -101q10 -10 10.5 -26t-8.5 -25q-10 -10 -25 -10t-26 10l-97 97l-233 235l-47 45l-57 60q-10 11 -8 28.5zM145 469 q0 2 2 0h-2zM147 469q9 7 102 101t180.5 182t88.5 86l10 -11l-342 -344q1 -1 -6 -8t-6 -8l8 -8q84 -77 359 -361q-13 -8 -17 -10l2 -2q-2 0 -2 2q-6 9 -84 86.5t-165.5 165t-108.5 109.5q-1 1 -3 2t-3 2l-2 2q-9 12 -11 14zM342 483.5q2 17.5 14 26.5l97 96l239 238l101 100 q10 10 26 10.5t25 -8.5q10 -10 10 -25t-10 -26l-96 -96l-236 -234l-45 -47l-41 -39l70 -69l237 -240l101 -100q10 -10 10.5 -26.5t-8.5 -25.5q-10 -10 -26 -10t-26 10l-96 97l-233 235l-47 45l-58 60q-10 11 -8 28.5zM473 475q0 2 2 0h-2zM475 475q9 7 102 101t180.5 182 t88.5 86l10 -10l-342 -345q1 -1 -6 -8t-6 -8l9 -9q84 -78 357 -360q-12 -8 -16 -10l2 -2q-2 0 -2 2q-6 9 -84 86.5t-165.5 165t-108.5 109.5q-1 1 -3.5 2t-3.5 2l-2 2q-8 12 -10 14z" />
<glyph unicode="&#xac;" horiz-adv-x="1705" d="M258 920l2 100h211h573q26 0 42 -16t16 -39v-7v-4v-313q0 -15 -10.5 -26t-24.5 -11q-15 0 -26 11t-11 26v279h-772z" />
<glyph unicode="&#xad;" horiz-adv-x="544" d="M14 561q0 13 11 24t24 11h86h49h164h64h80q15 0 25.5 -10.5t10.5 -24.5q0 -15 -10.5 -26t-25.5 -11h-76h-60h-157h-66h-84q-14 0 -24.5 11t-10.5 26z" />
<glyph unicode="&#xae;" horiz-adv-x="1212" d="M96 514q0 212 150 362t362 150q140 0 258.5 -68.5t187 -186.5t68.5 -257q0 -140 -68.5 -258.5t-187 -187t-258.5 -68.5q-139 0 -257 68.5t-186.5 187t-68.5 258.5zM193 514q0 -172 122 -295t293 -123q173 0 295.5 123t122.5 295t-122.5 294t-295.5 122 q-172 0 -293.5 -122t-121.5 -294zM375 696q-4 30 20 54q17 26 78 34h14q30 0 43 -22q5 2 12.5 5.5t31 9.5t45 6.5t49.5 -9t49 -31.5q2 -1 4.5 -3t10 -11t13.5 -21.5t11.5 -35.5t7.5 -51q1 -11 0 -28t-16.5 -55t-45.5 -59q-22 -15 -26 -16l84 -176q16 -35 43 -35 q8 0 11.5 -3.5t3.5 -6.5l-1 -4q2 -7 -2 -11q-3 -6 -12 -6h-90q-8 0 -12.5 4.5t-4.5 8.5v4q-1 4 2 7.5t6 4.5l3 2q4 3 2.5 7.5t-12.5 26.5l-6.5 13t-7.5 15.5t-9.5 19.5t-11 22.5t-12.5 26.5t-13.5 30.5t-15.5 35.5q-1 1 -3.5 3t-3.5 3q-3 3 -14 5t-20.5 2t-23 -0.5 t-15.5 -0.5q-1 0 -9 -4v-187q1 -16 15 -20q6 -2 9.5 -5.5t3.5 -6.5l1 -2q0 -2 -1 -5t-1 -4q-6 -6 -12 -6h-80q-7 0 -11 3.5t-4 7.5l-1 4q0 4 3 7.5t6 4.5l3 2q6 2 9.5 7.5t3.5 10.5l1 4l-2 430q2 30 -18 48q-7 8 -15 0q-35 -25 -4 -58l15 -10q-3 -4 -7 -6q-17 -21 -42 -14 t-29 34zM530 717q0 -119 2 -209q24 5 40 4.5t40 -3.5t31 -3q13 0 23 5.5t16 13.5t10 19.5t5.5 22.5t2 23t0 20.5t-1.5 15.5v7q-2 72 -44.5 94.5t-84.5 11t-39 -21.5zM553 438h6l-2 -159v-5q0 -4 2 -6v-4q1 0 4 -3t4 -3h2q0 -2 2 -2q-2 0 -2 2h-4q-1 0 -3.5 2t-2.5 4 q-1 0 -2 2t-2 2v6v5v14zM553 705l2 -168h6v168h-8zM709 446l6 3l80 -162q0 -4 2 -4q1 0 1.5 -1.5l1 -3t1.5 -2.5l2 -2q2 0 5.5 -1t4.5 -1h2h2h-2h-2q-8 0 -10 2q-1 0 -2 1t-2 1l-4 5l-2 4l-7 12zM715 465q12 6 28 22q57 68 46 148t-74 143q25 -9 51 -55.5t31.5 -106 t-33.5 -114.5q-4 -5 -9 -11.5t-9.5 -10.5t-18.5 -13z" />
<glyph unicode="&#xb0;" horiz-adv-x="1406" d="M479 1028q0 86 60 146.5t145 60.5t146 -60.5t61 -146.5q0 -83 -61 -144t-146 -61q-84 0 -144.5 60.5t-60.5 144.5zM518 1028q0 -68 48.5 -117t117.5 -49t118.5 49t49.5 117q0 70 -49.5 119t-118.5 49t-117.5 -49t-48.5 -119z" />
<glyph unicode="&#xb1;" horiz-adv-x="1165" d="M150 567q0 23 15 37t36 14h12h334v44v294v5q0 23 15 39t38 16t37 -14.5t14 -36.5v-11v-336h43h295h4q24 0 40 -15t16 -38t-15 -37t-37 -14h-10h-336v-43v-295v-4q0 -23 -15 -39t-38 -16t-37 15t-14 36v12v334h-43h-295h-4q-23 0 -39 15t-16 38zM207 45q0 13 10.5 24 t24.5 11h86h49h450h64h80q15 0 26 -10.5t11 -24.5q0 -15 -11 -26t-26 -11h-76h-59h-445h-65h-84q-14 0 -24.5 11t-10.5 26zM690 201h12v270h-12v-270zM690 676h12v270h-12v-270z" />
<glyph unicode="&#xb2;" horiz-adv-x="653" d="M220 1137q-4 11 13 37l27 53l88 172q2 5 4 12t5.5 25.5t-1.5 23.5q-11 27 -35 28t-42 -18.5t-13 -44.5l3 -16q3 -16 -1 -16q-10 -8 -22 0q-16 13 -18 36t8.5 45.5t35.5 39t56 16.5q34 -1 55 -19.5t25 -44.5t-2 -55l-123 -258q-3 -5 0 -8l2 -2h2h84q14 2 14 16 q0 15 -14 17q-2 2 0 2q2 2 4.5 3.5t5.5 2t6 0.5h5h1q14 -5 19 -15.5t4 -18.5l-2 -7q-3 -10 -12 -15.5t-17 -5.5h-8h-10h-131q-4 0 -8 2t-8 13zM307 1161l2 -10q-4 4 0 10q1 2 6 11t7 16q3 5 9.5 17.5t10.5 19.5q2 3 5 10t5 10q2 4 6.5 11.5t6.5 11.5t5 11t5 11q51 105 41 96 q-9 -9 -58 -116q-3 -9 -10 -23q-3 -10 -10 -20q-3 -7 -19 -39q-9 -22 -12 -27z" />
<glyph unicode="&#xb3;" horiz-adv-x="479" d="M86 1176q-8 16 8 22q24 7 37 -12q17 -26 43 -31q1 1 8 -0.5t19.5 3.5t24 12t21.5 25t13 44q0 47 -41 74q-15 10 -43 10q-49 0 -49 16q0 15 39 15q30 -2 52.5 17t23.5 48v2q0 4 -0.5 9t-4.5 20.5t-11.5 23t-22.5 14.5t-37 -3q-17 -11 -25 -27q-11 -18 -30 -18h-2 q-9 0 -15 8.5t-2 17.5q33 64 98 64q5 0 13 -1t28.5 -8t35 -20t24 -40.5t4.5 -65.5q-12 -44 -35 -58q6 -4 14.5 -11t22.5 -35t12 -62q-1 -4 -2.5 -11t-10 -25.5t-20 -33t-35 -26.5t-53.5 -13q-7 0 -18.5 1.5t-39 16t-44.5 38.5zM240 1122h4h7t16 4.5t22 13.5t20.5 29t14.5 48 q4 32 -4 61.5t-18 43.5l-9 13q3 4 7 12t11 30.5t7 45t-12 52.5t-38 55q4 -2 11 -6.5t21 -20.5t21.5 -36.5t5 -55.5t-21.5 -76q2 -3 5 -8t9.5 -22t10 -34.5t1.5 -43.5t-12 -51q-17 -56 -79 -54z" />
<glyph unicode="&#xb4;" horiz-adv-x="913" d="M298 1150l1 5q2 6 7.5 9.5t10.5 3.5l5 1q21 3 43 19l20 20l35 66q16 24 18 26q26 38 72.5 45t81.5 -22q12 -12 22 -27q4 -7 5 -15t0 -13l-1 -4q-2 -6 -7 -10t-9 -4l-4 -1q-22 -3 -41 -16q-13 -10 -20 -21q-50 -88 -58 -96q-26 -37 -71 -43.5t-80 21.5l-2 2q-13 10 -23 26 q-3 8 -4 16t-1 12z" />
<glyph unicode="&#xb5;" horiz-adv-x="937" d="M38 994l1 5v15q10 10 22 10h205q15 -1 22 -7t7 -12v-6q0 -9 -6 -16t-11 -9l-6 -3q-12 -4 -18.5 -15t-7.5 -20v-8l-2 -711q0 -43 32 -75.5t76 -32.5h4q50 -3 98.5 19t85.5 60.5t55.5 62t33.5 48.5q0 2 2 5.5t2 6.5v623q0 29 -27 39q-12 4 -18 10.5t-6 10.5v5q0 11 2 17 q13 10 22 10h203q15 -1 22 -7.5t7 -12.5v-7q2 -8 -3 -14.5t-11 -8.5l-5 -3q-12 -4 -18.5 -14.5t-6.5 -18.5l-1 -8v-776q-3 -53 36 -88q2 -1 5 -3.5t7 -9.5t1 -14q-2 -4 -6 -10.5t-21 -18t-39 -12.5q-5 -1 -13.5 -1.5t-30.5 2t-39.5 10t-33.5 27t-20 48.5l-2 55l-11 -16.5 t-33 -36.5t-56.5 -45.5t-80 -36t-104.5 -16.5q-53 -8 -108 8v-303q-2 -53 37 -86l5 -5t6.5 -11t0.5 -15q-2 -4 -6 -10.5t-21 -17.5t-39 -13q-5 -1 -13.5 -1.5t-30.5 2t-40 10t-34 27t-19 48.5l-2 58l-2 792v461q0 27 -27 37q-11 4 -16 11t-5 12zM285 -47l2 -92v-92 q1 -6 2 -47t8 -62q3 -8 8 -16q1 -1 5.5 -6.5t6.5 -6.5q1 -1 3.5 -2t3.5 -2q4 -2 8 -2l-8 4q-1 0 -3.5 2t-3.5 2q-18 18 -18 45q0 14 1 44.5t1 46.5l2 92l2 92h-20zM288 394q0 -18 0.5 -39t0.5 -33v-56v-26q0 -19 6 -29q7 -27 33 -43q15 -12 41 -16h30q3 0 9.5 1t9.5 1 q3 1 8 2t8 2q3 2 9.5 3.5t7.5 2.5t7.5 3.5t8.5 6.5q3 0 8.5 3t7.5 3l15 10q3 2 7 5.5t7 5.5q5 7 12 12q2 2 6.5 6t6.5 6q6 6 12 15l10 10q25 36 39 59q-3 -5 -9.5 -13.5t-8.5 -12.5q-5 -5 -23 -29l-12 -12l-13 -13q-8 -8 -14 -12q-6 -6 -12 -10q-1 -1 -5.5 -4.5t-6.5 -5.5 l-15 -9q-3 -2 -8 -4t-8 -4q-12 -6 -14 -6q-15 -5 -19 -6l-5 -1q-5 -1 -18.5 -2t-35.5 -1q-12 0 -35 14q-22 16 -31 39q-4 16 -4 23v26v56v106v104l-2 109v107v108q-3 52 -0.5 71.5t16.5 26.5q-7 -4 -11.5 -8t-6.5 -13t-2.5 -11t-1.5 -15l-2 -51q-2 -37 -2 -108v-107v-109 v-104q-1 -16 -1 -34zM819 414l2 -90l2 -93q1 -8 1 -40t3 -50q2 -13 15 -32q5 -9 12 -13q1 -1 3 -2t3 -2l8 -4q-7 3 -8 6l-8 4q-1 2 -6.5 11.5t-8.5 17t-3 14.5q4 62 4 90l2 93l2 90v90v90l-2 45l-2 135q0 28 -4 94v-2l4 21q0 4 4 8l2 10q2 4 6 8q1 2 2 6t2 5q2 2 11 15.5 t12 16.5q-3 -3 -12.5 -16t-12.5 -16l-6 -6q-1 -2 -2.5 -5.5t-1.5 -5.5l-6 -8q-5 -13 -7.5 -30t-3.5 -29.5t-1.5 -34t-0.5 -31.5l-2 -90l-2 -90v-90v-90z" />
<glyph unicode="&#xb6;" horiz-adv-x="1091" d="M25 1143q0 100 60.5 189t156.5 142t200 60q12 10 45 10h500q60 0 60 -43q0 -24 -16 -40.5t-40 -16.5h-82v-1385q0 -59 -43 -59q-24 0 -40.5 15.5t-16.5 39.5v576v274v537l-231 2h-9v-1385q0 -59 -43 -59q-24 0 -40.5 15.5t-16.5 39.5v576q-2 0 -2 119q-107 1 -209 53.5 t-167.5 144t-65.5 195.5zM969 80v1251h28v-1251h-28z" />
<glyph unicode="&#xb7;" horiz-adv-x="374" d="M82 618q0 38 27.5 65.5t64.5 27.5q38 0 64 -27t26 -66q0 -37 -26 -63.5t-64 -26.5q-37 0 -64.5 26.5t-27.5 63.5zM252 528q19 10 29.5 32.5t10.5 39.5l1 18q-1 33 -11 56t-20 30l-10 7q21 -8 33.5 -31.5t14.5 -42.5l3 -19q0 -22 -5.5 -39.5t-12.5 -26.5t-14.5 -15 t-12.5 -7z" />
<glyph unicode="&#xb8;" horiz-adv-x="481" d="M43 -381q-27 55 25 102l5 -5t13.5 -13t21 -17.5t28 -17.5t34 -13.5t38.5 -6t42 5.5q32 12 45 28.5t22 45.5q19 67 -51 102q-7 3 -24 5.5t-30 3.5l-13 1l-78 4q-6 0 -6 9v4l26 139q0 4 6 4h78q8 0 8 -8l-14 -76q37 -4 53 -6q14 -3 30.5 -11.5t38.5 -26.5t34.5 -52.5 t9.5 -79.5q-2 -47 -26.5 -89t-65.5 -67q-80 -46 -174 -20q-52 13 -76 55zM260 -61h11t27.5 -3.5t38.5 -10.5t39 -22.5t35.5 -37t22 -57t2.5 -80.5q0 -5 -1 -14.5t-8 -34.5t-20 -46t-41.5 -43.5t-66.5 -33.5q4 1 11.5 4t27 15.5t35 29.5t30 48.5t17.5 70.5q1 8 2.5 21 t-2.5 47.5t-18 62t-50.5 53t-91.5 31.5z" />
<glyph unicode="&#xb9;" horiz-adv-x="249" d="M33 1424v3l6 5q19 9 40 33t32.5 42.5t11.5 20.5q0 6 6 6h31q8 0 8 -8v-150v-225q6 -12 39 -12q6 0 8 -4q4 0 4 -5q0 -10 -12 -10h-27h-2h-61h-2h-31l-10 10l2 5q4 4 8 4q35 0 39 14v227l2 74q-7 -13 -17 -24t-16 -16l-6 -5q-9 -6 -19.5 -6t-16.5 3l-7 3q-5 3 -7.5 7.5 t-2.5 7.5zM186 1243v2v283h7l-3 -316l11 -38h-4q-9 9 -11 69z" />
<glyph unicode="&#xba;" horiz-adv-x="434" d="M63 1333q0 87 38 148t96 61q57 0 92 -60t35 -149q0 -90 -35 -150.5t-92 -60.5q-58 0 -96 61t-38 150zM115 1329q0 -74 26 -127t56 -53q28 0 52 50t23 124q0 193 -75 193q-29 0 -55.5 -56t-26.5 -131zM127 1325q3 -35 11.5 -63.5t18.5 -45t19.5 -27.5t15.5 -15l7 -3l-3 3 q-4 4 -10 10.5t-12.5 16t-13.5 23.5t-12 30.5t-7.5 39t-1.5 47.5q2 34 10 62.5t18 44.5t20 27.5t16 15.5l6 4q-36 -14 -56.5 -56.5t-22.5 -78.5zM238 1122h2h-2zM238 1540h2h-2zM274 1133q23 9 39.5 33.5t24.5 53t12 56t5 45.5l1 18q-3 35 -11 67t-18 52.5t-19.5 35.5 t-16 22t-6.5 6l3 -6q4 -6 9.5 -16.5t12.5 -24.5t13.5 -33t11.5 -39.5t7.5 -45.5t1.5 -50q-2 -34 -10 -64.5t-18 -49.5t-20 -33.5t-16 -20.5z" />
<glyph unicode="&#xbb;" horiz-adv-x="894" d="M27 854q12 8 16 10l-2 2q2 0 2 -2q6 -9 84 -86.5t165.5 -164.5t108.5 -109q1 -1 3.5 -2t3.5 -2l2 -2q8 -13 10 -15q-9 -7 -102 -100.5t-180.5 -181.5t-88.5 -86l-10 10l342 344q-1 1 6 8t6 8l-9 9q-84 78 -357 360zM40 37q0 15 11 26l96 97l236 233l45 47l41 39l-70 70 l-237 239l-101 101q-10 10 -10.5 26t8.5 25q11 10 26 10t26 -10l96 -96l233 -236l47 -45l58 -59q10 -11 8 -28.5t-14 -26.5l-97 -97l-239 -237l-101 -101q-10 -10 -26 -10.5t-25 8.5q-11 10 -11 25zM354 860q13 8 17 10l-2 2q2 0 2 -2q6 -9 84 -86.5t165.5 -164.5 t108.5 -109q1 -1 3 -2t3 -2l2 -2q9 -13 11 -15q-9 -7 -102 -100.5t-180.5 -181.5t-88.5 -86l-10 10l342 344q-1 1 6 8.5t6 8.5l-8 8q-83 74 -359 360zM368 44q0 16 11 26l96 96l236 233l45 47l41 39l-70 70l-238 240l-100 100q-10 10 -10.5 26t8.5 25q11 10 26 10t25 -10 l97 -96l233 -236l47 -45l57 -59q10 -11 8 -28.5t-14 -26.5l-96 -97l-240 -237l-100 -101q-10 -10 -26 -10.5t-25 8.5q-11 10 -11 26zM420 483h2q0 -2 -2 0zM748 489h2q0 -2 -2 0z" />
<glyph unicode="&#xbc;" horiz-adv-x="1501" d="M33 1328v5q1 4 4 6.5t5 2.5l3 1q37 17 77.5 65t57 76t23.5 42q4 8 12 8h57q17 0 17 -14v-283v-424q6 -25 73 -25q11 0 17 -6q4 -4 4 -10v-4.5t-5.5 -7.5t-15.5 -6h-51l-4 -2h-114q0 2 -5 2h-57q-10 1 -14.5 5.5t-4.5 8.5l1 4q-3 6 4 10q6 6 14 6q64 0 74 27v430v141 q-12 -24 -30 -46t-30 -32l-12 -10q-17 -12 -37.5 -12t-32.5 6l-12 6q-9 6 -13.5 15t-4.5 15zM203 60q-2 18 18 42l6 13l322 471l47 67q-1 0 42.5 64.5t87.5 128.5l44 65l49 70l320 469l8 10q19 32 38.5 45t33.5 6.5t23 -21t8 -37.5t-13 -44l-4 -4l-318 -463l-49 -76 l-180 -260l-53 -76l-318 -464l-2 -7q-27 -32 -71 -28q-36 3 -39 29zM272 2q6 -9 30.5 12.5t45.5 47.5l21 26l342 502l178 258l342 502q1 2 3 5t7 12.5l10 19t11 21t10 22t7 19.5t3 14.5t-4 6.5l7 -3q22 -25 -101 -205l-2 -2q-40 -63 -283 -418l-176 -262 q-232 -338 -289 -414q-124 -175 -156 -170q-5 2 -6 6zM322 1524h14l-4 -596q0 -2 0.5 -6t1 -14t2 -18.5t3 -17.5t4 -14t5.5 -4h-5q-17 10 -19 135q0 24 -1 241t-1 294zM1024 340q0 33 25 74l251 340q0 4 4 8t9 4h59q14 0 14 -18v-277v-92h48q10 0 18 -9t8 -20v-31 q0 -8 -5.5 -14t-12.5 -6h-56v-244q4 -12 16 -17q16 -5 46 -5q5 0 12 -5.5t6 -11.5q2 -18 -18 -18h-41h-2h-100h-5h-57q-9 0 -13.5 4.5t-4.5 9.5v4q0 5 4 9q5 8 14 8h6.5h8.5h8.5t9 1t8.5 2t7.5 3t5.5 4.5t4.5 6t1.5 7.5v242h-238q-17 0 -29 12t-12 29zM1151 381l152 -2v100 v127zM1409 236v38h10v-38q-4 -143 -4 -148q0 -11 21 -16h-2q-5 0 -17 6q-4 0 -4 10l-2 18zM1413 412h8l2 342h-10v-342z" />
<glyph unicode="&#xbd;" horiz-adv-x="1605" d="M33 1330v5q1 4 4 7t5 4h3q37 17 77 64.5t56 74.5t23 41q4 8 12 8h57q6 0 11.5 -4t5.5 -10v-279v-418q6 -24 71 -24q11 0 17 -6q4 -4 4 -11v-4.5t-5.5 -7.5t-15.5 -6h-51l-4 -2h-113q0 2 -4 2h-57q-9 1 -13.5 5.5t-4.5 8.5v4q0 7 4 11q6 6 14 6q64 0 74 26v424v140 q-12 -24 -30 -45.5t-30 -31.5l-12 -9q-16 -12 -36 -12.5t-32 4.5l-12 5q-9 6 -13.5 15t-4.5 15zM203 60q-2 18 18 42l6 13l322 471l47 67q-1 0 42.5 64.5t87.5 128.5l44 65l49 70l320 469l8 10q19 32 38.5 45t33.5 6.5t23 -21t8 -37.5t-13 -44l-4 -4l-318 -463l-49 -76 l-180 -260l-53 -76l-318 -464l-2 -7q-27 -32 -71 -28q-36 3 -39 29zM272 2q6 -9 30.5 12.5t45.5 47.5l21 26l342 502l178 258l342 502q1 2 3 5t7 12.5l10 19t11 21t10 22t7 19.5t3 14.5t-4 6.5l7 -3q22 -25 -101 -205l-2 -2q-40 -63 -283 -418l-176 -262 q-232 -338 -289 -414q-124 -175 -156 -170q-5 2 -6 6zM317 1524h15l-4 -590l7 -54q4 -19 9 -18h-6q-17 12 -19 131v2q0 24 -1 238.5t-1 290.5zM1108.5 31.5q-7.5 22.5 24.5 72.5l55 103l170 340q4 10 8 24t12 51t0 48q-21 52 -69.5 54t-84 -36.5t-24.5 -87.5q0 -4 5.5 -33 t-3.5 -32q-2 -2 -5.5 -4t-15.5 -4.5t-24 5.5q-32 26 -35 72.5t18 90.5t69.5 77t109.5 33q67 -1 109 -37t49.5 -87.5t-4.5 -109.5l-244 -508q-3 -11 4 -18l2 -2q4 -2 6 -2h164q3 0 8.5 1.5t13 10.5t5.5 23v7.5t-6.5 12.5t-20.5 10q-2 0 -2.5 3t0.5 4q7 7 18.5 9t18.5 0l8 -1 q28 -9 39 -28.5t7 -34.5l-3 -15q-5 -20 -23.5 -30t-34.5 -11h-16l-20 -2v2h-260q-7 0 -14 3.5t-14.5 26zM1277.5 68q0.5 -4 2.5 -6l2 -3q-6 7 0 19q2 4 7 13t10.5 19.5t9.5 20.5q1 1 41 74q1 2 8 17.5t12 23.5q4 7 11.5 21.5t11.5 21.5q14 32 20 43q93 191 83 192l-3 -2 q-17 -17 -111 -229q-3 -7 -10 -21.5t-10 -21.5q-4 -7 -21 -41q-30 -62 -36 -76q-5 -12 -13.5 -30.5t-11.5 -24.5t-2.5 -10z" />
<glyph unicode="&#xbe;" horiz-adv-x="1617" d="M88.5 925.5q-3.5 -11.5 3.5 -22.5q29 -44 73.5 -68.5t74.5 -26.5l30 -3q53 2 94.5 22.5t63 48.5t35 55.5t17.5 46.5l3 19q3 37 -5 70.5t-21 55t-26.5 37.5t-23.5 23l-10 7q18 11 34 36t23 44l7 20q6 51 0 88.5t-22.5 63.5t-37.5 42.5t-43 26t-41 13.5t-31 5l-12 1 q-117 -2 -172 -115q-8 -15 1 -30t26 -15h4q36 0 53 31q7 14 18.5 26t19.5 17l7 6q39 11 65 4.5t40.5 -25.5t21 -39.5t8.5 -36.5l1 -16v-4q-5 -51 -44.5 -85t-93.5 -31q-67 2 -67 -27q0 -27 86 -25q42 0 78 -22q32 -19 50 -51.5t20 -55.5l1 -22q-4 -33 -14.5 -59t-24 -41.5 t-29 -26.5t-31 -15t-27.5 -6.5t-19 -1.5h-8q-38 11 -76 58q-19 31 -64 20q-12 -5 -15.5 -16.5zM203 60q-2 18 18 42l6 13l322 471l47 67q-1 0 42.5 64.5t87.5 128.5l44 65l49 70l320 469l8 10q19 32 38.5 45t33.5 6.5t23 -21t8 -37.5t-13 -44l-4 -4l-318 -463l-49 -76 l-180 -260l-53 -76l-318 -464l-2 -7q-27 -32 -71 -28q-36 3 -39 29zM272 2q6 -9 30.5 12.5t45.5 47.5l21 26l342 502l178 258l342 502q1 2 3 5t7 12.5l10 19t11 21t10 22t7 19.5t3 14.5t-4 6.5l7 -3q22 -25 -101 -205l-2 -2q-40 -63 -283 -418l-176 -262 q-232 -338 -289 -414q-124 -175 -156 -170q-5 2 -6 6zM360 807q111 -2 144 96q17 44 20.5 89.5t-3.5 78.5t-17 59.5t-18 39.5l-9 14q33 72 38.5 133.5t-10 98.5t-36.5 64t-39 38l-18 10q47 -45 69 -97t19 -94t-12 -77.5t-21 -55.5l-12 -20q3 -3 7.5 -9.5t15 -27t18 -43 t12 -57t0.5 -70.5q-8 -50 -25.5 -86t-36.5 -51.5t-36.5 -24t-29.5 -8.5h-11h-9zM1071 358q0 40 25 76l264 357q0 5 4 8.5t8 3.5h62q16 0 16 -19v-288v-97h49q11 0 20 -9t9 -21v-31q0 -9 -6.5 -15t-14.5 -6h-57v-256v-3q1 -2 1.5 -3.5t2.5 -4t4.5 -4t7.5 -3.5t11 -3t15.5 -2 t20.5 -1q7 0 13.5 -5t5.5 -12q-1 -1 0 -5t-4 -8.5t-15 -4.5h-40h-5h-104h-4h-60q-10 0 -15 4.5t-5 9.5v4q0 8 6 11q3 6 14 6h7h8.5t8.5 0.5t9.5 1t8.5 1.5t8 3t6 5t4.5 6.5t1.5 8.5v254h-250q-17 0 -29 12t-12 29zM1204 401l158 -2v105v133zM1475 250v39h8v-39 q-2 -150 -2 -154q0 -13 20 -18h-2q-12 0 -16 8q-1 0 -3.5 4t-2.5 6v19zM1477 434h10v357h-8z" />
<glyph unicode="&#xbf;" horiz-adv-x="993" d="M33 -68q0 66 13 122.5t34 95t46 69.5t50.5 49t46.5 30t34 16l13 5q-9 -4 -23 -13t-50.5 -41t-64 -69t-50.5 -99.5t-23 -131.5q0 -59 3 -105.5t11.5 -81.5t15.5 -58t23 -46.5t25 -34.5t31.5 -34t32.5 -35q-4 1 -10 3t-23.5 12.5t-33 25.5t-35 43.5t-33.5 64.5t-23.5 91.5 t-9.5 121.5zM105 3.5q11 67.5 42.5 125t92.5 100.5t145 60q50 8 84 17t61.5 20.5t43.5 30.5t27 41t14 57.5t3 74t-4 97.5q-2 5 -2 22.5t6.5 36.5t15 40t23 33.5t31 16t39.5 -12.5t47 -52q39 -58 45.5 -158.5t-32 -202.5t-119.5 -145q-8 -1 -21 -3.5t-51.5 -13t-73 -23.5 t-77.5 -36t-74 -49t-53 -64.5t-23 -81.5q-2 -79 27 -141t77 -96t110 -46.5t123.5 -0.5t119 50.5t94.5 98.5q2 21 20 25q1 -1 4.5 0t11 -1t15 -5.5t17 -12t16.5 -20.5q2 -3 5.5 -8t11 -21t10 -31.5t-2 -37t-18.5 -39.5q-9 -16 -25 -25q-22 -16 -41.5 -29t-50 -30.5t-59 -29.5 t-67.5 -24t-77 -17.5t-85 -5t-95 8.5q-50 9 -89 25.5t-64.5 34t-52.5 50.5t-42 57t-43 73q-29 63 -40 131.5t0 136zM563 932q0 22 5.5 39.5t12.5 26.5t14.5 15t12.5 7l6 2q-19 -10 -29.5 -32.5t-10.5 -39.5l-1 -18q1 -33 11 -56t20 -30l10 -6q-21 8 -33.5 31t-14.5 42z M602 932q0 37 26 63.5t64 26.5q37 0 64.5 -26.5t27.5 -63.5q0 -38 -27.5 -65t-64.5 -27q-38 0 -64 27t-26 65z" />
<glyph unicode="&#xc0;" horiz-adv-x="1265" d="M51 559q-14 70 51 143q2 3 7 8.5t24 20t41 26t59.5 22.5t79.5 14h54l116 487q2 10 6.5 27.5t19.5 61.5t32 77.5t44.5 62t57.5 29.5q38 1 71.5 -39.5t51 -89.5t30 -91t13.5 -42q108 -353 234 -773q87 -291 107.5 -349.5t39.5 -65.5q15 -6 22 -16.5t7 -17.5v-7 q4 -18 -2 -29q-11 -16 -29 -16l-227 -2q-20 1 -29.5 12t-9.5 22v11q-2 12 4.5 21.5t13.5 13.5l8 4q15 6 23 24t9 33l1 15l-154 495h-342l-137 -510q-2 -43 33 -57q16 -6 24 -16.5t9 -17.5v-7q0 -16 -6 -25q-10 -16 -27 -16l-217 -2q-19 2 -29 12t-10 20v9q-1 12 6 22.5 t14 15.5l7 5q16 5 30 37q0 10 2 14q31 125 58 225.5t46 168.5q30 106 31.5 125.5t-22.5 25.5q-10 4 -40 -2.5t-38 -13.5q-5 -4 -16 -11.5t-16 -11.5t-12 -12t-9 -15t-1.5 -18.5t5.5 -24.5q14 -40 53 -43l23 -6q2 0 2 -4q-1 -1 -3.5 -4.5t-4.5 -5.5q-29 -34 -71.5 -38.5 t-76.5 20.5t-41 69zM422 150l2 12l10 35l86 387l19 -4l-107 -422q-1 -1 -2 -5t-2 -6v-16v-10q5 -10 16 -21q0 -1 2 -2q1 -1 1.5 -1t1.5 -1q4 -4 6 -4q-1 0 -9 4l-4 4q-2 2 -8.5 10t-7.5 9q-2 4 -2 12zM426 1800q-4 17 6 35q14 34 49.5 45.5t72 -0.5t54.5 -39q12 -15 29 -48 t29 -48q10 -15 29 -26t34 -11q21 0 25 -16q0 -32 -11 -43q-8 -11 -16 -17q-32 -30 -81.5 -24.5t-76.5 43.5q-6 6 -18 30l-37 68q-9 13 -30 25t-35 12q-19 0 -23 14zM520 793h266l-143 538zM586 842l57 270l14 -8l-55 -266zM778 1487q28 1 66.5 -79t63.5 -160l24 -81l33 -112 l32 -111l31 -108q18 -68 33 -113l31 -113l32 -112l29 -113q5 -17 10.5 -36.5t11.5 -43t9 -35.5l14 -57q0 -9 14 -23q9 -6 19 -6q-13 0 -21 4q-2 1 -5 4.5t-5 4.5q-2 6 -6 14l-16 57q-4 14 -17 51.5t-20 59.5l-33 110l-33 111l-33 115q-10 32 -32 112l-31 107h-2l-33 115 l-29 112q-42 125 -67 197q-10 32 -27.5 64.5t-30.5 48.5z" />
<glyph unicode="&#xc1;" horiz-adv-x="1265" d="M51 559q-14 70 51 143q2 3 7 8.5t24 20t41 26t59.5 22.5t79.5 14h54l116 487q2 10 6.5 27.5t19.5 61.5t32 77.5t44.5 62t57.5 29.5q38 1 71.5 -39.5t51 -89.5t30 -91t13.5 -42q108 -353 234 -773q87 -291 107.5 -349.5t39.5 -65.5q15 -6 22 -16.5t7 -17.5v-7 q4 -18 -2 -29q-11 -16 -29 -16l-227 -2q-20 1 -29.5 12t-9.5 22v11q-2 12 4.5 21.5t13.5 13.5l8 4q15 6 23 24t9 33l1 15l-154 495h-342l-137 -510q-2 -43 33 -57q16 -6 24 -16.5t9 -17.5v-7q0 -16 -6 -25q-10 -16 -27 -16l-217 -2q-19 2 -29 12t-10 20v9q-1 12 6 22.5 t14 15.5l7 5q16 5 30 37q0 10 2 14q31 125 58 225.5t46 168.5q30 106 31.5 125.5t-22.5 25.5q-10 4 -40 -2.5t-38 -13.5q-5 -4 -16 -11.5t-16 -11.5t-12 -12t-9 -15t-1.5 -18.5t5.5 -24.5q14 -40 53 -43l23 -6q2 0 2 -4q-1 -1 -3.5 -4.5t-4.5 -5.5q-29 -34 -71.5 -38.5 t-76.5 20.5t-41 69zM422 150l2 12l10 35l86 387l19 -4l-107 -422q-1 -1 -2 -5t-2 -6v-16v-10q5 -10 16 -21q0 -1 2 -2q1 -1 1.5 -1t1.5 -1q4 -4 6 -4q-1 0 -9 4l-4 4q-2 2 -8.5 10t-7.5 9q-2 4 -2 12zM520 793h266l-143 538zM544 1686l1 4q2 6 7.5 9.5t9.5 4.5h5q22 3 43 18 l21 21l35 65l18 27q26 38 72.5 45t81.5 -22q12 -12 22 -27q4 -7 5 -15.5t0 -13.5l-1 -4q-2 -6 -7 -9.5t-9 -4.5h-4q-20 -3 -41 -17q-16 -13 -21 -20q-51 -90 -57 -96q-26 -37 -71.5 -44t-80.5 21l-2 2q-11 8 -22 27q-3 8 -4 16.5t-1 12.5zM586 842l16 -4l55 266l-14 8z M778 1487q28 1 66.5 -79t63.5 -160l24 -81l33 -112l32 -111l31 -108q18 -68 33 -113l31 -113l32 -112l29 -113q5 -17 10.5 -36.5t11.5 -43t9 -35.5l14 -57q0 -9 14 -23q9 -6 19 -6q-13 0 -21 4q-2 1 -5 4.5t-5 4.5q-2 6 -6 14l-16 57q-4 14 -17 51.5t-20 59.5l-33 110 l-33 111l-33 115q-10 32 -32 112l-31 107h-2l-33 115l-29 112q-42 125 -67 197q-10 32 -27.5 64.5t-30.5 48.5z" />
<glyph unicode="&#xc2;" horiz-adv-x="1263" d="M51 559q-14 70 51 143q2 3 7 8.5t24 20t41 26t59.5 22.5t79.5 14h54l116 487q2 10 6.5 27.5t19.5 61.5t32 77.5t44.5 62t57.5 29.5q38 1 71.5 -39.5t51 -89.5t30 -91t13.5 -42q108 -353 234 -773q87 -291 107.5 -349.5t39.5 -65.5q15 -6 22 -16.5t7 -17.5v-7 q4 -18 -2 -29q-11 -16 -29 -16l-227 -2q-20 1 -29.5 12t-9.5 22v11q-2 12 4.5 21.5t13.5 13.5l8 4q15 6 23 24t9 33l1 15l-154 495h-342l-137 -510q-2 -43 33 -57q16 -6 24 -16.5t9 -17.5v-7q0 -16 -6 -25q-10 -16 -27 -16l-217 -2q-19 2 -29 12t-10 20v9q-1 12 6 22.5 t14 15.5l7 5q16 5 30 37q0 10 2 14q31 125 58 225.5t46 168.5q30 106 31.5 125.5t-22.5 25.5q-26 9 -61 -4.5t-56.5 -43.5t-9.5 -61q14 -40 53 -43l23 -6q2 0 2 -4q-1 -1 -3.5 -4.5t-4.5 -5.5q-29 -34 -71.5 -38.5t-76.5 20.5t-41 69zM414 1694q1 6 6 9.5t10 4.5h4 q25 3 43 18q22 19 51 68.5t45 67.5q23 26 68 26q41 0 70 -26q16 -17 22 -29q6 -9 12 -21q40 -66 60 -86q21 -15 43 -18q16 0 20 -14q11 -35 -28 -62q-34 -29 -80.5 -23.5t-73.5 46.5q-8 11 -45 76q-40 -71 -45 -76q-26 -38 -72.5 -45t-83.5 22q-31 31 -26 62zM422 150l2 12 l10 35l86 387l19 -4l-107 -422q-1 -1 -2 -5t-2 -6v-16v-10q5 -10 16 -21q0 -1 2 -2q1 -1 1.5 -1t1.5 -1q4 -4 6 -4q-1 0 -9 4l-4 4q-2 2 -8.5 10t-7.5 9q-2 4 -2 12zM520 793h266l-143 538zM586 842l16 -4l55 266l-14 8zM778 1487q28 1 66.5 -79t63.5 -160l24 -81l33 -112 l32 -111l31 -108q18 -68 33 -113l31 -113l32 -112l29 -113q5 -17 10.5 -36.5t11.5 -43t9 -35.5l14 -57q0 -9 14 -23q9 -6 19 -6q-13 0 -21 4q-2 1 -5 4.5t-5 4.5q-2 6 -6 14l-16 57q-4 14 -17 51.5t-20 59.5l-33 110l-33 111l-33 115q-10 32 -32 112l-31 107h-2l-33 115 l-29 112q-42 125 -67 197q-10 32 -27.5 64.5t-30.5 48.5z" />
<glyph unicode="&#xc3;" horiz-adv-x="1269" d="M51 559q-14 70 51 143q2 3 7 8.5t24 20t41 26t59.5 22.5t79.5 14h54l116 487q2 10 6.5 27.5t19.5 61.5t32 77.5t44.5 62t57.5 29.5q38 1 71.5 -39.5t51 -89.5t30 -91t13.5 -42q108 -353 234 -773q87 -291 107.5 -349.5t39.5 -65.5q15 -6 22 -16.5t7 -17.5v-7 q4 -18 -2 -29q-11 -16 -29 -16l-227 -2q-20 1 -29.5 12t-9.5 22v11q-2 12 4.5 21.5t13.5 13.5l8 4q15 6 23 24t9 33l1 15l-154 495h-342l-137 -510q-2 -43 33 -57q16 -6 24 -16.5t9 -17.5v-7q0 -16 -6 -25q-10 -16 -27 -16l-217 -2q-19 2 -29 12t-10 20v9q-1 12 6 22.5 t14 15.5l7 5q16 5 30 37q0 10 2 14q31 125 58 225.5t46 168.5q30 106 31.5 125.5t-22.5 25.5q-10 4 -40 -2.5t-38 -13.5q-5 -4 -16 -11.5t-16 -11.5t-12 -12t-9 -15t-1.5 -18.5t5.5 -24.5q14 -40 53 -43l23 -6q2 0 2 -4q-1 -1 -3.5 -4.5t-4.5 -5.5q-29 -34 -71.5 -38.5 t-76.5 20.5t-41 69zM395 1649q-3 7 0 20v4q5 46 42 73.5t83 18.5q1 0 3.5 -1t4.5 -1q3 -1 12 -2t13 -2l217 -20h29h2q26 4 41 16q1 1 3.5 2.5t8.5 4.5t10 -1q15 -8 23 -26q0 -7 2 -11q3 -9 0 -22v-4q-5 -44 -41 -71.5t-82 -20.5q-2 0 -4 1t-4 1q-4 1 -12.5 3t-12.5 3 q-228 23 -248 20q-26 -4 -41 -16q-2 -2 -4 -3.5t-9 -5t-11 0.5q-15 10 -23 28q0 1 -1 5t-1 6zM422 150l2 12l10 35l86 387l19 -4l-107 -422q-1 -1 -2 -5t-2 -6v-16v-10q5 -10 16 -21q0 -1 2 -2q1 -1 1.5 -1t1.5 -1q4 -4 6 -4q-1 0 -9 4l-4 4q-2 2 -8.5 10t-7.5 9q-2 4 -2 12 zM520 793h266l-143 538zM586 842l57 270l14 -8l-55 -266zM778 1487q28 1 66.5 -79t63.5 -160l24 -81l33 -112l32 -111l31 -108q18 -68 33 -113l31 -113l32 -112l29 -113q5 -17 10.5 -36.5t11.5 -43t9 -35.5l14 -57q0 -9 14 -23q9 -6 19 -6q-13 0 -21 4q-2 1 -5 4.5t-5 4.5 q-2 6 -6 14l-16 57q-4 14 -17 51.5t-20 59.5l-33 110l-33 111l-33 115q-10 32 -32 112l-31 107h-2l-33 115l-29 112q-42 125 -67 197q-10 32 -27.5 64.5t-30.5 48.5z" />
<glyph unicode="&#xc4;" horiz-adv-x="1265" d="M51 559q-14 70 51 143q2 3 7 8.5t24 20t41 26t59.5 22.5t79.5 14h54l116 487q2 10 6.5 27.5t19.5 61.5t32 77.5t44.5 62t57.5 29.5q38 1 71.5 -39.5t51 -89.5t30 -91t13.5 -42q108 -353 234 -773q87 -291 107.5 -349.5t39.5 -65.5q15 -6 22 -16.5t7 -17.5v-7 q4 -18 -2 -29q-11 -16 -29 -16l-227 -2q-20 1 -29.5 12t-9.5 22v11q-2 12 4.5 21.5t13.5 13.5l8 4q15 6 23 24t9 33l1 15l-154 495h-342l-137 -510q-2 -43 33 -57q16 -6 24 -16.5t9 -17.5v-7q0 -16 -6 -25q-10 -16 -27 -16l-217 -2q-19 2 -29 12t-10 20v9q-1 12 6 22.5 t14 15.5l7 5q16 5 30 37q0 10 2 14q31 125 58 225.5t46 168.5q30 106 31.5 125.5t-22.5 25.5q-10 4 -40 -2.5t-38 -13.5q-5 -4 -16 -11.5t-16 -11.5t-12 -12t-9 -15t-1.5 -18.5t5.5 -24.5q14 -40 53 -43l23 -6q2 0 2 -4q-1 -1 -3.5 -4.5t-4.5 -5.5q-29 -34 -71.5 -38.5 t-76.5 20.5t-41 69zM328 1700q0 38 27.5 65t64.5 27q38 0 64 -27t26 -65t-26 -65t-64 -27q-37 0 -64.5 27t-27.5 65zM422 150l2 12l10 35l86 387l19 -4l-107 -422q-1 -1 -2 -5t-2 -6v-16v-10q5 -10 16 -21q0 -1 2 -2q1 -1 1.5 -1t1.5 -1q4 -4 6 -4q-1 0 -9 4l-4 4 q-2 2 -8.5 10t-7.5 9q-2 4 -2 12zM498 1608q19 10 29.5 33t10.5 41l1 18q-1 33 -11 56t-20 30l-10 6q22 -8 35 -31t15 -42l3 -19q0 -36 -13.5 -59t-26.5 -28zM520 793h266l-143 538zM586 842l57 270l14 -8l-55 -266zM731 1700q0 38 27 65t65 27t64 -27t26 -65t-26 -65 t-64 -27t-65 27t-27 65zM778 1487q28 1 66.5 -79t63.5 -160l24 -81l33 -112l32 -111l31 -108q18 -68 33 -113l31 -113l32 -112l29 -113q5 -17 10.5 -36.5t11.5 -43t9 -35.5l14 -57q0 -9 14 -23q9 -6 19 -6q-13 0 -21 4q-2 1 -5 4.5t-5 4.5q-2 6 -6 14l-16 57q-4 14 -17 51.5 t-20 59.5l-33 110l-33 111l-33 115q-10 32 -32 112l-31 107h-2l-33 115l-29 112q-42 125 -67 197q-10 32 -27.5 64.5t-30.5 48.5zM901 1608q19 10 29.5 33t11.5 41v18q-1 33 -11 56t-20 30l-10 6q21 -8 34 -31t16 -42l3 -19q0 -23 -5.5 -41t-13 -27t-15.5 -15t-14 -7z" />
<glyph unicode="&#xc5;" horiz-adv-x="1705" d="M51 559q-14 70 51 143q2 3 7 8.5t24 20t41 26t59.5 22.5t79.5 14h54l116 487q4 19 12 49.5t36.5 94.5t60.5 92q-68 17 -112 72.5t-44 125.5q0 86 60 146.5t145 60.5t146 -60.5t61 -146.5q0 -68 -43 -122.5t-109 -73.5q33 -27 59.5 -87t39.5 -107.5t14 -47.5 q108 -353 234 -773q87 -291 107.5 -349.5t39.5 -65.5q15 -6 22 -16.5t7 -17.5v-7q4 -18 -2 -29q-11 -16 -29 -16l-227 -2q-20 1 -29.5 12t-9.5 22v11q-2 12 4.5 21.5t13.5 13.5l8 4q15 6 23 24t9 33l1 15l-154 495h-342l-137 -510q-2 -43 33 -57q16 -6 24 -16.5t9 -17.5v-7 q0 -16 -6 -25q-10 -16 -27 -16l-217 -2q-19 2 -29 12t-10 20v9q-1 12 6 22.5t14 15.5l7 5q16 5 30 37q0 10 2 14q31 125 58 225.5t46 168.5q30 106 31.5 125.5t-22.5 25.5q-10 4 -40 -2.5t-38 -13.5q-5 -4 -16 -11.5t-16 -11.5t-12 -12t-9 -15t-1.5 -18.5t5.5 -24.5 q14 -40 53 -43l23 -6q2 0 2 -4q-1 -1 -3.5 -4.5t-4.5 -5.5q-29 -34 -71.5 -38.5t-76.5 20.5t-41 69zM422 150l2 12l10 35l86 387l19 -4l-107 -422q-1 -1 -2 -5t-2 -6v-26q5 -10 16 -21q0 -1 2 -2q1 -1 1.5 -1t1.5 -1v-2q-3 0 -3 2l-4 4q-2 2 -8.5 10t-7.5 9q-2 4 -2 12z M451 94q0 -2 4 -2q-2 0 -4 2zM475 1714q0 -68 48.5 -117t117.5 -49t118.5 49t49.5 117q0 70 -49.5 119t-118.5 49t-117.5 -49t-48.5 -119zM520 793h266l-143 538zM586 842l16 -4l55 266l-14 8zM778 1487q28 1 66.5 -79t63.5 -160l24 -81l33 -112l32 -111l31 -108 q18 -68 33 -113l31 -113l32 -112l29 -113q5 -17 10.5 -36.5t11.5 -43t9 -35.5l14 -57q0 -9 14 -23q6 -6 15 -6q-11 0 -17 4q-2 1 -5 4.5t-5 4.5q-2 6 -6 14l-16 57q-4 14 -17 51.5t-20 59.5l-66 221l-33 115q-10 32 -32 112l-31 107h-2l-33 115l-29 112q-42 125 -67 197 q-10 32 -27.5 64.5t-30.5 48.5z" />
<glyph unicode="&#xc6;" horiz-adv-x="1794" d="M16 32l2 9q3 12 12.5 22.5t17.5 15.5l9 5q28 7 47 51q79 147 183 334q96 175 103 201q5 19 -12 23q-2 1 -5 1q-31 9 -67.5 3.5t-65 -32.5t-25.5 -63q2 -18 12.5 -30t28.5 -13l20 -6q3 0 3 -4q-2 -1 -6 -4.5t-7 -5.5q-42 -32 -78 -25.5t-58 43.5t-15 82q10 47 46.5 84 t85.5 58t94 32t83 14l65 2l248 451q9 17 23.5 43.5t57 86t79.5 91.5v31h47q15 6 29 6q16 0 28 -6h5l614 4l84 -4q34 -16 49 -36t13 -32l-1 -12q0 -13 -4 -25l-6 -12q-5 -9 -12.5 -15.5t-12.5 -8.5l-4 -2q-7 -3 -14 0t-10 7l-4 5q-35 35 -103 35l-518 2q-7 0 -12.5 -5.5 t-5.5 -13.5v-30q2 -24 2 -54.5t-0.5 -42t0.5 -16.5q3 -216 6 -434l453 8q26 -3 34 24q4 12 11 18t11 6l5 1q12 0 18 -4q11 -7 11 -21v-200q-1 -16 -7 -23.5t-12 -7.5h-6q-9 -1 -16 4.5t-10 10.5l-3 6q-4 11 -14 17.5t-18 7.5l-8 1l-447 -2q1 -77 2 -202q3 -279 6.5 -335.5 t20.5 -62.5l497 2q27 -2 56 8h2q24 6 45 27q1 2 3.5 5t10 6.5t14.5 0.5q17 -6 29 -26q5 -10 6 -11q4 -16 4 -26q1 -1 1.5 -4t-1 -11t-7 -16t-19.5 -19.5t-35 -21.5l-84 -4q-301 0 -488 1t-253 1h-7h-30q-20 1 -27 12t-3 22l3 11q2 12 11.5 21.5t18.5 13.5l9 4q28 11 43 45 v553h-340l-287 -541q-2 -5 -3 -13t2.5 -24t17.5 -22t19 -16.5t3 -17.5l-2 -7q-3 -16 -12 -25q-16 -16 -33 -16h-217q-18 2 -25 12t-4 20zM342 119q0 8 2 12l2 19l6 12l21 35l198 387l17 -4l-230 -422q-1 -1 -2.5 -5t-3.5 -6q0 -1 -2 -7.5t-2 -8.5q-1 -2 -2 -5.5t-2 -4.5 l10 -21l4 -4q0 -2 2 -4l-4 4l-4 4q-9 18 -10 19zM643 827h254v476zM717 870l14 -4l133 267l-12 8zM1112 143l4 492h19l-2 -492h-21zM1122 918l2 462h19v-462h-21z" />
<glyph unicode="&#xc7;" horiz-adv-x="1060" d="M85 691l3 48q0 9 1 24.5t8.5 63.5t19 94.5t35.5 110.5t55.5 118.5t82 111t111.5 96.5q2 1 6.5 3.5t8 5t6.5 5.5q107 74 283 62q69 -4 120 -26.5t75 -52.5t38 -59t16 -49l2 -20q-5 -139 -102 -148q-34 -5 -60 20t-22 60v4q3 -1 9 -2.5t21 -1t26 7t20.5 27t9.5 53.5 q0 5 -1 13t-10.5 28.5t-26 36t-53 28.5t-85.5 13q-9 0 -23 -4q-78 -12 -142 -60t-99 -122q-101 -197 -96 -439q2 -6 0 -31t3.5 -81.5t14 -116t30 -133.5t52.5 -135q3 -6 8 -15.5t25 -34.5t44.5 -44.5t66 -37.5t89.5 -22q72 -6 144 23q136 56 71 188q3 0 9 -0.5t21 -5.5 t26 -13.5t20 -27.5t8 -45q0 -43 -16 -77.5t-42.5 -55.5t-61 -37.5t-71 -23t-72 -11.5t-64.5 -4t-49 0l-3 -6l-6 -31l-8 -39q38 -4 51 -6q14 -3 29.5 -11t37 -25.5t33.5 -51t9 -76.5q-6 -93 -90 -145q-72 -47 -164 -21q-50 17 -70 56q-28 50 23 94l5 -5t13 -12.5t20 -16.5 t26.5 -17t32 -13t36 -5.5t39.5 5.5q22 9 35 20.5t17.5 20.5t10.5 29q2 7 3 16t-1 24t-15 30t-36 26q-7 4 -23 7t-28 5l-12 1l-72 4q-6 0 -6 8v2l24 131l3 8q-52 7 -98 25.5t-66 33.5l-19 15q-75 58 -125.5 147t-68.5 175t-25.5 163.5t-4.5 125.5zM369 721q0 -61 6 -117 q6 -57 18 -110q20 -108 66 -191q15 -32 41 -65q1 -2 20 -27q12 -16 17 -21q20 -20 28 -26l10 -8q-4 2 -10 8q-15 20 -24 29q-3 3 -8 11t-7 11q-19 25 -20 27q-24 40 -37 67q-39 84 -57 189q-14 75 -17 108q-6 56 -6 115v27l2 28q4 40 6 58q1 8 6 53q1 11 4.5 29t4.5 26 q1 4 5.5 22.5t6.5 26.5q0 9 4 25t8 24q6 22 6 23q1 2 4.5 9.5t4.5 12.5q6 18 8 21q1 5 4 11.5t4 8.5q9 21 18 39q2 5 9.5 16.5t9.5 14.5q9 15 18 27q15 20 17 22q21 25 24 27l12 8l-12 -6q-2 -2 -11.5 -11t-16.5 -16q-1 -3 -8 -10t-9 -10q-3 -4 -10 -13.5t-10 -13.5 q-10 -12 -21 -31q-18 -28 -22 -36q-1 -3 -4.5 -10.5t-4.5 -10.5q-2 -4 -5 -11t-5 -11q-1 -4 -4 -11.5t-4 -11.5q-4 -11 -6 -23q-1 -2 -8 -22q-1 -6 -4 -15l-4 -12q-2 -10 -7 -26.5t-6 -22.5q-1 -9 -5 -27.5t-5 -27.5q-3 -35 -6 -55l-6 -60l-2 -28v-27zM602 -53 q38 -5 66.5 -18.5t44.5 -32t26 -39.5t13 -41.5t4 -37t0 -26.5l-2 -10q-3 -37 -16 -67.5t-29 -48t-32 -29t-27 -15.5l-11 -4q36 11 62.5 32.5t38.5 44t18.5 43.5t7.5 34v14q6 58 -8.5 100t-39.5 60.5t-51.5 29t-45.5 10.5zM692 1092q0 -15 2 -27q0 -18 8 -39q6 -22 29 -49 q25 -21 57 -27q33 -5 74 -2q45 7 76 27q33 16 51 61q17 39 23 78q3 41 0 76q0 24 -13 74q-10 34 -24 59q-13 27 -33 43q-10 10 -35 25q-6 4 -14 7l-8 3l-11 4q5 -2 9 -6q3 -1 11.5 -4.5t12.5 -5.5q13 -10 29 -29q15 -15 29 -43q25 -55 28 -127q0 -47 -4 -72q-3 -43 -20 -71 q-8 -34 -43 -58q-28 -19 -68 -22q-36 -7 -65 -2q-36 7 -54 22q-18 18 -28 41q-7 12 -13 37l-4 37q0 -4 -2 -10zM946 33q17 10 33 33l12 18q8 8 15 22q8 21 10 29q4 7 8 29q0 21 -2 31q0 12 -8 28q-1 4 -3 8t-5.5 9t-4.5 8q-6 6 -8 10q-5 3 -8 8q-3 2 -8.5 7t-7.5 6 q-5 5 -13 8l-10 6q2 -4 8 -10q7 -4 11 -11q5 -9 12 -14q2 -6 10 -18q7 -14 10 -23q4 -20 4 -24v-25q-6 -28 -6 -29l-6 -24q-10 -35 -43 -82z" />
<glyph unicode="&#xc8;" horiz-adv-x="1193" d="M14 1288q-14 72 52 152q3 3 8 8.5t25 20t43.5 26t63 23t83.5 14.5h108l615 4l84 -4q34 -16 49 -36t13 -32l-1 -12q0 -13 -4 -25l-6 -12q-5 -9 -12.5 -15.5t-12.5 -8.5l-4 -2q-7 -3 -14 0t-10 7l-4 5q-35 35 -103 35l-518 2q-7 0 -12.5 -5.5t-5.5 -13.5v-196v-199v2v-184 l460 8q27 -3 35 24q4 12 11 18t11 6l5 1q12 0 18 -4q10 -7 10 -21v-200q-1 -16 -7 -23.5t-12 -7.5h-5q-9 -1 -16 4.5t-10 10.5l-3 6q-4 11 -14.5 17.5t-18.5 7.5l-8 1l-456 -2v-600l536 2q26 -2 55 8h2q25 6 46 27q1 2 3.5 5t10 6.5t14.5 0.5q17 -6 29 -26q5 -10 6 -11 q4 -16 4 -26q1 -1 1.5 -4t-1 -11t-7 -16t-19.5 -19.5t-35 -21.5l-84 -4q-301 0 -488.5 1t-253.5 1q-15 1 -22 7t-6 12v6q-1 8 4.5 14.5t11.5 8.5l6 3q11 4 17.5 14.5t6.5 18.5l1 8v481v664v82q0 1 -1 16t-2 24t-4.5 24.5t-8.5 25t-14.5 18t-22.5 9.5q-24 10 -43 -2 q-32 -24 -50.5 -59t-3.5 -75q6 -17 21.5 -29.5t34.5 -15.5l22 -4q2 0 2.5 -2.5t-0.5 -3.5t-3.5 -4.5t-4.5 -5.5q-31 -36 -74.5 -41t-79 21.5t-43.5 72.5zM504 143h20l2 492h-18zM514 918h21v462h-19z" />
<glyph unicode="&#xc9;" horiz-adv-x="1157" d="M14 1288q-14 72 52 152q3 3 8 8.5t25 20t43.5 26t63 23t83.5 14.5h108l615 4l84 -4q34 -16 49 -36t13 -32l-1 -12q0 -13 -4 -25l-6 -12q-5 -9 -12.5 -15.5t-12.5 -8.5l-4 -2q-7 -3 -14 0t-10 7l-4 5q-35 35 -103 35l-518 2q-7 0 -12.5 -5.5t-5.5 -13.5v-196v-199v2v-184 l460 8q27 -3 35 24q4 12 11 18t11 6l5 1q12 0 18 -4q10 -7 10 -21v-200q-1 -16 -7 -23.5t-12 -7.5h-5q-9 -1 -16 4.5t-10 10.5l-3 6q-4 11 -14.5 17.5t-18.5 7.5l-8 1l-456 -2v-600l536 2q26 -2 55 8h2q25 6 46 27q1 2 3.5 5t10 6.5t14.5 0.5q17 -6 29 -26q5 -10 6 -11 q4 -16 4 -26q1 -1 1.5 -4t-1 -11t-7 -16t-19.5 -19.5t-35 -21.5l-84 -4q-301 0 -488.5 1t-253.5 1q-15 1 -22 7t-6 12v6q-1 8 4.5 14.5t11.5 8.5l6 3q11 4 17.5 14.5t6.5 18.5l1 8v481v664v82q0 1 -1 16t-2 24t-4.5 24.5t-8.5 25t-14.5 18t-22.5 9.5q-24 10 -43 -2 q-32 -24 -50.5 -59t-3.5 -75q6 -17 21.5 -29.5t34.5 -15.5l22 -4q2 0 2.5 -2.5t-0.5 -3.5t-3.5 -4.5t-4.5 -5.5q-31 -36 -74.5 -41t-79 21.5t-43.5 72.5zM504 143h20l2 492h-18zM514 918h21v462h-19zM534 1696l1 4q2 6 7.5 9.5t9.5 4.5h5q20 3 43 19q4 3 21 20l34 66 q14 21 19 26q26 38 72 45t81 -22q15 -15 23 -27q4 -7 5 -15.5t0 -13.5l-1 -4q-2 -6 -7 -9.5t-9 -4.5h-4q-22 -3 -41 -16q-15 -12 -21 -21q-51 -90 -57 -96q-26 -37 -71.5 -44t-80.5 21l-2 2q-11 8 -22 27q-3 8 -4 16.5t-1 12.5z" />
<glyph unicode="&#xca;" horiz-adv-x="1185" d="M14 1288q-14 72 52 152q3 3 8 8.5t25 20t43.5 26t63 23t83.5 14.5h108l615 4l84 -4q34 -16 49 -36t13 -32l-1 -12q0 -13 -4 -25l-6 -12q-5 -9 -12.5 -15.5t-12.5 -8.5l-4 -2q-7 -3 -14 0t-10 7l-4 5q-35 35 -103 35l-518 2q-7 0 -12.5 -5.5t-5.5 -13.5v-196v-199v2v-184 l460 8q27 -3 35 24q4 12 11 18t11 6l5 1q12 0 18 -4q10 -7 10 -21v-200q-1 -16 -7 -23.5t-12 -7.5h-5q-9 -1 -16 4.5t-10 10.5l-3 6q-4 11 -14.5 17.5t-18.5 7.5l-8 1l-456 -2v-600l536 2q26 -2 55 8h2q25 6 46 27q1 2 3.5 5t10 6.5t14.5 0.5q17 -6 29 -26q5 -10 6 -11 q4 -16 4 -26q1 -1 1.5 -4t-1 -11t-7 -16t-19.5 -19.5t-35 -21.5l-84 -4q-301 0 -488.5 1t-253.5 1q-15 1 -22 7t-6 12v6q-1 8 4.5 14.5t11.5 8.5l6 3q11 4 17.5 14.5t6.5 18.5l1 8v481v664v82q0 1 -1 16t-2 24t-4.5 24.5t-8.5 25t-14.5 18t-22.5 9.5q-24 10 -43 -2 q-32 -24 -50.5 -59t-3.5 -75q6 -17 21.5 -29.5t34.5 -15.5l22 -4q2 0 2.5 -2.5t-0.5 -3.5t-3.5 -4.5t-4.5 -5.5q-31 -36 -74.5 -41t-79 21.5t-43.5 72.5zM483 1696q1 6 6 9.5t10 4.5h5q24 3 43 19q22 19 51 68t45 67q23 26 68 26q40 0 69 -26q17 -17 23 -29q8 -12 12 -20 q42 -69 59 -86q23 -16 44 -19q16 0 20 -14q11 -34 -29 -62q-34 -29 -80 -23.5t-73 46.5q-8 11 -45 76q-40 -71 -45 -76q-26 -38 -72.5 -45t-83.5 22q-32 32 -27 62zM504 143h20l2 492h-18zM514 918h21v462h-19z" />
<glyph unicode="&#xcb;" horiz-adv-x="1169" d="M14 1288q-14 72 52 152q3 3 8 8.5t25 20t43.5 26t63 23t83.5 14.5h108l615 4l84 -4q34 -16 49 -36t13 -32l-1 -12q0 -13 -4 -25l-6 -12q-5 -9 -12.5 -15.5t-12.5 -8.5l-4 -2q-7 -3 -14 0t-10 7l-4 5q-35 35 -103 35l-518 2q-7 0 -12.5 -5.5t-5.5 -13.5v-196v-199v2v-184 l460 8q27 -3 35 24q4 12 11 18t11 6l5 1q12 0 18 -4q10 -7 10 -21v-200q-1 -16 -7 -23.5t-12 -7.5h-5q-9 -1 -16 4.5t-10 10.5l-3 6q-4 11 -14.5 17.5t-18.5 7.5l-8 1l-456 -2v-600l536 2q26 -2 55 8h2q25 6 46 27q1 2 3.5 5t10 6.5t14.5 0.5q17 -6 29 -26q5 -10 6 -11 q4 -16 4 -26q1 -1 1.5 -4t-1 -11t-7 -16t-19.5 -19.5t-35 -21.5l-84 -4q-301 0 -488.5 1t-253.5 1q-15 1 -22 7t-6 12v6q-1 8 4.5 14.5t11.5 8.5l6 3q11 4 17.5 14.5t6.5 18.5l1 8v481v664v82q0 1 -1 16t-2 24t-4.5 24.5t-8.5 25t-14.5 18t-22.5 9.5q-24 10 -43 -2 q-32 -24 -50.5 -59t-3.5 -75q6 -17 21.5 -29.5t34.5 -15.5l22 -4q2 0 2.5 -2.5t-0.5 -3.5t-3.5 -4.5t-4.5 -5.5q-31 -36 -74.5 -41t-79 21.5t-43.5 72.5zM406 1702q0 38 27.5 65t64.5 27q38 0 64 -27t26 -65t-26 -65t-64 -27q-37 0 -64.5 27t-27.5 65zM504 143l4 492h18 l-2 -492h-20zM514 918l2 462h19v-462h-21zM575 1610q19 10 29.5 33t11.5 41v18q-1 33 -11 56t-20 30l-10 6q22 -8 35.5 -31t15.5 -42l3 -19q0 -36 -13.5 -59t-27.5 -28zM809 1702q0 38 27 65t65 27t64 -27t26 -65t-26 -65t-64 -27t-65 27t-27 65zM979 1610q19 10 29.5 33 t11.5 41v18q-1 33 -11 56t-20 30l-10 6q21 -8 34 -31t16 -42l3 -19q0 -23 -5.5 -41t-13 -27t-15.5 -15t-14 -7z" />
<glyph unicode="&#xcc;" horiz-adv-x="657" d="M37 33q0 14 8 22q15 15 31 15h30t32.5 2.5t36.5 7.5t27 15.5t19 25.5v1214l-2 84q-9 27 -47 37q-31 6 -86 6q-18 0 -27 13q-10 7 -10 24q0 3 1 7.5t10.5 12.5t25.5 9l223 -2h21l237 2q18 -1 28 -9t11 -16v-8q0 -14 -8 -22q-15 -15 -31 -15q-61 0 -92 -8q-43 -10 -53 -43 v-1290q13 -47 145 -47q14 0 29 -15q11 -7 8 -22q0 -3 -0.5 -8.5t-10 -14.5t-28.5 -10h-489q-18 1 -28 9t-10 16zM82 1798q-4 17 6 35q14 34 49.5 45.5t72 -0.5t54.5 -39q11 -15 28.5 -48t29.5 -48q10 -15 29 -26t34 -11q21 0 25 -16q0 -32 -11 -43q-8 -11 -16 -17 q-32 -30 -81.5 -24.5t-76.5 43.5q-6 6 -18 30l-37 68q-9 13 -30.5 25t-35.5 12q-18 0 -22 14zM496 1378h24l-8 -1095q0 -4 0.5 -11.5t2.5 -27t4.5 -36.5t6.5 -34.5t9.5 -27t11.5 -7.5l-8 -2q-37 8 -41 263v3q-2 131 -2 975z" />
<glyph unicode="&#xcd;" horiz-adv-x="616" d="M37 33q0 14 8 22q15 15 31 15h30t32.5 2.5t36.5 7.5t27 15.5t19 25.5v1214l-2 84q-9 27 -47 37q-31 6 -86 6q-18 0 -27 13q-10 7 -10 24q0 3 1 7.5t10.5 12.5t25.5 9l223 -2h21l237 2q18 -1 28 -9t11 -16v-8q0 -14 -8 -22q-15 -15 -31 -15q-61 0 -92 -8q-43 -10 -53 -43 v-1290q13 -47 145 -47q14 0 29 -15q11 -7 8 -22q0 -3 -0.5 -8.5t-10 -14.5t-28.5 -10h-489q-18 1 -28 9t-10 16zM222 1688l1 4q2 6 7.5 9.5t10.5 4.5h5q22 3 43 18q5 4 12 12t8 9l35 65q1 2 4.5 7.5t6.5 10.5t7 9q26 38 72.5 45t81.5 -22q15 -15 23 -27q4 -7 5 -15.5 t0 -13.5l-1 -4q-2 -6 -7 -9.5t-10 -4.5h-4q-20 -3 -41 -17q-14 -11 -20 -20q-50 -88 -58 -96q-26 -37 -71 -44t-80 21l-2 2q-12 9 -23 27q-3 8 -4 16.5t-1 12.5zM496 1378h24l-8 -1095q0 -4 0.5 -11.5t2.5 -27t4.5 -36.5t6.5 -34.5t9.5 -27t11.5 -7.5l-8 -2q-37 8 -41 263v3 q-2 131 -2 975z" />
<glyph unicode="&#xce;" horiz-adv-x="618" d="M37 33q0 14 8 22q15 15 31 15h30t32.5 2.5t36.5 7.5t27 15.5t19 25.5v1214l-2 84q-9 27 -47 37q-31 6 -86 6q-18 0 -27 13q-10 7 -10 24q0 3 1 7.5t10.5 12.5t25.5 9l223 -2l258 2q18 -1 28 -9t11 -16v-8q0 -14 -8 -22q-15 -15 -31 -15q-61 0 -92 -8q-43 -10 -53 -43 v-1290q13 -47 145 -47q14 0 29 -15q11 -7 8 -22q0 -3 -0.5 -8.5t-10 -14.5t-28.5 -10h-489q-18 1 -28 9t-10 16zM84 1694q1 6 6 9.5t10 4.5h4q25 3 43 18q22 19 51.5 69t45.5 67q23 26 67 26q41 0 70 -26q16 -17 22 -29q10 -15 13 -21q42 -69 59 -86q21 -15 43 -18 q17 0 21 -14q11 -34 -29 -62q-34 -29 -80.5 -23.5t-73.5 46.5q-8 11 -45 76q-40 -71 -45 -76q-26 -38 -72 -45t-83 22q-32 32 -27 62zM496 1378h24l-8 -1095q0 -4 0.5 -11.5t2.5 -27t4.5 -36.5t6.5 -34.5t9.5 -27t11.5 -7.5l-8 -2q-37 8 -41 263v3q-2 131 -2 975z" />
<glyph unicode="&#xcf;" horiz-adv-x="657" d="M16 1700q0 38 28 65t65 27q38 0 64 -27t26 -65t-26 -65t-64 -27q-37 0 -65 27t-28 65zM37 33q0 14 8 22q15 15 31 15h30t32.5 2.5t36.5 7.5t27 15.5t19 25.5v1214l-2 84q-9 27 -47 37q-31 6 -86 6q-18 0 -27 13q-10 7 -10 24q0 3 1 7.5t10.5 12.5t25.5 9l223 -2h21l237 2 q18 -1 28 -9t11 -16v-8q0 -14 -8 -22q-15 -15 -31 -15q-61 0 -92 -8q-43 -10 -53 -43v-1290q13 -47 145 -47q14 0 29 -15q11 -7 8 -22q0 -3 -0.5 -8.5t-10 -14.5t-28.5 -10h-489q-18 1 -28 9t-10 16zM186 1608q19 10 29.5 33t10.5 41l1 18q-1 33 -11 56t-20 30l-10 6 q22 -8 35.5 -31t16.5 -42l2 -19q0 -36 -13.5 -59t-26.5 -28zM420 1700q0 38 27 65t65 27t64 -27t26 -65t-26 -65t-64 -27t-65 27t-27 65zM496 1378h24l-8 -1095q0 -4 0.5 -11.5t2.5 -27t4.5 -36.5t6.5 -34.5t9.5 -27t11.5 -7.5l-8 -2q-37 8 -41 263v3q-2 131 -2 975z M590 1608q19 10 29.5 33t10.5 41l1 18q-1 33 -11 56t-20 30l-10 6q21 -8 34 -31t16 -42l3 -19q0 -36 -13.5 -59t-26.5 -28z" />
<glyph unicode="&#xd0;" horiz-adv-x="1357" d="M16 702q1 34 23 57t53 25h211v525q1 5 1.5 13t-0.5 29.5t-5.5 38t-17 30.5t-31.5 16q-20 10 -41 -4q-30 -22 -48 -56.5t-5 -72.5q16 -37 55 -46l20 -4q5 0 5 -6q-2 -1 -5 -5t-4 -5q-30 -35 -72.5 -39.5t-77 20.5t-42.5 70q-15 72 51 148q3 3 8 8.5t24 20t42 26t61.5 23 t81.5 14.5v2h150q57 0 112.5 -5.5t133.5 -24.5t144.5 -50.5t135.5 -89.5t117 -135.5t78 -194.5t30 -260q-1 -126 -24.5 -232.5t-61 -181.5t-94 -134.5t-112.5 -96t-127 -62.5t-128 -37.5t-125 -17t-108 -5t-86.5 2.5t-52.5 2q-15 1 -22 7.5t-7 12.5v7q-1 8 4 14.5t10 8.5 l6 3q12 4 19 14t7 19l1 8v514l-209 2l-2 3l-2 -3q-31 0 -53 24.5t-21 59.5zM469 618l2 -489q7 -1 20 -1.5t51.5 2t76 10t88 27t94 48t87 78.5t73.5 113.5t48 157.5t15 206q0 138 -30.5 248.5t-79.5 176.5t-108 114.5t-118.5 69t-108.5 31.5t-79 11h-31v-635l166 -2l2 -2l2 2 q31 0 53 -24.5t21 -59.5q-1 -34 -23 -57t-53 -25h-168zM535 213v315h4q6 0 14 4v-321zM537 864l2 457l18 -21l-2 -432q-8 0 -16 -4h-2zM874 33q3 2 42 29.5t79.5 59t93 94.5t92 135.5t66.5 183t25 235.5q-2 109 -22 206.5t-53 167.5t-69.5 126.5t-78.5 96.5t-72.5 64.5 t-58 42.5t-29.5 19q9 -3 25.5 -10t61 -32.5t84 -56.5t84 -85t70.5 -115q99 -235 93 -451t-115 -442q-94 -118 -136 -158q-80 -75 -182 -110z" />
<glyph unicode="&#xd1;" horiz-adv-x="1501" d="M12 1286q-14 73 54 152q3 3 8 9t25 21t43.5 27.5t63 25t83.5 17.5l280 -2q52 -3 74 -45l526 -1262v88l5 1061q0 46 -29 62q-23 12 -23 39q1 0 0 4.5t1 11t4.5 13t10 11t17.5 5.5h221q16 0 23 -17q8 -12 4 -30q4 -27 -27 -41q-13 -5 -19.5 -18.5t-6.5 -24.5v-11l-4 -893 l-13 -411q0 -32 -22.5 -54t-53.5 -22h-73q-37 0 -69.5 20t-49.5 52l-604 1302v-305l4 -930q0 -41 29 -55q13 -5 19.5 -15t6.5 -17v-7q0 -20 -4 -24q-7 -17 -22 -17l-222 -2q-16 2 -24 11.5t-8 18.5v9q-1 13 4.5 23t11.5 14l6 4q13 6 20 21.5t8 27.5l1 12l-2 480v438v280 q-4 73 -53 93q-24 13 -41 -4q-32 -21 -52 -57.5t-6 -76.5q15 -39 58 -45l22 -4q5 -3 2 -6q-2 -4 -8 -10q-31 -36 -75 -41t-80 21.5t-44 72.5zM502 1155l20 -51l-2 -809q0 -4 0.5 -11.5t2.5 -27.5t4.5 -37t6 -34.5t8.5 -27t11 -7.5l-7 -2q-37 8 -42 267v3q-2 164 -2 737z M600 1653q-2 7 0 20v4q5 46 42 73.5t83 18.5q1 0 3.5 -1t4.5 -1q3 -1 12 -2t13 -2l217 -20h29h2q26 4 41 16q1 1 3.5 2.5t8.5 4.5t10 -1q15 -8 23 -26q0 -6 2 -10q3 -10 0 -23v-4q-5 -44 -41 -71.5t-82 -20.5q-2 0 -4 1t-4 1q-4 1 -12.5 3t-12.5 3l-217 20q-15 4 -29 -2 l-2 2q-26 -4 -41 -16q-2 -2 -4 -3.5t-9 -5t-11 0.5q-15 10 -23 28q0 1 -1 5t-1 6zM684 1501l21 2l380 -932l-8 -22zM1382 131q0 831 4 993q3 265 43 273l7 -2q-12 3 -21 -34t-11 -75l-3 -39l8 -1116h-27z" />
<glyph unicode="&#xd2;" horiz-adv-x="1191" d="M84 768q0 212 63.5 389t177.5 281t255 104q138 0 249 -104t171.5 -280.5t60.5 -389.5q0 -211 -60.5 -386.5t-171.5 -279.5t-249 -104q-140 0 -254.5 103.5t-178 280t-63.5 386.5zM283 754q0 -137 27.5 -266t71 -218.5t96 -143.5t102.5 -54q49 0 103.5 54.5t100 144.5 t75.5 220t30 267q0 184 -60 362t-131 244q-45 -18 -70.5 -50.5t-28.5 -55.5l-3 -23q0 -43 11.5 -70t28 -35t32.5 -10.5t28 0.5l11 4q2 -2 2 -4q4 -46 -28.5 -77t-76.5 -25q-52 4 -93.5 46t-45.5 138q-33 -60 -41 -133q-6 -54 -6 -57q-1 -8 -2 -18t-2 -22.5t-2 -19.5 q-2 -18 -2 -59q-4 -41 -4 -127q0 -82 2 -123t10 -119q3 -20 18 -112q10 -53 21 -97q14 -55 26 -82q17 -42 29 -59q10 -14 27 -31l14 -10q-4 4 -14 10q-19 9 -31 29q-40 50 -68 139q-8 24 -26 97q-18 84 -21 112q-9 58 -12 121q-6 62 -6 125q1 14 1.5 41t1.5 48.5t3 39.5 q0 19 4 59q2 28 6 60q1 11 4 31t4 28q12 75 44 148t77 127q53 61 117 90q-30 20 -57 20q-49 0 -102 -57t-96 -150.5t-71 -226t-28 -270.5zM723 -2q6 2 18 4q19 3 58 23q3 2 10 6l14 8t13 8q32 21 41 29q36 31 43 39q13 9 22 22q5 4 21 25q33 38 81 121q18 30 19 32 q2 6 8 18.5t8 18.5q25 62 29 76q4 11 14 39q2 7 6.5 21.5t6.5 21.5q8 28 16 84q2 8 4 25t2 18q1 5 1.5 14t1.5 16.5t3 12.5q0 16 1 45t1 45q0 28 -4 90q-2 29 -10 88q-8 56 -41 166q-50 149 -141 268q-76 99 -166 136q-26 13 -58 18l-20 2q6 -2 20 -4q22 -3 56 -21 q36 -19 73 -53q76 -61 154 -209q25 -48 55 -145q23 -74 39 -164q10 -66 11 -84q2 -31 2 -88t-2 -86q-1 -6 -2.5 -20.5t-2.5 -22.5q0 -1 -2 -18t-4 -25q-2 -9 -6.5 -38t-9.5 -44q-3 -19 -10 -41l-13 -39q-6 -29 -26 -74q-2 -6 -7.5 -18t-7.5 -18q-3 -5 -18 -35 q-44 -82 -74 -119q-15 -20 -20 -25q-3 -4 -10 -11.5t-9 -10.5q-7 -9 -24 -24t-19 -17q-11 -11 -39 -31q-7 -6 -17.5 -13.5t-14.5 -10.5q-38 -20 -56 -25z" />
<glyph unicode="&#xd3;" horiz-adv-x="1191" d="M84 768q0 212 63.5 389t177.5 281t255 104q138 0 249 -104t171.5 -280.5t60.5 -389.5q0 -211 -60.5 -386.5t-171.5 -279.5t-249 -104q-140 0 -254.5 103.5t-178 280t-63.5 386.5zM283 754q0 -137 27.5 -266t71 -218.5t96 -143.5t102.5 -54q49 0 103.5 54.5t100 144.5 t75.5 220t30 267q0 184 -60 362t-131 244q-45 -18 -70.5 -50.5t-28.5 -55.5l-3 -23q0 -43 11.5 -70t28 -35t32.5 -10.5t28 0.5l11 4q2 -2 2 -4q4 -46 -28.5 -77t-76.5 -25q-52 4 -93.5 46t-45.5 138q-33 -60 -41 -133q-6 -54 -6 -57q-1 -8 -2 -18t-2 -22.5t-2 -19.5 q-2 -18 -2 -59q-4 -41 -4 -127q0 -82 2 -123t10 -119q3 -20 18 -112q10 -53 21 -97q14 -55 26 -82q17 -42 29 -59q10 -14 27 -31l14 -10q-4 4 -14 10q-19 9 -31 29q-40 50 -68 139q-8 24 -26 97q-18 84 -21 112q-9 58 -12 121q-6 62 -6 125q1 14 1.5 41t1.5 48.5t3 39.5 q0 19 4 59q2 28 6 60q1 11 4 31t4 28q12 75 44 148t77 127q53 61 117 90q-30 20 -57 20q-49 0 -102 -57t-96 -150.5t-71 -226t-28 -270.5zM412 1683.5q-1 8.5 0 12.5v4q2 6 7.5 9.5t10.5 4.5h4q21 3 43 19q4 3 21 20l34 66q14 21 19 26q26 38 72.5 45t81.5 -22 q12 -12 22 -27q4 -7 5 -15.5t0 -13.5l-1 -4q-2 -6 -7 -9.5t-9 -4.5h-4q-22 -3 -41 -16q-15 -12 -21 -21q-51 -90 -57 -96q-26 -37 -71.5 -44t-80.5 21l-2 2q-11 8 -22 27q-3 8 -4 16.5zM723 -2q6 2 18 4q19 3 58 23q3 2 10 6l14 8t13 8q32 21 41 29q36 31 43 39q13 9 22 22 q5 4 21 25q33 38 81 121q18 30 19 32q2 6 8 18.5t8 18.5q25 62 29 76q4 11 14 39q2 7 6.5 21.5t6.5 21.5q8 28 16 84q2 8 4 25t2 18q1 5 1.5 14t1.5 16.5t3 12.5q0 16 1 45t1 45q0 28 -4 90q-2 29 -10 88q-8 56 -41 166q-50 149 -141 268q-76 99 -166 136q-26 13 -58 18 l-20 2q6 -2 20 -4q22 -3 56 -21q36 -19 73 -53q76 -61 154 -209q25 -48 55 -145q23 -74 39 -164q10 -66 11 -84q2 -31 2 -88t-2 -86q-1 -6 -2.5 -20.5t-2.5 -22.5q0 -1 -2 -18t-4 -25q-2 -9 -6.5 -38t-9.5 -44q-3 -19 -10 -41l-13 -39q-6 -29 -26 -74q-2 -6 -7.5 -18 t-7.5 -18q-3 -5 -18 -35q-44 -82 -74 -119q-15 -20 -20 -25q-3 -4 -10 -11.5t-9 -10.5q-7 -9 -24 -24t-19 -17q-11 -11 -39 -31q-7 -6 -17.5 -13.5t-14.5 -10.5q-38 -20 -56 -25z" />
<glyph unicode="&#xd4;" horiz-adv-x="1191" d="M84 768q0 212 63.5 389t177.5 281t255 104q138 0 249 -104t171.5 -280.5t60.5 -389.5q0 -211 -60.5 -386.5t-171.5 -279.5t-249 -104q-140 0 -254.5 103.5t-178 280t-63.5 386.5zM283 754q0 -137 27.5 -266t71 -218.5t96 -143.5t102.5 -54q49 0 103.5 54.5t100 144.5 t75.5 220t30 267q0 184 -60 362t-131 244q-45 -18 -70.5 -50.5t-28.5 -55.5l-3 -23q0 -43 11.5 -70t28 -35t32.5 -10.5t28 0.5l11 4q2 -2 2 -4q4 -46 -28.5 -77t-76.5 -25q-52 4 -93.5 46t-45.5 138q-33 -60 -41 -133q-6 -54 -6 -57q-1 -8 -2 -18t-2 -22.5t-2 -19.5 q-2 -18 -2 -59q-4 -41 -4 -127q0 -82 2 -123t10 -119q3 -20 18 -112q10 -53 21 -97q14 -55 26 -82q17 -42 29 -59q10 -14 27 -31l14 -10q-4 4 -14 10q-19 9 -31 29q-40 50 -68 139q-8 24 -26 97q-18 84 -21 112q-9 58 -12 121q-6 62 -6 125q1 14 1.5 41t1.5 48.5t3 39.5 q0 19 4 59q2 28 6 60q1 11 4 31t4 28q12 75 44 148t77 127q53 61 117 90q-30 20 -57 20q-49 0 -102 -57t-96 -150.5t-71 -226t-28 -270.5zM358 1694q1 6 6 9.5t10 4.5h5q25 3 43 18q22 19 51 68.5t45 67.5q23 26 68 26q40 0 69 -26q17 -17 23 -29q6 -9 12 -21q40 -66 60 -86 q21 -15 43 -18q16 0 20 -14q11 -34 -29 -62q-34 -29 -80 -23.5t-73 46.5q-8 11 -45 76q-40 -71 -45 -76q-26 -38 -72.5 -45t-83.5 22q-32 32 -27 62zM723 -2q6 2 18 4q19 3 58 23q3 2 10 6l14 8t13 8q32 21 41 29q36 31 43 39q13 9 22 22q5 4 21 25q33 38 81 121 q18 30 19 32q2 6 8 18.5t8 18.5q25 62 29 76q4 11 14 39q2 7 6.5 21.5t6.5 21.5q8 28 16 84q2 8 4 25t2 18q1 5 1.5 14t1.5 16.5t3 12.5q0 16 1 45t1 45q0 28 -4 90q-2 29 -10 88q-8 56 -41 166q-50 149 -141 268q-76 99 -166 136q-26 13 -58 18l-20 2q6 -2 20 -4 q22 -3 56 -21q36 -19 73 -53q76 -61 154 -209q25 -48 55 -145q23 -74 39 -164q10 -66 11 -84q2 -31 2 -88t-2 -86q-1 -6 -2.5 -20.5t-2.5 -22.5q0 -1 -2 -18t-4 -25q-2 -9 -6.5 -38t-9.5 -44q-3 -19 -10 -41l-13 -39q-6 -29 -26 -74q-2 -6 -7.5 -18t-7.5 -18q-3 -5 -18 -35 q-44 -82 -74 -119q-15 -20 -20 -25q-3 -4 -10 -11.5t-9 -10.5q-7 -9 -24 -24t-19 -17q-11 -11 -39 -31q-7 -6 -17.5 -13.5t-14.5 -10.5q-38 -20 -56 -25z" />
<glyph unicode="&#xd5;" horiz-adv-x="1191" d="M84 768q0 212 63.5 389t177.5 281t255 104q138 0 249 -104t171.5 -280.5t60.5 -389.5q0 -211 -60.5 -386.5t-171.5 -279.5t-249 -104q-140 0 -254.5 103.5t-178 280t-63.5 386.5zM283 754q0 -137 27.5 -266t71 -218.5t96 -143.5t102.5 -54q49 0 103.5 54.5t100 144.5 t75.5 220t30 267q0 184 -60 362t-131 244q-45 -18 -70.5 -50.5t-28.5 -55.5l-3 -23q0 -43 11.5 -70t28 -35t32.5 -10.5t28 0.5l11 4q2 -2 2 -4q4 -46 -28.5 -77t-76.5 -25q-52 4 -93.5 46t-45.5 138q-33 -60 -41 -133q-6 -54 -6 -57q-1 -8 -2 -18t-2 -22.5t-2 -19.5 q-2 -18 -2 -59q-4 -41 -4 -127q0 -82 2 -123t10 -119q3 -20 18 -112q10 -53 21 -97q14 -55 26 -82q17 -42 29 -59q10 -14 27 -31l14 -10q-4 4 -14 10q-19 9 -31 29q-40 50 -68 139q-8 24 -26 97q-18 84 -21 112q-9 58 -12 121q-6 62 -6 125q1 14 1.5 41t1.5 48.5t3 39.5 q0 19 4 59q2 28 6 60q1 11 4 31t4 28q12 75 44 148t77 127q53 61 117 90q-30 20 -57 20q-49 0 -102 -57t-96 -150.5t-71 -226t-28 -270.5zM332 1649q-2 7 0 20v4q5 46 42 73.5t83 18.5q1 0 3.5 -1t4.5 -1q3 -1 11.5 -2t12.5 -2l218 -20h28h2q26 4 41 16q1 1 3.5 2.5t9 4.5 t10.5 -1q14 -8 22 -26q0 -7 2 -11q3 -9 0 -22v-4q-5 -44 -41 -71.5t-82 -20.5q-2 0 -4 1t-4 1l-24 6l-217 20q-15 4 -29 -2l-2 2q-26 -4 -41 -16q-2 -2 -4.5 -3.5t-9.5 -5t-11 0.5q-14 10 -22 28q0 1 -1 5t-1 6zM723 -2l18 6q18 5 56 25q4 3 14.5 10.5t17.5 13.5 q28 20 39 31q2 2 19 17t24 24q2 3 9 10.5t10 11.5q5 5 20 25q30 37 74 119q15 30 18 35q2 6 7.5 18t7.5 18q20 45 26 74l13 39q7 22 10 41q5 15 9.5 44t6.5 38q2 8 4 25t2 18q1 8 2.5 22.5t2.5 20.5q2 29 2 86t-2 88q-1 18 -11 84q-16 90 -39 164q-30 97 -55 145 q-78 148 -154 209q-37 34 -73 53q-34 18 -56 21l-20 4q6 0 20 -2q32 -5 58 -18q90 -37 166 -136q91 -119 141 -268q33 -110 41 -166q8 -59 10 -88q4 -62 4 -90q0 -16 -1 -45t-1 -45q-2 -5 -3 -12.5t-1.5 -16.5t-1.5 -14q0 -1 -2 -18t-4 -25q-8 -56 -16 -84q-2 -7 -6.5 -21.5 t-6.5 -21.5q-10 -28 -14 -39q-4 -13 -29 -76q-2 -6 -8 -18.5t-8 -18.5q-1 -2 -19 -32q-48 -83 -81 -121q-16 -21 -21 -25q-9 -13 -22 -22q-7 -8 -43 -39q-9 -7 -41 -29q-6 -4 -13 -8l-14 -8t-10 -6q-39 -20 -58 -23z" />
<glyph unicode="&#xd6;" horiz-adv-x="1191" d="M84 768q0 212 63.5 389t177.5 281t255 104q138 0 249 -104t171.5 -280.5t60.5 -389.5q0 -211 -60.5 -386.5t-171.5 -279.5t-249 -104q-140 0 -254.5 103.5t-178 280t-63.5 386.5zM274 1698q0 38 28 65t65 27q38 0 64 -27t26 -65t-26 -65t-64 -27q-37 0 -65 27t-28 65z M283 754q0 -137 27.5 -266t71 -218.5t96 -143.5t102.5 -54q49 0 103.5 54.5t100 144.5t75.5 220t30 267q0 184 -60 362t-131 244q-45 -18 -70.5 -50.5t-28.5 -55.5l-3 -23q0 -43 11.5 -70t28 -35t32.5 -10.5t28 0.5l11 4q2 -2 2 -4q4 -46 -28.5 -77t-76.5 -25 q-52 4 -93.5 46t-45.5 138q-33 -60 -41 -133q-6 -54 -6 -57q-1 -8 -2 -18t-2 -22.5t-2 -19.5q-2 -18 -2 -59q-4 -41 -4 -127q0 -82 2 -123t10 -119q3 -20 18 -112q10 -53 21 -97q14 -55 26 -82q17 -42 29 -59q10 -14 27 -31l14 -10q-4 4 -14 10q-19 9 -31 29q-40 50 -68 139 q-8 24 -26 97q-18 84 -21 112q-9 58 -12 121q-6 62 -6 125q1 14 1.5 41t1.5 48.5t3 39.5q0 19 4 59q2 28 6 60q1 11 4 31t4 28q12 75 44 148t77 127q53 61 117 90q-30 20 -57 20q-49 0 -102 -57t-96 -150.5t-71 -226t-28 -270.5zM444 1606q19 10 29.5 33t10.5 41l1 18 q-1 33 -11 56t-20 30l-10 6q22 -8 35.5 -31t16.5 -42l2 -19q0 -36 -13.5 -59t-26.5 -28zM678 1698q0 38 27 65t65 27t64 -27t26 -65t-26 -65t-64 -27t-65 27t-27 65zM723 -2l18 6q18 5 56 25q4 3 14.5 10.5t17.5 13.5q28 20 39 31q2 2 19 17t24 24q2 3 9 10.5t10 11.5 q5 5 20 25q30 37 74 119q15 30 18 35q2 6 7.5 18t7.5 18q20 45 26 74l13 39q7 22 10 41q5 15 9.5 44t6.5 38q2 8 4 25t2 18q1 8 2.5 22.5t2.5 20.5q2 29 2 86t-2 88q-1 18 -11 84q-16 90 -39 164q-30 97 -55 145q-78 148 -154 209q-37 34 -73 53q-34 18 -56 21l-20 4 q6 0 20 -2q32 -5 58 -18q90 -37 166 -136q91 -119 141 -268q33 -110 41 -166q8 -59 10 -88q4 -62 4 -90q0 -16 -1 -45t-1 -45q-2 -5 -3 -12.5t-1.5 -16.5t-1.5 -14q0 -1 -2 -18t-4 -25q-8 -56 -16 -84q-2 -7 -6.5 -21.5t-6.5 -21.5q-10 -28 -14 -39q-4 -13 -29 -76 q-2 -6 -8 -18.5t-8 -18.5q-1 -2 -19 -32q-48 -83 -81 -121q-16 -21 -21 -25q-9 -13 -22 -22q-7 -8 -43 -39q-9 -7 -41 -29q-6 -4 -13 -8l-14 -8t-10 -6q-39 -20 -58 -23zM848 1606q19 10 29.5 33t10.5 41l1 18q-1 33 -11 56t-20 30l-10 6q21 -8 34 -31t16 -42l3 -19 q0 -36 -13.5 -59t-26.5 -28z" />
<glyph unicode="&#xd7;" horiz-adv-x="1138" d="M45 80q0 32 23 55l12 12l364 365l-47 47l-319 320l-6 6q-25 25 -25 59t25 57q23 25 55 25t55 -25l15 -10l362 -364l47 45l320 321l6 6q25 25 59.5 25t59.5 -25q23 -23 23 -55t-23 -55l-13 -15l-364 -362l47 -47l321 -320l5 -6q25 -25 25 -59.5t-25 -59.5 q-23 -23 -55.5 -23t-55.5 23l-12 13l-365 364l-47 -47l-319 -321l-7 -4q-25 -25 -59 -25t-59 25q-23 23 -23 55zM762 500l12 -15l295 293l-12 15zM762 504l293 -293l14 12l-295 295z" />
<glyph unicode="&#xd8;" horiz-adv-x="1626" d="M48.5 96q-0.5 32 21.5 54l2 2v2l270 264q-51 161 -51 350q0 212 63 389t177 281t255 104q123 0 224.5 -83t167.5 -228l45 43q-20 36 -62 96q-35 54 -80 90q-37 34 -73 53q-34 18 -56 21l-20 4q6 0 20 -2q32 -5 58 -18q90 -37 166 -136q50 -72 61 -94l221 213l4 -2 q28 19 61.5 17.5t53.5 -21.5q20 -22 19 -54.5t-21 -60.5l2 -2l-264 -254q1 -2 2 -5.5t2 -4.5q33 -110 41 -166q8 -59 10 -88q4 -62 4 -90q0 -16 -1 -45t-1 -45q-2 -5 -3 -12.5t-1.5 -16.5t-1.5 -14q0 -1 -2 -18t-4 -25q-7 -50 -17 -84l-12 -43q-9 -29 -14 -39 q-4 -13 -29 -76q-2 -6 -8 -18.5t-8 -18.5q-1 -2 -19 -32q-46 -80 -82 -121q-17 -23 -20 -25q-8 -11 -23 -22q-7 -8 -43 -39q-9 -7 -41 -29q-4 -2 -36 -22q-39 -20 -58 -23q-6 -2 -12 -2l12 4q18 5 56 25q4 3 14.5 10.5t17.5 13.5q28 20 39 31q2 2 19 17t24 24q2 3 9 10.5 t10 11.5q5 5 20 25q30 37 74 119q15 30 18 35q2 6 7.5 18t7.5 18q20 45 26 74l13 39q7 22 10 41q5 15 9.5 44t6.5 38q2 8 4 25t2 18q1 7 2 21t2 22q2 29 2 86t-2 88t-10 84q-17 92 -39 160l-53 -51q31 -136 31 -283q0 -211 -61 -386.5t-172 -279.5t-249 -104 q-113 0 -208.5 67t-163.5 187l-228 -219h-2v-2q-23 -22 -56 -20t-56 28q-23 25 -23.5 57zM489 754q0 -90 13 -183l84 82q60 60 454 445q-44 155 -108.5 257.5t-145.5 102.5q-49 0 -102 -57t-96 -150.5t-71 -226t-28 -270.5zM545 379q44 -139 110 -223t131 -84 q49 0 103.5 54.5t100.5 144.5t76 220t30 267q0 36 -15 143q-150 -146 -262 -255t-150 -147t-66.5 -66t-57.5 -54zM588 739q-1 10 0.5 30.5t1.5 27.5q4 69 14 112q4 36 4 58q1 8 5 28t5 31q4 10 13 49q6 24 12 51q6 19 16 48t13 38q16 51 35 80q4 0 8 13q3 5 12 10q4 8 18 22 q27 23 31 25q3 -1 5 -1t3 0.5t2 0.5q-2 -2 -10 -2q-4 -2 -31 -29q-10 -10 -14 -18q-3 -6 -6 -15q-10 -10 -10 -14q-18 -36 -29 -76q-1 -3 -10.5 -35.5t-13.5 -50.5q0 -4 -7 -53q-1 -7 -5 -24.5t-5 -26.5q-2 -8 -5 -26.5t-5 -26.5q-4 -40 -4 -56q-11 -70 -13 -114l-2 -43h-6 q-4 0 -8 -2q-9 -3 -14 -11zM633 356q10 0 18 4q2 -7 6.5 -22.5t6.5 -22.5q14 -55 26 -82q17 -42 29 -59q12 -18 26 -31q-17 9 -30 29q-40 50 -68 139q-7 15 -14 45z" />
<glyph unicode="&#xd9;" horiz-adv-x="1116" d="M18 1488v7q-2 12 5 23q8 16 28 16h236q20 -1 29.5 -10.5t9.5 -19.5v-9q1 -13 -6 -23t-14 -14l-7 -4q-17 -5 -27 -19.5t-11 -26.5l-1 -11v-969q0 -6 0.5 -17t5 -41.5t13.5 -58.5t29 -62.5t47 -59t72 -41.5t101 -17q6 -1 15.5 -1t37.5 3.5t54 11.5t57 29.5t53.5 52t38 82.5 t15.5 119v969q0 5 -1 13t-9.5 23.5t-24.5 20.5q-3 1 -8.5 4t-13.5 13.5t-7 23.5q-1 4 -0.5 10.5t10.5 17t31 11.5h236q20 0 28 -16q9 -13 7 -23q4 -27 -33 -41q-17 -5 -26.5 -18.5t-9.5 -23.5l-1 -11l2 -1053q0 -72 -27 -137l-3 -12t-13.5 -30t-28 -42t-49.5 -44.5 t-75.5 -42.5t-109 -30t-145.5 -12q-77 0 -147 17.5t-132 54t-104.5 102t-54.5 152.5q-2 8 -2 1077q0 5 -0.5 12t-10 21.5t-26.5 19.5q-16 6 -24.5 16.5t-8.5 17.5zM324 604l4 -123q0 -86 4 -127q0 -41 43 -71q-21 21 -33 51q-1 3 -2 10t-2 10q1 21 2 63t2 64l2 123l2 125 v123v125l-2 125l-2 125q0 21 -1 62t-1 61v14v8l2 6q1 2 2 7.5t2 7.5l4 10l6 12q3 9 6 15q2 4 6.5 11t6.5 11q-1 -2 -7 -8.5t-8 -11.5q-5 -10 -8 -13l-6 -12l-6 -12q0 -7 -4 -15l-2 -8l-2 -6l-2 -16q-1 -20 -2 -61t-2 -62l-2 -125v-125v-125v-123v-125zM961 66 q48 29 74.5 133t28.5 193l3 89l2 123v125l2 123l-2 125v125l-2 125q-1 20 -2 61t-2 62l2 14v8l2 6q2 4 2 15l6 10q0 4 4 12q0 3 6 15q2 4 8.5 10t8.5 10q-1 -1 -9 -7t-10 -11q-3 -3 -8 -13q0 -4 -4 -12l-6 -12q-4 -8 -4 -15l-2 -8l-2 -6l-2 -16q-1 -20 -2 -61t-2 -62 l-2 -125v-125l-2 -125l2 -123v-125l4 -123q-3 -101 -13.5 -181t-23.5 -122t-25.5 -69.5t-20.5 -34.5z" />
<glyph unicode="&#xda;" horiz-adv-x="1116" d="M18 1488v7q-2 12 5 23q8 16 28 16h236q20 -1 29.5 -10.5t9.5 -19.5v-9q1 -13 -6 -23t-14 -14l-7 -4q-17 -5 -27 -19.5t-11 -26.5l-1 -11v-969q0 -6 0.5 -17t5 -41.5t13.5 -58.5t29 -62.5t47 -59t72 -41.5t101 -17q6 -1 15.5 -1t37.5 3.5t54 11.5t57 29.5t53.5 52t38 82.5 t15.5 119v969q0 5 -1 13t-9.5 23.5t-24.5 20.5q-3 1 -8.5 4t-13.5 13.5t-7 23.5q-1 4 -0.5 10.5t10.5 17t31 11.5h236q20 0 28 -16q9 -13 7 -23q4 -27 -33 -41q-17 -5 -26.5 -18.5t-9.5 -23.5l-1 -11l2 -1053q0 -72 -27 -137l-3 -12t-13.5 -30t-28 -42t-49.5 -44.5 t-75.5 -42.5t-109 -30t-145.5 -12q-77 0 -147 17.5t-132 54t-104.5 102t-54.5 152.5q-2 8 -2 1077q0 5 -0.5 12t-10 21.5t-26.5 19.5q-16 6 -24.5 16.5t-8.5 17.5zM324 604l4 -123q0 -86 4 -127q0 -41 43 -71q-21 21 -33 51q-1 3 -2 10t-2 10q1 21 2 63t2 64l2 123l2 125 v123v125l-2 125l-2 125q0 21 -1 62t-1 61v14v8l2 6q1 2 2 7.5t2 7.5l4 10l6 12q3 9 6 15q2 4 6.5 11t6.5 11q-1 -2 -7 -8.5t-8 -11.5q-5 -10 -8 -13l-6 -12l-6 -12q0 -7 -4 -15l-2 -8l-2 -6l-2 -16q-1 -20 -2 -61t-2 -62l-2 -125v-125v-125v-123v-125zM396 1690l1 4 q2 6 7.5 9.5t10.5 4.5h5q22 3 43 18q5 4 12 12t8 9l35 65q16 24 19 27q26 38 72 45t81 -22q15 -15 23 -27q4 -7 5 -15.5t0 -13.5l-1 -4q-2 -6 -7 -9.5t-10 -4.5h-4q-22 -3 -41 -16q-13 -10 -20 -21q-51 -90 -57 -96q-26 -37 -71.5 -44t-80.5 21l-2 2q-12 9 -23 27 q-3 8 -4 16.5t-1 12.5zM961 66q48 29 74.5 133t28.5 193l3 89l2 123v125l2 123l-2 125v125l-2 125q-1 20 -2 61t-2 62l2 14v8l2 6q2 4 2 15l6 10q0 4 4 12q0 3 6 15q2 4 8.5 10t8.5 10q-1 -1 -9 -7t-10 -11q-3 -3 -8 -13q0 -4 -4 -12l-6 -12q-4 -8 -4 -15l-2 -8l-2 -6 l-2 -16q-1 -20 -2 -61t-2 -62l-2 -125v-125l-2 -125l2 -123v-125l4 -123q-3 -101 -13.5 -181t-23.5 -122t-25.5 -69.5t-20.5 -34.5z" />
<glyph unicode="&#xdb;" horiz-adv-x="1116" d="M18 1488v7q-2 12 5 23q8 16 28 16h236q20 -1 29.5 -10.5t9.5 -19.5v-9q1 -13 -6 -23t-14 -14l-7 -4q-17 -5 -27 -19.5t-11 -26.5l-1 -11v-969q0 -6 0.5 -17t5 -41.5t13.5 -58.5t29 -62.5t47 -59t72 -41.5t101 -17q6 -1 15.5 -1t37.5 3.5t54 11.5t57 29.5t53.5 52t38 82.5 t15.5 119v969q0 5 -1 13t-9.5 23.5t-24.5 20.5q-3 1 -8.5 4t-13.5 13.5t-7 23.5q-1 4 -0.5 10.5t10.5 17t31 11.5h236q20 0 28 -16q9 -13 7 -23q4 -27 -33 -41q-17 -5 -26.5 -18.5t-9.5 -23.5l-1 -11l2 -1053q0 -72 -27 -137l-3 -12t-13.5 -30t-28 -42t-49.5 -44.5 t-75.5 -42.5t-109 -30t-145.5 -12q-77 0 -147 17.5t-132 54t-104.5 102t-54.5 152.5q-2 8 -2 1077q0 5 -0.5 12t-10 21.5t-26.5 19.5q-16 6 -24.5 16.5t-8.5 17.5zM324 604l4 -123q0 -86 4 -127q0 -41 43 -71q-21 21 -33 51q-1 3 -2 10t-2 10q1 21 2 63t2 64l2 123l2 125 v123v125l-2 125l-2 125q0 21 -1 62t-1 61v14v8l2 6q1 2 2 7.5t2 7.5l4 10l6 12q3 9 6 15q2 4 6.5 11t6.5 11q-1 -2 -7 -8.5t-8 -11.5q-5 -10 -8 -13l-6 -12l-6 -12q0 -7 -4 -15l-2 -8l-2 -6l-2 -16q-1 -20 -2 -61t-2 -62l-2 -125v-125v-125v-123v-125zM332 1692q1 6 6 9.5 t10 4.5h4q25 3 43 18q22 19 51.5 69t45.5 67q23 26 67 26q41 0 70 -26q16 -17 22 -29q10 -15 13 -21q42 -69 59 -86q21 -15 43 -18q16 0 20 -14q11 -35 -28 -62q-34 -29 -80.5 -23.5t-73.5 46.5q-8 11 -45 76q-40 -71 -45 -76q-26 -38 -72.5 -45t-83.5 22q-31 31 -26 62z M961 66q48 29 74.5 133t28.5 193l3 89l2 123v125l2 123l-2 125v125l-2 125q-1 20 -2 61t-2 62l2 14v8l2 6q2 4 2 15l6 10q0 4 4 12q0 3 6 15q2 4 8.5 10t8.5 10q-1 -1 -9 -7t-10 -11q-3 -3 -8 -13q0 -4 -4 -12l-6 -12q-4 -8 -4 -15l-2 -8l-2 -6l-2 -16q-1 -20 -2 -61t-2 -62 l-2 -125v-125l-2 -125l2 -123v-125l4 -123q-3 -101 -13.5 -181t-23.5 -122t-25.5 -69.5t-20.5 -34.5z" />
<glyph unicode="&#xdc;" horiz-adv-x="1116" d="M18 1488v7q-2 12 5 23q8 16 28 16h236q20 -1 29.5 -10.5t9.5 -19.5v-9q1 -13 -6 -23t-14 -14l-7 -4q-17 -5 -27 -19.5t-11 -26.5l-1 -11v-969q0 -6 0.5 -17t5 -41.5t13.5 -58.5t29 -62.5t47 -59t72 -41.5t101 -17q6 -1 15.5 -1t37.5 3.5t54 11.5t57 29.5t53.5 52t38 82.5 t15.5 119v969q0 5 -1 13t-9.5 23.5t-24.5 20.5q-3 1 -8.5 4t-13.5 13.5t-7 23.5q-1 4 -0.5 10.5t10.5 17t31 11.5h236q20 0 28 -16q9 -13 7 -23q4 -27 -33 -41q-17 -5 -26.5 -18.5t-9.5 -23.5l-1 -11l2 -1053q0 -72 -27 -137l-3 -12t-13.5 -30t-28 -42t-49.5 -44.5 t-75.5 -42.5t-109 -30t-145.5 -12q-77 0 -147 17.5t-132 54t-104.5 102t-54.5 152.5q-2 8 -2 1077q0 5 -0.5 12t-10 21.5t-26.5 19.5q-16 6 -24.5 16.5t-8.5 17.5zM246 1702q0 38 27.5 65t64.5 27q38 0 64 -27t26 -65t-26 -65t-64 -27q-37 0 -64.5 27t-27.5 65zM324 604v125 v123v125v125l2 125q1 21 2 62t2 61l2 16l2 6l2 8q4 8 4 15l6 12l6 12q3 3 8 13q2 5 8 11.5t7 8.5q-2 -4 -6.5 -11t-6.5 -11q-3 -6 -6 -15l-6 -12l-4 -10q-1 -2 -2 -7.5t-2 -7.5l-2 -6v-8v-14q0 -20 1 -61t1 -62l2 -125l2 -125v-125v-123l-2 -125l-2 -123q-1 -22 -2 -64 t-2 -63q1 -3 2 -10t2 -10q12 -30 33 -51q-43 30 -43 71q-4 41 -4 127zM416 1610q19 10 29.5 33t10.5 41l1 18q-1 33 -11 56t-20 30l-10 6q22 -8 35 -31t15 -42l3 -19q0 -36 -13.5 -59t-26.5 -28zM649 1702q0 38 27 65t65 27t64 -27t26 -65t-26 -65t-64 -27t-65 27t-27 65z M819 1610q19 10 29.5 33t11.5 41v18q-1 33 -11 56t-20 30l-10 6q21 -8 34 -31t16 -42l3 -19q0 -23 -5.5 -41t-13 -27t-15.5 -15t-14 -7zM961 66q3 2 9 8t20.5 34.5t26 69.5t22.5 121.5t14 181.5l-4 123v125l-2 123l2 125v125l2 125q1 21 2 62t2 61l2 16l2 6l2 8q0 7 4 15 l6 12q4 8 4 12q5 10 8 13q2 5 10 11t9 7q-2 -4 -8.5 -10t-8.5 -10q-6 -12 -6 -15q-4 -8 -4 -12l-6 -10q0 -11 -2 -15l-2 -6v-8l-2 -14q1 -21 2 -62t2 -61l2 -125v-125l2 -125l-2 -123v-125l-2 -123q0 -14 -0.5 -38t-6 -88t-15 -116t-31.5 -103.5t-53 -69.5z" />
<glyph unicode="&#xdd;" horiz-adv-x="1177" d="M60 1490l1 3q-1 6 0.5 16t4.5 13q6 16 28 16l242 2q20 -2 29.5 -13t9.5 -21v-11q1 -12 -6 -22.5t-14 -14.5l-7 -4q-15 -5 -23 -20.5t-9 -27.5l-1 -13l279 -568l258 580q0 5 -1 12t-9.5 21.5t-24.5 19.5q-16 6 -23.5 16.5t-7.5 17.5v7q0 18 5 23q8 14 28 18h246 q20 -1 29.5 -10.5t9.5 -19.5v-9q2 -12 -5 -22.5t-15 -14.5l-7 -4q-31 -63 -116.5 -241.5t-150.5 -309t-134 -260.5l-2 -559q-1 -29 26 -37q13 -5 20.5 -17.5t0.5 -25.5q-10 -10 -23 -10h-217q-14 1 -21 7.5t-7 12.5v7q-1 8 4 14.5t11 8.5l5 3q12 4 18.5 14t7.5 19l1 8 q0 65 -0.5 211t-0.5 237.5t1 108.5q-33 66 -91.5 190.5t-126.5 261t-155 296.5q-10 26 -35 53q-3 3 -9.5 6.5t-8.5 5.5q-7 9 -10.5 16t-3.5 10zM389 1409l19 8l188 -420l-16 -8zM436 1673.5q-1 8.5 0 12.5v4q2 6 7.5 9.5t10.5 4.5h5q22 3 43 18q5 4 12 12t8 9l35 65l18 27 q26 38 72.5 45t81.5 -22q15 -15 23 -27q4 -7 5 -15.5t0 -13.5l-1 -4q-2 -6 -7 -9.5t-9 -4.5h-5q-20 -3 -41 -17q-14 -11 -20 -20q-50 -88 -58 -96q-26 -37 -71 -44t-80 21l-2 2q-12 9 -23 27q-3 8 -4 16.5zM745 78l5 565l344 721l16 -8l-342 -715l-4 -561z" />
<glyph unicode="&#xde;" horiz-adv-x="888" d="M119 -442v1888q0 26 17.5 43.5t45.5 17.5h2h15q30 0 50.5 -18.5t20.5 -44.5v-510q85 94 199 94q141 0 241.5 -149.5t100.5 -362.5q0 -139 -46 -257t-124.5 -186.5t-171.5 -68.5q-112 0 -199 96v-542q0 -31 -22 -52.5t-55 -21.5q-30 0 -52 22t-22 52zM309 1028h19v479h-19 v-479zM317 -10v-482h21v482h-21zM319 514q0 -191 43 -325t107 -134q66 0 112 133t46 324q0 192 -46 327.5t-112 135.5q-64 0 -107 -134t-43 -327zM569 4q7 2 17 2q13 3 35 17q15 5 24 14q11 11 29 18q3 4 12.5 12t13.5 15q8 4 15 14q4 2 8.5 8t5.5 7q6 10 26 37t29 42 q2 5 11 23q11 22 12 27q13 35 20 47q2 9 9 28q1 5 3 14.5t3 14.5q2 8 6 27.5t6 27.5t2 31q4 20 4 29q1 10 2 29t2 30q0 20 -4 60q-3 27 -6 57q-16 78 -27 110q-34 102 -94 179q-54 68 -110 90q-2 1 -35 12l-17 2q7 0 17 -4q3 0 35 -12q14 -7 49 -35q13 -13 53 -59 q31 -50 47 -80q15 -31 39 -97q1 -4 11 -45.5t14 -62.5q4 -23 4 -58q2 -20 2 -57v-57q-2 -10 -2 -29q0 -13 -4 -29q-2 -9 -5.5 -27.5t-5.5 -27.5q0 -2 -3.5 -12t-4.5 -17l-6 -24q-13 -36 -20 -49q0 -5 -4 -13.5t-5 -11.5q-8 -16 -12 -20q-26 -51 -49 -80q-9 -12 -14 -17 q-2 -3 -6.5 -8t-6.5 -8q-4 -5 -26 -27q-18 -11 -27 -20q-2 -2 -23 -16q-6 -3 -13.5 -7.5t-12 -7t-8.5 -2.5z" />
<glyph unicode="&#xdf;" horiz-adv-x="1705" d="M12 1292q-14 64 47 133q33 34 99 60.5t146.5 40.5t166.5 8t158.5 -30.5t124 -81.5t61.5 -140q28 -240 -116 -347q-20 -14 -66 -36q80 -27 153 -100q6 -6 16.5 -17.5t38 -50.5t49.5 -81.5t42.5 -109t25.5 -134.5q1 -12 2 -32.5t-5 -76.5t-20 -104t-51 -100t-91 -79 q-62 -34 -147.5 -28t-137.5 43q-45 30 -45 75q0 14 14 18.5t23 -5.5q37 -57 98 -60q33 -3 62 10.5t47.5 35t32.5 44t20 38.5l6 16q21 62 22.5 141.5t-7.5 128.5l-9 49q-31 90 -63 150t-58 85t-53.5 38.5t-48.5 14.5t-44 8.5t-40 25.5v4q-8 26 17.5 48.5t64.5 41.5t47 27 q13 5 32 22t42.5 48.5t36.5 85.5t6 118q-5 47 -27 82t-52.5 54t-67 31.5t-71.5 15t-63.5 3t-46.5 -1.5l-18 -2l4 -452l2 -879q-11 -45 -44.5 -66t-60.5 -20l-28 2q-15 1 -27.5 5t-20 10t-13 12t-7.5 10l-2 4q-2 7 1.5 14t8.5 10l4 3q17 16 27 38t11 36l1 14l-4 700l2 559 l-8 4q-20 13 -39 -2q-28 -18 -45.5 -49.5t-5.5 -66.5q12 -34 51 -41l23 -4q6 -3 2 -7q-1 -2 -7 -8q-46 -49 -106.5 -32.5t-71.5 79.5zM680 1522q27 -8 54 -24.5t58.5 -47.5t52.5 -85.5t25 -123.5q3 -73 -6.5 -132.5t-25.5 -92.5t-33 -56t-29 -30l-12 -8l-31 -11 q7 3 14.5 8.5t23.5 20t27.5 33t26 48t20.5 66t9.5 86.5t-6.5 109q-26 194 -168 240zM731 911q8 -4 21 -11t50.5 -36t71 -65t72.5 -99.5t64 -136.5q3 -10 8 -28.5t13.5 -73t9 -106t-12 -117.5t-41.5 -119q-46 -90 -119 -107q47 29 72 64q29 41 47 94.5t22.5 101.5t4.5 89.5 t-3 66.5l-3 25q-13 78 -39 146t-50.5 110.5t-64.5 87t-61.5 63t-61.5 51.5z" />
<glyph unicode="&#xe0;" horiz-adv-x="841" d="M22 435l1 34q6 77 28.5 151t50 124t53.5 89t44 57l18 19q44 44 87.5 71t78 34t66.5 5.5t55 -12t40 -21t26 -19.5l8 -9q16 33 50 48.5t60 14.5l25 -1q29 -2 52 -23t-1 -45q-16 -16 -25.5 -41t-10.5 -42l-1 -17v-694q-4 -55 33 -88q2 -1 5 -3.5t6.5 -10t0.5 -15.5 q-2 -4 -5.5 -10.5t-19.5 -17t-38 -11.5q-5 -1 -12.5 -1.5t-28 2.5t-37.5 10.5t-34 26.5t-24 48q-75 -78 -206 -82q-94 -4 -156 27q-60 31 -101.5 87.5t-58 114.5t-24 112t-5.5 88zM215.5 407.5q1.5 -94.5 24.5 -165.5q2 -7 6.5 -18.5t21 -40.5t36 -50.5t52.5 -37.5t70 -13 q63 6 106 61t46 123l-3 611q-1 0 0.5 3.5t-2 9t-8.5 11t-19.5 10.5t-35.5 7q-4 1 -11 1t-28.5 -3.5t-43 -13t-50 -32t-53.5 -55.5t-51 -89.5t-44 -127.5q-4 -22 -9.5 -59t-4 -131.5zM252 504q8 61 14 86q8 41 23 80q23 66 73 127q19 27 76 71l35 19q-13 -5 -31 -21 q-85 -71 -137 -202q-37 -118 -37 -244q7 -125 22 -176q7 -24 17 -45q49 -88 105 -88q-17 -5 -43 8q-13 5 -37 26q-22 22 -35 48q-18 36 -25 65q-34 107 -20 246zM307 1266q-4 16 6 34h-2q1 1 3 3.5t3 3.5q14 14 17 16v4q37 29 82.5 22.5t70.5 -44.5q5 -5 5 -7q1 -2 16 -22 l35 -66q7 -10 20 -20h2q20 -13 39 -16q19 -1 23 -15q4 -17 -4 -35q0 -1 -5 -6q-6 -10 -16 -16l-4 -4q-34 -29 -79 -22.5t-70 44.5q-5 5 -5 6q-8 10 -14 23l-37 65q-17 17 -22 21q-19 13 -41 16q-19 1 -23 15zM760 319v91v90v88v90l2 88q0 61 2 90q5 26 14 39q8 16 27 31 q-33 -33 -33 -72q0 -13 1 -43t1 -45l4 -178v-88v-90l-4 -181q0 -7 -1 -30.5t0 -35t3.5 -29t11 -28t21.5 -16.5q-10 0 -21 8q-14 14 -18 27q-2 8 -4 18t-2.5 19l-1.5 27t-1 31.5t-0.5 44.5t-0.5 54z" />
<glyph unicode="&#xe1;" horiz-adv-x="890" d="M22 435l1 34q6 77 28.5 151t50 124t53.5 89t44 57l18 19q44 44 87.5 71t78 34t66.5 5.5t55 -12t40 -21t26 -19.5l8 -9q16 33 50 48.5t60 14.5l25 -1q29 -2 52 -23t-1 -45q-16 -16 -25.5 -41t-10.5 -42l-1 -17v-694q-4 -55 33 -88q2 -1 5 -3.5t6.5 -10t0.5 -15.5 q-2 -4 -5.5 -10.5t-19.5 -17t-38 -11.5q-5 -1 -12.5 -1.5t-28 2.5t-37.5 10.5t-34 26.5t-24 48q-75 -78 -206 -82q-94 -4 -156 27q-60 31 -101.5 87.5t-58 114.5t-24 112t-5.5 88zM215.5 407.5q1.5 -94.5 24.5 -165.5q2 -7 6.5 -18.5t21 -40.5t36 -50.5t52.5 -37.5t70 -13 q63 6 106 61t46 123l-3 611q-1 0 0.5 3.5t-2 9t-8.5 11t-19.5 10.5t-35.5 7q-4 1 -11 1t-28.5 -3.5t-43 -13t-50 -32t-53.5 -55.5t-51 -89.5t-44 -127.5q-4 -22 -9.5 -59t-4 -131.5zM252 504q-14 -139 20 -246q7 -29 25 -65q13 -26 35 -48q25 -21 37 -26q26 -13 43 -8 q-56 0 -105 88q-15 32 -24 75t-10.5 65.5t-4.5 80.5q0 126 37 244q52 131 137 202q8 7 16 12.5t12 7.5l3 1q-12 -5 -35 -19q-57 -44 -76 -71q-50 -61 -73 -127q-15 -39 -23 -80q-6 -25 -14 -86zM414 1148v5v2q3 6 8.5 9.5t9.5 3.5l4 1q23 3 39 19h2q4 3 11 9.5t10 8.5l37 68 q2 3 7 10t7 10q1 1 1.5 2.5l1 3t1.5 3.5q26 37 73 43t81 -23l4 -2q8 -5 12 -18q2 0 3 -1.5t1.5 -3t1.5 -2.5q4 -9 5 -17.5t0 -12.5l-1 -4q-1 -6 -5.5 -10t-8.5 -4l-4 -1q-21 0 -41 -16l-2 -2q-20 -15 -23 -19l-37 -65q-6 -13 -14 -23q-1 0 -2 -3q-1 -2 -2 -3 q-26 -38 -72.5 -44.5t-81.5 22.5l-2 2q-2 3 -7 9t-7 9q-4 4 -4 8q-2 4 -3.5 9.5t-2 9.5t-0.5 7zM760 319q0 -23 0.5 -54t0.5 -44.5t1 -31.5l1.5 -27t2.5 -19t4 -18q4 -13 18 -27q11 -8 21 -8q-13 6 -21.5 16.5t-11 28t-3.5 29t0 35t1 30.5l4 181v90v88l-4 178q0 15 -1 45 t-1 43q0 39 33 72q-19 -15 -27 -31q-9 -13 -14 -39q-2 -29 -2 -90l-2 -88v-90v-88v-90v-91z" />
<glyph unicode="&#xe2;" horiz-adv-x="858" d="M22 435l1 34q6 77 28.5 151t50 124t53.5 89t44 57l18 19q44 44 87.5 71t78 34t66.5 5.5t55 -12t40 -21t26 -19.5l8 -9q16 33 50 48.5t60 14.5l25 -1q29 -2 52 -23t-1 -45q-16 -16 -25.5 -41t-10.5 -42l-1 -17v-694q-4 -55 33 -88q2 -1 5 -3.5t6.5 -10t0.5 -15.5 q-2 -4 -5.5 -10.5t-19.5 -17t-38 -11.5q-5 -1 -12.5 -1.5t-28 2.5t-37.5 10.5t-34 26.5t-24 48q-75 -78 -206 -82q-94 -4 -156 27q-60 31 -101.5 87.5t-58 114.5t-24 112t-5.5 88zM215.5 407.5q1.5 -94.5 24.5 -165.5q2 -7 6.5 -18.5t21 -40.5t36 -50.5t52.5 -37.5t70 -13 q63 6 106 61t46 123l-3 611q-1 0 0.5 3.5t-2 9t-8.5 11t-19.5 10.5t-35.5 7q-4 1 -11 1t-28.5 -3.5t-43 -13t-50 -32t-53.5 -55.5t-51 -89.5t-44 -127.5q-4 -22 -9.5 -59t-4 -131.5zM252 504q-14 -139 20 -246q7 -29 25 -65q13 -26 35 -48q25 -21 37 -26q26 -13 43 -8 q-56 0 -105 88q-15 32 -24 75t-10.5 65.5t-4.5 80.5q0 126 37 244q52 131 137 202q8 7 16 12.5t12 7.5l3 1q-12 -5 -35 -19q-57 -44 -76 -71q-50 -61 -73 -127q-15 -39 -23 -80q-6 -25 -14 -86zM253 1141q-1 9 0 13l1 5q2 6 7.5 10t10.5 5h4q19 0 43 16v2q8 4 21 18l39 72 q1 2 4 6t5.5 7.5t4.5 7.5v2l4 8q2 4 19 16q0 2 2 2q30 27 69 27q40 0 70 -27l2 -2l16 -16q1 -2 7 -8v-2q7 -14 14 -21l37 -72q12 -12 22 -18l2 -2q20 -16 41 -16q17 -1 21 -15q4 -17 -4 -35q0 -6 -4 -10q-14 -14 -17 -16l-2 -2q-37 -31 -84.5 -24.5t-75.5 44.5l-4 8 q-6 13 -14 23l-27 49l-26 -49q-11 -14 -15 -23q-4 -4 -6 -8q-28 -38 -74.5 -44.5t-84.5 24.5l-2 2q-3 2 -17 16q0 1 -2 4.5t-2 5.5q-4 8 -5 17zM760 319q0 -23 0.5 -54t0.5 -44.5t1 -31.5l1.5 -27t2.5 -19t4 -18q4 -13 18 -27q11 -8 21 -8q-13 6 -21.5 16.5t-11 28t-3.5 29 t0 35t1 30.5l4 181v90v88l-4 178q0 15 -1 45t-1 43q0 39 33 72q-19 -15 -27 -31q-9 -13 -14 -39q-2 -29 -2 -90l-2 -88v-90v-88v-90v-91z" />
<glyph unicode="&#xe3;" horiz-adv-x="870" d="M22 435l1 34q6 77 28.5 151t50 124t53.5 89t44 57l18 19q44 44 87.5 71t78 34t66.5 5.5t55 -12t40 -21t26 -19.5l8 -9q16 33 50 48.5t60 14.5l25 -1q29 -2 52 -23t-1 -45q-16 -16 -25.5 -41t-10.5 -42l-1 -17v-694q-4 -55 33 -88q2 -1 5 -3.5t6.5 -10t0.5 -15.5 q-2 -4 -5.5 -10.5t-19.5 -17t-38 -11.5q-5 -1 -12.5 -1.5t-28 2.5t-37.5 10.5t-34 26.5t-24 48q-75 -78 -206 -82q-94 -4 -156 27q-60 31 -101.5 87.5t-58 114.5t-24 112t-5.5 88zM215.5 407.5q1.5 -94.5 24.5 -165.5q2 -7 6.5 -18.5t21 -40.5t36 -50.5t52.5 -37.5t70 -13 q63 6 106 61t46 123l-3 611q-1 0 0.5 3.5t-2 9t-8.5 11t-19.5 10.5t-35.5 7q-4 1 -11 1t-28.5 -3.5t-43 -13t-50 -32t-53.5 -55.5t-51 -89.5t-44 -127.5q-4 -22 -9.5 -59t-4 -131.5zM231 1141q4 44 41.5 72t81.5 20q3 0 16.5 -2t75 -9.5t160.5 -17.5q19 0 29 2q26 4 43 15 q1 2 3 3.5t8.5 5t12.5 -0.5q13 -9 21 -29l4 -10q0 -17 -2 -25q-5 -46 -41 -73.5t-82 -18.5q-5 1 -17.5 3t-17.5 3l-217 21q-9 3 -28 0q-24 -3 -41 -17q-2 -2 -4.5 -3.5t-9.5 -4.5t-11 2q-15 9 -23 27q-2 6 -2 37zM252 504q8 61 14 86q8 41 23 80q23 66 73 127q19 27 76 71 l35 19q-13 -5 -31 -21q-85 -71 -137 -202q-37 -118 -37 -244q7 -125 22 -176q7 -24 17 -45q49 -88 105 -88q-17 -5 -43 8q-13 5 -37 26q-22 22 -35 48q-18 36 -25 65q-34 107 -20 246zM760 319v91v90v88v90l2 88q0 61 2 90q5 26 14 39q8 16 27 31q-33 -33 -33 -72 q0 -13 1 -43t1 -45l4 -178v-88v-90l-4 -181q0 -7 -1 -30.5t0 -35t3.5 -29t11 -28t21.5 -16.5q-10 0 -21 8q-14 14 -18 27q-2 8 -4 18t-2.5 19l-1.5 27t-1 31.5t-0.5 44.5t-0.5 54z" />
<glyph unicode="&#xe4;" horiz-adv-x="841" d="M22 435l1 34q6 77 28.5 151t50 124t53.5 89t44 57l18 19q44 44 87.5 71t78 34t66.5 5.5t55 -12t40 -21t26 -19.5l8 -9q16 33 50 48.5t60 14.5l25 -1q29 -2 52 -23t-1 -45q-16 -16 -25.5 -41t-10.5 -42l-1 -17v-694q-4 -55 33 -88q2 -1 5 -3.5t6.5 -10t0.5 -15.5 q-2 -4 -5.5 -10.5t-19.5 -17t-38 -11.5q-5 -1 -12.5 -1.5t-28 2.5t-37.5 10.5t-34 26.5t-24 48q-75 -78 -206 -82q-94 -4 -156 27q-60 31 -101.5 87.5t-58 114.5t-24 112t-5.5 88zM188 1169q0 -38 27 -64t64 -26q38 0 64 26t26 64q0 37 -26 64t-64 27q-37 0 -64 -27t-27 -64 zM214.5 402q-2.5 89 5.5 142l9 54q18 71 43.5 127.5t51.5 89.5t53 56t50.5 31.5t42.5 13t30 3.5l10 -1q33 -4 49 -14t16 -18v-9l3 -611q-3 -68 -46 -123t-106 -61q-37 -3 -70 12t-53.5 39t-35 49t-21.5 42l-6 18q-23 71 -25.5 160zM252 504q8 61 14 86q8 41 23 80 q23 66 73 127q19 27 76 71l35 19q-13 -5 -31 -21q-85 -71 -137 -202q-37 -118 -37 -244q7 -125 22 -176q7 -24 17 -45q49 -88 105 -88q-17 -5 -43 8q-13 5 -37 26q-22 22 -35 48q-18 36 -25 65q-34 107 -20 246zM356 1079q2 0 5.5 1t12.5 7t16 15t12.5 26.5t5.5 40.5 q0 3 -0.5 8t-4 18.5t-8.5 25t-15.5 23t-23.5 16.5q4 -2 10.5 -7t18 -28.5t12.5 -55.5q0 -8 -0.5 -19.5t-11 -36t-29.5 -34.5zM586 1169q0 -38 27 -64t63 -26q38 0 64 26t26 64q0 37 -26 64t-64 27q-36 0 -63 -27t-27 -64zM754 1079q18 10 28 32.5t10 40.5l1 17 q-1 32 -10.5 54.5t-18.5 29.5l-10 7q21 -8 33.5 -31t14.5 -41l3 -19q0 -23 -5.5 -40.5t-12.5 -26.5t-14.5 -14.5t-12.5 -7.5zM760 319q0 -23 0.5 -54t0.5 -44.5t1 -31.5l1.5 -27t2.5 -19t4 -18q4 -13 18 -27q11 -8 21 -8q-13 6 -21.5 16.5t-11 28t-3.5 29t0 35t1 30.5l4 181 v90v88l-4 178q0 15 -1 45t-1 43q0 39 33 72q-19 -15 -27 -31q-9 -13 -14 -39q-2 -29 -2 -90l-2 -88v-90v-88v-90v-91z" />
<glyph unicode="&#xe5;" horiz-adv-x="841" d="M22 435l1 34q6 77 28.5 151t50 124t53.5 89t44 57l18 19q44 44 87.5 71t78 34t66.5 5.5t55 -12t40 -21t26 -19.5l8 -9q16 33 50 48.5t60 14.5l25 -1q29 -2 52 -23t-1 -45q-16 -16 -25.5 -41t-10.5 -42l-1 -17v-694q-4 -55 33 -88q2 -1 5 -3.5t6.5 -10t0.5 -15.5 q-2 -4 -5.5 -10.5t-19.5 -17t-38 -11.5q-5 -1 -12.5 -1.5t-28 2.5t-37.5 10.5t-34 26.5t-24 48q-75 -78 -206 -82q-94 -4 -156 27q-60 31 -101.5 87.5t-58 114.5t-24 112t-5.5 88zM215.5 407.5q1.5 -94.5 24.5 -165.5q2 -7 6.5 -18.5t21 -40.5t36 -50.5t52.5 -37.5t70 -13 q63 6 106 61t46 123l-3 611q-1 0 0.5 3.5t-2 9t-8.5 11t-19.5 10.5t-35.5 7q-4 1 -11 1t-28.5 -3.5t-43 -13t-50 -32t-53.5 -55.5t-51 -89.5t-44 -127.5q-4 -22 -9.5 -59t-4 -131.5zM252 504q-14 -139 20 -246q7 -29 25 -65q13 -26 35 -48q25 -21 37 -26q26 -13 43 -8 q-56 0 -105 88q-15 32 -24 75t-10.5 65.5t-4.5 80.5q0 126 37 244q52 131 137 202q8 7 16 12.5t12 7.5l3 1q-12 -5 -35 -19q-57 -44 -76 -71q-50 -61 -73 -127q-15 -39 -23 -80q-6 -25 -14 -86zM332 1233q0 66 45.5 113t111.5 47q67 0 113.5 -47t46.5 -113t-46.5 -112 t-113.5 -46q-66 0 -111.5 46t-45.5 112zM408 1231q0 -34 23 -57t58 -23q32 0 55 23t23 57t-23 57t-55 23q-35 0 -58 -23t-23 -57zM760 319q0 -23 0.5 -54t0.5 -44.5t1 -31.5l1.5 -27t2.5 -19t4 -18q4 -13 18 -27q11 -8 21 -8q-13 6 -21.5 16.5t-11 28t-3.5 29t0 35t1 30.5 l4 181v90v88l-4 178q0 15 -1 45t-1 43q0 39 33 72q-19 -15 -27 -31q-9 -13 -14 -39q-2 -29 -2 -90l-2 -88v-90v-88v-90v-91z" />
<glyph unicode="&#xe6;" horiz-adv-x="1454" d="M54 433l1 34q6 78 28.5 152.5t50 125t54 90t44.5 57.5l18 19q60 60 119 87.5t100.5 23.5t74.5 -17t50 -29l16 -15q16 33 49.5 47.5t58.5 13.5l25 -2q23 0 39.5 -10t21.5 -20l5 -9q2 -7 -1 -14t-7 -10l-4 -3q-16 -16 -25.5 -42t-10.5 -44l-1 -18v-4q31 49 67 90 q91 91 228 88q44 -1 72 -4.5t66 -14t68 -36.5t54 -66q39 -65 49.5 -161t-12.5 -171t-72 -84q-42 -8 -126.5 -12t-191 -5t-108.5 -1q0 -39 6.5 -88.5t23.5 -108.5t41.5 -105t64.5 -72.5t89 -16.5q49 2 125 46.5t92 88.5q1 14 13 18q27 3 45 -28q2 -2 4 -6t7 -15t7 -22.5 t-1 -26t-13 -27.5q-65 -65 -174 -93t-209 -9q-80 13 -131.5 55t-98.5 107l5 -3l6 -3q-87 -100 -166 -131q-69 -28 -171.5 -28t-176.5 32q-60 31 -101 87t-57 114t-24 111.5t-6 87.5zM247 406.5q1 -94.5 25 -164.5q2 -7 6.5 -18.5t21.5 -41t36.5 -51.5t52 -38t68.5 -13 q63 6 106.5 62t46.5 124l-2 611q0 1 0.5 3.5t-1.5 9t-8 11.5t-20.5 10t-35.5 7q-4 1 -11 1t-28.5 -3.5t-42.5 -13t-49.5 -32t-53.5 -55.5t-51 -89.5t-45 -127.5q-5 -22 -10.5 -59.5t-4.5 -132zM285 416q0 151 39 254q25 67 71 127q9 11 20.5 23t19.5 18.5t19.5 16.5t14.5 13 l35 21q-13 -9 -31 -25q-45 -40 -70 -73q-41 -62 -63 -127q-28 -90 -33 -164q-6 -80 0 -164q10 -82 33 -139q27 -62 102 -88q-4 2 -10 2q-13 0 -29 8q-20 8 -36 24q-25 20 -41.5 55.5t-22 63t-12.5 72.5q-6 40 -6 82zM858 565q63 -1 111.5 -1h81.5t59 1.5t38.5 2t25 3.5 t14 3.5t10.5 5.5l8 4q32 14 40 70.5t-1 113.5t-24 92q-29 90 -123 94q-52 1 -94 -30.5t-70.5 -87.5t-47 -123.5t-28.5 -147.5zM901 397h17q0 -11 4 -43q14 -85 32 -133q21 -55 68 -108l8 -9q-6 5 -8 7q-3 3 -10 9.5t-11 10.5q-17 17 -26 35q-24 38 -39.5 83t-21 70.5 t-13.5 77.5zM918 598l4 33q30 166 116 252q15 15 29 22q-2 -2 -8 -6q-60 -60 -86 -129q-1 -2 -3 -7t-3 -7q-5 -15 -6 -17q-24 -77 -29 -141h-14zM1272 993q17 -6 37 -24t42 -50t37.5 -86t18.5 -120q2 -52 -4 -93t-16 -62.5t-20 -35.5t-17 -18l-7 -4q27 26 39.5 79.5 t11.5 93.5l-1 40q-3 64 -17 116t-31 81t-33.5 49t-27.5 27z" />
<glyph unicode="&#xe7;" horiz-adv-x="735" d="M28.5 471.5q-4.5 133.5 33.5 259.5t114 203q94 91 225 88q86 -2 154 -23.5t129 -85.5q21 -27 19.5 -50.5t-13.5 -39.5l-12 -16q-9 -12 -20.5 -17.5t-19.5 -4.5l-7 1q-3 1 -5 2.5t-3 4t-1.5 5t-0.5 4.5v1q-6 41 -68.5 93.5t-108.5 53.5q-88 6 -157 -119t-80 -305 q-3 -44 0 -86q6 -151 59 -253.5t129 -106.5q21 0 31 4q45 0 125 44.5t90 86.5q4 14 14 18q27 3 43 -28q2 -2 4.5 -5.5t7.5 -14.5t7 -21.5t-0.5 -25t-11.5 -27.5q-3 -3 -9.5 -8.5t-9.5 -8.5q-47 -33 -124.5 -62t-162.5 -30l-18 -82q38 -4 53 -8q13 -2 30 -10.5t39 -26 t35.5 -52.5t10.5 -81q-10 -103 -96 -154q-73 -45 -170 -18q-55 18 -74 55q-29 57 22 101q2 -2 5 -5.5t13.5 -13.5t21.5 -17.5t28 -18t33.5 -14t38 -5.5t41.5 6q32 14 45 29.5t22 42.5q7 29 -0.5 51t-26.5 34.5t-41.5 19.5t-50.5 9l-73 4q-4 0 -6 3t0 6v4l26 151 q-82 19 -144.5 75.5t-88.5 135.5q-41 115 -45.5 248.5zM250 434q0 -28 8 -78q13 -84 39 -137q6 -19 25 -47q6 -8 14 -20q6 -9 12 -15q4 -5 19 -20l8 -6q-4 2 -6 6q-3 2 -9.5 9.5t-9.5 10.5q-2 7 -12 17q-1 2 -5 9t-5 11q-14 25 -25 49q-24 64 -33 133q-23 169 33 367 q2 4 6 16q4 8 4 15q7 11 9 16q1 2 3 8t3 8t3 6.5t3 6.5q2 6 7.5 15t6.5 11l14 21q6 12 15 18q2 3 6 8.5t6 8.5q20 15 21 16l8 6q-2 -2 -10 -6q-10 -5 -21 -16q-2 -2 -6.5 -7t-7.5 -8q-13 -13 -15 -16q-3 -3 -8 -10.5t-8 -10.5q-1 -2 -6.5 -11t-7.5 -15q-6 -6 -9 -12 q-1 -3 -4 -8.5t-4 -8.5t-3 -8t-3 -8q-1 -2 -3 -7.5t-3 -7.5l-6 -18q-2 -4 -6 -16q-10 -30 -11 -37q-29 -87 -26 -238zM426 -57q54 -6 90 -31t49 -55.5t18.5 -60.5t2.5 -50l-2 -20q-3 -38 -16.5 -69.5t-30.5 -48.5t-34 -28.5t-29 -15.5l-11 -4q38 11 66 33t41 45.5t20 45 t8 34.5v14q5 44 -2 79.5t-22 57t-34 37.5t-39 22.5t-37 10.5t-28 4h-10z" />
<glyph unicode="&#xe8;" horiz-adv-x="913" d="M97 472q-4 134 35.5 260.5t117.5 203.5q93 93 225 90q37 -2 56.5 -3.5t54.5 -8.5t57.5 -18.5t48.5 -34.5t45 -56q37 -66 46.5 -163t-13 -174t-70.5 -87q-42 -8 -129.5 -10.5t-184.5 -2t-112 0.5q0 -48 8 -102.5t27 -120t60.5 -113t99.5 -57.5q79 -12 147 27t99 110 q2 16 16 20q25 3 41 -30q2 -2 4 -5.5t7 -15t7 -22.5t-1 -26t-13 -28q-45 -66 -162 -91t-219 -11q-88 13 -156 72t-98 145q-40 117 -44 251zM276 563q63 -1 111.5 -1h82t58.5 1.5t38 1.5t24 2.5t13 3t9.5 5t8.5 4.5q28 15 33 68.5t-4 105t-23 88.5q-33 101 -113 112 q-65 9 -118.5 -47.5t-83 -147t-36.5 -196.5zM283 1266q-4 16 4 32q1 1 3 4.5t3 4.5q10 10 16 14q2 2 2 4q35 31 81.5 24.5t72.5 -44.5q4 -4 4 -7q2 -3 6.5 -10t7.5 -10l35 -68q8 -11 23 -20l2 -2q18 -14 41 -17q16 0 20 -14q4 -13 -6 -33q0 -1 -1 -3.5t-1 -4.5 q-4 -6 -14 -16q-2 -2 -4 -2q-37 -31 -82.5 -24.5t-71.5 46.5l-6 6q-3 9 -15 21l-34 65q-3 3 -9.5 10.5t-9.5 10.5l-2 2q-24 16 -43 16q-18 1 -22 15zM317 434h13q3 -11 6 -43q7 -52 10.5 -72t15 -65.5t30 -78t46.5 -60.5l11 -9q-46 25 -77.5 95.5t-42.5 129.5t-12 103z M322 600q15 101 56 187.5t103 125.5q-70 -53 -104 -153q-22 -55 -43 -160h-12zM692 991q42 -13 85.5 -84t47.5 -196q2 -51 -3.5 -91.5t-15 -62t-19.5 -35.5t-17 -18l-8 -4q28 25 40 78t10 93l-1 40q-3 64 -16.5 116.5t-30.5 81.5t-33.5 49t-27.5 26z" />
<glyph unicode="&#xe9;" horiz-adv-x="843" d="M40.5 472.5q-3.5 133.5 34.5 259.5t115 202q93 90 228 90q37 -2 56 -3.5t53.5 -8.5t56.5 -18.5t47.5 -34.5t44.5 -56q37 -65 47.5 -160t-12 -170t-72.5 -84q-41 -8 -124.5 -12t-189.5 -5t-108 -1q0 -35 5.5 -80t20 -99.5t35.5 -100t55.5 -78t76.5 -35.5q47 0 102 23 t94 57q3 5 17 14q1 1 5.5 4.5t7 5.5t6.5 6t6.5 8t5 9.5t3.5 11.5q3 12 13 14q27 5 45 -24q2 -2 4 -5.5t6.5 -15t6.5 -22t-1 -25t-12 -26.5q-3 -7 -17 -21q-64 -43 -162.5 -73t-201.5 -11q-89 15 -157 73t-97 142q-40 116 -43.5 249.5zM221 563q59 -2 110.5 0t81.5 0.5 t58 1.5t39 2.5t24.5 3t15 4t10 4.5t9.5 5q30 14 38 70.5t-1 113.5t-24 92q-33 90 -121 90q-52 1 -94 -29.5t-70.5 -86t-47 -123t-28.5 -148.5zM264 399v2h17v-2q0 -7 4 -43q10 -82 32 -133q13 -28 25 -47q3 -11 10 -22q2 -2 6.5 -8.5t6.5 -8.5q3 -3 9 -10t9 -10l4 -6 q0 2 -6 6q-1 2 -8.5 9t-12.5 11q-6 6 -12 15q-1 2 -5 8.5t-7 11.5q-18 28 -27 49q-25 59 -37 133q-4 22 -8 45zM281 596q8 49 14 76.5t19 70.5t34 77.5t51 64.5q13 13 23 16l8 4q-2 -2 -8 -4q-57 -57 -84 -129.5t-43 -175.5h-14zM332 1161q2 5 7 8.5t9 4.5h4q40 12 64 41.5 t51 82.5q1 1 2 3.5t2 3.5q25 40 70 45.5t80 -25.5q8 -8 15 -17.5t12.5 -22t0.5 -21.5t-22 -11q-16 -3 -34 -13t-26 -23l-39 -68q-14 -22 -32 -39t-40 -28t-48 -7t-50 25q-31 31 -26 61zM633 993q17 -7 36.5 -25t41 -49.5t37 -85t18.5 -118.5q2 -52 -4 -93t-15 -62.5 t-18.5 -35.5t-16.5 -18l-7 -4q26 24 37.5 77t9.5 93l-2 41q-3 64 -16 116t-29.5 81t-33 49t-27.5 27z" />
<glyph unicode="&#xea;" horiz-adv-x="843" d="M74.5 473q-4.5 134 33.5 260.5t115 202.5q91 91 226 88q45 -1 73 -4t66.5 -14t68.5 -36t54 -65q38 -65 48.5 -160.5t-12 -170.5t-71.5 -85q-94 -16 -426 -16q0 -7 2 -17t2 -16q6 -152 59.5 -255t130.5 -107q19 0 31 4q107 25 164 78q9 3 18 12q29 17 35 43q2 16 10 18 q28 3 48 -28q2 -2 4 -5.5t7 -14.5t7 -22t-1 -26t-13 -28q-2 -3 -9.5 -9t-9.5 -8q-58 -42 -159 -73t-205 -13q-87 13 -154.5 72t-97.5 145q-40 116 -44.5 250zM212 1154l1 3q1 7 6 11.5t9 5.5h5q19 0 39 16h2q7 4 21 18l39 68q1 4 5 9.5t5 8.5q0 2 2 2q0 2 2 5t2 4 q5 10 17 16q0 4 2 4q31 25 67 25q38 0 66 -25l2 -4q14 -7 16 -16q2 -1 6 -9v-2q6 -6 15 -18l37 -68q12 -12 20 -18q24 -16 41 -16q16 -1 18 -17q8 -13 -2 -31v-4q0 -2 -6 -8q-1 -1 -5.5 -6.5t-6.5 -7.5q-4 0 -4 -4q-34 -28 -80 -21.5t-72 43.5q0 1 -2 3.5t-2 4.5 q-5 5 -14 23l-27 47l-24 -47q-10 -14 -15 -23l-4 -8q-26 -37 -72 -43.5t-83 21.5v4q-6 3 -17 14q-2 4 -2 8v4q-5 8 -6.5 16t-0.5 12zM254 565q71 -1 124.5 -1t89 1t58 1.5t37 3.5t19.5 3.5t12.5 4t9.5 4.5q30 16 37 73.5t-2 114t-23 94.5q-28 88 -122 90q-67 1 -118.5 -55.5 t-79.5 -140t-42 -193.5zM299 397h16q0 -4 1 -17t1 -24q14 -84 35 -133q8 -28 25 -51q1 -4 5 -9.5t5 -8.5q7 -6 10 -17q3 -3 7 -8t7 -8t5 -4l6 -8l-6 6q-14 14 -19 22q-3 1 -12 15q-3 2 -8 8t-8 10q-15 23 -25 51q-24 49 -37 133q-6 23 -8 43zM315 596l2 37q0 2 4 17.5 t5 23.5q1 4 5 17t5 20q4 6 4 16q2 4 6 16q2 2 3.5 9t2.5 8q6 12 6 14q4 12 9 17q3 9 10 14q1 3 12 26q11 14 14 21q6 8 17 16q9 14 12 15q5 7 13.5 13t9.5 7l8 6l-8 -8q-10 -7 -19 -18q-5 -5 -14 -17q-1 -3 -14 -16q-1 -2 -6 -10.5t-7 -14.5q-1 -4 -6 -11.5t-8 -12.5 q-1 -1 -2 -7t-2 -8q-5 -5 -8 -14q0 -1 -4 -6.5t-5 -9.5q0 -2 -1 -8t-1 -9q-6 -6 -6 -16q0 -1 -2 -6.5t-4 -7.5q0 -3 -3 -17.5t-3 -21.5q-2 -5 -8 -37l-4 -37h-13zM668 993q42 -15 85 -84t46 -192q2 -53 -3.5 -94.5t-15 -63.5t-19.5 -36.5t-17 -18.5l-7 -4q27 25 39.5 79.5 t11.5 96.5l-2 41q-3 62 -16 113.5t-30 80.5t-33.5 48.5t-27.5 26.5z" />
<glyph unicode="&#xeb;" horiz-adv-x="821" d="M54 472q-4 134 34 260t113 202q104 96 229 90q35 -1 56 -2.5t55 -8t57 -18.5t48.5 -35.5t43.5 -56.5q38 -65 48.5 -160t-12 -171t-71.5 -87q-42 -7 -131 -10.5t-180.5 -5t-112.5 -2.5q0 -44 10.5 -104.5t31 -126.5t60.5 -112.5t91 -49.5q61 0 145.5 45t102.5 98 q2 14 12 16q27 3 43 -26q2 -2 4.5 -6t7.5 -16t7 -23.5t-0.5 -27t-12.5 -28.5q-62 -62 -173.5 -90t-209.5 -10q-88 15 -156.5 73t-95.5 146q-40 113 -44 247zM133 1167q0 38 27 64t65 26t63 -26t25 -64t-25 -65t-63 -27t-65 27.5t-27 64.5zM236 567q62 -1 110 -1h80.5t58 1.5 t38.5 2t25 3.5t14.5 3.5t10.5 4.5t9 5q31 14 39.5 70t0 112.5t-23.5 91.5q-7 16 -14.5 28t-22 28.5t-37 25.5t-51.5 10q-52 1 -93.5 -29.5t-69.5 -86.5t-46 -122.5t-28 -146.5zM281 399h12q1 -9 4 -32t5 -35.5t6 -32.5t9.5 -38t12.5 -36q26 -73 65 -112l8 -7 q-18 0 -44.5 43.5t-34.5 71.5q-28 62 -43 178zM293 598q24 153 76 231l14 21q3 3 8 9t8 9q11 13 43 37q-3 -3 -14 -13.5t-15.5 -15.5t-13 -14.5t-14 -18.5t-10.5 -18q-51 -103 -68 -227h-14zM303 1075q18 10 28.5 33t11.5 41l1 18q-2 34 -12 56.5t-20 28.5l-9 5 q21 -6 33.5 -28.5t15.5 -42.5l2 -19q0 -36 -13 -59t-25 -28zM535 1167q0 38 26 64t64 26t64 -26t26 -64q0 -37 -26 -64.5t-64 -27.5t-64 27.5t-26 64.5zM647 993q17 -7 36.5 -25t41.5 -49.5t37.5 -85.5t17.5 -120q2 -52 -4 -93t-15.5 -62.5t-19.5 -35.5t-17 -18l-7 -4 q28 27 40.5 80.5t10.5 93.5l-2 39q-3 64 -16.5 116t-30.5 81t-33.5 49t-27.5 27zM700 1075q20 10 31 33t11 41l1 18q-1 21 -6 38t-11 26.5t-12 15.5t-10 8l-4 2q22 -6 36 -28.5t17 -42.5l3 -19q0 -36 -14 -59t-28 -28z" />
<glyph unicode="&#xec;" horiz-adv-x="516" d="M49 909q-8 34 25 72q3 5 10 12t43 19.5t88 13.5h133q9 0 17 -6.5t8 -15.5v-277v-639q-1 -27 26 -35q10 -4 15.5 -10.5t5.5 -10.5v-5q0 -13 -4 -17q-2 -10 -19 -10h-198q-15 1 -22.5 7.5t-8.5 12.5v7q-1 7 4 13.5t10 9.5l6 3q11 4 17.5 13.5t6.5 17.5l1 8v647l2 224 q0 12 -8 20t-19 8h-32q-3 -1 -8 -3.5t-15.5 -10.5t-16 -17t-3.5 -24t16 -31l16 -12l-6 -6q-22 -26 -53 -18t-37 40zM74 1266q-4 16 2 34q4 4 4 9l14 14q2 2 4 2q37 30 82 24.5t70 -42.5q2 -1 3.5 -4.5t2.5 -4.5q2 -3 7 -10t7 -10l37 -68q15 -15 19 -18l2 -2q25 -17 43 -19 q18 0 20 -10q4 -17 -2 -37q-11 -14 -22 -22l-2 -2q-37 -31 -82.5 -24.5t-71.5 44.5q-1 1 -2 3t-2 3q-5 5 -14 23l-37 65q-10 14 -21 19l-2 2q-20 13 -41 16q-16 1 -18 15zM385 1026q14 0 18 -4q2 -1 7 -6v-8l2 -25l8 -467q-2 -379 -4 -395v-29q-3 -5 4 -12q18 -6 20 -6 q-14 0 -20 6q-6 3 -6 4v8l-4 29l-4 395q0 449 2 467v25q3 8 -5 12q-9 6 -18 6z" />
<glyph unicode="&#xed;" horiz-adv-x="495" d="M27 907q-5 41 24 72q3 5 10.5 12t44 20t87.5 15h133q10 0 17 -8t7 -17v-276v-637q0 -27 27 -35q12 -4 17.5 -10.5t5.5 -10.5l-1 -5q0 -13 -6 -15q-2 -12 -20 -12h-197q-15 1 -22.5 7.5t-7.5 12.5l-1 7q0 8 5.5 14.5t10.5 8.5l5 3q12 4 19 14t7 19l1 8v641v226 q0 11 -7.5 18.5t-19.5 7.5h-33q-3 -1 -8 -3t-16 -10t-16.5 -16.5t-3.5 -23t17 -29.5l19 -14q-2 -4 -6 -6q-22 -27 -53 -18.5t-39 40.5zM118 1150l1 5q2 6 7.5 9.5t9.5 3.5l5 1q21 3 43 19q4 3 21 20l35 66q16 24 18 26q26 38 72.5 45t81.5 -22q12 -12 22 -27q4 -7 5 -15 t0 -13l-1 -4q-2 -6 -7 -10t-9 -4l-4 -1q-22 -3 -41 -16q-15 -12 -21 -21q-51 -90 -57 -96q-26 -37 -71.5 -43.5t-80.5 21.5l-2 2q-12 9 -22 26q-3 8 -4 16t-1 12zM362 1026q2 0 4.5 -1t6.5 -2.5t6 -2.5q6 0 6 -6q4 0 4 -6l2 -27l6 -467v-393l-4 -29q0 -6 6 -12 q1 -1 8.5 -2.5t10.5 -3.5q-3 2 -10.5 3.5t-8.5 2.5t-2.5 1.5t-2.5 1.5t-1 3l-2 6l-2 27l-6 395v467l2 27q0 9 -6 12q-2 1 -6 2.5t-6.5 2.5t-4.5 1z" />
<glyph unicode="&#xee;" horiz-adv-x="575" d="M35 907q-4 37 24 70q3 5 11 12t44.5 20t86.5 15h135q9 0 15.5 -7.5t6.5 -17.5v-276v-637q0 -27 27 -35q11 -4 17 -10.5t6 -10.5v-5q3 -8 -2 -17q-10 -10 -23 -10h-199q-15 1 -22 7.5t-6 12.5v7q-1 8 4 14.5t10 8.5l6 3q11 4 17.5 14t6.5 19l1 8v643l2 223q0 12 -8.5 19.5 t-20.5 7.5h-33q-3 -1 -8 -3t-15 -9.5t-15.5 -16t-3.5 -23t16 -30.5l16 -14q0 -2 -4 -6q-22 -26 -53 -17.5t-39 41.5zM44 1141q-1 9 0 13l1 5q2 5 7 9t10 5l4 1q24 0 40 16l3 2q8 6 20 18l37 66l12 18l2 4q0 5 4 9q6 8 17 16l2 2q28 25 67 25q35 0 66 -25l4 -2q6 -4 14 -16 q1 -1 2 -4t2 -5q2 -2 2 -4q2 -3 6.5 -9t6.5 -9l37 -66q12 -12 20 -18l2 -2q19 -16 39 -16q19 -3 23 -15q3 -17 -5 -35q-4 -4 -4 -8l-16 -16l-4 -2q-34 -29 -80 -22.5t-72 44.5q-1 1 -2 3t-2 3q-1 2 -3.5 6.5t-5 8t-5.5 6.5l-25 47l-28 -47q-2 -3 -6.5 -10.5t-6.5 -10.5 q-4 -4 -4 -6q-26 -38 -72 -44.5t-81 22.5l-2 2q-5 4 -10 10l-5 6q-2 2 -3.5 4.5t-2.5 3.5q-4 8 -5 17zM371 1024q6 0 18 -4l6 -6q2 -4 2 -8l2 -27l9 -465q-2 -379 -2 -397l-3 -27q-3 -7 7 -10q2 -3 16 -8q-6 0 -18 6q-1 1 -2.5 2l-3 2t-1.5 2q-2 2 -2 6l-2 27l-6 397v465 l2 27q0 6 -6 12t-16 6z" />
<glyph unicode="&#xef;" horiz-adv-x="698" d="M27 1157q0 37 26.5 62.5t63.5 25.5t63.5 -25.5t26.5 -62.5q0 -38 -26.5 -64t-63.5 -26t-63.5 26t-26.5 64zM117 905q-4 35 24 68q3 5 10.5 12t43.5 20t86 15h133q9 0 16.5 -7.5t7.5 -15.5l-2 -276l2 -635q-2 -27 25 -37q12 -4 18 -10t6 -10v-4q0 -5 -4 -17 q-7 -10 -20 -10h-201q-14 1 -20.5 7.5t-5.5 12.5v7q-1 8 4 14t10 8l6 2q11 4 17.5 15t6.5 20l1 8l2 862q0 10 -8.5 18.5t-18.5 8.5h-33q-3 -1 -8 -3t-16 -9.5t-16.5 -16t-3.5 -23t16 -30.5l18 -12q-2 -4 -6 -8q-20 -26 -53 -17t-37 43zM193 1067q19 10 29 32.5t10 40.5l1 17 q-1 33 -11 55t-20 28l-9 5q21 -7 34.5 -29t16.5 -40l4 -19q0 -36 -14 -58.5t-28 -26.5zM422 1157q0 37 26.5 62.5t63.5 25.5t63.5 -25.5t26.5 -62.5q0 -38 -26.5 -64t-63.5 -26t-63.5 26t-26.5 64zM449 1020q6 0 18 -6q4 -4 8 -6l2 -4l2 -27l6 -467q0 -373 -2 -393l-2 -27 q0 -7 6 -10q1 -2 19 -8q-3 1 -10 2t-9 2q-1 2 -3.5 4.5t-2.5 3.5q-2 2 -2 6l-2 27l-8 393v467l2 27q0 6 -4 10q-12 6 -18 6zM590 1067q18 10 28.5 32.5t11.5 40.5l1 17q-2 33 -12 55t-19 28l-10 5q21 -7 34 -29t16 -40l3 -19q0 -22 -5.5 -39.5t-13.5 -26.5t-15.5 -15 t-12.5 -8z" />
<glyph unicode="&#xf0;" horiz-adv-x="884" d="M68 508q0 137 44.5 253.5t122 184.5t168.5 68q39 0 80 -13q-39 101 -90 177l-82 -74l-78 -80q-17 -14 -37 -14t-32 14q-15 15 -15 35.5t15 32.5l76 77l94 86q-74 86 -150 125q-13 7 -17 24t3 30q20 34 57 18q96 -42 187 -121l41 41l80 82q13 12 34.5 12t34.5 -12 q14 -15 14 -36.5t-14 -33.5l-84 -84l-37 -38q225 -256 254 -670q4 -54 4 -84q0 -137 -45.5 -253.5t-123.5 -184.5t-169 -68t-168.5 68t-122 184.5t-44.5 253.5zM258 508q0 -191 41.5 -324t103.5 -133q66 0 112 133t46 322q0 188 -46 320t-112 132q-62 0 -103.5 -130.5 t-41.5 -319.5zM287 508q0 -30 4 -84q2 -29 10 -78q7 -47 14 -74q7 -43 17 -63q24 -71 43 -92q4 -5 20 -21l8 -4q-2 4 -8 6q-1 2 -7 8.5t-9 12.5q-17 28 -21 39q-1 4 -7 22t-9 31q-1 6 -4 18t-5.5 23t-4.5 22q-10 56 -11 72q-1 13 -6 80q-2 25 -2 82q0 53 2 82q0 5 1 19t1 20 q1 6 2 19.5t2 19.5q0 6 1 18.5t1 18.5q5 28 7 34q5 30 12 66q15 45 18 53q0 2 4 10q1 1 3 5t4 6q1 2 10 16q3 3 7 7.5t6.5 7t4.5 3.5l8 5q-2 -1 -8 -5q-11 -4 -20 -16q-13 -13 -15 -16q-4 -4 -4 -11l-6 -12q-8 -12 -22 -49q-3 -11 -8.5 -33t-8.5 -33l-6 -36q-2 -7 -4 -22.5 t-2 -16.5q-1 -6 -3 -18.5t-3 -18.5q0 -29 -2 -41q-4 -58 -4 -82zM506 2q4 2 10 6q8 2 35 15q4 3 12 8t12 8q20 15 25 20q15 12 27 27q4 6 12 14q5 3 14 17q34 49 47 78q5 10 13 22q7 15 10 25q15 35 18 47q1 7 9 26q1 5 3 13.5t3 13.5q2 9 6 27.5t6 27.5q0 11 4 27 q0 19 2 27q2 20 2 59q0 21 -2 57.5t-15.5 137.5t-36.5 189.5t-73 190t-117 162.5q5 -4 14.5 -12t37 -38.5t52 -67t55 -99t52 -134t37 -173t15.5 -213.5q0 -10 -1 -29.5t-1 -29.5q-5 -25 -5 -29q0 -13 -4 -29q-2 -9 -5 -27.5t-5 -27.5q-1 -5 -3 -14.5t-3 -14.5 q-6 -12 -10 -24q-10 -30 -21 -52q-3 -11 -10 -22q-10 -20 -12 -23q-13 -23 -53 -79l-15 -15q-6 -8 -14 -14q-9 -12 -27 -25q-24 -19 -26 -22q-22 -11 -25 -13q-19 -10 -37 -14z" />
<glyph unicode="&#xf1;" horiz-adv-x="901" d="M26 18l1 5q-1 8 4 14.5t11 8.5l5 3q12 5 18.5 16t7.5 19l1 8l-2 316v436q0 8 -0.5 20t-10.5 38.5t-28 41.5q-25 22 -2 43t55 27h23q55 0 90 -43t26 -97v-2q3 6 10 16t32 35.5t54 45t77.5 35.5t101.5 16q7 1 19.5 2t46.5 -2.5t63.5 -14.5t62.5 -39t51 -71q19 -49 19 -92 l2 -709q0 -27 29 -39q12 -4 17.5 -11t5.5 -12l-1 -5q0 -12 -6.5 -19.5t-15.5 -7.5h-201q-15 1 -22 8t-7 14v7q-1 7 4 13.5t10 9.5l5 3q12 4 18.5 15t7.5 20v8l-4 699q0 43 -30 75t-74 33h-4q-50 3 -95.5 -16.5t-78.5 -53t-49 -54t-29 -42.5q-17 -34 -17 -37l4 -614 q-2 -27 25 -37q11 -4 17 -10t6 -10v-4q1 -12 -6.5 -19.5t-18.5 -7.5h-197q-16 1 -23.5 6.5t-7.5 11.5zM205 1120q-3 8 0 21v4q5 46 42 73.5t83 18.5q1 0 3.5 -1t4.5 -1q3 -1 11.5 -2t12.5 -2l218 -21h28h2q24 3 41 17q1 1 3.5 2.5t9 4.5t10.5 -1q14 -9 22 -27q0 -6 2 -10 q3 -9 0 -22v-5q-5 -44 -41 -71.5t-82 -20.5q-2 0 -4 1t-4 1l-24 6l-217 21q-15 4 -29 -2l-2 2q-26 -4 -41 -16q-2 -2 -4.5 -4t-9.5 -5.5t-11 0.5q-14 11 -22 29q0 1 -1 4.5t-1 5.5zM260 377v82v84v80v86q3 7 10 17t9 13q42 57 65 74q40 35 68 45q27 10 49 10q-3 -1 -8.5 -2 t-8.5 -2q-36 -12 -45 -18t-17.5 -13t-14.5 -12t-15 -14.5t-13 -13.5t-13 -16t-11 -14.5t-12.5 -16.5t-11.5 -15l-15 -22l3 -166v-84v-82v-84q-2 -126 -5 -164v-41q0 -11 8 -18t17 -9q-29 7 -29 27l-2 41q-1 14 -2 42t-2 42l-2 80zM705 985q2 2 8 0q10 0 30 -10 q16 -10 35 -35q18 -28 25 -59q16 -76 16 -248v-88v-92q0 -61 -2 -88q0 -30 -1 -83.5t-1 -74.5q0 -19 -2 -47t-2 -41q0 -17 2 -23q3 -17 10 -28l8 -7q-2 3 -8 7q-18 26 -18 75q0 35 -3 181.5t-3 220.5q0 71 1 122t1 56v84q-4 50 -8 70q-9 36 -23 59q-21 40 -57 49h-8z" />
<glyph unicode="&#xf2;" horiz-adv-x="776" d="M25 514q0 138 46 255t124 185t170 68t169.5 -68t122.5 -185t45 -255q0 -211 -99 -360.5t-238 -149.5q-92 0 -170 68.5t-124 186t-46 255.5zM174 1294q-4 15 6 31q0 6 2 8l17 17q0 2 2 2q35 31 80 24t73 -47l4 -4q2 -7 15 -20l33 -68q2 -1 9 -8.5t13 -9.5q20 -17 41 -17 q19 0 23 -14q1 -15 -5 -33q-1 -2 -3 -5t-3 -5q-14 -14 -16 -15q0 -2 -2 -4q-35 -28 -80.5 -21t-71.5 44q-2 4 -4 6q-7 10 -14 23l-37 63q-2 7 -18 19l-2 2q-23 15 -41 18q-15 0 -21 14zM217 512q0 -190 42 -323.5t106 -133.5q66 0 111.5 133.5t45.5 321.5q0 191 -45.5 324 t-111.5 133q-64 0 -106 -131.5t-42 -323.5zM248 512q0 57 4 82q2 14 2 41q0 15 4 43q1 5 6 35q3 18 6 39q3 10 9 30.5t8 30.5q10 37 22 57q4 4 4 11q1 2 5 5l4 3q2 3 6 8t6 8q16 16 22 19l9 2q-3 0 -9 -4q-4 -1 -20 -21q-8 -8 -10 -14q-4 -4 -4 -10q-7 -7 -7 -11 q-15 -40 -18 -55q-12 -58 -12 -63q0 -17 -4 -37q0 -6 -2.5 -18.5t-2.5 -18.5q-1 -6 -2 -19.5t-2 -19.5q-2 -14 -2 -41q-2 -27 -2 -82t2 -82q0 -3 6 -78q11 -72 11 -76q2 -10 7 -31.5t7 -31.5q2 -6 8 -25.5t8 -27.5q21 -36 23 -39q7 -13 18 -21l7 -6q-3 2 -7 6q-11 3 -24 19 q-27 39 -43 90q-3 12 -8.5 32.5t-8.5 32.5q-6 24 -14 76q-4 22 -8 78q-4 29 -4 84zM465 4l12 4q24 9 37 19q8 3 23 14q13 13 26 18q8 10 27 29q2 2 5 7t5 7q3 2 7 8.5t7 8.5q38 53 52 80q1 1 2.5 5t3.5 8t4 7q8 15 10 27q10 24 16 47q6 13 9 26q1 4 6 29q3 11 12 53 q0 11 4 27q0 21 2 29q2 18 2 57t-2 59l-8 56q-3 30 -25 106q-11 47 -36 96q-11 27 -48 80q-33 42 -53 60q-23 23 -47 30q-24 15 -37 15l-14 4q6 0 14 -2q28 -6 37 -10q59 -23 109 -90q60 -70 92 -177q22 -64 29 -108q3 -15 8 -60v-59v-57q-2 -10 -2 -31q-5 -25 -6 -31 q0 -1 -4.5 -21.5t-8.5 -31.5q-1 -4 -6 -29q-2 -4 -5 -13t-5 -13q-2 -11 -10 -29t-9 -20q-3 -14 -12 -25q-2 -4 -3.5 -7.5t-3.5 -8.5t-3 -9q-9 -16 -55 -75q-8 -13 -15 -17q-8 -12 -12 -16q-4 -5 -29 -25q-4 -3 -13 -9t-13 -9q-5 -3 -14 -8t-11 -6q-25 -13 -37 -15z" />
<glyph unicode="&#xf3;" horiz-adv-x="776" d="M23 514q0 137 46 254t125 185.5t171 68.5q91 0 169.5 -68.5t124.5 -185.5t46 -254q0 -140 -46 -258.5t-124 -187t-170 -68.5q-141 0 -241.5 150.5t-100.5 363.5zM219 512q0 -194 41 -329.5t105 -135.5q66 0 112.5 135.5t46.5 327.5q0 191 -46.5 325t-112.5 134 q-65 0 -105.5 -131.5t-40.5 -325.5zM226 1150l1 5q2 6 7.5 9.5t10.5 3.5l5 1q20 3 43 19l20 20l35 66q14 21 19 26q26 38 72 45t81 -22q15 -15 23 -27q4 -7 5 -15t0 -13l-1 -4q-2 -6 -7 -10t-10 -4l-4 -1q-22 -3 -41 -16q-13 -10 -20 -21q-51 -90 -57 -96 q-26 -37 -71.5 -43.5t-80.5 21.5l-2 2q-13 10 -23 26q-3 8 -4 16t-1 12zM250 512q0 -82 12 -164q8 -56 14 -78l6 -24t7.5 -28.5t8.5 -27.5t11.5 -29.5t13.5 -24.5t18 -23t21 -15l7 -4q-3 0 -7 4q-24 18 -36 45t-21 68q-9 26 -12 63q-20 128 -21 154q-2 29 -2 84 q0 125 19 236q6 42 10.5 64.5t21 57t41.5 52.5l7 2q-3 0 -9 -2q-36 -19 -60 -67t-33.5 -120t-12.5 -115t-4 -108zM465 0q4 2 16 4q55 11 111 74q82 79 108 155q10 19 19 52q38 104 41 229q0 64 -10 115q-10 67 -31 112q-60 206 -199 269q-17 6 -39 10h-14q11 0 51 -12 q20 -10 47 -37q45 -45 58 -60q27 -45 43 -82q25 -46 39 -94q5 -19 13 -54t13 -54q8 -39 8 -113q0 -76 -8 -115q-5 -17 -13 -55t-13 -55q-28 -100 -117 -203q-16 -21 -49 -49q-16 -12 -34.5 -21.5t-28.5 -12.5z" />
<glyph unicode="&#xf4;" horiz-adv-x="776" d="M23 510q0 140 45.5 258t123.5 186t170 68q94 0 172.5 -68t124.5 -186t46 -258q0 -138 -45.5 -256t-125 -187t-172.5 -69q-91 0 -169.5 69t-124 187t-45.5 256zM138 1178l1 4q3 6 8.5 9.5t10.5 4.5h4q24 0 41 14v2q15 11 20 19l39 67q2 3 6 9.5t6 9.5q2 2 2 4q0 1 5 6 q9 14 16 19q0 2 2 2q24 24 63 24q43 0 70 -24l2 -2q7 -7 15 -19l6 -6v-4q2 -3 6 -9.5t6 -9.5l37 -67q16 -16 20 -19l2 -2q17 -14 41 -14q19 0 23 -14q2 -17 -6 -33v-2l-4 -8l-17 -17l-2 -2q-35 -29 -80 -22t-71 45q-1 1 -2 3t-2 3q-10 15 -15 20l-29 48l-24 -48 q-2 -3 -7 -10t-7 -10q0 -1 -5 -6q-25 -38 -70.5 -45t-80.5 22l-2 2q-11 11 -14 17q-1 2 -7 8v2q-4 7 -5.5 15.5t-1.5 13.5zM217 508q0 -193 41 -326t104 -133q67 0 114.5 134t47.5 323q0 191 -47.5 326t-114.5 135q-64 0 -104.5 -132.5t-40.5 -326.5zM248 508q0 -53 2 -82 q2 -27 10 -82q7 -47 14 -74q3 -20 17 -65q11 -47 43 -92q11 -14 22 -21l6 -2q-2 0 -6 2q-10 10 -18 23q-18 37 -19 39q-19 50 -20 55q-1 11 -5.5 33t-6.5 32q-2 13 -5.5 37.5t-5.5 34.5q0 1 -3 32.5t-3 47.5q-4 29 -4 82q0 57 4 84q0 27 2 41q2 10 2 37q1 6 3.5 19.5 t3.5 19.5q0 12 4 36q8 46 12 66q2 9 9.5 29.5t8.5 23.5q4 4 4 10q1 2 3.5 5.5t3.5 5.5q1 3 5 9t5 7q12 16 20 19l6 4q-2 0 -8 -2q-11 -4 -20 -19q-13 -13 -15 -16q0 -4 -6 -10q0 -1 -2 -5t-2 -6q-9 -15 -22 -53q-12 -36 -17 -65q-2 -7 -4 -20t-2 -15q-5 -35 -6 -41t-2 -19 t-2 -18q0 -15 -4 -43q-2 -27 -2 -84zM465 -2l16 4q11 0 35 14q11 8 25 13q3 4 7.5 7.5t10.5 7.5t10 7q4 4 13.5 12.5t13.5 12.5l14 14q3 2 8 8t7 8q34 40 53 78q2 4 5 12.5t5 12.5l12 24q17 34 23 48q1 7 4 16.5t4 11.5q1 4 4 13.5t4 13.5q9 42 11 57q4 20 4 31q2 8 2 31 q4 32 4 55q0 21 -4 61q0 28 -6 58q-6 36 -27 110q-39 113 -94 176q-56 74 -111 93l-35 10l-16 2q6 -2 16 -2q3 -2 15 -6t20 -8q22 -11 49 -35q25 -20 51 -60q33 -42 50 -82q23 -44 37 -94q16 -46 26 -106l6 -60q2 -16 2 -57q0 -37 -2 -55q0 -21 -2 -29q-1 -5 -2 -14.5 t-2 -14.5q-2 -8 -5 -27.5t-5 -27.5q-4 -19 -10 -27q-2 -10 -6 -26q-3 -8 -9.5 -24.5t-9.5 -24.5q-1 -4 -5 -12.5t-5 -12.5q-8 -12 -8 -22q-9 -17 -29.5 -46.5t-22.5 -33.5q-9 -14 -14 -17l-12 -12l-27 -27q-3 -2 -12 -10t-14 -14q-2 -1 -23 -15q-21 -12 -33 -16z" />
<glyph unicode="&#xf5;" horiz-adv-x="776" d="M27 512q0 139 45.5 256.5t123.5 185.5t171 68t171 -68t123.5 -185.5t45.5 -256.5t-45.5 -256.5t-123.5 -185.5t-171 -68t-171 68t-123.5 185.5t-45.5 256.5zM121 1141q4 44 41.5 72t81.5 20q3 0 16.5 -2t75 -9.5t160.5 -17.5q18 0 28 2q26 4 43 15q1 2 3.5 3.5t9 5 t12.5 -0.5q12 -9 20 -29l4 -10q0 -17 -2 -25q-5 -46 -41 -73.5t-81 -18.5q-5 1 -17.5 3t-17.5 3l-217 21q-10 3 -29 0q-24 -3 -41 -17q-2 -2 -4.5 -3.5t-9.5 -4.5t-11 2q-14 9 -22 27q-2 6 -2 37zM219 510q0 -193 41 -326t107 -133q43 0 79.5 62t57 167.5t20.5 229.5 q0 123 -20.5 228t-57 167t-79.5 62q-66 0 -107 -131.5t-41 -325.5zM248 510q0 15 1 43t1 41q4 24 4 41q1 6 2 19.5t2 19.5t3 18.5t3 18.5q1 7 6 37q1 7 19 67q9 27 22 53q1 1 6 11q4 4 7 10q2 3 6 8t6 8q14 14 20 17l11 4q-5 0 -9 -4q-7 -5 -20 -21q-2 -4 -10 -16 q-4 -4 -4 -11q-1 -2 -3.5 -5t-3.5 -5q-18 -42 -30 -119q-4 -24 -4 -36q-7 -21 -7 -37q-1 -7 -2 -20t-2 -19q-2 -14 -2 -41q-4 -54 -4 -82q2 -64 10 -160q11 -45 13 -71q13 -60 16 -68q5 -25 17 -53q9 -24 18 -39q5 -7 18 -21l9 -6q-5 2 -9 6q-2 0 -20 19q-29 37 -45 90 q-18 59 -19 67q-8 33 -14 74q-12 86 -12 162zM467 2q4 2 14 4q8 2 35 19q8 3 23 14q59 46 127 156q73 158 73 319q0 19 -4 55q0 28 -6 58q-8 51 -24 106q-11 40 -37 98q-24 47 -50 80q-23 33 -51 58q-21 21 -49 35q-21 12 -37 12l-12 4q4 0 12 -2q25 -5 39 -12 q54 -21 109 -88q59 -75 92 -181q21 -59 29 -108q1 -9 3 -29t3 -29q2 -18 2 -57q0 -10 -1 -30t-1 -29q0 -5 -1 -14.5t-1 -14.5q-1 -5 -2 -15.5t-2 -15.5q-1 -3 -5 -23.5t-8 -31.5q-5 -22 -8 -27q-5 -20 -8 -26q-3 -8 -9.5 -25.5t-9.5 -25.5q-2 -5 -12 -25t-12 -23 q-24 -44 -53 -77q-11 -17 -29 -31q-8 -11 -29 -27q-16 -12 -26 -18q-5 -4 -13.5 -9t-9.5 -6q-28 -14 -37 -14z" />
<glyph unicode="&#xf6;" horiz-adv-x="790" d="M29 512q0 212 100 361t242 149q92 0 170 -68t124 -185.5t46 -256.5t-46 -257t-124 -186.5t-170 -68.5q-142 0 -242 150t-100 362zM63 1163q0 37 27 63.5t64 26.5q35 0 61.5 -26.5t26.5 -63.5q0 -35 -26.5 -62.5t-61.5 -27.5q-36 0 -63.5 27.5t-27.5 62.5zM221 510 q0 -192 42.5 -325.5t107.5 -133.5q42 0 78.5 61t57.5 166.5t21 229.5q0 125 -21 230.5t-57.5 167t-78.5 61.5q-65 0 -107.5 -132t-42.5 -325zM227 1073q19 10 30 32.5t12 40.5l1 17q-2 33 -12.5 55.5t-20.5 28.5l-10 6q22 -7 35.5 -29.5t15.5 -41.5l3 -19q0 -22 -5.5 -39.5 t-13.5 -26.5t-16 -15t-14 -8zM252 510q0 57 4 84q0 27 2 39q4 24 4 41q3 18 6 39q1 5 3 17.5t3 17.5q7 29 19 65q25 93 67 109l11 2q-5 0 -11 -4q-2 -1 -4.5 -4t-6.5 -7.5t-7 -7.5q-9 -14 -10 -16t-3 -5.5t-3 -5.5q-4 -8 -4 -10q-16 -37 -19 -53q-9 -29 -12 -66l-6 -36 q-4 -24 -4 -39q-5 -30 -5 -37q0 -6 -1 -20t-1 -21q-2 -27 -2 -82v-82q2 -13 4.5 -39.5t4.5 -38.5q10 -65 12 -74q7 -44 14 -67q2 -11 8.5 -29t8.5 -24q10 -27 20 -37q9 -15 18 -21l9 -6q-5 0 -11 4q-16 16 -20 21q-23 27 -45 90q-2 6 -8 28.5t-11 36.5q-2 13 -7 37t-7 37 q-1 9 -2.5 25t-2.5 29t-1 26q-4 27 -4 84zM457 1163q0 37 26.5 63.5t63.5 26.5q38 0 65 -26.5t27 -63.5q0 -36 -27 -63t-65 -27q-36 0 -63 27t-27 63zM471 0q4 2 12 4q16 4 37 16q3 3 6.5 5.5t8.5 6t8 5.5q1 1 10.5 8.5t15.5 11.5q3 4 12 14t13 15q8 6 14 14q2 3 6.5 8.5 t6.5 8.5q20 23 49 78q2 3 5 11t5 11q5 7 12 25q2 7 9 23.5t10 25.5q4 16 6 26q6 12 6 27q1 2 12 53q1 5 2 14.5t2 14.5q0 4 1 14t1 15q2 18 2 57t-2 59q-5 44 -8 54q-5 48 -22 108q-17 48 -39 98q-9 19 -47 78q-24 33 -54 60q-24 25 -49 35q-18 10 -37 14l-14 2q6 0 14 -2 q12 0 39 -10q54 -24 111 -90q56 -75 92 -179q22 -76 27 -110q2 -9 4 -28.5t4 -29.5q0 -9 1 -29t1 -30q-2 -20 -2 -59q-4 -20 -4 -29q0 -5 -1 -15.5t-1 -15.5q-4 -19 -15 -55q-3 -12 -6 -27q-3 -6 -8 -26q-3 -11 -10.5 -29.5t-9.5 -22.5t-6.5 -12t-6.5 -12q-2 -3 -12 -23 q-30 -54 -51 -75q-7 -7 -15 -19l-14 -14q-5 -5 -15 -13t-14 -12q-2 -2 -26 -20l-25 -15q-19 -10 -37 -14zM625 1073q18 10 28 32.5t11 40.5v17q-1 33 -10.5 55.5t-19.5 28.5l-9 6q21 -7 33.5 -29.5t15.5 -41.5l2 -19q0 -22 -5.5 -39.5t-13 -26.5t-14.5 -15t-13 -8z" />
</font>
</defs>
</svg>
