<?xml version="1.0" standalone="no"?>
<!DOCTYPE svg PUBLIC "-//W3C//DTD SVG 1.1//EN" "http://www.w3.org/Graphics/SVG/1.1/DTD/svg11.dtd" >
<svg xmlns="http://www.w3.org/2000/svg" xmlns:xlink="http://www.w3.org/1999/xlink" version="1.1">
<metadata></metadata>
<defs>
<font id="phantom_fingersregular" horiz-adv-x="996" >
<font-face units-per-em="2048" ascent="1638" descent="-410" />
<missing-glyph horiz-adv-x="981" />
<glyph horiz-adv-x="0" />
<glyph horiz-adv-x="0" />
<glyph unicode="&#xd;" horiz-adv-x="550" />
<glyph unicode=" "  horiz-adv-x="981" />
<glyph unicode="&#x09;" horiz-adv-x="981" />
<glyph unicode="&#xa0;" horiz-adv-x="981" />
<glyph unicode="!" horiz-adv-x="710" d="M100 1697q51 229 90 497v166q0 29 -13 51q0 13 13 13q0 191 -90 447v51l90 25q25 -4 25 -25l153 38q0 -17 115 -51q0 -21 102 -102q0 -17 26 -140q-29 0 -77 -217l13 -90v-63q0 -103 -38 -332q21 -47 38 -204q-64 -218 -77 -332q26 -77 26 -191h-13q13 -25 13 -39 q-29 -140 -51 -140q51 -240 51 -306l-13 -26q13 -22 13 -51v-38q-77 -135 -77 -294q26 -153 26 -166q-26 -76 -51 -76h-26q-51 0 -127 408q-39 425 -90 676h13q-21 56 -51 485q-13 0 -13 26zM202 -357q0 136 153 178q0 13 39 13q191 -34 191 -153h-13l13 -26 q-59 -164 -89 -204q-281 42 -281 128q-13 0 -13 13v51z" />
<glyph unicode="&#x22;" horiz-adv-x="969" d="M6 2932v38q26 0 26 13q187 0 382 -140q0 -20 -51 -51q15 -61 51 -102q0 -13 -13 -13q19 -72 51 -115q-118 -164 -165 -344q-13 0 -13 -51v-178q0 -29 -64 -38q-140 420 -140 662v141q0 28 -13 51q0 12 13 12q-7 115 -64 115zM529 2919l64 13h38v-25q13 0 13 12 q261 -25 293 -51q-38 -79 -38 -114q25 -4 25 -26q0 -13 -13 -13q48 -105 64 -165q-30 -217 -64 -217q0 -97 -89 -229l-76 -217q0 -230 -90 -230v39q-89 432 -89 624v357q0 29 -13 51q13 23 13 51v13q0 14 -38 127z" />
<glyph unicode="#" horiz-adv-x="1686" d="M-145 1518v26l319 76q0 100 217 115q63 216 63 306q-25 0 -25 26h13q115 -55 115 -243v-102h165q29 0 51 13q13 0 13 -13l89 13h90q38 0 51 536l76 331h26q20 0 63 -89v-140q0 -106 -25 -485q10 -140 51 -140h77q48 0 395 -64h13v-51q-11 -30 -166 -77q-25 13 -38 13 q0 -17 -115 -51q-1 -24 -141 -76v-13q108 -229 128 -344h64q382 -28 382 -64v-51q-37 0 -165 -39h-51q-60 -88 -192 -140q-76 0 -76 -38q13 -25 13 -38l-26 -13v25h-13q0 -51 -64 -51v-140q0 -25 -25 -25h-64v51q-33 204 -102 204q-123 0 -408 102v-13l13 -153 q-33 0 -51 -102v-115q-92 0 -128 217q0 229 -166 229l-25 -12h-51q-140 32 -140 63q195 77 293 77q-26 127 -26 230q0 64 13 191h-64l-38 25h-25l-39 -25h-306q-18 0 -38 38zM659 1072h38q186 25 204 25l64 -12l12 25q0 14 -12 38l25 243h-76q-57 -51 -64 -51h-13 q-104 0 -166 38l-12 -128v-178z" />
<glyph unicode="$" horiz-adv-x="1731" d="M5 613h38q89 -128 140 -255q18 -47 179 -77q174 -140 191 -140q-15 245 -38 280q0 13 13 13l-13 128v127q0 68 -115 140l-178 268q25 31 25 51l-64 332q13 25 13 38l-13 26q13 24 13 38q0 13 -13 13l13 63v13q0 223 -76 281q0 13 12 13l-51 89q4 25 26 25l-77 166v13h38 q168 -30 460 -293h38v25q4 191 25 191q-12 13 -25 192h13q102 -114 102 -230q0 -13 -13 -13l13 -63v-141q178 -51 204 -51q13 460 64 753h12l-12 25v90h25q102 -42 102 -332v-89q0 -13 -13 -13l13 -26q-9 -178 -25 -178q9 -29 25 -166h-13l13 -25v-90q154 0 344 -178 q141 -251 141 -383l-26 -13q-178 104 -178 128q-43 63 -153 102v13h-13v-26h-77v-51q26 -104 51 -421h-12q25 -52 25 -76q77 9 77 25q484 -79 484 -140v-13l-38 -51l13 -115q-8 -114 -26 -114l13 -26q-13 -25 -13 -38t13 -13q0 -36 -38 -217v-25q89 -368 89 -396 q-15 -268 -51 -268l13 -25q-29 -64 -38 -64q38 -64 38 -102q0 -25 -26 -25q-63 0 -127 76q-214 76 -217 140v26h-64q-25 -4 -25 -26q25 -4 25 -25q-25 -41 -25 -64q25 -115 25 -166q0 -25 -25 -25h-13q-47 51 -166 344q-50 51 -293 128h-26q-25 -151 -25 -192q12 -24 12 -38 h-12l12 -25l-12 -64h-26q-52 0 -115 383q-157 0 -293 204l-153 165q0 37 -64 77q0 56 -51 64v25h26l25 -13v13q-22 20 -76 294zM668 1544q0 -35 25 -77h-12q115 -302 115 -421h-13q0 -76 127 -76v433l-12 64h-90q0 31 -127 89h-13v-12zM757 498q39 -170 77 -459l153 -64h13 q0 25 12 25q-51 194 -51 523q0 41 -102 64v13l-25 -13h-26l-25 13q-26 -79 -26 -102zM1216 472l13 -63v-281l13 -153h-13q0 -131 179 -153q51 0 51 13q-77 119 -77 446q-21 0 -38 204z" />
<glyph unicode="%" horiz-adv-x="1009" d="M77 2603q62 332 280 332q117 -34 166 -128q102 -177 102 -217q-25 -133 -51 -166q0 -9 13 -76q0 -138 -166 -268q-82 -51 -115 -51q-98 0 -217 293q0 13 13 13l-13 64v127zM102 -141l13 64v90q0 12 13 12q0 13 -13 13q0 40 64 243q89 652 89 676q0 361 128 485 q0 51 166 331q76 256 102 524q25 280 89 561q-13 67 -13 128v38h26q76 -55 76 -141v-12q0 -225 -64 -472q26 -58 26 -166v-39q-51 -392 -140 -752q-35 0 -102 -281q-166 -406 -243 -957q-115 -122 -115 -600q0 -41 51 -115v-12q0 -18 -63 -51q0 117 -77 242q0 73 -13 89 q13 23 13 58q0 44 -13 44zM230 2616q0 -40 64 -230v-128h12q55 9 166 294q0 103 -115 229h-12q-55 -28 -115 -165zM485 -153q38 281 115 383h115q75 -76 153 -90l115 -127l12 -77v-25q0 -90 -25 -90l13 -25q-63 -332 -268 -332q-141 0 -141 89q-57 0 -89 294zM587 -243 q38 -120 38 -127h26q47 0 153 306q-35 140 -153 140q-64 -188 -64 -319z" />
<glyph unicode="&#x26;" horiz-adv-x="1967" d="M66 2411q13 278 64 396q132 197 370 242l166 -114l64 -77l-26 -38v-26q56 0 89 -204q-12 -38 -25 -38q0 -13 13 -13q0 -17 -26 -140l13 -26q0 -13 -13 -13l13 -63v-64q-26 -90 -77 -383v-153q0 -13 -12 -13q0 -13 12 -13q0 -25 -12 -25q0 -11 12 -102l-12 -166 q0 -65 114 -230q90 -191 115 -383q26 -29 102 -280q85 123 102 191q110 89 154 89h25q286 0 421 -331q0 -39 13 -90q0 -187 -383 -293q-100 49 -115 127q0 29 -51 90q88 127 166 127q140 0 140 -38v-38q-8 0 -76 -26q0 13 -13 13l-25 -38v-38l12 -64h64q153 95 153 242 q-48 255 -242 255q-124 -36 -204 -255q-51 -261 -51 -332l12 -25q0 -13 -12 -13q0 -43 76 -255h-13q84 -201 128 -281q23 0 166 -217q19 0 166 -115q127 -25 255 -25v-26h25q195 39 307 90q-75 -115 -192 -115q0 -30 -102 -38q-421 64 -421 127q-136 96 -344 383 q-77 116 -77 140q-124 -120 -268 -204v-13h-178q-13 0 -13 13l-26 -13h-102q0 39 -166 90q0 29 -51 64q-64 0 -115 421v127q0 39 -12 39l12 63v90q0 486 205 957q0 18 -64 165h13q-39 189 -90 358q-153 117 -153 548zM347 2577q51 -159 64 -331q25 0 25 -90h-13 q39 -84 39 -178h12q115 356 115 586q0 13 -12 13l12 64v38q0 115 -102 115q-127 -110 -127 -127zM398 268q23 -115 38 -115q0 -26 -13 -26q13 -387 51 -484h77q242 0 242 229l90 281v13q-128 485 -358 791h-12q-74 -199 -102 -549q12 -22 12 -51q0 -89 -25 -89zM2210 -791 q0 29 64 38q0 -29 -64 -38z" />
<glyph unicode="'" horiz-adv-x="364" d="M-76 2932v26q92 38 115 38l191 -38l26 12q89 0 89 -89q-26 -4 -26 -25l39 -64v-13q0 -46 -13 -115q13 -24 13 -38l-26 -51l13 -25q-22 -89 -38 -89l12 -26q-42 -29 -76 -166h-77v64q-55 0 -127 548q-68 51 -115 51z" />
<glyph unicode="(" horiz-adv-x="934" d="M-28 791q0 14 13 38l-13 64q0 172 51 587h-13q132 514 255 676q59 54 243 332q307 435 497 510l13 -26v-13q-16 0 -140 -165q-87 -25 -345 -638q-120 -188 -191 -663q13 0 13 -13q-31 0 -39 -128q13 -24 13 -38q0 -13 -13 -13q0 -9 13 -76q-20 -294 -38 -294l13 -25 q-10 -51 -26 -51l13 -26v-242h13l-13 -25q0 -123 140 -638q53 -169 319 -408q148 -174 191 -192q0 -38 39 -38v-38h-39q-323 92 -714 689q-255 533 -255 854z" />
<glyph unicode=")" horiz-adv-x="1127" d="M-194 -663q72 0 217 153q-13 0 -13 13q186 144 344 497q141 291 141 345q34 25 153 370h12l-12 25v13q56 0 114 344q26 128 26 255v39q0 28 13 51q0 177 -243 867q-305 442 -510 510q0 38 -127 128v25h51q481 -267 523 -382q274 -189 357 -447q93 -178 153 -357h-13 q102 -271 102 -472l-26 -140l13 -26l-13 -25l13 -26q0 -45 -204 -676q-73 -86 -153 -268q-27 0 -89 -140q-142 -128 -192 -255q-59 -47 -102 -140q-82 -128 -102 -128q-25 0 -216 -178q-72 -39 -141 -39q-76 30 -76 51v13z" />
<glyph unicode="*" horiz-adv-x="1300" d="M-53 2282h13q385 -244 484 -268q0 -8 64 -51h26v26q7 176 38 191q0 13 -13 13q0 36 115 369q0 41 38 115h38q0 -29 39 -76v-153q25 -289 76 -357v-13q0 -13 -13 -13q17 -76 39 -76q41 59 369 331q0 17 64 64v-38q0 -15 -25 -140v-26q-46 0 -179 -191q-146 -144 -178 -293 q20 -9 89 -192v-38h25q0 -13 -12 -13q89 -203 89 -216l-26 -13q-57 0 -242 153h-25q-31 -102 -39 -102l13 -26l-64 -318q0 -28 26 -192h-13l13 -25v-26q0 -20 -51 -51h-26q-38 209 -38 243h13l-13 25q0 13 13 13l-64 395h-25q-137 -57 -268 -127q0 -16 -204 -141 q-51 19 -51 39q168 484 280 484q58 89 102 89v13q-114 100 -114 115v102q0 72 -141 127q-228 136 -229 217q-13 22 -13 51z" />
<glyph unicode="+" horiz-adv-x="1508" d="M-257 817v25h13q199 0 586 166q128 93 128 140q41 485 127 485q33 0 51 395v77h13q56 0 64 -523q57 -65 102 -319q56 -166 191 -166q396 -204 561 -204l13 -25v-13q0 -48 -229 -89h-77q-53 0 -140 12q-25 -12 -39 -12l-204 63v-12q0 -37 -89 -230q0 -80 -89 -332 q0 -42 -13 -63q13 -23 13 -51l-13 -77q26 -65 26 -102q-51 -172 -64 -268h-26q-127 408 -127 957l-26 13h-51q-32 -26 -38 -26h-38q-29 0 -51 13l-26 -13q-179 72 -217 102h-89q0 64 -64 64q-108 13 -178 13z" />
<glyph unicode="," horiz-adv-x="199" d="M-54 -497q44 280 204 280q135 0 192 -153l-13 -115q13 0 13 -12l-77 -128q-34 -21 -89 -140l-77 -51l-63 25q51 88 51 153v39q-119 102 -141 102z" />
<glyph unicode="-" d="M-251 829v13q197 268 434 268q356 -140 434 -140q101 0 382 38l26 -13q25 13 38 13l26 -38v-13q-135 -117 -447 -217h-38q-32 0 -306 102h-64q-38 -25 -153 -51q0 13 -13 13q0 -35 -127 -51q-107 64 -192 76z" />
<glyph unicode="." horiz-adv-x="351" d="M-53 -408q0 123 153 280h39q204 -31 204 -204q38 -73 38 -89q0 -153 -115 -153q-293 48 -293 153z" />
<glyph unicode="/" horiz-adv-x="1265" d="M-177 -548q64 408 217 765l370 893q0 22 140 357l-12 26v12q49 0 127 332q54 100 89 217q46 71 192 446q217 357 242 357q13 0 38 51v64h-25v13h102v-13h-26v-115l-127 -318q-67 -72 -166 -472q-146 -389 -166 -396l13 -25q-26 -37 -51 -166q-89 -320 -153 -434l13 -25 l-153 -408q-154 -309 -294 -651l-242 -459q-14 0 -64 -77q-64 0 -64 26z" />
<glyph unicode="0" horiz-adv-x="1418" d="M112 1148l64 383q-13 179 -13 306v51q102 561 204 714q202 370 268 370h345q0 -13 12 -38q0 -13 -12 -13q0 -196 127 -536q121 -325 153 -548q13 0 13 -25q0 -217 -64 -396q0 -9 13 -76q0 -684 -64 -1085l13 -25q0 -111 -77 -370l13 -25q-51 -140 -89 -396l-89 -76 q-34 0 -192 114q-374 227 -472 536q-102 472 -153 1135zM431 1301l26 -89l-13 -51q64 -638 77 -995q12 0 12 -13l-12 -25q51 -389 153 -472q12 -34 153 -115h25l38 230l-12 25q12 25 12 39l-12 25q12 25 12 38t-12 13l12 64v127q0 46 -12 115l12 26q0 12 -12 12 q12 205 25 205l-13 63v102q0 319 39 319q-13 150 -13 217v268q0 29 13 51l-51 293h12l-12 26q0 13 12 13q-41 484 -89 484q-22 0 -64 -76q-83 0 -153 -281q-140 -334 -140 -434q0 -131 -13 -204z" />
<glyph unicode="1" horiz-adv-x="916" d="M-15 2194v51q89 364 89 408q99 153 205 192q43 0 89 89q6 0 51 13q56 0 127 -77q149 -44 179 -344v-38q0 -205 -38 -205l12 -25v-115q0 -60 -12 -127q51 -345 51 -485l-13 -51q13 -25 13 -38l-39 -26l13 -25q-20 -120 -89 -230l13 -89v-64l-13 -77q0 -12 13 -12l-13 -77 q0 -38 38 -217v-63q0 -29 -13 -51q13 -23 13 -51v-77q0 -13 -13 -13l13 -25v-90l-25 -395h-13q0 -13 13 -13l-13 -63q13 -243 38 -383q-16 -64 -38 -64h-26q-106 95 -178 472q0 54 -38 357q12 143 25 689q-127 583 -127 1135v191h-26q-77 -125 -77 -165q26 -42 26 -77v-64 h-13q-114 0 -204 319z" />
<glyph unicode="2" horiz-adv-x="1315" d="M29 1939v64q51 332 153 472q273 303 485 408q14 1 140 153q128 -102 128 -115h-13q25 -42 25 -76q0 -43 -38 -90v-38q89 -210 89 -332q13 0 13 -12q-13 -25 -13 -39q13 -70 13 -102h-13q0 -12 13 -12l-13 -90q13 -67 13 -76q-25 -50 -25 -140v-26l12 -76q-12 -25 -12 -39 q25 -41 25 -64q-13 0 -13 -12q26 -4 26 -26q-26 -169 -26 -178l13 -51q-44 -250 -102 -281l13 -25q-26 -30 -115 -434q-166 -166 -166 -242q-18 -2 -76 -141q-153 -191 -217 -344q-38 -104 -38 -140v-90h12q210 51 268 51h26q119 0 357 -76q29 0 51 -13q68 18 115 115v13 q0 42 -39 89v38h13q93 0 204 -140q0 -73 -25 -153q13 -23 13 -51q-47 0 -115 -153q-25 -13 -38 -13v13l-26 -13q-13 0 -13 13q-22 -3 -102 -64h-89q-228 64 -344 64q-39 0 -39 -39h-89v-38l-25 13h-52q0 -48 -102 -64h-25q-59 0 -140 128h-13l13 25q-39 88 -51 230 q165 680 229 842q144 357 192 727q15 0 38 153h-13q26 29 51 306q64 247 64 548h-13q-62 -18 -153 -217q-79 0 -115 -114q-68 0 -102 -166q26 -204 26 -217l-26 -13q-146 0 -204 370z" />
<glyph unicode="3" horiz-adv-x="1560" d="M40 -38v77q43 0 51 89q120 154 306 281q102 0 102 -77q-165 -241 -165 -293v-77q0 -22 318 -293h13q258 169 344 446q42 128 52 128q0 12 -13 12l13 64q0 78 -77 715q0 299 -38 446q12 0 12 13l-306 63q-114 -34 -114 -102h-39v26l-63 -64q-71 0 -77 115q4 113 179 497 q118 159 216 472l-63 13q-23 -13 -51 -13q0 21 -90 39l-25 25l-26 -13h-12q-13 0 -13 13l-26 -13l-25 13q-51 -35 -89 -102h-39l-140 191v39l13 25q-39 0 -77 140q137 90 179 90q0 18 38 38h13q25 0 25 -38h64q139 0 230 51q24 -13 38 -13q0 33 242 64h64q108 0 306 -102 q99 0 128 -64h25q21 51 89 51v-26q-47 0 -178 -216q-161 -174 -230 -345q-67 0 -204 -268q-20 0 -76 -102q268 -106 268 -242v-38q57 0 102 -90q83 0 165 -306q13 -113 13 -140l-25 -13q25 -46 25 -102h-13q22 -80 39 -204h-13q0 -13 13 -13q-13 -125 -51 -165v-166 q0 -26 -26 -26q26 -64 26 -89q-10 -77 -26 -77l13 -25l-140 -357q-80 0 -166 -268q-16 0 -141 -191q-9 0 -140 -51h-76q0 -39 -90 -102q0 -64 -38 -64h-13q-63 0 -165 127q-24 0 -64 77q-192 133 -192 319q-12 3 -76 115q13 22 13 51q-26 0 -26 25z" />
<glyph unicode="4" horiz-adv-x="1595" d="M28 1365q0 10 12 77q-12 0 -12 12q89 45 89 141q0 12 -13 12q13 147 26 166q0 13 -13 13l13 89v166l76 383v12l-13 77l13 26q-13 24 -13 38l39 25h25q35 0 89 -293q0 -108 26 -204q-13 -25 -13 -38q26 -130 77 -255q38 -186 38 -217h-13q35 -55 51 -141q-25 -64 -25 -89 q91 -13 102 -13q224 13 268 13v38q0 29 -13 51q0 13 13 13l-13 153v179q0 28 13 51q-13 24 -13 38h13l-13 26v127q0 13 13 13l-13 25q0 13 13 13q-13 25 -13 38q-26 330 -26 485q0 123 64 230v76q-38 0 -38 26v38h13q140 -66 140 -166q51 -107 153 -408q102 -184 230 -816 q-13 -38 -13 -128h13v-13q0 -12 -13 -12q13 -64 25 -64q306 32 306 76h39v-89l-268 -140l-77 -26v-76q0 -29 13 -51l-13 -26l13 -64h-13q26 -71 26 -204q-13 -38 -26 -38l13 -25q0 -139 -102 -498q13 -22 13 -51q0 -13 -13 -13q13 -24 13 -38q0 -64 -26 -64l13 -25v-13 q-102 -118 -153 -434q-22 0 -26 -63v-13l13 -26q-25 0 -38 -76q13 -87 13 -140l-39 -26q-89 0 -89 140q-17 90 -38 90q0 25 13 25q0 325 -115 868q0 9 13 76q-13 45 -13 51q0 26 13 26q-26 290 -26 433h-13q-22 0 -114 -38q-11 0 -204 51q-89 0 -192 -77h-51q0 32 -102 141 q0 79 -89 242q-38 78 -38 102z" />
<glyph unicode="5" horiz-adv-x="1447" d="M88 2934v25q7 0 51 13q104 0 255 -64h13q102 0 268 -12q138 25 293 25h179q344 -19 344 -76v-13q0 -43 -395 -89v-13q13 -25 13 -38q-115 -60 -115 -230l-26 -13h-12q-89 90 -166 90l-191 -77q38 -56 38 -89q-13 -25 -13 -39l-64 13v-38q-51 -167 -51 -179l13 -25 l-13 -26q26 -83 26 -114v-51l64 12h51q42 0 178 -89q44 -43 153 -76q115 -75 115 -192q73 -100 102 -357l-13 -25q26 -42 26 -77q0 -13 -13 -13l13 -63q0 -74 -13 -205l13 -25q0 -13 -13 -13l13 -153v-242q0 -13 -13 -13l13 -25v-39q0 -38 -13 -38l13 -64v-51 q-26 -197 -141 -459q-178 -255 -267 -255q0 -12 -204 -115q-339 0 -396 549v89q63 108 179 166h25v-13q-102 -133 -102 -217q22 -319 89 -319q0 -42 154 -76q220 0 369 446q26 154 26 242v154q0 93 -102 1045q0 59 -89 77v13l-51 -39h-39q-12 0 -12 13q-170 0 -230 -102 q-180 0 -230 344q-34 55 -38 205v38q0 316 77 625q0 280 -102 280v26q0 13 12 13q0 38 -51 38z" />
<glyph unicode="6" horiz-adv-x="1568" d="M117 664q0 418 153 1007q22 0 77 179q227 492 357 625q244 335 485 433q38 0 38 39h89v-26q-63 0 -76 -102q-52 -74 -102 -102q-204 -264 -230 -561q-81 -383 -140 -383v-38q-47 -242 -90 -242q0 -13 13 -13q-76 -230 -89 -421l25 -13q134 217 268 217q0 26 115 38 l204 -89v-13l26 13q204 -240 204 -523q0 -35 115 -293q0 -32 12 -102q-21 -40 -38 -192l-102 -357q-19 0 -128 -217l13 -25v-26q-29 0 -127 -89h-204q-182 0 -319 89q-226 75 -396 332q-140 425 -140 816q0 14 -13 39zM602 64q0 -140 102 -331q203 -166 344 -166 q128 135 255 586v39q0 38 -89 306q0 19 -25 115h12q-47 293 -102 293q0 20 -25 51q-130 -78 -204 -217q-61 -70 -115 -89q-102 -182 -102 -332v-38q-51 0 -51 -204v-13z" />
<glyph unicode="7" horiz-adv-x="1375" d="M-44 2947q13 76 38 76l39 -25h51q100 0 497 63q507 -51 689 -102q44 -12 127 -12l-12 -26q25 0 25 -38l-102 -140q13 -25 13 -39h-13l13 -25v-38q-39 -147 -102 -268v-64q-42 0 -64 -140q-25 -3 -38 -90l12 -25q-102 -268 -127 -447q-38 0 -38 -127v-38q-29 0 -90 -102 q-29 0 -63 -102q-24 -14 -64 -153q-16 0 -64 -128q-13 0 -13 -13l13 -25q0 -18 -153 -523l13 -64q-33 -78 -77 -268l13 -25v-13q0 -13 -13 -13l13 -25q0 -94 -13 -141q13 -90 13 -153q0 -140 -38 -140h-39q-21 0 -76 370v204q0 82 -13 166q0 384 204 1160q-12 0 -12 13 q106 0 280 957q38 38 38 166q-103 0 -165 -39l-26 13q-102 -20 -102 -64q-65 0 -204 77h-89l-39 -26q-114 77 -114 141q-102 149 -102 191z" />
<glyph unicode="8" horiz-adv-x="1562" d="M74 166q0 13 13 13l-13 64v280q0 13 13 13q0 13 -13 13q0 503 255 969q10 0 76 77q-191 306 -191 408v38q89 586 294 855q41 25 63 25l-12 26q52 0 102 12v-12q79 0 114 89q51 0 51 51h13q103 0 166 -102q86 -38 102 -38l-13 -26q78 -106 128 -153v-13q-39 0 -39 -25 q0 -36 166 -587q0 -370 -178 -587v-12q170 -145 229 -306q13 0 13 -39v-114q30 0 38 -77q0 -13 -12 -13l12 -89v-51q0 -29 -12 -51q21 -81 38 -204l-13 -26q9 -76 26 -76l-13 -64v-25l13 -128q-32 -26 -39 -26l13 -25v-38q0 -94 -38 -102l13 -26v-38q-35 0 -77 -204 q-68 -50 -102 -128l-102 -76l-77 13h-12q-96 -39 -128 -64h-64v-13l39 -77h-217q-13 0 -13 13l-25 -13h-51q0 26 -13 26l-26 -13q-177 61 -370 319q-89 123 -127 357zM418 651q16 -131 26 -153l-13 -26l38 -229v-13q0 -13 -13 -13q22 -38 39 -229q0 -100 127 -204 q345 120 345 229q25 151 63 702v395q0 29 -12 51q12 25 12 38q0 166 -114 166l-51 13q-145 -77 -179 -77h-51q-51 -105 -51 -153q-66 0 -166 -497zM546 2181q12 -101 127 -229q113 -33 153 -64h13q140 206 140 230q0 12 13 12l-13 26q0 9 13 76q-13 25 -13 39h13 q-32 229 -102 229q-22 13 -51 13q0 -27 -115 -51q-106 -223 -140 -230z" />
<glyph unicode="9" horiz-adv-x="1558" d="M-46 -548q0 19 178 115q0 18 115 115q136 145 178 267q230 306 230 498l179 587q-39 0 -39 12q-12 0 -12 -12l-90 12h-25q0 26 -13 26l-51 -13q-219 91 -395 255q-34 81 -90 166q-102 245 -102 344q0 490 357 931q192 204 268 204q91 26 141 26q45 -8 89 -89 q254 -71 446 -421q0 -31 77 -166q0 -21 51 -153l-13 -64v-153l13 -76q0 -13 -13 -13l26 -179q-13 -21 -13 -64q0 -13 13 -38l-13 -76l13 -26q-39 -120 -39 -140q0 -14 13 -38q-29 -217 -76 -217l12 -128v-25l-38 -179l13 -25q-59 -167 -179 -294q0 -24 -191 -178 q-57 -172 -242 -319q0 -51 -154 -166q0 -34 -255 -255q0 -38 -114 -51q-85 -64 -141 -64h-51q-63 34 -63 51v13zM413 1620l255 -127q177 121 280 293l39 -25q38 209 51 331q-13 51 -13 89l13 166q-64 187 -204 268h-26q-152 -63 -217 -255q0 -34 -102 -242 q-29 -286 -76 -332q0 -14 12 -38q-12 -69 -12 -115v-13z" />
<glyph unicode=":" horiz-adv-x="376" d="M-62 1504v51q45 217 140 217q4 26 26 26q115 -90 229 -90v-25q0 -70 -12 -179q12 -24 12 -38q-75 -178 -165 -178q-157 0 -192 102q-7 73 -38 114zM-36 625q15 178 127 178q217 -56 217 -217q31 0 51 -153q-60 -153 -179 -153h-63q-153 110 -153 345z" />
<glyph unicode=";" horiz-adv-x="437" d="M-19 1492q0 213 127 267l64 13q105 -1 268 -191l25 -102q-121 -179 -216 -179q-217 36 -217 115q-8 0 -51 77zM-6 -204q140 349 140 446v89q-104 0 -140 192v38q0 13 12 13l-12 25v64q0 67 76 127h13q255 -71 255 -165q25 -4 25 -26q0 -284 -63 -370q-78 -433 -281 -433 h-25z" />
<glyph unicode="&#x3c;" horiz-adv-x="891" d="M-229 1136v25q288 266 549 306q0 57 599 77l13 -26v-38h-25q-31 0 -549 -191l-178 -64h-13v-13q480 -73 612 -166q117 -50 140 -102v-13l-89 13h-281q-116 0 -676 230q-43 0 -102 -38z" />
<glyph unicode="=" horiz-adv-x="1226" d="M-187 1046q233 268 409 268v-13q49 26 140 26h51q89 0 497 -115q408 -17 408 -89v-13q0 -42 -280 -102q-3 -10 -115 -51l-64 13q-35 -5 -64 -51q-69 -13 -114 -13q-56 0 -102 25q-71 -12 -102 -12q-103 51 -664 127zM-136 511v25q20 0 204 166l141 38q22 -13 51 -13 q38 13 38 26q505 0 816 -115q179 -17 179 -64q-5 -49 -166 -127v-38h-102q-30 -26 -255 -51q-56 -34 -242 -52q-326 141 -370 141l-90 -13q-14 0 -204 77z" />
<glyph unicode="&#x3e;" horiz-adv-x="935" d="M-136 1607q69 51 127 51q97 0 715 -153q188 -89 216 -89q51 13 90 13l12 -26q0 -161 -331 -204q-13 0 -13 13q-102 -13 -383 -140q-49 -38 -102 -38q-20 0 -153 12v13q193 215 383 268v13q-217 63 -395 165q-51 51 -115 90h-13l-26 -13z" />
<glyph unicode="?" horiz-adv-x="1318" d="M6 2271v64q0 217 230 536l166 115q68 25 76 25q13 -38 77 -38h38l39 25q305 0 395 -217q70 -102 89 -102q64 -195 64 -306l26 -204q0 -13 -13 -13l64 -446v-51q0 -13 -13 -13q0 -13 13 -13l-13 -89q0 -82 13 -166q-13 -97 -39 -128l13 -25q0 -102 -127 -102h-39 q0 -15 -115 -102q0 -19 -102 -115l13 -26v-51q0 -29 -13 -51l13 -25q-43 -221 -76 -256l12 -25q-21 -30 -51 -191l13 -64v-102q0 -98 -51 -115q-29 6 -76 204q-85 68 -128 344h13l-26 90q51 612 115 612q0 32 102 128q217 155 217 357v26q-38 162 -38 306v51q0 13 12 13 q0 90 -204 472h-12q-116 0 -217 -230q-55 0 -115 -166q13 -28 25 -166q-18 -72 -51 -114v-39q90 -94 90 -127l-26 -13q-78 0 -281 230q-102 226 -102 293zM517 -396q29 153 102 153q268 -43 268 -178q12 -21 12 -64q-14 -67 -153 -140q-174 0 -229 153v76z" />
<glyph unicode="@" horiz-adv-x="1796" d="M-125 1249v26q0 39 115 191l-13 26q36 3 153 267q175 258 459 345q86 63 127 63q44 -43 294 -165q344 -221 344 -345q0 -32 -51 -89l51 -127q0 -226 -77 -357v-13l26 -38v-51l-102 -90h-13q-57 0 -242 166q0 64 -38 64q0 -13 -13 -13q15 -20 25 -127q-130 -64 -255 -64 q-357 64 -357 280v13q0 94 102 281q67 41 115 191q0 22 -25 76q12 51 89 51q9 0 76 -12l77 12q25 -12 38 -12v-39q0 -71 179 -267q86 -265 114 -281q9 77 26 77q-26 132 -51 191l13 25q-26 82 -26 90q13 0 13 12q-65 0 -115 128q-25 19 -140 217h-38q-294 -108 -294 -179 q-180 -206 -229 -395q0 -38 -26 -38q13 -25 13 -39l-51 -89v-64q93 -149 179 -216q0 -31 63 -77q0 -89 281 -89q245 -128 280 -128h13q35 0 230 128q344 264 344 408q38 331 64 370q-137 410 -319 535q0 46 -166 115v25q182 -31 306 -127q38 -15 153 -179q204 -232 204 -433 q13 0 13 -13q-39 0 -51 -229q12 -22 12 -64q-25 -77 -38 -77l13 -25v-13q-20 0 -204 -242q-124 -86 -204 -179q-64 -60 -76 -140q-74 -64 -128 -64h-51q-138 0 -408 141l-204 -26q0 26 -153 64q-418 362 -446 637z" />
<glyph unicode="A" horiz-adv-x="1285" d="M65 970v51q0 28 13 51q-13 24 -13 38q13 112 13 128q-13 22 -13 51q42 0 115 280v51q-115 109 -115 511q0 319 140 382q212 77 268 115q53 90 307 153q17 53 242 128q0 30 179 64h63q95 0 103 -38v-26q-150 -22 -358 -217q0 -19 39 -153q0 -13 -13 -13l13 -25 q0 -13 -13 -13l13 -26v-216l12 -128h-12l12 -26q0 -12 -12 -12l12 -26q0 -13 -12 -13q12 -18 25 -140h-13q0 -13 13 -13l-13 -64v-25q0 -149 26 -204q-46 -396 -89 -396q-18 -68 -52 -89l-76 -102v-51q0 -37 38 -383q0 -27 -13 -140q23 -156 90 -268v-39q0 -45 -13 -114 l26 -90q-103 -502 -103 -612l13 -26l-13 -25q0 -13 13 -13l-13 -89v-77q0 -29 -63 -38q-26 55 -64 242q0 13 13 13q-64 477 -128 817v51q0 11 26 255q0 89 -13 281q25 62 51 178v141q0 63 -26 63q-115 0 -115 -38v-25q-36 41 -204 89v-13l26 -102l-26 -255q26 -84 51 -255 q0 -13 -12 -13q12 -25 12 -38q0 -100 -76 -345q38 -123 38 -204q0 -51 -64 -332q0 -109 -12 -229l12 -26q-20 -75 -76 -153l-26 179h13l-77 433q0 13 13 13l-13 64v115q-63 315 -63 370v76q0 82 12 166q-38 245 -38 409zM371 1454q16 -127 39 -127q41 0 268 -26 q-39 248 -39 562q0 207 90 485l-51 -26l-51 13q-54 0 -141 -179q-38 0 -38 -25q47 -106 64 -179q-21 -459 -128 -459q0 -39 -13 -39z" />
<glyph unicode="B" horiz-adv-x="1340" d="M84 2922v13q4 25 26 25q28 0 51 -13q13 0 13 13q199 0 421 -217q116 -43 293 -179q255 -150 306 -267v-103q0 -28 -12 -51q51 -148 51 -331q-36 -50 -64 -307q-101 -170 -141 -191q-140 -58 -140 -76q319 -102 319 -230v-26l-13 -76q26 -4 26 -26v-25q0 -13 -13 -13 l13 -26v-51q0 -12 -13 -12q0 -13 13 -13q-26 -89 -26 -153v-281q0 -165 26 -230q-13 -63 -26 -63l13 -26q0 -43 -64 -191q0 -55 -25 -141v-38l-64 -13l13 -25q0 -204 -192 -204q-349 -77 -446 -128l-26 13q0 -57 -178 -102l-77 -64v38q25 0 191 217h13l-25 230q12 49 12 102 v13q-25 112 -76 497h13l-64 409l13 63q0 64 -13 192q38 275 38 408l-13 26l13 25q-13 109 -13 179v38q0 15 26 140v166q-51 269 -51 357v13l76 600q-192 67 -204 115zM441 -179q13 -90 13 -153h-13l26 -89l-13 -26q13 -24 13 -38h-13l26 -51q-13 0 -13 -13h13 q164 101 395 306h13v51q-64 0 -115 651q0 198 26 536q-207 128 -255 128q-64 -36 -64 -115q64 -417 64 -472q-39 -143 -77 -434l13 -77l-26 -89l13 -25q-26 -65 -26 -90zM467 1544q26 -65 26 -90q-13 -49 -13 -102q6 0 38 -25q150 99 306 255q48 41 115 64q-25 57 -25 166 h-26l13 25v204q0 29 -13 51q13 23 13 51v51l-281 243l-25 -13q0 -6 76 -293v-26q-64 -267 -64 -293q-22 0 -63 -77q-35 0 -77 -191z" />
<glyph unicode="C" horiz-adv-x="1262" d="M91 1671q38 214 64 753q-13 19 -13 77h13l-13 25v128q0 60 -13 127q13 50 13 102l-38 64v26h76q82 -85 383 -128q152 -55 332 -166q26 0 217 -153l165 -13q25 13 39 13v-25q-46 -29 -166 -166q-50 0 -128 -217q13 -25 13 -38l-25 -13l12 -51q-9 -166 -25 -166 q-87 -66 -153 -128h-13q-115 20 -115 77q13 25 13 38h13q63 -42 63 -51q72 0 102 179q-55 472 -191 472q-31 54 -230 179h-12l-13 -166q0 -88 38 -179q0 -13 -13 -13q16 -113 26 -140l-26 -64l13 -25q0 -14 -13 -39l26 -191q-13 -51 -13 -89q26 -4 26 -26v-76h-26v-77 q0 -29 -13 -51q13 -25 13 -38q-32 0 -64 -358l-38 -63q13 -25 13 -39q-38 0 -38 -140q38 -222 89 -383q-13 -64 -26 -268l13 -89l-13 -64q36 -74 64 -268q-13 -22 -25 -153l25 -13q0 28 255 319q51 289 115 434v13q-36 84 -127 191h12q216 -164 256 -217q39 -102 63 -102 q0 -20 -38 -204l38 -434q-41 -25 -63 -25q0 13 -13 13q-192 -141 -192 -166q-242 -137 -242 -217l-77 -13q-63 132 -127 166q0 25 -64 64q0 19 -77 153q-76 395 -89 599q13 23 13 52q0 13 -13 38q0 23 26 102q-29 524 -51 651q0 11 12 102q0 82 -25 548z" />
<glyph unicode="D" horiz-adv-x="1152" d="M-251 -777q1 17 64 52h115q204 117 204 184l64 145q-26 190 -26 341h13q-10 23 -25 158h12q-38 165 -38 329v105q0 54 13 145q-13 26 -13 39q0 11 51 237q-13 0 -13 14h26q0 110 -89 578v52q0 263 25 342q0 13 -13 13l13 66v197q0 130 -13 316q26 59 26 171v13 q-17 250 -128 250l-12 66v13q290 -90 854 -487q46 -40 256 -106v-12q0 -18 -26 -211q0 -93 38 -329h-12l12 -26q-63 -223 -89 -420h-13l13 -27q-51 -217 -64 -354q0 -14 13 -14l-13 -66v-105q0 -36 26 -79q-13 -25 -13 -39q43 -274 128 -473l-13 -80v-39q-14 0 -38 -13 l12 -92v-13q0 -14 -12 -14l12 -25v-40q-51 -61 -191 -145q0 -48 -51 -78l13 -27v-13q-51 -124 -230 -236q-128 0 -191 -80l-268 -118q-146 -92 -179 -92l-25 13q-23 -13 -52 -13q-82 27 -114 27h-13l-26 -14v14zM311 -357v-27q21 0 178 172l243 171q51 109 64 210 q-13 51 -13 105v13q0 14 13 14l-13 25q30 224 51 224q-13 72 -13 105q0 286 26 527q-13 21 -13 65h13l-13 26v106q0 13 13 13l-13 26v13q0 14 13 14l-13 25q0 14 13 14l-13 26v579q0 149 -89 184q-27 0 -230 158l-26 13v-27l13 -25q-51 -190 -51 -224q38 -8 38 -105v-93 q-35 -35 -63 -118q-13 0 -13 -13v-27l13 -25h-26v-14q0 -30 13 -52q-13 -39 -26 -39l13 -27q-13 -26 -13 -39q0 -14 13 -14q-25 -105 -25 -223v-40q-29 -36 -51 -145q12 -71 12 -117v-27l-12 -78q15 -104 38 -132v-92q25 -128 76 -211q13 -239 13 -302q-51 -71 -51 -263v-53 q-25 -42 -51 -184z" />
<glyph unicode="E" horiz-adv-x="1260" d="M46 -804l192 179l76 242l-12 26q0 88 25 242q-13 224 -13 268q26 190 26 255q0 11 -13 102q0 9 51 115q-25 52 -25 77q25 0 25 25v153q0 70 -13 179q0 13 13 13l-13 63v154l-38 51v25q0 26 38 26q-76 468 -76 548v39q0 28 13 51l-13 25q0 13 13 13l-13 51q0 51 25 166 q-10 51 -25 51l13 76q0 116 -39 409q-30 0 -63 89q-35 29 -141 51v13q0 30 90 38q158 0 638 -191q232 -77 280 -153l90 25q51 -19 51 -38q-39 -61 -39 -192q0 -126 26 -344q-41 -203 -115 -255q-38 -32 -38 -51h-51v12q102 156 102 217q-76 345 -230 345q-185 74 -191 89v13 h-26q0 -26 13 -26l-13 -89v-38q0 -25 26 -128l-64 -370l13 -25q-51 -253 -51 -319v-13h191q195 -22 306 -89q0 -13 51 -13l90 13q51 -20 51 -39q0 -42 -192 -51q-59 -63 -217 -63q-12 -52 -76 -52h-38q-34 0 -166 52h-13q13 -128 13 -192v-89q25 0 25 -64h-13 q26 -35 39 -179q-13 -91 -13 -102q0 -103 51 -280q0 -32 -13 -102q0 -30 26 -192q-52 0 -115 -370q-13 0 -13 -25q531 301 549 523l-13 25l13 26q-90 189 -90 229h13q190 -202 192 -293q0 -43 -13 -64l13 -64q0 -146 -90 -280q0 -102 -268 -217q-111 0 -229 -115 q-304 -138 -460 -179q-49 -38 -102 -38h-13z" />
<glyph unicode="F" horiz-adv-x="1236" d="M63 2947v26q12 0 102 25h26q727 -178 727 -293l115 25l12 -25q0 -13 -12 -13q0 -13 12 -13q-12 -67 -12 -76q0 -11 12 -102l-12 -26q0 -24 115 -153q0 -29 12 -51l-12 -25q25 -89 25 -154q0 -217 -51 -217q-86 -38 -128 -38l103 128q0 217 -307 472q-24 0 -153 64 q51 -59 51 -179l-13 -76q13 -23 13 -52q-64 -92 -115 -293l13 -26v-51q0 -25 -25 -25q0 -13 12 -13l-12 -153q0 -202 25 -293l26 12h63q13 0 13 -12q13 0 13 12l128 -12h89q35 0 76 25l128 -13q156 51 179 51q-129 -116 -268 -140q0 13 -13 13q0 -41 -140 -64 q0 -20 -115 -51q-33 -64 -115 -64q0 17 -77 51q-25 -42 -25 -76q0 -31 38 -102q-25 -42 -25 -77v-64q25 -91 25 -102v-89q0 -13 -13 -13l13 -25q-16 -332 -38 -332q0 -13 13 -13q-26 -149 -26 -217q0 -13 13 -13q-26 -166 -26 -357l13 -25q-45 -319 -102 -319q0 -20 -51 -51 h-26q26 41 26 76l-13 64q13 21 13 64q-13 0 -13 12h26q-13 230 -77 575q0 12 13 12l-13 64v255q-25 633 -25 715q0 13 12 13q0 24 -102 102v51h64q19 0 38 38v26l-12 127h12l-12 26q12 231 12 306h13q0 13 -13 13q13 44 13 51q-13 309 -64 510q0 13 13 13l-13 64v229l13 90 q-128 178 -204 178z" />
<glyph unicode="G" horiz-adv-x="1476" d="M5 2922v38q137 0 307 -102q193 -51 383 -77q103 -71 280 -153q26 -31 26 -51h38l64 13l13 -26v-25q-36 -19 -64 -281q0 -12 13 -12q-13 -101 -64 -230q25 -83 25 -115v-51q-51 -59 -89 -191q-43 -103 -217 -103v26q0 15 128 77q63 84 63 178q0 273 -268 587 q-71 0 -102 51q-81 26 -102 26q0 -13 -12 -13q12 -127 12 -191v-103q0 -28 -12 -51q0 -12 12 -12l-25 -256q13 -69 13 -114h-13q13 -37 38 -205l-102 -421q0 -12 13 -12l-26 -153q13 -67 13 -128v-26q0 -12 -13 -12q39 -226 64 -472q-13 -23 -13 -51l26 -90v-13 q0 -82 13 -255h-13l13 -25v-51l-13 -64q153 90 281 332q51 140 76 140l-51 217l13 89v141q0 12 25 102v12q0 103 -76 103l-243 89v51q89 -26 153 -26h13q51 0 243 166q150 64 306 90q383 -93 383 -307q0 -53 12 -140h-12l12 -26q0 -178 -140 -268h-51q-191 57 -191 166 q25 65 25 90h13v-13l-13 -64q18 -53 64 -76h25q141 120 141 229q-13 51 -38 90q0 12 12 12q-12 67 -76 115q-250 -204 -307 -204v-13q0 -28 13 -51l-25 -102l12 -64q-12 -67 -12 -76q12 -25 12 -39h-12q12 -24 12 -38q0 -31 -12 -191q76 -181 76 -243v-140q23 -41 64 -319 q-25 -47 -25 -102q0 -13 12 -13q0 -147 -102 -332l-64 -38l-25 13q-25 -13 -38 -13q0 11 -141 77q-51 44 -51 89q64 -34 64 -64h64q94 0 127 179q0 360 -89 498h-25q0 -49 -77 -166l13 -26q0 -135 -294 -204v13l-242 -153q-100 0 -128 -77q-44 -13 -51 -13v39q60 77 90 178 q0 13 -13 13l38 255l-13 26l13 25q-76 104 -76 676v217q0 13 12 13q0 13 -12 13q25 193 25 281q-38 204 -51 523q13 689 38 689l-12 25q0 13 12 13l-12 26v12q0 13 12 13q0 13 -12 13l12 89v115q0 13 13 13q0 12 -13 12l13 64v102q0 13 13 13q-23 79 -141 179zM695 -651h12 v-51h-12v51z" />
<glyph unicode="H" horiz-adv-x="1660" d="M64 2973v38h13l64 -13q13 0 38 13q165 -17 204 -38q22 13 51 13h13q85 -48 166 -64l25 13q19 0 39 -52q-39 -90 -39 -102l64 -255l-13 -25l26 -115h-13q0 -38 38 -38q-12 -25 -12 -39l12 -25l-51 -128q13 -25 13 -38q-25 -81 -25 -102q12 -22 12 -51h-12q0 -13 12 -13 q-25 -383 -64 -383h-12l12 -25l-12 -51q0 -90 89 -90q29 0 51 -12q25 12 38 12q0 -25 230 -51q51 13 51 51q0 77 13 230l-38 357q12 67 12 128q-25 263 -25 357q0 192 89 434v13q-51 0 -51 38v26q26 0 26 12q35 0 216 -38q25 13 39 13q4 -26 25 -26h90q45 0 217 26l12 -26 v-25q-127 -171 -127 -421q-51 -157 -51 -230h-13l-26 13q0 -39 -89 -255q-9 -77 -25 -77l12 -64v-51q0 -13 -12 -13l12 -25q0 -61 -64 -217q0 -102 -25 -102q0 -13 13 -13q0 -13 -13 -38q-13 -314 -13 -498v-76q0 -13 -13 -13q0 -13 13 -13l-25 -166l12 -25l-38 -217 q13 -97 26 -128q-17 -160 -26 -191q18 -72 38 -102v-128q0 -60 -38 -217q0 -6 38 -140h-12q0 -13 12 -13q-31 -262 -89 -293l-51 523q0 80 13 191q-38 494 -77 587l26 217q0 13 -13 13l13 89q-13 312 -13 345q-135 -36 -268 -51q-127 12 -127 25q-64 -13 -64 -25 q-26 -204 -26 -256q0 -13 13 -38q0 -13 -13 -13q13 -70 13 -102l-13 -127q0 -14 13 -39q-13 -68 -13 -114v-102q0 -13 -13 -13q0 -13 13 -13l-13 -89v-141q0 -45 -12 -114l25 -64q-13 -109 -13 -179v-51l-25 -89q25 -42 25 -77v-166q-38 0 -38 -38q-50 24 -89 485 q0 13 13 13q-51 621 -154 1416v38q0 71 13 141q-16 192 -25 217l12 25q-25 38 -51 485q26 130 26 179q-92 625 -153 625q-38 0 -64 51z" />
<glyph unicode="I" horiz-adv-x="752" d="M107 2935v25q12 0 89 38q14 0 39 -12q69 12 114 12h39l25 -12l26 38l89 -13h89q19 0 39 -38v-13q-64 -99 -64 -255q0 -81 25 -217h-12q0 -13 12 -13q0 -13 -12 -38q0 -11 12 -102q-73 -194 -153 -549l13 -25q0 -14 -13 -39l13 -63q-13 -91 -13 -103l39 -204h-13 q34 -229 51 -229q-77 -571 -77 -638q0 -224 90 -498v-13q0 -12 -13 -12q25 -59 25 -128l-25 -51l13 -77l-13 -25q13 -25 13 -38h-13l13 -26q0 -29 -13 -51l25 -89l-38 -153h-25q-39 121 -51 319q-77 0 -77 255h-13q-25 0 -25 76h12l-12 26v102q0 29 -13 51q13 22 13 51v38 q0 56 -26 102q0 14 13 39q-26 165 -64 995q13 25 13 38q-13 21 -13 64q0 13 13 13q-13 24 -13 38q0 111 -51 396q0 210 -51 408q13 64 26 64q-26 67 -26 268v51q0 12 13 12l-13 26v102q0 77 -51 77z" />
<glyph unicode="J" horiz-adv-x="1106" d="M-123 76v13q0 11 38 102q-25 242 -25 357q86 536 217 536l12 -25q-57 0 -89 -294v-51l13 -63h-13q64 -368 115 -536q-13 -25 -13 -39q90 -38 255 -217q22 0 64 -38h13l38 77q-38 136 -38 191h13q0 13 -13 13l38 319v13q-38 477 -38 599v51q0 91 25 141l-38 293 q13 25 13 38q0 52 -26 166h13q-13 25 -13 39q0 74 13 421h13q-13 24 -13 38l13 115q0 13 -13 13q0 20 64 548q-26 83 -26 115l26 13h25q36 -35 128 -51h38l141 -77h25q174 0 255 77h39v-13q0 -17 -115 -115q0 -20 -77 -76q0 -23 -51 -141l26 -217q-16 -86 -39 -114v-77h-25 v-64q0 -13 -13 -13l13 -25l-51 -77v-204l13 -76l-64 -205q-30 0 -51 -191q-21 0 -38 -25q25 -233 25 -281l-13 -64l13 -25l-13 -77l13 -26l-25 -51l12 -63q-12 -145 -12 -268l12 -26l-12 -25q0 -13 12 -13l-25 -179q13 -24 13 -38l-13 -64q13 -84 13 -166q0 -25 -13 -25 l13 -64v-166q4 -89 25 -89l-13 -64v-38q26 -31 26 -51l-13 -26q13 -55 51 -127q-13 -51 -51 -51q-139 114 -179 114q-271 183 -510 409z" />
<glyph unicode="K" horiz-adv-x="1708" d="M122 2947v26h13q8 0 89 -26q13 0 13 13q204 -21 204 -38q124 16 191 38l77 -13h13l38 26h26v-13q0 -82 -141 -179q-64 -165 -64 -421v-114q0 -103 13 -243q0 -13 -13 -13l13 -63v-154q0 -69 -76 -395v-38h25q0 29 294 153q47 0 102 268l76 319q-13 190 -13 319 q0 22 26 76l-13 26q26 33 115 459h13q99 -128 281 -128q45 0 344 90h26l12 -26v-13q-163 0 -293 -331q-102 -81 -140 -345q-13 -69 -13 -115q38 -152 38 -204t-102 -140q0 -73 -13 -89l13 -26q0 -14 -13 -38q13 -39 13 -141q-255 -41 -255 -153q-13 0 -13 -12v-13 q129 0 345 -230q102 -119 102 -306v-38q-38 -41 -77 -128l-89 -64l12 -25q-38 -35 -76 -383q13 -27 25 -115h-12l63 -319h-25q0 -163 230 -344q140 -13 140 -51v-13q0 -19 -38 -38h-64q-167 0 -408 331q-166 239 -166 798q0 157 115 516v39q0 18 -268 191q-169 0 -383 -268 q-32 0 -51 -127v-128l-13 -77q13 -21 13 -76q0 -42 -13 -64q26 -65 26 -102h-13l13 -25v-141q0 -29 12 -51q-25 -59 -25 -115l13 -89q-16 0 -51 -102l12 -64v-306l-64 -192h-63q0 193 -26 307q13 22 13 51q-51 141 -51 574v51q0 13 13 13q0 12 -13 12q17 196 25 230 q-29 443 -38 485l13 26q-13 204 -38 344q12 67 12 77l-12 204q25 312 25 472q0 39 -13 89q13 38 26 511q0 248 -64 331z" />
<glyph unicode="L" horiz-adv-x="1427" d="M84 2986v51q396 -9 433 -102l64 12l115 -12q86 0 128 63l115 -12l89 12v-38q0 -16 -204 -102q-90 -169 -90 -294l13 -153q-38 -196 -38 -229l25 -90v-12q0 -214 -102 -702l13 -26q-13 -113 -13 -140q32 0 64 -345v-38q0 -13 -64 -127q-51 -206 -51 -230q39 -68 39 -306 q0 -245 -103 -383q0 -32 -12 -102l12 -26l-12 -76q0 28 319 51h166q12 0 12 -13q13 0 13 13l64 -13h153q82 0 140 179l26 25q0 128 -64 128q-20 0 -51 25h-38q-32 0 -64 -127h-13l-13 115q26 89 102 89h39q155 0 217 -128q0 -48 63 -127v-26q-12 -101 -127 -230 q-62 -44 -192 -102v-12l-25 12q0 -29 -166 -51q-25 13 -38 13q0 -18 -38 -38l-26 13q-22 -13 -51 -13v13q-13 0 -13 -13q-127 25 -255 25l-64 -38l-25 13l-179 -102q-65 25 -89 25q0 -32 -64 -38q0 -18 -38 -38l-13 64q25 0 89 229q-16 156 -25 179q38 118 38 275 q0 34 -13 57q0 12 13 12l-26 217q13 27 26 115l-13 26q64 388 64 497q0 14 -13 39q0 12 13 12l-13 64q0 26 13 26q-13 70 -13 102q0 108 -12 382q12 45 12 51q0 13 -12 13q35 266 51 625q-26 52 -26 90h13l-13 25v230q0 29 13 51q-13 25 -13 38h13q0 13 -13 13q9 77 26 77 q0 217 -154 217q-17 51 -114 51z" />
<glyph unicode="M" horiz-adv-x="1772" d="M-37 2896v13h13q395 -134 395 -199q310 -229 357 -426q-12 0 -12 -13q48 0 115 -279q37 -54 51 -54q30 7 63 119q183 139 281 360q166 244 166 306q38 0 38 40l38 67h26v-27h13q0 39 178 67l102 79h13q26 -4 26 -26q-153 -170 -153 -266h-13q0 -14 13 -14 q-13 -204 -64 -439q13 -106 25 -106q-17 -183 -51 -226l39 -174v-39q0 -14 -13 -14q0 -13 13 -13l-13 -93v-14l13 -79q-39 -50 -90 -453h-12q12 -26 12 -40l-38 -333v-40l-26 -39v-14q0 -70 -12 -226q25 -4 25 -26q-13 -41 -25 -41q25 -351 38 -412l-13 -27q13 -25 13 -40 h-13q13 -26 13 -39l-13 -94q0 -13 13 -13l-13 -93v-80q0 -70 13 -226h-13l13 -27v-13q0 -106 -64 -106v13q-51 177 -76 385q0 14 12 14q-16 163 -25 187q13 23 13 66t-13 66q0 14 13 14l-39 279q17 181 26 213q-13 72 -13 120v293q0 79 38 199q-38 299 -38 372v280 q0 30 -13 53q13 24 13 53v94q-76 85 -76 227q-30 -14 -103 -160q-25 0 -76 -147q-41 0 -166 -479v-93q13 -69 13 -80q-34 -226 -51 -226l13 -26v-14l-64 -13v13q13 23 13 53q-64 214 -103 479h13q-25 95 -64 399q-153 213 -165 213l12 -66l-12 -66q0 -7 12 -54 q-25 -92 -25 -160v-53l-39 -66l13 -67q0 -14 -13 -40l13 -54q-17 -225 -38 -225q0 -13 13 -13l-13 -160v-53q0 -48 13 -120l-13 -27q13 -72 13 -120q0 -76 -51 -252l-39 -294v-39q0 -30 13 -53q-38 -118 -38 -200l13 -27l-13 -26l13 -27l-39 -293l13 -26l-13 -27 q13 -25 13 -40q-64 -53 -76 -53q0 82 -77 506v173q0 73 13 186l-13 27l13 26l-13 133l13 160q-22 94 -39 492q13 65 13 173v81q0 29 13 53q-38 103 -38 451q0 15 12 41l-12 79v147l-13 133h13q0 13 -13 13l51 426q-32 222 -204 386z" />
<glyph unicode="N" horiz-adv-x="1555" d="M-149 2998v26q67 13 76 13l115 -13q23 13 51 13q0 -19 153 -51v-13l154 13h38q28 0 64 -319q40 0 127 -536q0 -41 128 -243q89 -195 115 -497h12q26 394 90 676v153q0 13 12 13q0 13 -12 13q33 374 127 510q64 68 64 191q14 0 38 13q83 -25 115 -25h102l370 114v-12 q-41 -48 -255 -141q0 -38 -89 -115q-112 -256 -141 -459q0 -130 -89 -319q0 -191 -25 -191l12 -26v-217q0 -64 -25 -64l13 -25q-39 -89 -39 -128l13 -25q-13 -19 -25 -141q12 -187 12 -331h-12l12 -26v-13q0 -12 -12 -12q12 -25 12 -39l-12 -25q12 -25 12 -38 q-25 -42 -25 -77v-140q0 -13 -13 -13q0 -13 13 -13l-13 -64v-140q0 -13 -13 -13q13 -24 13 -38q0 -6 -13 -51l13 -26l-13 -76l13 -89q-25 -107 -25 -230l12 -51l-25 -89l13 -77v-26q-52 -86 -52 -242h-12q-13 127 -13 191v64q0 29 -13 51q13 25 13 39q0 76 -26 242h13 l-13 25v64q0 13 13 13q-64 428 -89 523q-137 291 -217 689q-19 4 -102 281q-77 115 -153 293q-26 -4 -26 -25v-396q0 -28 -12 -51l12 -25q0 -13 -12 -13l12 -128v-63l-12 -77l12 -25q-12 -140 -12 -243v-76l-13 -77l13 -26l-13 -89q0 -46 13 -115q-13 -191 -13 -280 q0 -62 13 -294q-26 -167 -26 -204q13 -25 13 -38q-29 -107 -77 -128h-13q13 127 13 191l-64 371q13 108 13 178v255q0 13 13 13q-13 25 -13 38q-25 467 -25 651v89q0 32 -26 115q0 13 13 13q-38 230 -89 651h12l-12 25q12 84 38 128q-26 0 -26 25q0 64 26 64 q-16 233 -38 370l12 77q0 56 -25 115l13 25q0 124 -64 217l-26 -13q-85 39 -191 51z" />
<glyph unicode="O" horiz-adv-x="1350" d="M76 2552v51q106 370 166 370h676q357 -170 357 -357q38 -21 64 -217q-64 -138 -89 -294h-26l13 -127v-90q0 -295 -127 -459q-30 -30 -64 -179q13 -50 13 -89l-13 -51q0 -13 13 -13l-13 -64v-102q0 -12 -13 -12q0 -13 13 -13q-13 -128 -26 -128q13 -25 13 -38 q0 -14 -13 -38q0 -14 13 -39q-13 -153 -25 -153l12 -25v-13q-51 -185 -102 -676q-89 -319 -166 -447h-51q-204 124 -204 319l-64 421l-166 676l-127 715q0 204 64 370q-90 423 -90 485q13 153 26 166q-58 24 -64 51zM421 1327q51 -175 102 -447q8 0 38 -76v-268 q-38 -143 -38 -230q35 -74 63 -306l90 -243q0 -18 38 -38q53 0 115 778q0 66 -13 256q13 280 26 395q-64 105 -64 153q0 26 13 26l-13 127v51q0 101 127 855v90q0 185 -89 255l-64 -13l-114 13q-77 -70 -77 -128l-26 13v-13q39 -135 51 -434l-12 -25q12 -25 12 -38 q-25 -4 -25 -26v-140q-22 -45 -51 -179q13 -91 13 -102q0 -35 -77 -179z" />
<glyph unicode="P" horiz-adv-x="1237" d="M-134 875q0 27 268 78q63 54 64 104q-39 328 -51 860h12q0 12 -12 12l12 157v116q0 13 13 13l-13 27q0 121 52 572q-90 179 -90 222v13h166q87 0 140 -144q111 -99 332 -233q130 -165 255 -196l26 13q38 -13 38 -26q42 26 77 26v-13q-39 -206 -39 -313v-13 q51 -69 51 -116q0 -13 -12 -13l12 -27q-25 -21 -51 -234l77 -300q-51 0 -51 -38q-25 13 -38 13q-61 0 -179 -326q-139 -30 -217 -65q-115 0 -217 -104l13 -65q0 -13 -13 -13l13 -26q-26 -79 -38 -79l12 -65v-25q0 -27 -25 -27l13 -65v-143q-26 -92 -26 -104v-13 q0 -103 -13 -274l13 -25l-76 -326l12 -26q-25 -81 -25 -130l13 -26l-13 -26l13 -78q0 -32 -26 -182q-23 0 -76 286q12 23 12 52q0 10 -12 78h12l-12 26v78l12 78q-12 22 -12 65q0 13 12 13q-25 143 -25 261q0 58 13 169q-26 194 -26 468q0 79 -102 79q-116 -27 -128 -27 q-90 27 -140 27zM485 1773l26 -52l-13 -65q13 -89 13 -144q0 -13 -13 -13l13 -64v-144h12q170 57 249 208v222q0 11 -26 261q26 83 26 116v27q-225 208 -236 208q23 -25 23 -97q0 -104 -48 -307q12 -25 12 -39q-25 0 -38 -117z" />
<glyph unicode="Q" horiz-adv-x="1675" d="M26 1327v13h25q-12 114 -25 114l13 64v51q0 70 -13 179q13 25 13 38q-13 22 -13 51h13l-13 26v217q0 439 370 880q82 51 128 51q12 0 12 -13q13 0 13 13q20 0 204 -38q13 22 13 51h26l370 -179l12 -25h-25q0 -64 89 -128q69 -191 115 -191l25 -90l-12 -25q32 0 38 -153 q-26 -116 -26 -128q13 -25 13 -38q-76 -77 -76 -332q-13 0 -26 -115q13 -26 26 -140l-13 -77q30 0 38 -102h-13q10 -21 26 -153l-13 -25q13 -25 13 -39h-13l13 -25q-55 -166 -89 -166q-22 0 -39 -89q-28 0 -38 -51q-99 -135 -140 -523q12 -23 12 -52q-25 0 -38 -114l13 -77 q-13 0 -13 -13h13q157 68 357 102q256 0 396 -344v-140q0 -284 -294 -409h-12q-115 66 -115 90q-22 0 -77 165q-25 0 -25 26h38q0 -38 25 -38q0 96 64 153q77 0 102 -90q-44 -12 -51 -12q-13 24 -13 38h-25q0 -38 -26 -38q0 -14 13 -39q-13 -69 -13 -114q83 -26 115 -26 q27 2 141 153q29 0 63 192q-35 136 -112 195.5t-130 59.5q-26 -1 -115 -141q-133 -140 -230 -140h-76q-31 0 -64 -153q13 0 13 -13q-50 0 -115 -102h-51q-191 85 -191 230q-85 169 -179 293q-128 218 -128 294q-63 210 -140 612q-34 0 -128 421v90zM485 714h26 q-13 -24 -13 -38q0 -242 153 -868q122 -191 141 -191h25l13 77q0 17 -128 127q0 33 -38 141q13 67 13 76l-26 51q0 14 13 38q-13 69 -13 115l13 64h13q16 -182 153 -383h13l12 90v165q0 258 141 1034q9 191 25 191q-13 25 -13 39q0 255 -38 548l13 64v255q0 13 13 13 q0 136 -141 281q0 25 -38 25q-14 0 -38 -12q-51 12 -90 12q-102 -32 -102 -127v-166q4 -26 26 -26l-13 -63l13 -26q-26 -28 -51 -396q13 -70 13 -102q0 -13 -13 -38q25 -130 25 -179q-12 -108 -12 -178q-26 0 -64 -141q0 -12 13 -12l-13 -64v-153q0 -7 -26 -38v-26 q0 -43 13 -64l-13 -76v-39z" />
<glyph unicode="R" horiz-adv-x="1526" d="M-200 2845v13q90 153 179 153q182 -76 268 -76l25 12l511 -242q26 0 178 -77l128 -64q25 13 38 13q0 -18 38 -38h90l89 13l13 -26v-38q-38 0 -38 -26v-38q-77 0 -115 -306q0 -13 12 -13l-12 -76q12 -251 25 -332q0 -13 -13 -13q26 -243 64 -421q-191 -70 -191 -179 q0 -68 -153 -127v-51q242 -69 370 -268q38 -21 178 -357h-25q-101 38 -140 76q-73 0 -243 -127v-39q-52 -164 -64 -224.5t-12 -107.5q90 -459 293 -459q0 -17 204 -51q128 97 128 166q13 0 13 13q-24 331 -141 331q-64 17 -64 39q-54 0 -102 -102q-38 0 -38 -51h-25 q0 89 89 178h89q29 0 51 13q164 0 230 -217q25 -94 38 -230q0 -31 -102 -114q0 -50 -115 -115q-28 0 -51 -13q-22 13 -51 13l-25 -13q-267 51 -358 153q-85 0 -242 472q-13 88 -13 141q0 324 141 574v13q-131 102 -281 102q-139 -26 -204 -26v-13l38 -178l-13 -26 q0 -6 38 -140h-12l12 -26v-115q-63 -130 -63 -331l12 -64q-25 -47 -25 -102l13 -26q-13 -63 -26 -63l13 -26l-26 -115q26 -65 26 -102h-13q0 -13 13 -13q-26 -140 -64 -140h-25l-128 1199q13 142 13 256v102l-64 382l13 64v204q0 29 -13 51q13 23 13 51v141q0 13 12 13 l-12 25v38q0 268 -39 434l26 294q-13 66 -13 153v13q0 12 13 12q0 13 -13 13l13 89v13q-7 25 -204 115q-51 42 -51 64h-13q-13 0 -115 -77zM464 1722l12 -89v-140q29 -41 51 -128q-12 0 -12 -13q41 0 64 -255h12q234 217 268 217q-13 315 -38 485v179q0 108 -13 319 q-44 0 -229 140q0 -26 -13 -26q13 -12 25 -217h-25q25 -41 25 -76v-51q0 -73 -89 -140q0 -52 -38 -52q0 -53 12 -140q0 -13 -12 -13z" />
<glyph unicode="S" horiz-adv-x="1249" d="M19 2595q56 -111 56 -421q0 -80 -4 -172q-5 -125 -5 -178v-55v-41q0 -139 -12 -198q-2 -12 -2 -30q0 -27 5 -68q7 -51 7 -82v-13q142 -8 342 -69q148 -45 234 -54l38 -4l15 -34q52 -120 52 -520v-72v-83q0 -132 5 -172q3 -21 2 -59q-1 -29 1 -34l9 -16l-1 -14v-119 l-6 -13q-20 -42 -145 -116q-42 -25 -51 -32q-26 -20 -71 -87q-50 -77 -88 -110l5 -22l-46 -12l-48 -40l-42 58q-21 31 -89 86q-45 37 -68 60q-24 74 -24 160q0 13 1 26q16 400 166 666q-224 -249 -224 -659v-28q2 -97 25 -198q34 -181 92 -269q48 -72 108 -143 q41 -52 72 -79q62 -64 116 -104q15 -11 49 -32q17 -10 25 -15l-2 22l4 13q32 100 92 184q35 49 122 112q24 16 37 26q24 19 69 84q56 82 97 113q13 11 43 38q90 81 143 97l15 5l33 -6q11 12 18 19q-4 38 -32 80q-42 63 -57 126q-6 25 -6 61q0 33 5 77q4 42 4.5 72.5 t-4.5 49.5q-24 110 -24 243q0 42 2 86l10 87q-19 91 -20 147v406q0 32 14 78q8 29 5 34q-8 13 -79 36q-38 12 -56 20q-27 12 -73 32q-274 119 -391 140l-42 8l-9 43q-9 42 -10 109q0 40 4 89q3 44 3 79q0 60 -8 96q-25 112 -24 169q0 19 2 31v116l102 43q17 17 50 70 q38 60 63 86l24 25l35 -6q75 -15 136 -95q15 -20 24 -28q12 -14 50 -41q53 -38 76 -65q148 -171 161 -265q2 -12 -2 -45q-5 -33 -2 -47l-23 -91l-22 -23q-5 -5 -19 -24q-4 -6 -7 -9q41 25 66 67q48 80 48 213q0 73 -14 163q-36 220 -127 393q-12 24 -60 84q-63 81 -85 124 l-4 9l-62 188q-92 -122 -347 -279q-93 -57 -136 -87q-14 -10 -47 -41q-50 -46 -80 -65q-35 -21 -112 -41q-51 -14 -70 -24z" />
<glyph unicode="T" horiz-adv-x="1465" d="M13 2950v82h26l255 -54l51 13q39 0 89 -13l166 13q358 -13 358 -27q146 54 319 54q0 -14 12 -14v28h77l25 -14q4 28 26 28h13q25 -4 25 -28q-89 -175 -89 -246l13 -27q-154 -461 -154 -519l-12 -218h-39l-12 192q12 70 12 81q-63 347 -102 369l-25 13h-115 q-29 -27 -77 -27v-54l13 -69h-13q64 -127 77 -191q0 -13 -13 -13l13 -96v-82q-34 -519 -64 -519l13 -82q-26 -4 -26 -27q0 -65 13 -137q-51 -368 -89 -491q0 -14 13 -14q0 -14 -13 -40q16 -167 25 -192q-12 -182 -51 -218v-150q0 -14 -12 -14l12 -28v-40q0 -14 -12 -14 q0 -13 12 -13l-12 -96v-96q0 -14 -13 -14q0 -14 13 -14q0 -26 -13 -26l25 -369q-12 -67 -12 -177v-28q0 -14 -13 -14l13 -26v-55h-13q-89 0 -89 150h12q0 14 -12 14q12 47 12 54q-12 72 -12 82l12 68l-115 560l-12 82q12 367 12 587q0 14 13 41q0 14 -13 14q0 24 39 477 q0 31 -39 246q0 14 13 14l-13 68v164q0 30 13 55l-13 27q13 116 13 191v27l-13 68h13l-13 28q0 14 13 41q0 14 -13 41l13 163q0 109 -76 109q-90 0 -90 28l-25 -14l-38 28q-103 0 -103 -232v-96l13 -27h-25q38 -93 38 -151h-26q-140 331 -140 601v41l-51 151q-13 0 -13 13z " />
<glyph unicode="U" horiz-adv-x="1378" d="M-53 3019h26q27 -63 268 -63l77 -13l51 25l89 -38q69 0 204 102l89 26v-13q-47 -124 -178 -230q-39 -153 -51 -153q0 -13 12 -13l-12 -89q0 -27 12 -140q-12 -81 -63 -179q0 -13 12 -13l-12 -64v-51q-90 -33 -90 -63q-12 -246 -12 -319h-13l13 -26v-89q34 0 51 -77 q33 0 63 -64q-21 -75 -38 -191l26 -89q-13 -204 -77 -574q16 -80 51 -128l-13 -153l13 -26q-13 -24 -13 -38q0 -11 13 -102l-13 -51l13 -26l-25 -89l12 -76v-39q0 -12 -12 -12q21 -158 153 -409h12q48 0 166 90q37 0 115 102l-13 25v89q0 13 13 13q-13 25 -13 38 q0 83 13 256l-13 76q0 13 13 13l-13 64v153q0 13 13 13l-13 25v89q0 29 13 52q0 12 -13 12l13 64q0 282 -38 664v89q0 29 -13 51l26 51q12 529 12 817v76q5 255 26 255q0 13 -13 13q26 189 26 230q-26 0 -26 25l13 64h25q106 -64 179 -64h26q37 0 306 102h51v-12 q-134 -192 -230 -613q-25 -392 -76 -523q0 -57 -51 -140l12 -26q-38 -119 -76 -459q51 -88 76 -511q-25 -41 -25 -63q13 -25 13 -39h-13l38 -102q0 -16 -51 -166q0 -27 13 -140q-38 -95 -38 -166q25 -88 25 -153q0 -120 -68 -293.5t-149 -204.5l-89 -76q-474 0 -536 676 l13 26q-39 170 -39 293h13l-13 26q0 258 -76 791l13 76v13q0 61 -13 128l13 76q0 13 -13 13l13 64v140q0 233 12 587q-71 186 -127 574q-90 120 -90 204z" />
<glyph unicode="V" horiz-adv-x="1475" d="M123 2973h115q61 0 178 -90l64 -12q57 0 268 102v-13q-84 -48 -115 -191q0 -38 -25 -128v-89q0 -270 -51 -319v-64q28 -17 63 -294q0 -147 -63 -306q12 -76 25 -76l-13 -64v-51q0 -29 13 -51l-13 -26q39 -63 51 -140q-25 -139 -25 -179l13 -63l-13 -64l64 -613l38 -242 l-13 -64q13 -149 38 -217h13v26h-13q39 202 39 319q0 28 -13 51q13 69 13 115v191q0 13 12 13q0 12 -12 12q12 45 12 51q0 409 77 996q-13 44 -13 51q33 166 51 166q0 12 -12 12q12 173 12 262q0 35 13 57q0 13 -13 13q42 345 64 345q0 12 -13 12l13 64l-13 128l13 89 q-25 96 -25 102h12l-76 179h166q140 0 140 -38q205 25 242 25v-13q56 26 205 26h51v-13q-256 -81 -256 -306q-116 0 -229 -447v-229q0 -13 -13 -13l13 -26v-51q-64 -266 -64 -293v-26h-26q0 -42 13 -64q-13 -108 -13 -184q0 -53 13 -122l-13 -25q0 -13 13 -13 q-13 -157 -38 -191q13 -23 13 -51v-13q-55 0 -128 -345l13 -25q-35 -113 -102 -638q-13 0 -13 -13l13 -26q-26 -64 -26 -89l13 -25q-33 -90 -64 -90l13 -25l-64 -166q-10 0 -25 -51l12 -26v-89h-25v179q-91 129 -179 765q-153 518 -153 817q-111 286 -153 880q0 93 -25 166 h12q-34 103 -64 459q0 14 13 39q-13 87 -13 140v140q0 13 13 13z" />
<glyph unicode="W" horiz-adv-x="2301" d="M29 2986l26 12q49 -38 115 -38q50 26 178 64q199 -64 243 -64q81 26 102 26v-26q-90 -53 -90 -89l-51 -230q51 -254 128 -459q0 -86 25 -204q0 -13 -12 -13q15 -128 38 -128l-13 -64v-51q0 -67 -25 -268l38 -268q-13 -24 -13 -38l39 -115q0 -12 -13 -12q25 -147 25 -230 l-12 -26q25 -64 25 -89q-13 -25 -13 -38q13 -38 26 -38q-38 -151 -38 -192q0 -6 12 -51l-12 -25q25 -201 38 -396h13q0 280 127 625q217 1050 217 1276v51q0 29 -13 51l13 26q0 25 -13 25q26 154 26 345q84 0 140 -498q26 0 26 -153v-153q0 -13 -13 -13l13 -25v-90 q0 -28 -13 -51q13 -22 13 -51q0 -12 -13 -12q35 -213 64 -715q31 -27 102 -319h25v26q90 614 90 816q0 230 25 230l-13 25v64q0 13 13 13q0 13 -13 13q64 401 90 689q34 28 51 217q-57 574 -141 574q-51 57 -51 89h13q77 -16 77 -38l25 13l64 -26q22 13 51 13q13 0 13 -13 l153 26q64 -13 64 -26l76 13q32 0 102 -13q128 16 128 38q51 -12 89 -12v-39q-96 0 -115 -102q-76 -7 -76 -76q-89 -197 -192 -651q-102 -191 -102 -498l-102 -421q0 -25 -63 -127q0 -20 12 -179q0 -416 -89 -663l13 -26q-9 -77 -26 -77l13 -25v-51q0 -46 -13 -115l13 -25 l-51 -268q0 -29 13 -51l-13 -26q13 -90 13 -153q0 -14 -13 -38q13 -97 25 -128q-12 -102 -38 -102h-13q-51 0 -242 676q-38 172 -89 702q-115 394 -115 766h-26q13 -25 13 -39q-17 -89 -38 -89q0 -13 13 -13l-26 -293l13 -26l-51 -357q13 -91 13 -102l-13 -77q0 -12 13 -12 l-13 -51q0 -53 13 -103q0 -178 -90 -574q0 -46 -13 -115l13 -25l-13 -64q13 -70 13 -102l-25 -13h-39q-58 128 -102 128q-166 363 -166 765q-76 225 -114 485h12l-12 26v76q0 179 -166 791q-13 236 -13 294l13 25q0 13 -13 13l13 64v51l-90 357q-127 157 -127 434v26 q-43 85 -115 127z" />
<glyph unicode="X" horiz-adv-x="1801" d="M-22 3100q274 -102 382 -102v-12q42 25 77 25q242 -41 242 -76h26q0 47 64 63l51 -25q22 13 51 13h13v-13q-12 -40 -141 -90q-76 -161 -76 -191v-38q54 -49 89 -281q0 -16 -13 -127l13 -26q-26 -38 -26 -89q0 -61 39 -153q-13 -23 -13 -51l13 -52l-26 -51q38 0 77 -242 q20 -4 76 -153h13q102 401 166 753q191 323 191 485q0 16 -115 242v13q26 0 26 38h26q63 -3 63 -25l153 12h64l153 -12q4 22 256 102q0 16 76 63h13v-12q-126 -180 -179 -205q0 -61 -64 -89q-84 -127 -102 -127v-51q0 -19 -114 -294q0 -61 -64 -179l12 -25 q-114 -291 -114 -319q12 -25 12 -38q-12 -25 -12 -39l12 -25q-51 -220 -153 -472q0 -42 -76 -102q0 -123 -141 -345q0 -68 192 -919h-13l89 -319v-63q0 -66 -38 -77h-38q-102 254 -243 740h-12l12 64q-51 332 -89 332l-77 -102l13 -26v-13q-33 0 -76 -153 q-195 -379 -243 -561q-71 -214 -89 -217q-22 -67 -102 -115v26q0 28 13 51q-13 24 -13 38q38 153 64 383q127 412 229 676l192 370q-51 217 -255 753q0 53 -166 574q-13 87 -13 140v153q0 74 -140 332q0 90 -205 192z" />
<glyph unicode="Y" horiz-adv-x="1851" d="M-69 2873v12q15 49 101 49h22q47 0 122 -36q37 24 68 24h67q163 -24 179 -24l78 24q33 0 33 -37q46 0 146 61h11v-24q0 -18 -33 -37l10 -25v-24l-144 -97l-12 -62q22 -249 45 -354l-11 -24q56 -60 279 -794q23 -99 23 -134h22q67 145 112 476q0 26 168 415l122 501 l-189 146v25l45 -12q24 0 44 12l56 -12q253 14 257 24q92 -37 168 -48q169 19 190 60h11q22 -4 22 -24q-268 -323 -268 -342q-60 -58 -90 -159q-44 0 -89 -207q-22 -27 -56 -135h-11q0 -100 -168 -634q12 0 12 -13h-23v-24q0 -86 -22 -86l11 -24q-89 -235 -89 -256l-79 -526 q0 -206 23 -500q-56 -156 -56 -280v-74l11 -147h-11l11 -24v-122q0 -101 -101 -110q-134 323 -134 1038q-11 0 -11 24h11q-11 24 -11 37q0 12 11 12l-11 61v85q0 70 -33 208l11 25l-11 24q11 43 11 49q-7 122 -22.5 122t-56.5 61q0 18 33 37q-78 388 -178 536 q-56 141 -123 526q-65 126 -167 464q-193 253 -227.5 273t-97.5 20h-11z" />
<glyph unicode="Z" horiz-adv-x="1433" d="M-41 -689q0 147 166 727q127 672 191 893q22 0 51 141q21 0 38 25l-12 26q89 198 140 446q35 49 179 498q102 241 191 510h-13q-128 -76 -332 -115q-255 -73 -255 -191q-13 0 -25 -38l38 -77v-13h-13q-93 0 -166 370q-22 118 -51 154v102h13q13 0 13 -13l548 204h792 q-134 -192 -166 -306q-21 0 -39 -90q13 -24 13 -38q-102 -240 -166 -497q-140 -364 -191 -562q-76 0 -153 -293q-48 -81 -90 -281q-71 -124 -153 -510q-30 0 -89 -230q-51 -124 -51 -281q90 47 396 115q275 125 370 370q51 171 51 230q0 66 -51 319v13h12q77 -95 128 -383 q0 -77 13 -77l-13 -64v-51q0 -28 13 -51q-13 -22 -13 -51l38 -217l-13 -25q26 -86 26 -141q-26 0 -26 -38q-106 13 -178 38q-15 -69 -421 -204q-130 -153 -306 -153q-117 -25 -179 -115q-48 -104 -166 -153h-51q0 46 -38 77z" />
<glyph unicode="[" horiz-adv-x="906" d="M60 2985q55 89 115 89q104 -25 140 -25q35 29 192 38q137 0 204 -102h38v-26q-20 -74 -179 -140q-153 -6 -153 -38l-89 13h-64q-25 0 -25 -39q38 -433 51 -484q0 -13 -13 -13q0 -11 13 -102q0 -36 -13 -255l13 -26l-13 -25l13 -26l-13 -25l26 -128q0 -13 -13 -38 q13 -87 13 -140q0 -29 -13 -51l127 -957q26 0 26 -127l-89 -638q25 -170 25 -179l-13 -64q106 -38 358 -38h102v-64q-188 -51 -319 -51l-26 13q-72 -18 -115 -51h-12q-204 128 -204 242q-26 342 -26 434q0 14 13 38q-13 24 -26 128q13 139 13 242q-13 91 -13 102h13l-13 26 q0 108 26 204q0 13 -13 13l13 63v26q0 29 -13 51q13 22 13 51t-13 51q13 22 13 51q-13 25 -13 38h13q-13 6 -38 370l12 26q-10 51 -25 51l13 25q-13 646 -13 1015q0 51 -13 120l13 26q-13 108 -13 178v102z" />
<glyph unicode="\" horiz-adv-x="1594" d="M60 2781v25q4 26 26 26q131 0 255 -319q280 -455 280 -663q115 -294 332 -702q0 -21 153 -331q31 -181 64 -243q-13 -24 -13 -38q166 -391 268 -740l-13 -25l64 -243q13 0 13 -12l-13 -26q38 -65 38 -127h-13q-153 110 -471 816q-243 682 -460 1212q-191 496 -267 854 q-64 112 -166 472q-29 64 -77 64z" />
<glyph unicode="]" horiz-adv-x="995" d="M60 -535q115 17 115 51l128 12v-12l25 12h179q57 268 127 268h13q-51 389 -51 753v280q0 13 13 13l-13 26q0 42 13 63q-13 88 -13 141v191q0 13 13 13q0 13 -13 13l13 63v77q0 29 -13 51q26 118 38 421q-12 25 -12 38h12l-12 26v51q0 28 12 51l-12 25l12 26l-12 76v26 q0 12 12 12q0 13 -12 13l12 128v319l-12 63h12q-17 90 -38 90l-115 -64q-227 45 -306 127v26h13q84 0 255 51l26 -13q86 64 127 64q293 -117 293 -179q0 -12 -12 -12l12 -26v-166q0 -12 -12 -12l12 -26q0 -13 -12 -13l25 -204l-13 -25q26 -58 26 -166l-13 -26q13 -22 13 -51 q0 -28 -13 -51q13 -24 13 -38q-13 -132 -13 -153l13 -25q-26 -42 -26 -77v-25q0 -43 13 -64l-25 -192l12 -25q-34 -222 -51 -383q0 -12 13 -12q-15 -238 -38 -319q0 -13 13 -13l-13 -64v-13q0 -38 13 -38q-13 -153 -26 -153l13 -25q-13 -154 -26 -166q0 -13 13 -13 q0 -14 -13 -38q13 -477 26 -638q-38 -84 -38 -179v-38l-90 -13h-51q-26 0 -242 26h-64q-13 0 -13 13l-25 -13h-38q-69 0 -192 38v26z" />
<glyph unicode="_" horiz-adv-x="1798" d="M60 -612q111 108 268 140q0 50 1058 102q332 -31 332 -76v-26q-177 0 -434 -127q-45 -13 -51 -13v13q-217 -26 -217 -39q-387 30 -471 51q-151 -12 -268 -51q-47 26 -102 26h-64l-38 -26h-13v26z" />
<glyph unicode="`" horiz-adv-x="601" d="M60 2849q0 31 20.5 51t53.5 20q20 0 40.5 -12t55.5 -47l291 -296h-69l-330 202q-31 20 -46.5 40t-15.5 42z" />
<glyph unicode="a" horiz-adv-x="1218" d="M5 1441l14 25v102q0 89 46 242l-15 26l15 25q0 13 -15 13l15 64v280q0 13 14 13q-14 12 -14 89q90 39 104 39q190 -86 345 -90q211 90 284 90v-13l31 13h119q160 0 195 -90q0 -53 -30 -127q15 -25 15 -38l-15 -90q44 -65 44 -127v-153q0 -70 -14 -179q20 -102 45 -102 q-15 -102 -31 -102q0 -12 16 -12q-20 -231 -45 -255q15 -23 15 -51q-25 0 -60 -192q-32 0 -45 -114v-90l60 -216l-15 -64q0 -53 15 -102q-15 -109 -15 -166q30 -413 30 -510h-15q30 -77 30 -191l-15 -26q15 -22 15 -51v-38q0 -18 -90 -76h-14q-37 195 -91 267q0 13 15 13 q-60 290 -164 663q0 160 -135 701l15 77v38q0 26 -166 38q-60 0 -74 -127q30 -51 30 -89l-30 -13q0 -43 45 -102v-13q0 -13 -15 -13l15 -25q0 -123 -90 -459v-230q0 -12 -15 -12l15 -26v-242q0 -13 -15 -13q0 -13 15 -13q0 -13 -15 -38q15 -139 15 -242v-13q0 -29 -74 -38 q-120 205 -120 446h14q-26 42 -60 357q-89 376 -89 466q0 41 29 350q-65 531 -74 536zM356 1224h102q46 0 81 13q35 -13 81 -13h102v102q0 13 21 13q0 12 -21 12l21 64q0 13 -21 13l21 64q0 119 -42 242l81 242q-20 0 -60 13q-35 -13 -81 -13q-67 26 -123 26h-19 q-80 -224 -80 -299q0 -25 9 -33q-21 -38 -41 -38q41 -79 41 -102q-16 -51 -41 -51q0 -13 20 -13q-8 -95 -30 -204q0 -13 -21 -38z" />
<glyph unicode="b" horiz-adv-x="1362" d="M-4 2040v13q57 331 280 331h102q150 0 268 -38l76 13q104 -57 332 -128q76 -114 102 -115q0 -74 64 -242v-51q0 -29 -13 -51q13 -89 25 -89q-25 -149 -25 -217l13 -25q-18 -126 -90 -204l-76 -166q42 -38 64 -38q0 -64 -26 -64q91 -118 115 -319q-13 0 -13 -13 q26 0 51 -178q-25 -42 -25 -77v-12l12 -64h-12l12 -26q0 -9 -12 -76l51 -217q0 -170 -51 -217q12 -22 12 -51q-12 0 -12 -12q25 0 38 -77q-20 0 -51 -127q0 -80 -230 -153q-109 0 -178 25q-87 -13 -140 -13h-26q-15 0 -140 26q0 -102 -89 -102l-13 25l13 64q-33 26 -179 51 q-140 156 -140 242h13q-13 25 -13 39v12h13q0 -108 165 -216q51 19 51 38q-73 313 -76 561h13q0 13 -13 13l13 63v128q0 29 -13 51q13 25 13 38q-51 132 -51 854v153q0 26 -26 26q13 140 26 140l-13 26q0 12 13 12l-13 26v191q0 116 51 230q-105 63 -140 63h-13 q0 -25 -64 -76h-25zM467 -395q13 -21 13 -64h26q101 76 153 76q67 -12 76 -12q4 25 26 25l25 -13l89 306q-102 560 -102 638v153q0 29 13 51q-25 52 -25 76h-13l-153 -12q0 25 -26 25q-22 -60 -38 -153q13 -38 26 -38l-13 -77q0 -206 -51 -663l13 -25q-13 -128 -26 -128 q0 -12 13 -12q-13 -153 -26 -153zM506 1874q0 -64 140 -191q0 -27 38 -128h-13l13 -25v-38q0 -13 -13 -13l13 -26v-191q-64 -60 -64 -102h13q125 31 191 115q-12 153 -25 153l13 25q0 67 -26 268h13l-13 26v114q0 51 -268 102l-12 -25v-64z" />
<glyph unicode="c" horiz-adv-x="1275" d="M23 969q0 62 38 433q0 14 -13 39q13 138 38 242q-12 25 -12 38h12l-12 26v12q21 244 165 447q67 98 192 140q51 0 51 25q114 -12 114 -38q25 13 39 13l51 -26q47 64 140 64q3 -28 217 -89q89 -69 89 -230q46 -50 76 -242q-21 0 -38 -89q13 -97 26 -128l-39 -127l13 -26 q0 -58 -115 -191h-25q0 56 25 102q-12 130 -12 204v64q-111 217 -153 217q-13 0 -115 76h-38q-69 -74 -204 -102l-13 -64q13 -86 102 -306q0 -12 -13 -12q26 -101 38 -204q-20 -41 -38 -115l13 -26q-9 -89 -26 -89l13 -25q-25 -22 -76 -421q12 -25 12 -38h-12 q47 -116 89 -383q0 -13 -13 -13q0 -259 153 -510q91 -25 102 -25q183 48 293 178q0 201 -89 294v25h13q125 0 166 -242l38 -128q-65 -149 -179 -191q-59 -76 -165 -76q-293 0 -498 114q-165 52 -280 243q-60 144 -115 408q13 235 13 395l-13 51l13 25q-26 92 -38 281z" />
<glyph unicode="d" horiz-adv-x="1438" d="M-81 34q34 174 89 174h38v-41q-22 0 -38 -39q0 -293 166 -348q0 23 64 40q-26 481 -26 629l13 81l-13 26q26 69 26 107q-13 267 -39 267l13 94v188q0 13 13 13q0 13 -13 13q9 94 26 94l-13 27v188q0 182 -13 481q13 25 13 40q0 143 -64 187q-76 74 -76 94 q-37 0 -115 -134h-13q-13 96 -13 107q55 188 204 188l77 -14q0 14 13 14q0 -142 459 -214q144 0 395 -148q0 -47 89 -80v-67q45 -37 89 -308q0 -36 64 -146h-25l76 -482q0 -158 13 -255l-13 -26l13 -28l-38 -107l12 -66q-32 0 -51 -121q-25 0 -63 -241h-13l13 -26v-81 q-29 -147 -39 -147l13 -26v-28q-82 -86 -140 -240l-281 -174l13 -27q-127 0 -217 -161h-38l-64 41l-25 -14q-99 0 -306 228q-121 0 -255 468zM518 -87v-13q26 -26 26 -107q331 209 331 308q49 120 89 589q0 13 -12 13l12 67q-28 789 -89 789q0 14 13 14q-68 374 -128 374 l-140 40v-26q0 -40 13 -40l-26 -188q13 -163 39 -186h-26l13 -68v-40q0 -48 -13 -120q13 -23 13 -54q-14 0 -64 -107h-25v-27q0 -184 51 -294q-13 -81 -26 -81l13 -26q0 -14 -38 -188v-80h-26v-27q26 -126 51 -161v-93z" />
<glyph unicode="e" horiz-adv-x="1404" d="M-2 905v26q97 0 191 178q0 122 26 395q-89 50 -89 498q-26 306 -90 306q-22 0 -25 63q4 26 25 26h51q0 -43 141 -102l127 13q262 -13 370 -26q299 64 344 64q21 0 217 -128v-89l51 -217l-26 -165q13 -23 13 -51q-53 -185 -115 -255h-38v12q38 119 64 281 q-42 127 -140 127q-60 0 -90 26q-89 -17 -89 -38q-39 0 -357 89v-51q-64 -193 -64 -281v-102l13 -63h-13l13 -26q0 -13 -13 -13q41 -293 128 -293q344 -108 344 -255v-51q0 -25 -102 -38v-13q-13 0 -38 13q-69 -13 -115 -13l-102 38l-13 -25v-51q0 -361 -63 -395 q0 -13 12 -13l-12 -128v-165l25 -39q0 -6 -13 -51q26 -101 26 -153h-13q0 -102 217 -102q21 -12 64 -12q331 41 331 89q13 45 13 51q0 280 -102 280v39h38q140 0 140 -255h13q-16 -161 -25 -192l12 -25q-33 -179 -51 -179h-38q-52 0 -102 13q-88 -13 -115 -25q-22 12 -51 12 q-51 -25 -51 -38q-192 18 -242 38l-13 -25q-13 0 -38 13q-222 -39 -280 -39h-39q-68 0 -89 51v13q0 16 128 153v13q-45 0 -90 752l13 26l-25 102q12 69 12 114v166q-68 67 -191 102z" />
<glyph unicode="f" horiz-adv-x="1379" d="M13 2257v12q7 0 51 13q25 -13 39 -13l12 26v13q0 42 -38 89v13q88 -2 179 -64q125 38 165 38h153q28 0 166 -51q13 0 13 13l280 -64q43 0 64 13q106 -13 179 -38v-39q0 -38 -13 -38l13 -64v-204q0 -148 25 -204l-51 -216l13 -26q-13 -25 -13 -38h-38l-26 13l13 63v77 q-89 344 -166 344q-9 0 -76 -13l-153 26q0 -13 -13 -13v26h-76q-32 -26 -64 -26q13 -25 13 -38q-13 -25 -13 -38h-26l-25 12q25 -114 25 -165q0 -39 -25 -102q13 -51 13 -90l-13 -89q13 -21 13 -64q-36 0 -51 -127q28 -26 255 -38q12 0 12 12l64 -12h26l89 12q41 0 51 -650 h-13l13 -25q-98 -141 -115 -141h-13q-25 0 -25 39q38 63 38 102v76q0 240 -127 281q0 21 -90 25h-25q0 -46 -64 -140q-115 16 -115 64h-12q0 -43 -13 -64q25 -4 25 -26v-38q-41 -39 -89 -344l26 -128q0 -17 -51 -89v-13l12 -76q-25 -50 -25 -140v-90q0 -12 -13 -12l51 -319 q-13 -29 -25 -166h-77q-113 0 -140 561l-64 650h13l-13 26v280q0 29 13 51q0 13 -13 13l13 64v76q-89 0 -89 90v12q0 26 89 51q-26 69 -26 255h-12l12 26v178q0 73 -12 90q12 69 12 114v268z" />
<glyph unicode="g" horiz-adv-x="1431" d="M-100 747v13q0 17 153 153l-13 64q0 13 13 38l-13 77v12q0 13 13 13l-13 26v89q0 46 13 115q0 12 -13 12l13 64v64q35 535 89 535q0 154 268 319l63 -13l90 13q24 -13 38 -13q84 39 178 39q128 -26 128 -39l25 13q159 -51 268 -217v-63h-25q0 -26 12 -26l-12 -89v-89 q-39 -49 -39 -115q0 -29 13 -51q-39 -196 -191 -395h-38q-13 0 -13 12q-18 0 -89 -51h-51q0 33 165 166q51 93 77 293q-57 193 -140 243h-26q-51 -47 -178 -77q-102 -33 -102 -166h-13l13 -25l-26 -64q13 -22 13 -51q0 -13 -13 -38q38 -144 38 -242v-64l-51 -191l13 -26 q-13 -70 -13 -102q13 0 179 -115q229 -51 344 -51q216 0 319 166v13q-20 53 -115 102h-51l-64 -38q0 12 -12 12q8 34 63 77l26 -13l25 13q255 -71 255 -204q0 -140 -127 -255q-27 0 -89 -140q-128 0 -128 -345q13 -24 13 -38q-13 0 -13 -13q26 -4 26 -25l-13 -26 q25 -49 38 -255h-13q26 -80 39 -204q-57 -190 -90 -255h-25q-48 0 -128 204q-118 -89 -165 -89q-13 0 -13 13l-26 -13q-203 0 -293 89q-204 53 -204 128q-127 158 -242 625q-26 179 -26 242q0 60 26 268l-26 12l-102 -51h-12zM486 89q0 -27 89 -344q0 -32 13 -102l-13 -26 l51 -114h39q60 0 255 102q-26 199 -26 344q0 38 -13 38l13 64v76q0 128 26 255q-331 186 -383 243h-13q0 -26 -12 -26q0 -13 12 -13z" />
<glyph unicode="h" horiz-adv-x="1614" d="M-122 635v153q0 13 13 13l-13 26v25q147 179 268 179q25 -13 38 -13q26 50 26 140v64h25q0 27 13 140l-38 230h12l-12 25v13q0 13 12 13l-12 25v191q0 29 -13 51q13 25 13 39q-13 24 -13 38h13l-13 25v51q0 29 13 51l-13 26q13 22 13 51v13q-18 0 -102 51h-13v114 q4 26 25 26l77 -13h13q8 51 76 51q25 -13 38 -13q0 17 77 51h64q215 -69 242 -127v-38l-51 -447q-13 0 -13 -38q13 -218 26 -268h-13l13 -25v-242q-64 -71 -64 -115q-64 -76 -64 -204q69 -60 370 -153l13 25q-39 310 -51 816q63 197 89 421q0 141 -51 204v13q4 25 25 25h26 q0 -38 25 -38h128q0 35 89 51v26h38q13 0 13 -13l26 13q229 -101 229 -115v-38q-56 0 -102 -243l-25 -25l12 -89q-38 -242 -38 -268l13 -26q-13 -38 -26 -38q0 -13 13 -38l-13 -128q0 -6 13 -51l-13 -25q13 -22 13 -51h-13l13 -26v-51q0 -165 -89 -165l-77 -166l13 -26 q47 26 102 26h26v25l63 -12q64 61 64 140l-38 25l-38 -25h-26v13q0 89 89 89q179 -77 179 -217v-13q0 -165 -408 -229q-64 0 -64 -102q-13 -164 -38 -344q13 -25 13 -39h-13l13 -25q0 -188 38 -650q0 -102 -102 -102l-115 624q-13 63 -13 166v38q0 29 -12 51q12 23 12 51v51 q0 71 -12 179l12 25q-12 23 -12 51v51h-39q-150 0 -382 128l13 -26v-25q0 -13 -13 -13l25 -115l-12 -25q0 -24 25 -102q-17 -201 -38 -230l13 -63v-115q0 -46 12 -115q-15 -99 -38 -140q0 -53 64 -230h-13q18 -102 38 -102q-17 -174 -51 -216q13 0 13 -13l-64 -13 q-51 180 -76 357q-48 4 -153 306q0 90 -115 638v38l51 331q-204 -18 -204 -127q-25 -4 -25 -26v-38q0 -64 63 -64h13v-12q0 -19 -38 -39h-64q-20 0 -51 51z" />
<glyph unicode="i" horiz-adv-x="690" d="M-17 2344q33 46 224 76q55 -37 57 -64l38 3q-3 27 10 28h6q39 0 101 -46l-3 28l25 2q2 -24 43 -38l23 16l26 2l81 -48l1 -167l16 -180l-21 -43l6 -69q5 -53 5 -127q0 -32 -1 -67q15 -26 16 -40q-64 -201 -64 -272v-11l2 -28l19 -81l-17 -86l15 -26l-10 -29q15 -23 17 -54 l-13 -1l16 -26q2 -26 2 -53q0 -114 -41 -243q15 -22 18 -54q1 -14 -12 -15q30 -54 33 -80l-12 -1l14 -27l4 -41q-98 -115 -98 -182v-7l26 -165l-9 -28q14 -24 16 -54q2 -15 -8 -43q14 -23 17 -54l1 -13q-25 -3 -48 -171l53 -177q1 -14 1 -27q0 -85 -50 -144l-25 -2h-2 q-46 0 -102 158l13 1q-80 178 -90 297l-11 125l5 84q-47 250 -108 365v20q0 163 46 332h-3q-53 0 -90 186v68q0 369 -20 597q-18 -1 -41 38l-3 28l62 20l-18 206q-3 31 8 56q-15 23 -18 54l13 2l-15 25l-11 125q-111 92 -115 142z" />
<glyph unicode="j" horiz-adv-x="1137" d="M-101 -204q0 56 26 115q-13 24 -13 38q64 99 64 268l51 51h12l64 -13q0 -13 -13 -13q26 -175 26 -382h-13l13 -26v-178q0 -18 76 -77q268 64 268 268v64q-38 422 -38 586l76 383v76q0 67 -12 217q-71 0 -128 293q0 13 13 13q-21 340 -77 459q26 32 26 38q-100 0 -153 128 l38 51l51 -13q38 0 102 25q22 -12 51 -12q197 70 281 153l153 -13q85 102 165 102h26v-13q-102 -116 -102 -319l13 -89h-13q115 -327 115 -344q-13 -87 -13 -140l13 -26q0 -59 -102 -510q25 -52 25 -76q-13 0 -13 -13q26 -4 26 -26q0 -12 -13 -12q26 -26 38 -217 q0 -6 -12 -51l12 -26l-12 -76v-64q-49 0 -90 -127q-38 0 -63 -153q12 -220 12 -255q-25 -102 -76 -141q0 -55 -64 -102q0 -32 -51 -51q0 -44 -102 -114q-11 -50 -306 -128q0 -13 -38 -13h-13q-112 51 -217 141q0 25 -25 25q13 25 13 38q-30 110 -77 192q0 12 13 12z" />
<glyph unicode="k" horiz-adv-x="1682" d="M48 2410v38h64q29 0 51 -13l89 26q345 -89 345 -166v-26q-51 0 -51 -140q63 -115 63 -153v-76q0 -29 -12 -51q12 -25 12 -39q-17 0 -51 -114q0 -12 13 -102q-38 -157 -38 -217v-26q3 -63 25 -63q150 76 268 102q140 173 140 216v26q0 29 -12 51q38 182 102 714v13h89 q13 0 13 -13q24 13 38 13q41 -26 64 -26q75 0 178 38q115 0 204 -51q0 -53 -76 -76q0 -21 -90 -179q26 -105 26 -204q0 -13 -13 -38q13 -22 13 -51q0 -13 -13 -13q13 -24 13 -38l-13 -51l13 -25q-13 -23 -13 -51q13 -25 13 -39q-64 -21 -102 -153q-43 0 -89 -63 q-26 0 -51 -77q-125 -146 -255 -229l-13 -26l459 -178v-39l-13 -25q38 0 64 -51q-51 -61 -51 -140q25 -83 25 -115v-38q0 -65 -25 -153l13 -26q-10 -51 -26 -51l13 -51q-38 -298 -102 -344l-13 -64h-13l-25 13q0 -36 -38 -179q47 -114 89 -114q0 -13 -13 -13l140 -204 q39 -59 39 -166q-23 -13 -51 -13q-22 3 -192 217q-69 32 -229 217q-77 151 -115 357q0 13 13 13q-38 181 -38 408q12 382 12 446l-25 13l-26 -13q-216 64 -216 76q-100 0 -115 -191q-14 -127 -51 -127q13 -25 13 -39q-26 -181 -26 -255v-51q0 -12 26 -102q-26 -31 -26 -51 l13 -51q-38 -62 -77 -357l13 -25l-13 -64q0 -13 13 -38q-31 -242 -102 -242h-38q0 13 -13 38q0 13 13 13q-51 297 -51 433q-58 26 -77 612q13 25 13 38q-13 23 -13 51q13 45 13 51q0 13 -13 13q0 14 13 38q-13 200 -13 294q0 198 39 369v13q0 80 -39 472h13q0 13 -13 13 l13 63q0 13 -13 13q13 45 13 51l-13 179l13 153q-38 86 -38 102q22 12 51 12q0 21 -128 141z" />
<glyph unicode="l" horiz-adv-x="1430" d="M-123 -614q25 115 51 145v37q38 0 89 120q22 2 76 133l-12 25q51 80 76 434l-38 326l13 25q-26 101 -26 265v60l51 351q-64 85 -64 145q13 198 77 628q0 55 -115 120q-76 123 -76 132h12q16 0 128 13l25 -13q128 34 128 97h64q53 0 178 -84q52 -24 77 -24q83 48 191 48 q25 -39 25 -60q-273 -150 -273 -254q0 -22 39 -109q0 -12 -13 -36q13 -66 13 -97q0 -12 -13 -36q15 -93 38 -121l-13 -23q0 -25 13 -25l-13 -84v-13q0 -49 13 -96q-13 -217 -51 -217q-25 0 -25 -36q0 -221 -51 -411q0 -12 12 -12q0 -23 -25 -85l38 -145q73 -81 73 -130 q0 -31 -29 -50q-64 -70 -64 -158v-48q0 -26 13 -48l-13 -24l13 -73q0 -12 -13 -12q0 -156 89 -156q449 -109 485 -145q306 132 306 217h38q25 -4 25 -24v-37q0 -80 -89 -156q0 -102 -204 -193q-81 0 -331 -13l-281 49q-22 -13 -51 -13v13l-25 -13h-26q-13 0 -13 13l-25 -13 q-13 0 -13 13l-140 -25v12l-77 -23l-25 11q-115 0 -204 -97q-25 -11 -38 -11v11z" />
<glyph unicode="m" horiz-adv-x="1901" d="M-63 2334v63h12q80 -76 130 -76q12 38 71 38q67 -38 95 -38q4 25 24 25h48v-25h47q190 -46 190 -102q66 -23 130 -166q47 -112 47 -127l-12 -26q37 -76 48 -242h-11q14 -61 47 -102q-24 -46 -24 -115q0 -30 35 -102q-11 -22 -11 -51h23v-25q0 -40 95 -370l36 -26 q189 331 189 472q-11 0 -11 13q23 0 154 421q39 0 47 331v26h24v51l-35 51v25q47 43 47 77h36q69 0 237 -90q0 26 154 90q21 -13 48 -13q85 51 130 51q0 -77 -83 -166q-47 -104 -59 -280q12 -23 12 -51q-8 -115 -24 -115q0 -13 12 -13l-12 -64q12 -67 12 -76l-12 -26l12 -25 q-10 -94 -36 -128v-63q0 -13 11 -13l-11 -26v-76q0 -29 11 -51l-70 -217q-44 0 -60 -191l12 -64q-33 0 -47 -115q12 -24 12 -38q-9 -51 -24 -51l24 -51q-12 -25 -12 -38q59 -209 59 -230q-12 -127 -59 -191q-29 -127 -35 -127q0 -13 11 -13l-36 -166q12 -24 12 -38 q-12 -38 -24 -38q0 -13 12 -13l-12 -64v-76q37 -90 48 -90q-24 -96 -24 -178v-51q-35 -42 -35 -64h-36q-118 80 -154 714l12 26q-24 51 -24 89h12l-24 140q12 76 36 536q-24 165 -24 242q-77 -127 -154 -306q-13 -1 -95 -128q0 -12 12 -12q0 -206 -119 -434l-47 -38h-71 q0 37 -83 255v140q-48 136 -285 446h-12q-12 -242 -35 -242q0 -13 11 -13q0 -146 -83 -331q-35 0 -47 -268l47 -153l-12 -25q0 -13 12 -13q-23 -361 -59 -446v-115q0 -20 -48 -51q-72 0 -130 306h12l-12 25v102q-59 467 -83 1020q-20 0 -24 166q0 199 36 612h-12l12 26v38 q0 29 -12 51q12 25 12 38q-12 25 -12 38h12q0 13 -12 13l12 64v178q0 46 12 115q-36 195 -59 230v63q-24 0 -107 141z" />
<glyph unicode="n" horiz-adv-x="1476" d="M-25 2377v63h53q0 -50 202 -101q0 -12 11 -12q9 0 85 12l43 -12q71 38 85 38q31 -13 31 -26l22 13h21q21 -4 21 -25v-25l-32 -50v-127q160 -381 160 -402q10 -88 63 -176q68 -201 128 -201l-11 -25q85 -183 118 -289q16 -101 42 -101l-11 126v138q0 68 -31 138h-11l11 26 q-33 191 -33 276q0 109 43 479v62l-43 63v13q59 75 128 75q39 0 138 -63q9 0 224 75h53v-37q-75 -109 -75 -201v-101q0 -13 -10 -13q0 -12 10 -12q-21 -153 -21 -289q0 -72 21 -151l-21 -51q11 -66 11 -75l-11 -50v-38q-19 0 -42 -113q-9 0 -32 -38l10 -25q0 -42 -10 -63 q10 -128 10 -201v-239l11 -126h-11l22 -101q-11 -21 -11 -50l11 -62l-11 -26q11 -24 11 -37q0 -63 -22 -63q0 -13 11 -13l-11 -62v-63q0 -127 22 -252l-11 -50q31 -233 31 -295q0 -20 -10 -20l10 -24q-16 -51 -74 -51q-38 0 -202 427q-180 450 -180 479q-55 183 -202 352 q0 28 -192 301q-21 31 -21 51h-22q0 -20 -20 -51q0 -25 10 -25l-42 -578l21 -189q-21 -113 -32 -113q11 -13 21 -214l-10 -50q10 -25 10 -38l-10 -25q0 -13 10 -13q-13 -327 -63 -327h-11q-11 0 -32 51q0 13 11 13q-96 451 -149 766q0 42 21 201q0 263 -106 956h10l-10 25 v138q0 760 -128 893z" />
<glyph unicode="o" horiz-adv-x="1356" d="M29 992v146q0 122 13 223q-13 57 -13 198q38 169 51 394q79 200 191 276q137 0 255 145l102 79q126 0 434 -276l-13 -66q199 -158 255 -395q-13 -23 -13 -52l13 -27q0 -13 -13 -13q0 -214 64 -342q-38 -62 -51 -132l13 -26l-77 -144q-12 -153 -38 -198l13 -92 q0 -99 -38 -250q0 -13 12 -13q-12 -99 -25 -131l13 -27q-13 -195 -77 -552l13 -27q-131 -434 -306 -434l-51 27l-26 -14q-194 44 -280 119q-191 266 -191 394q-18 27 -39 27v26q0 52 -114 381q-77 578 -77 776zM403 1984q114 -184 114 -251h-12l12 -26v-144q0 -14 13 -14 q-13 -25 -13 -39q0 -140 13 -198q-13 -161 -13 -316v-170q0 -13 -12 -13q38 -182 38 -435q0 -13 13 -39q-13 -26 -13 -39q64 -272 102 -526q25 0 25 -53h39q111 45 153 223q63 248 89 684q-13 26 -13 40q13 52 13 92q0 14 -13 39l13 66q-51 259 -77 487l13 26 q0 153 -140 671q0 101 -26 263q-63 -88 -306 -237l-12 -66v-25z" />
<glyph unicode="p" horiz-adv-x="1402" d="M-151 2266v38q0 54 166 115l89 12h25q29 0 51 -12q25 12 39 12q91 -12 255 -63q125 51 369 51l255 -77q204 -116 204 -446q13 0 13 -191h-13l13 -26q-13 -67 -13 -76l13 -26q-13 -25 -13 -38q0 -7 13 -51l-13 -26q13 -22 13 -51v-12q-44 0 -89 -332q-21 0 -128 -166 q-55 -64 -89 -153q-64 -153 -191 -153q-94 -45 -242 -76q-55 -297 -115 -357q0 -26 13 -26l-26 -241q13 -25 13 -38q-26 -58 -26 -166v-89q0 -13 -12 -13l12 -26v-12q0 -43 -12 -64l25 -140q0 -102 -89 -102l-89 497q0 13 12 13q-38 532 -114 777h12l-12 25q0 19 12 179 q-25 120 -25 198q0 152 13 452h-13l13 25v255q0 13 12 13q-12 25 -12 38t12 13l-25 191h13q-44 58 -102 243q-59 127 -153 127h-13l-38 -25h-13zM549 982l72 -64q64 0 243 280q51 106 51 204v90l-13 63h13q-39 203 -39 383v76q-26 13 -251 13q0 -51 -13 -51l13 -25v-77 q-25 -243 -64 -357q13 -22 13 -51l-25 -13l12 -25v-38q0 -13 -12 -13q12 0 25 -230q-25 -114 -25 -165z" />
<glyph unicode="q" horiz-adv-x="1380" d="M-36 1466q13 25 13 38l-13 115q13 25 13 38t-13 13q0 51 64 293l64 434v64h13q140 -8 140 -26v-13q6 0 51 13q162 -38 242 -38q182 64 242 64l26 -13q25 13 38 13q0 -32 128 -64q51 38 344 115h51q25 -4 25 -26q-88 -75 -191 -140q-102 -240 -115 -293q0 -13 13 -13 l-13 -128v-140q0 -29 13 -51q0 -13 -13 -13q17 -200 26 -216l-13 -77v-13q0 -52 13 -102q-13 -49 -13 -102q0 -39 26 -153l-13 -51q0 -12 13 -12q-35 -345 -51 -345l12 -25q-59 -242 -89 -242q0 -7 13 -51q-13 -91 -13 -102l26 -102q-26 -4 -26 -26v-140q0 -64 -25 -64 q0 -13 12 -38q-51 -314 -76 -561q13 -22 13 -51h-13l13 -26v-38q0 -29 -51 -127h-39q-153 535 -153 1032q-12 0 -25 204q13 180 13 306q0 42 -26 268h-13l-25 -13q-386 145 -472 281q-115 196 -153 344h-13zM474 1377q129 -293 141 -293l12 25v51q0 73 13 89q-13 69 -13 115 v89q0 13 -12 13l12 26v140q0 89 13 280h-25q-39 0 -90 -344l-12 -64v-38q-39 0 -39 -25v-64z" />
<glyph unicode="r" horiz-adv-x="1517" d="M-232 2143v48q0 71 86 133q0 66 217 85h13q105 0 242 -85l121 -23q124 33 303 48q246 -47 267 -85l85 12h48v-49q24 0 24 -23h86q0 -7 -13 -49q133 -360 182 -740q-12 -36 -24 -36q0 -12 12 -12q-16 -219 -60 -219q-100 -123 -183 -169l-24 -36q0 -70 243 -134 q4 -24 24 -24q-12 -133 -24 -133l12 -25q0 -12 -12 -12l12 -24v-109q0 -42 24 -546q-104 -144 -122 -364v-61q0 -26 13 -48q-13 -23 -13 -36q0 -110 61 -110v-11l-12 -25q122 -137 122 -182h48l85 -12q133 79 133 206q-24 13 -36 13l12 24q-37 0 -37 36h-24q-24 -1 -73 -121 h-24q-21 0 -36 72q20 0 97 122q12 0 36 12q150 -94 158 -158q-34 -214 -73 -218q-133 -83 -133 -96t-73 -25q-166 0 -279 145q-85 124 -121 546q-27 0 -73 327h-24l12 49q25 232 25 367q0 191 -49 191l-146 97q-65 78 -121 84q-40 0 -206 13v-73q-55 -44 -84 -315h-13 l13 -24q-28 0 -49 -183q0 -14 12 -36q-20 0 -37 -425h-11l11 -24q-36 -124 -48 -316l-24 -11h-25l-60 557v170l-12 85h12q-24 112 -60 316h12q0 13 -12 13q0 12 12 36q-25 189 -25 327v12q0 12 13 12l-13 24v158q0 28 13 49q0 12 -13 12q25 97 25 218q0 48 -12 48l12 61v133 q-128 667 -219 667q-23 0 -23 24q-146 -41 -146 -145h-37zM599 1326q12 -50 12 -102h134q179 70 179 204l25 25l-13 26v13q57 0 115 102q0 38 13 38l-13 25q0 13 13 13q0 13 -13 13l13 64v153q0 94 -38 102h-26q-62 0 -127 -39l-26 13q-248 -9 -248 -38v-77q0 -94 38 -102 q-13 -113 -26 -140l13 -25q-13 -51 -13 -90l13 -25q-10 -22 -25 -153z" />
<glyph unicode="s" horiz-adv-x="1254" d="M56 19q36 513 94 576q28 126 141 212h24q0 -67 -106 -306l12 -23q0 -24 -24 -24q47 -70 71 -153q23 0 70 -176h12l-12 -59q36 -212 106 -281q6 0 35 -23q37 17 223 304q70 244 70 647q0 11 12 11q-42 126 -152 153q-185 200 -258 200q-306 286 -306 422q0 67 -12 82 q12 23 12 35t-12 12q49 322 167.5 520.5t338.5 266.5q64 12 93 12q19 -70 105 -141q6 -25 224 -106q160 -135 164 -152l-12 -24q33 0 83 -258q-29 -24 -47 -24v-82q0 -12 -12 -12l12 -23q0 -65 -71 -177q0 -94 -59 -94q0 -35 -23 -35h-141q-60 43 -106 223l24 12 q22 -70 82 -117h35l106 152l23 83q-43 223 -141 223q-47 17 -47 35q-11 0 -11 -12q-153 18 -153 36q-60 -12 -128 -59q-141 -95 -141 -317q179 -247 386 -247q0 -34 165 -152q69 -30 129 -270l-12 -24q106 -173 106 -446v-59l-12 -70q12 -23 12 -36q-4 -73 -82 -152 q-29 -129 -59 -129l24 -105q-94 -239 -177 -365q-169 -141 -316 -141q-129 94 -317 177q-212 364 -212 480z" />
<glyph unicode="t" horiz-adv-x="1620" d="M-4 2246q26 51 77 51q64 0 64 -26q65 0 675 77q72 0 383 -39q153 26 166 26q216 -41 216 -217q26 -127 26 -229v-102q-140 -328 -140 -472l-26 -13h-13v179q0 12 13 12l-13 26v13q0 12 13 12l-13 26v38q0 67 13 217q-43 0 -64 13q-22 -13 -51 -13v13q-182 -64 -255 -64 v-179q0 -108 -25 -165q13 -27 25 -141h-12l38 -76h-26v-26q0 -38 13 -38q0 -13 -13 -38q13 -140 13 -255q0 -42 13 -64q-13 -22 -13 -51q0 -13 13 -38q-22 -98 -38 -421l12 -25q0 -157 -89 -347h-13l13 -25q-44 -213 -89 -293q13 -184 38 -268v-102q0 -26 -25 -26h-13 l-64 13v51q-102 214 -102 729q0 13 13 13l-13 127v446q0 29 13 51q-13 32 -38 421v102q0 64 -26 64q0 13 13 13q-26 232 -26 293l13 25q-25 204 -64 204q-24 -12 -38 -12q-42 25 -76 25h-115q-73 0 -140 -280q-39 -13 -39 -77v-255q-42 64 -63 64l12 25q-25 83 -25 115v89 l13 77q-26 152 -102 319q-26 120 -26 191q0 31 13 191q-26 0 -26 26z" />
<glyph unicode="u" horiz-adv-x="1721" d="M-9 2381l26 12h38q35 -138 281 -165h12q0 25 204 76q57 51 115 51h13q-102 -357 -166 -459q0 -46 -13 -115l26 -242q-13 -102 -26 -102l13 -25v-64q-25 -17 -51 -293q-13 0 -25 -64l12 -77v-12q0 -64 -25 -64l13 -26v-76q0 -29 -13 -51q89 -539 89 -638q-54 0 -76 -267 v-39q240 -178 318 -178q23 13 51 13v-13q179 0 179 229q-13 23 -13 51h13q0 13 -13 13q0 46 89 536q13 156 13 306v102l-13 63h13l-64 345v114q0 13 13 13q-13 64 -25 64l12 25l-38 166q26 107 51 536q-13 125 -38 242q6 0 38 25h13q131 -100 217 -114q79 38 114 38l141 -38 l127 25v-13l26 13h25q18 0 38 -38q-68 -84 -127 -434q-46 0 -64 -165q-25 -39 -51 -39l13 -25q0 -13 -13 -13q13 -25 13 -38l-13 -51q0 -13 13 -13q-77 -307 -77 -395v-51q0 -13 -12 -13q0 -13 12 -13q-12 -194 -51 -280q13 -22 13 -51q-76 -219 -102 -370q38 -77 64 -446 h-13l13 -26v-12q0 -13 -13 -13l13 -26q-51 -267 -115 -267q-89 -83 -89 -102h-77l-89 -26q-96 26 -102 26q-67 -13 -127 -13v13q-13 0 -13 -13q-424 37 -497 344q-51 439 -141 880q0 301 -51 612l39 803q-22 181 -90 332z" />
<glyph unicode="v" horiz-adv-x="1927" d="M-54 2346v13q77 25 229 25l26 -13q10 0 357 115l12 -25q0 -31 -51 -255q2 -80 39 -179q0 -152 -26 -229q22 -35 77 -383q12 0 12 -25q-12 -25 -12 -39q33 0 89 -395v-13q0 -28 -13 -51q13 -24 13 -38l-13 -64q0 -79 102 -433q0 -10 13 -77h-13q13 -24 13 -38l-13 -25 q19 -79 51 -332h-13q39 -52 51 -191h13q51 205 51 408h13q-13 25 -13 38q0 68 102 434q153 862 204 1020q47 46 77 408l-64 204q13 22 13 51q-32 38 -51 38v102h51q58 -115 114 -115q51 -6 51 -38q150 13 281 38l64 -13q41 26 76 26l51 -13v-25q-105 -128 -127 -128 q-166 -234 -166 -484q-23 0 -26 -141l13 -25q0 -34 -140 -536q-60 -229 -140 -395q0 -26 -128 -370q-38 -256 -38 -293q-89 -77 -89 -191q-24 0 -64 -242q-16 0 -26 -77h-114v51q0 64 -204 421q-64 158 -115 625q-51 109 -166 459q-89 95 -166 459q0 60 -102 420 q-12 73 -12 204v51q0 56 -153 281z" />
<glyph unicode="w" horiz-adv-x="2436" d="M-70 2223v40q27 0 214 67q34 -22 203 -40q119 71 181 146h23q22 -4 22 -26q-67 -244 -90 -479q25 0 34 -133h-11q15 -233 90 -359q0 -21 22 -53h-10l10 -28l-10 -26q22 -49 22 -106v-93q0 -113 -57 -187q23 -4 23 -26v-13q0 -73 12 -187q0 -12 -12 -12l12 -67v-81 q0 -12 -12 -12q12 -28 22 -120h-10q123 -358 123 -572l23 -13h11q0 70 147 492q22 307 102 558l-12 27q46 65 124 466q-11 0 -11 13q30 0 57 239l-12 93q12 253 57 253q0 -133 23 -200h-12q62 -718 113 -718q80 -216 180 -652v-79q4 -27 23 -27h12l90 359q91 325 91 386 q0 183 135 625q0 206 56 413q-22 72 -45 319l34 26h22q102 -103 204 -132h34q26 0 45 12q92 -40 158 -40q59 14 68 14q19 -14 45 -14v-66q-23 0 -45 -93q-36 0 -181 -266q-18 0 -45 -53v-120q0 -56 -12 -146q12 -26 12 -40l-192 -559q-67 -379 -169 -598q0 -106 -136 -360 q0 -69 -135 -491q-12 -18 -12 -94q0 -29 12 -53q-15 -93 -34 -93q-135 80 -135 106q-24 57 -24 67q0 352 -78 519q-34 129 -34 159h11l-11 27v66q0 197 -102 585q0 53 -23 53q-10 -217 -45 -305q0 -14 11 -14q-22 -146 -33 -146q11 -26 11 -39q-23 -93 -45 -93 q-102 -306 -125 -559q0 -119 -124 -333h-11q-14 0 -79 213l-147 372q0 44 -146 506q-19 189 -102 465q-68 202 -90 493h-12l12 26q-79 199 -169 705q0 53 -136 106z" />
<glyph unicode="x" horiz-adv-x="1746" d="M-40 2065q0 44 115 51l140 -51q110 41 166 166l127 -13q239 77 268 77h26v-64q-230 -98 -230 -204q-51 -147 -51 -446v-13q0 -182 140 -306q77 -217 102 -217q153 236 179 421q-13 0 -13 13h26v25q109 459 191 536l-64 51q-25 -13 -38 -13v13q157 153 293 153 q153 -66 153 -77q13 13 166 26q127 -13 127 -51v-38q-124 0 -229 -166q-60 -13 -255 -357l13 -51q-13 -22 -13 -51h13q-97 -279 -128 -319l13 -25v-26q-30 0 -89 -166q-166 -209 -166 -267l13 -26q-13 -25 -13 -38l13 -89h-13q40 -234 268 -510q143 -220 204 -421 q51 -80 51 -102q-13 -25 -13 -38h-64q0 18 -229 318q-331 392 -383 600l-25 12l-128 -229l-229 -421q0 -31 -77 -166q-42 -242 -140 -242q-13 0 -13 13q0 29 -13 51l13 64q0 13 -13 38q47 272 115 395q93 452 255 778q66 102 77 102q-150 204 -370 548q-179 252 -179 625 q-23 89 -89 127z" />
<glyph unicode="y" horiz-adv-x="1792" d="M-153 2217v51q0 18 32 38h11q0 -13 10 -38q219 22 259 89h11q92 0 215 -38l54 13q17 0 151 -13q21 13 33 13v-13q0 -13 -11 -13l11 -25v-13l-54 -13v-25l21 -39v-25q-57 -37 -86 -88q0 -54 -43 -153q53 -41 97 -255q87 -152 108 -152q0 -13 -11 -13q125 -272 172 -319 q27 55 108 319q-10 0 -10 13q34 0 107 241q11 4 140 331l-11 26l11 75q0 31 -129 90l-11 25v26q5 0 43 -13l22 13q76 -51 150 -51q55 0 281 63q85 0 302 77h64q22 -4 22 -26q-108 -84 -108 -102q-100 -35 -294 -432l-129 -343q10 0 10 -13q-38 0 -150 -268 q-30 -14 -141 -318q-79 -82 -118 -204v-63q-43 0 -43 -77q47 -51 47 -130q0 -89 -58 -213h-11q0 -13 11 -13q-9 -140 -21 -140q0 -13 10 -13l25 -534q-51 0 -64 -128q-50 -99 -77 -190l11 -26q-27 -102 -43 -102h-43q-107 71 -107 204q0 228 -33 242l11 63v319q0 45 -11 114 q11 25 11 38q-21 96 -21 179v63q0 72 21 407q-32 250 -118 369q-108 132 -186 408q-36 0 -86 190q-173 240 -300 497z" />
<glyph unicode="z" horiz-adv-x="1850" d="M-50 -485q38 102 38 128q0 13 -13 13q0 265 357 1045q63 139 294 383q0 215 522 905h-25q-178 -26 -255 -89h-51l-77 12q-23 -12 -127 -25h-89q-102 -146 -102 -281q0 -57 51 -114v-13h-26q0 -24 38 -102q0 -13 -12 -13q12 -88 25 -115h-13q-165 126 -267 714h12l-12 26 v13q0 111 -51 369h12q0 13 -12 13q12 102 38 102q73 -64 115 -64q69 -12 140 -12l242 38l26 -13l25 13q58 0 319 -51h204l76 -13q140 26 306 102q115 6 115 89h38v-38q0 -13 -12 -13q0 -12 12 -12q0 -168 -293 -587l-127 -255q-48 -175 -179 -331q-162 -213 -280 -472 q-169 -219 -255 -408l-153 -204q-73 -183 -166 -357v-26h140q121 0 663 -140l306 -64q89 26 191 204q-91 141 -178 141q13 51 76 51q146 0 217 -166q0 -142 -166 -332q0 -55 -433 -114q0 -13 -13 -13q-174 0 -459 115q-123 25 -140 25h-128q-35 -30 -102 -51v-25h-12 q-13 0 -13 12q-140 -29 -140 -114q-26 -52 -26 -77h-51q-105 140 -115 140q-15 0 -25 51z" />
<glyph unicode="{" horiz-adv-x="1173" d="M60 1174v51q166 112 217 268q107 0 179 523q0 439 229 752q70 89 396 166h12q-12 -30 -153 -102q-178 -185 -178 -204q-77 -295 -77 -396q0 -13 13 -38l-13 -76v-153q0 -13 -12 -13q12 -25 12 -38q0 -287 -76 -421q13 0 13 -13q-124 -179 -192 -179q-172 -146 -242 -153 v-12q255 -307 255 -778q0 -118 -64 -383q-13 -161 -13 -191q28 -256 230 -256h242q0 -127 -267 -127h-13q-294 56 -294 140q-51 0 -140 243v76l89 714v90q0 392 -153 510z" />
<glyph unicode="|" horiz-adv-x="548" d="M60 1084q0 27 63 395h-12q41 0 89 752q51 205 102 637l-38 64v13h63q102 -95 102 -230q-16 -155 -25 -178l13 -26q-13 -108 -13 -165q25 -90 51 -357q-13 -25 -13 -38q0 -72 26 -357q0 -32 -26 -179l13 -51q-18 -268 -64 -268v-38q-64 -173 -64 -217q13 -178 26 -191 q-13 -25 -13 -38q26 -38 77 -281l-39 -369q13 -67 13 -128h-13q13 -25 13 -38l-13 -64q0 -25 13 -25l-13 -128v-127q0 -13 -12 -13q25 -52 25 -77l-25 -12h-13q-39 9 -102 153h-13l13 25q-47 0 -128 918q-51 243 -51 383v140q0 46 -12 115z" />
<glyph unicode="}" horiz-adv-x="1338" d="M60 2985v25q0 34 204 51h63q143 0 281 -293q76 -245 140 -689q0 -12 -12 -12l25 -153q-13 -23 -13 -51q13 -25 13 -39h-13q57 -295 102 -344q0 -59 408 -179v-38q-200 -24 -318 -127q-64 -65 -102 -370v-166q0 -13 -13 -13l13 -25v-90q-77 -666 -115 -765 q-152 -282 -268 -332q0 -12 -89 -51q-149 0 -255 115v26l25 -13h13q133 19 229 115q161 138 255 663q0 41 51 421v166q0 144 141 408q0 32 51 38q-180 117 -281 204q-178 352 -178 612q0 55 89 536q-44 319 -115 319q0 23 -127 25h-102q-12 0 -102 26z" />
<glyph unicode="~" horiz-adv-x="1951" d="M60 791q0 202 229 383q59 41 230 89h64q236 0 535 -370q18 0 179 -153l51 -38q0 13 13 13q0 -70 255 -153h25q29 0 51 89q-38 86 -38 140v26h13q204 -64 204 -192q-123 -267 -370 -267q-16 -13 -89 -13q-163 0 -625 548q-210 64 -255 64q-408 -14 -408 -64l-26 -76 q0 -112 128 -255h-26q-58 0 -140 229z" />
<glyph unicode="&#xa2;" horiz-adv-x="1581" d="M60 1046q12 170 89 434q-13 0 -13 13q33 0 115 191q147 215 472 293q0 81 51 485q102 -125 102 -319l-13 -115l26 -12h25q319 0 319 -102q0 -45 140 -153q128 -108 128 -192v-13l-140 179q-22 0 -64 38h-26q105 -103 166 -268q13 0 13 -12q0 -13 -13 -13l13 -64 q-9 -89 -38 -89q-15 0 -77 153h-13v13q0 12 13 12q-87 166 -293 166q-128 0 -128 -102v-25q13 -39 26 -39q-26 -135 -26 -216q0 -84 51 -281q0 -13 -13 -13q17 -172 26 -204q0 -13 -13 -13q0 -11 38 -204l-25 -12q0 -13 13 -13l-13 -64v-25q190 0 332 293h38q25 -83 25 -115 q-70 -242 -140 -242q-77 -54 -77 -90h-12l12 -25v-13q-176 0 -191 -242q-89 -352 -153 -434h-13q-77 0 -127 561h-13q-328 223 -408 319q-162 224 -166 332h13q-21 37 -38 242zM455 804q0 -187 179 -319h12q0 30 -25 191h13l-13 26v357q0 128 13 383h-26 q-153 -414 -153 -574v-64z" />
<glyph unicode="&#xa3;" horiz-adv-x="1569" d="M60 51v51q46 45 89 141q72 0 166 382q8 0 51 243q-13 22 -13 51h-89q-22 0 -140 51q-25 -13 -38 -13q-26 42 -26 77q141 94 306 140q13 22 13 51l-13 25q26 73 38 204l-12 26l102 332q226 384 497 433q52 26 77 26l25 -39l26 13h38q0 -76 127 -115q0 -18 39 -38 q22 13 51 13q0 -55 102 -179v-51l-26 -38q-123 26 -242 26q0 -30 -102 -64q-102 -303 -230 -370q-51 -150 -51 -242q584 -64 651 -153v-26q0 -26 -179 -89q0 -57 -229 -115q0 -19 -141 -51l-153 25q-51 -258 -76 -293q125 0 586 -166q0 -17 205 -51v-102l-90 -102l13 -25 q-26 -4 -26 -26l13 -25q-16 0 -102 -39q-13 0 -13 13l-63 -13h-13q-40 0 -370 153q-25 0 -25 13q-257 0 -460 -140q-63 -89 -153 -89q-99 0 -140 165z" />
<glyph unicode="&#xa4;" horiz-adv-x="1121" d="M60 1339v12q12 25 12 39h77q47 0 191 -90l51 26l26 -13q12 0 12 13q138 -8 268 -102q102 166 306 242q25 -13 38 -13v-25q0 -102 -229 -306q-19 0 -38 -51l38 -128q0 -49 -77 -153v-12q78 0 153 -217h-25q-73 0 -179 178q-46 -25 -102 -25h-25q-56 0 -166 89 q-149 -127 -178 -166q-23 -12 -51 -12q-39 12 -39 25l-25 -13h-13q115 262 115 281h89l26 -13q-35 93 -51 179q12 22 12 51v25q-127 166 -204 191q0 -12 -12 -12zM417 943q0 -20 51 -51h12q69 0 90 51v13q-33 140 -64 140l-89 -114v-39z" />
<glyph unicode="&#xa7;" horiz-adv-x="1007" d="M60 1300q0 211 255 447q12 0 114 76q53 -25 77 -25q25 12 38 12q51 -9 128 -102q21 0 80.5 -76.5t59.5 -127.5v-25q0 -102 -102 -102l-64 13q0 -13 -13 -13v13l13 63l-13 26q13 22 13 51q-64 56 -64 89q-87 0 -191 -115h-13l13 -25q-58 0 -115 -166v-13q0 -61 128 -76 q307 -110 395 -255q9 -64 38 -64q13 -25 13 -38q-33 -153 -51 -166q115 -135 115 -166l13 -76v-13q0 -268 -102 -268q-83 -51 -319 -89q-25 13 -38 13q-114 -26 -153 -26q-118 0 -192 128v76q26 68 102 102h64q22 0 38 -76q118 48 306 89q51 57 51 64v13l-25 89 q-172 13 -255 13h-13q-64 0 -64 38l-25 -13l-191 281v63l63 166q-114 161 -114 191zM353 816q0 -38 127 -38q68 9 128 89v64q0 42 -179 76q-22 0 -76 -89q0 -13 13 -13l-13 -64v-25z" />
<glyph unicode="&#xa8;" horiz-adv-x="721" d="M60 2748q0 13 14 26l71 72q13 12 25 12q11 0 27 -14l69 -73q10 -14 10 -25q0 -13 -12 -27l-69 -75q-17 -17 -25 -17q-14 0 -25 12l-76 86q-9 12 -9 23zM425 2748q0 13 14 26l71 72q13 12 25 12q11 0 27 -13l69 -74q10 -14 10 -25q0 -13 -12 -26l-69 -76q-17 -17 -25 -17 q-14 0 -25 12l-76 87q-9 11 -9 22z" />
<glyph unicode="&#xa9;" horiz-adv-x="1178" d="M-115 1479q32 149 179 306q133 120 280 153h115q25 -4 25 -26v-12q-12 0 -12 12l-26 -12l-25 12q-16 0 -90 -76q-93 0 -267 -268q-39 -115 -39 -153v-25l102 -281q89 -242 204 -242q0 -31 268 -89q70 0 370 178q0 38 89 153q26 127 26 230v51q-115 331 -230 331 q-86 89 -242 89h-13v-12q152 0 268 -294v-12q0 -102 -128 -102q-13 0 -38 -13q0 13 -13 13q26 41 26 63q-13 25 -13 39h13q-38 127 -128 127q-170 0 -255 -268q-12 -122 -25 -140q73 -217 229 -217h39q204 13 204 90q76 -8 76 -39v-25q-32 -85 -242 -179h-51 q-421 166 -421 383q-30 0 -38 89q0 275 191 383q124 102 191 102v12h-140v26q226 51 242 51q7 0 51 -13l90 13q357 -139 357 -242q41 -32 89 -192h-13q21 -38 38 -229q0 -142 -165 -332q-281 -204 -370 -204q-482 102 -587 281q-89 128 -191 510z" />
<glyph unicode="&#xad;" d="M-251 829v13q197 268 434 268q356 -140 434 -140q101 0 382 38l26 -13q25 13 38 13l26 -38v-13q-135 -117 -447 -217h-38q-32 0 -306 102h-64q-38 -25 -153 -51q0 13 -13 13q0 -35 -127 -51q-107 64 -192 76z" />
<glyph unicode="&#xae;" horiz-adv-x="1798" d="M60 1530v38q71 354 217 510q264 281 472 281h102q167 0 395 -204q53 -57 255 -192q166 -259 166 -306q0 -36 51 -178q0 -153 -90 -242q-28 -96 -140 -204q0 -136 -268 -166q-245 -102 -382 -102h-38l-255 64h-26q0 40 -242 191q-217 217 -217 510zM239 1351 q78 -280 178 -280q132 -102 166 -102l115 229q-13 106 -64 294h13q-42 280 -77 280q-13 0 -38 13q0 -19 -38 -38q-77 51 -77 102q13 0 13 12h-13q-178 -265 -178 -459l12 -25zM443 1874h12q30 24 153 64q0 54 294 89q229 -49 229 -242v-26q-50 -229 -127 -229v-51h12 q0 -13 -12 -13q76 -127 76 -166q0 -12 -13 -12q39 -103 39 -166l25 13q17 -115 115 -115q242 171 242 421q0 12 -13 12l13 64v26q0 167 -178 420l-64 -12q-18 0 -102 102q-102 0 -128 38q-24 -13 -38 -13q-64 38 -102 38h-25q-212 0 -408 -229v-13zM710 905l90 -13h25 q53 0 268 51v13q-80 113 -204 395h-13q0 -67 -64 -344zM749 1823q58 -138 76 -140h13q17 38 102 166v25h-102q-69 0 -89 -51z" />
<glyph unicode="&#xb0;" horiz-adv-x="726" d="M60 1147q18 145 217 306h12q32 0 179 -102q73 0 115 -63q43 0 63 -153q-12 -50 -12 -102v-13q-29 0 -204 -166q-23 -13 -51 -13h-13q-214 0 -281 128zM200 1058q4 -25 26 -25h12q179 61 179 140l-51 102q-74 0 -166 -166v-51z" />
<glyph unicode="&#xb1;" horiz-adv-x="1632" d="M60 855q1 130 459 179v-13q102 0 102 242l38 191l-12 26l12 25q-25 166 -51 192v25h13q89 -72 153 -255l-13 -25q51 -124 102 -357h64q53 0 102 12q277 0 523 -191v-26l-255 -51q0 -34 -127 -76q0 -53 -268 -89q0 -22 -26 -204q54 0 600 -102h51q25 -4 25 -26v-51 l-102 -64q-166 -60 -166 -115q-25 0 -63 -51q-246 0 -434 51q-22 -12 -51 -12q-29 22 -344 51q-124 102 -179 102v12q182 205 383 205v63q0 179 -64 179q-162 51 -319 64q-136 89 -153 89z" />
<glyph unicode="&#xb4;" horiz-adv-x="601" d="M60 2564l291 297q35 35 55.5 47t40.5 12q33 0 53.5 -20t20.5 -51q0 -22 -15.5 -42t-46.5 -40l-330 -203h-69z" />
<glyph unicode="&#xb6;" horiz-adv-x="981" d="M60 1351q25 93 89 192q3 66 178 216h13l64 -12q0 29 64 38q114 -67 114 -230q0 -51 13 -51q-13 -38 -25 -38q12 -25 12 -38q-25 -42 -25 -77v-191q0 -13 -13 -13q26 -78 26 -102q-13 -114 -26 -114q0 -13 13 -13q0 -47 -38 -510q12 -99 38 -166l-13 -25q0 -13 13 -13 q-13 -153 -26 -153l13 -64v-153q26 -123 26 -140v-13h-39q-94 0 -204 727q-12 0 -25 38q0 13 13 13l-13 64v153q25 216 25 242v51q-89 0 -229 204q-36 99 -38 178zM608 319l13 25l-13 64q13 336 38 497l-13 26l39 255v102q0 11 25 102v38q0 42 -13 64l13 63l-13 166h13 l-13 26q13 22 13 51q92 0 128 -217q25 -216 63 -357l-12 -26l12 -76q0 -13 -12 -13l12 -25v-90q0 -28 13 -51q-9 -17 -25 -229q12 -113 12 -140q0 -16 -12 -128q12 -80 12 -178h-12q0 -13 12 -13l-12 -64v-102q0 -285 -77 -459v-153h-64q-114 48 -114 268v166q0 28 12 51 l-12 25q0 14 12 38z" />
<glyph unicode="&#xb7;" horiz-adv-x="625" d="M60 1109q61 242 243 242h63q153 0 153 -229l26 -166h-13l13 -25q-57 -141 -140 -141q0 -16 -90 -38q-229 55 -229 217q-16 0 -26 140z" />
<glyph unicode="&#x2022;" horiz-adv-x="625" d="M60 1109q61 242 243 242h63q153 0 153 -229l26 -166h-13l13 -25q-57 -141 -140 -141q0 -16 -90 -38q-229 55 -229 217q-16 0 -26 140z" />
<glyph unicode="&#xb8;" horiz-adv-x="548" d="M60 -290q85 -52 152 -52q66 0 94.5 21.5t28.5 66.5t-49 64q-40 16 -102 16q-16 0 -34 -2l48 176h63l-37 -104q32 4 62 5q86 0 134 -40.5t48 -113.5q0 -76 -58.5 -120.5t-160.5 -44.5q-109 0 -189 32v96z" />
<glyph unicode="&#x2c6;" horiz-adv-x="722" d="M60 2565l232 355h118l232 -355h-58l-233 216l-233 -216h-58z" />
<glyph unicode="&#x2dc;" horiz-adv-x="714" d="M60 2617q19 106 68 158.5t129 52.5q46 -1 113 -24q64 -23 112 -23h4q36 0 58 20t36 66h54q-20 -103 -68.5 -154t-126.5 -51h-4q-50 0 -113 23q-66 24 -114 24q-39 0 -60.5 -20.5t-33.5 -71.5h-54z" />
<glyph unicode="&#x2000;" horiz-adv-x="1566" />
<glyph unicode="&#x2001;" horiz-adv-x="3132" />
<glyph unicode="&#x2002;" horiz-adv-x="1566" />
<glyph unicode="&#x2003;" horiz-adv-x="3132" />
<glyph unicode="&#x2004;" horiz-adv-x="1044" />
<glyph unicode="&#x2005;" horiz-adv-x="783" />
<glyph unicode="&#x2006;" horiz-adv-x="522" />
<glyph unicode="&#x2007;" horiz-adv-x="522" />
<glyph unicode="&#x2008;" horiz-adv-x="391" />
<glyph unicode="&#x2009;" horiz-adv-x="626" />
<glyph unicode="&#x200a;" horiz-adv-x="174" />
<glyph unicode="&#x2010;" d="M-251 829v13q197 268 434 268q356 -140 434 -140q101 0 382 38l26 -13q25 13 38 13l26 -38v-13q-135 -117 -447 -217h-38q-32 0 -306 102h-64q-38 -25 -153 -51q0 13 -13 13q0 -35 -127 -51q-107 64 -192 76z" />
<glyph unicode="&#x2011;" d="M-251 829v13q197 268 434 268q356 -140 434 -140q101 0 382 38l26 -13q25 13 38 13l26 -38v-13q-135 -117 -447 -217h-38q-32 0 -306 102h-64q-38 -25 -153 -51q0 13 -13 13q0 -35 -127 -51q-107 64 -192 76z" />
<glyph unicode="&#x2012;" d="M-251 829v13q197 268 434 268q356 -140 434 -140q101 0 382 38l26 -13q25 13 38 13l26 -38v-13q-135 -117 -447 -217h-38q-32 0 -306 102h-64q-38 -25 -153 -51q0 13 -13 13q0 -35 -127 -51q-107 64 -192 76z" />
<glyph unicode="&#x2013;" horiz-adv-x="680" d="M-251 829v13q151 268 332 268q272 -140 331 -140q77 0 292 38l20 -13q19 13 29 13l20 -38v-13q-103 -117 -342 -217h-29q-24 0 -233 102h-49q-29 -25 -117 -51q0 13 -10 13q0 -35 -97 -51q-82 64 -147 76z" />
<glyph unicode="&#x2014;" horiz-adv-x="1704" d="M-251 829v13q301 268 663 268q544 -140 664 -140q154 0 583 38l40 -13q38 13 58 13l40 -38v-13q-206 -117 -683 -217h-58q-49 0 -468 102h-98q-58 -25 -234 -51q0 13 -19 13q0 -35 -195 -51q-163 64 -293 76z" />
<glyph unicode="&#x2018;" horiz-adv-x="536" d="M60 2683l13 115q-13 0 -13 12l77 128q34 21 89 140l77 51l63 -25q-51 -88 -51 -153v-39q119 -102 141 -102q-44 -280 -204 -280q-135 0 -192 153z" />
<glyph unicode="&#x2019;" horiz-adv-x="536" d="M60 2849q44 280 204 280q135 0 192 -153l-13 -115q13 0 13 -12l-77 -128q-34 -21 -89 -140l-77 -51l-63 25q51 88 51 153v39q-119 102 -141 102z" />
<glyph unicode="&#x201c;" horiz-adv-x="1090" d="M60 2683l13 115q-13 0 -13 12l77 128q34 21 89 140l77 51l63 -25q-51 -88 -51 -153v-39q119 -102 141 -102q-44 -280 -204 -280q-135 0 -192 153zM614 2683l13 115q-13 0 -13 12l77 128q34 21 89 140l77 51l63 -25q-51 -88 -51 -153v-39q119 -102 141 -102 q-44 -280 -204 -280q-135 0 -192 153z" />
<glyph unicode="&#x201d;" horiz-adv-x="1090" d="M60 2849q44 280 204 280q135 0 192 -153l-13 -115q13 0 13 -12l-77 -128q-34 -21 -89 -140l-77 -51l-63 25q51 88 51 153v39q-119 102 -141 102zM614 2849q44 280 204 280q135 0 192 -153l-13 -115q13 0 13 -12l-77 -128q-34 -21 -89 -140l-77 -51l-63 25q51 88 51 153 v39q-119 102 -141 102z" />
<glyph unicode="&#x2026;" horiz-adv-x="1766" d="M60 -292q61 107 272 166l34 -19q105 -84 105 -177q0 -50 -30 -102q-4 -82 -12 -96q-54 -93 -118 -93q-28 0 -58 18q-187 153 -187 241q0 21 10 38zM667 -292q62 107 273 166l33 -19q105 -84 105 -177q0 -50 -30 -102q-3 -82 -11 -96q-54 -93 -118 -93q-29 0 -59 18 q-187 153 -187 242q0 20 10 37zM1275 -292q61 107 272 166l34 -19q105 -84 105 -177q0 -50 -30 -102q-4 -82 -12 -96q-53 -93 -117 -93q-29 0 -59 18q-187 153 -187 241q0 21 10 38z" />
<glyph unicode="&#x202f;" horiz-adv-x="626" />
<glyph unicode="&#x205f;" horiz-adv-x="783" />
<glyph unicode="&#x20ac;" horiz-adv-x="1719" d="M-162 1263v13q0 21 230 51q0 13 13 13q12 0 12 -13q332 31 332 102v64q26 0 26 63v39q34 0 76 191q104 268 191 268q26 0 26 38h51q50 0 242 64q197 -31 243 -77l38 26h13q94 -153 114 -153q51 0 51 -64q243 -230 243 -306v-13q0 -28 -102 -51q-106 75 -115 89l-51 -25 q-14 0 -38 13q-51 -13 -90 -13q-35 0 -165 76l-64 -12q-45 12 -51 12q-140 -175 -140 -293q284 -93 344 -140v-13q0 -31 -140 -76q0 -51 -39 -64q0 -51 -114 -77h-102v-13q0 -12 12 -12l-12 -64v-26q23 0 102 -25q22 13 51 13h25q38 -13 38 -77v-13h-25v-12q89 -26 89 -51 v-26q0 -59 -64 -166h-89q-67 0 -217 13v-102q149 -177 166 -179h26q159 103 369 103q148 134 370 216q34 0 51 -76q-102 -109 -102 -255q0 -20 -25 -51v-64q-56 0 -141 -166q-94 -89 -216 -89q-45 0 -128 -64q-25 13 -38 13q-42 -26 -64 -26q-33 66 -230 128 q-165 97 -267 255q-179 161 -179 434q-83 34 -344 89q-51 38 -51 51v13h63q61 58 319 127v13l13 153q-536 101 -536 204z" />
<glyph unicode="&#x2122;" horiz-adv-x="2014" d="M60 1963v26q46 0 102 38q311 -25 344 -25q130 38 536 89v-51q-91 -153 -395 -153q0 -13 12 -13l-12 -178l12 -115q-12 -25 -12 -38q51 -236 102 -383q0 -25 -26 -25q-119 80 -191 344q-32 25 -38 166v89q0 22 -64 127v26l-26 -13h-51q-237 0 -293 89zM787 1823v13 q207 76 293 76q0 -52 64 -76h25q397 433 753 433l12 -25v-26l-255 -229q61 -146 77 -332l-38 -229q12 -22 12 -51q-25 -128 -63 -128h-13q-26 0 -38 153h12l-76 396h-13q-19 0 -64 -77l13 -25q-51 -93 -51 -102q38 -111 38 -128q-32 -25 -38 -25q-140 35 -140 51 q-204 146 -204 165h-13v-165q0 -13 13 -13q-13 -22 -38 -230h-39q-51 0 -89 230q13 22 13 51q0 13 -13 38q0 13 13 13l-13 64v102q0 22 -115 38z" />
<glyph unicode="&#x25fc;" horiz-adv-x="2295" d="M0 0v2295h2295v-2295h-2295z" />
</font>
</defs>
</svg>
